/* XPM */
static char *dnd_copy_xpm[] = {
/* columns rows colors chars-per-pixel */
"32 32 3 1",
". c Black",
"X c #FFFFFF",
"  c None",
/* pixels */
"                                ",
"                 .              ",
"                .X.             ",
"                .X.             ",
"                .X.             ",
"                .X.             ",
"                .X.             ",
"                .XX.            ",
"         ...  ...XX.            ",
"         .XX..XX.XX.            ",
"         .XX.XXX.XX.            ",
"         ..XX..X.XX.            ",
"          .XX. .XXX.            ",
"          .XX....XXX.           ",
"          .XX...XXXX.           ",
"          .XXXXXXXXX.           ",
"          .XXX..XXX.            ",
"          .XXX..XXX.            ",
"          .X......X.            ",
"          .X......X.            ",
"           .XX..XXX.            ",
"           .XX..XX.             ",
"           .XXXXXX.             ",
"           .XXXXXX.             ",
"           .XXXXX..             ",
"          .......X.             ",
"         .XXXXXXXXX.            ",
"        .XX.XXXXX...            ",
"        ...........             ",
"        ..........              ",
"        .                       ",
"                                "
};
