/* XPM */
static char *dnd_none_xpm[] = {
/* columns rows colors chars-per-pixel */
"32 32 3 1",
". c Black",
"X c #FFFFFF",
"  c None",
/* pixels */
"                                ",
"                 .              ",
"                .X.       X     ",
"    .X          .X.      X.     ",
"     .X         .X.     X.      ",
"      .X        .X.    X.       ",
"       .X       .X.   X.        ",
"        .X      .XX. X.         ",
"         .X.  ...XX.X.          ",
"         ..X..XX.XXX.           ",
"         .X.XXXX.XX.            ",
"         ..X.X.X.X..            ",
"          .XX.X.X.X.            ",
"          .XX..X.XXX.           ",
"          .XX.X.XXXX.           ",
"          .XXX.X.XXX.           ",
"          .XX.XXX.X.            ",
"          .X.XXXXX.X            ",
"          X.XXXXXXX.X           ",
"         X.XXXXXXXX..X          ",
"        X. .XXXXXXX. .X         ",
"       X.  .XXXXXX.   .X        ",
"      X.   .XXXXXX.    .X       ",
"     X.    .XXXXXX.     .X      ",
"    X.     .XXXXX..      .X     ",
"    .     .......X.       .     ",
"         .XXXXXXXXX.            ",
"        .XX.XXXXX...            ",
"        ...........             ",
"        ..........              ",
"        .                       ",
"                                "
};
