/* XPM */
static char * down_xpm[] = {
"16 15 3 1",
" 	c None",
".	c Black",
"X	c #9c9c9c",
"                ",
"     ......     ",
"     .XXXX.     ",
"     .XXXX.     ",
"     .XXXX.     ",
"     .XXXX.     ",
"     .XXXX.     ",
"     .XXXX.     ",
"  ....XXXX....  ",
"   .XXXXXXXX.   ",
"    .XXXXXX.    ",
"     .XXXX.     ",
"      .XX.      ",
"       ..       ",
"                "};
