/* XPM */
static char *fileclose_xpm[] = {
/* columns rows colors chars-per-pixel */
"16 15 63 1",
"l c Black",
"s c #0F0F0F",
"p c #1E1E1E",
"A c #2D2D2D",
"@ c #969696",
"0 c #B4B4B4",
"M c #080808",
"c c #262626",
"B c #353535",
"  c None",
"7 c #535353",
"= c #626262",
"& c #9E9E9E",
"Z c #3D3D3D",
"> c #888888",
"e c #979797",
"2 c #C4C4C4",
"8 c #090909",
"o c #181818",
"$ c #272727",
"n c #AEAEAE",
"i c #BDBDBD",
"* c #3E3E3E",
"; c #6B6B6B",
"t c #191919",
"b c #737373",
"j c #A0A0A0",
"4 c #121212",
"w c #212121",
"d c #1A1A1A",
"3 c #A1A1A1",
"x c #BFBFBF",
", c #222222",
"O c #404040",
"% c #4F4F4F",
"z c #5E5E5E",
"N c #7C7C7C",
"v c #A9A9A9",
"h c #B8B8B8",
"+ c #0C0C0C",
"r c #1B1B1B",
"6 c #666666",
"C c #848484",
"- c #C0C0C0",
": c #050505",
"D c #141414",
"q c #232323",
"S c #414141",
"9 c #B9B9B9",
"< c #1C1C1C",
"X c #494949",
"V c #585858",
"m c #151515",
"# c #242424",
"u c #333333",
"5 c #ABABAB",
"y c #BABABA",
"k c #0E0E0E",
"a c #1D1D1D",
"g c #3B3B3B",
". c #595959",
"f c #C2C2C2",
"1 c #9D9D9D",
/* pixels */
"                ",
" .X          oO ",
" +@#.      $%&* ",
"  =-;+    :>-,  ",
"  <1234  :5-67  ",
"   89-0qw--er   ",
"    t---y--+    ",
"     ui---p     ",
"     a----a     ",
"    +------s    ",
"   de-fg#h-jk   ",
"  lz2xc  :v-bl  ",
"  d-nm    MN-B  ",
" VeCM      *Z3A ",
" S<          Dp "
};
