/* XPM */
static char *indent_xpm[] = {
/* columns rows colors chars-per-pixel */
"16 15 70 1",
"w c #D9D9D9",
"6 c #2D2D2D",
"v c #4B4B4B",
"k c #B4B4B4",
"J c #171717",
"= c #E1E1E1",
"  c None",
"i c #DADADA",
": c #E9E9E9",
"j c #2E2E2E",
"8 c #4C4C4C",
"n c #6A6A6A",
"B c #D3D3D3",
"P c #181818",
"< c #E2E2E2",
"3 c #272727",
"* c #F1F1F1",
"x c #727272",
"u c #CCCCCC",
"m c #DBDBDB",
"; c #EAEAEA",
"C c #2F2F2F",
"l c #4D4D4D",
"& c #0A0A0A",
". c #E3E3E3",
"D c #282828",
"% c #373737",
"7 c #DCDCDC",
"S c #212121",
"g c #303030",
"+ c #FAFAFA",
"c c #B7B7B7",
"2 c #C6C6C6",
"q c #D5D5D5",
"o c #E4E4E4",
"# c #383838",
"G c #565656",
"h c #313131",
"1 c #4F4F4F",
"K c #5E5E5E",
"A c #C7C7C7",
"f c #D6D6D6",
"F c #E5E5E5",
", c #575757",
"@ c #050505",
"s c #141414",
"0 c #DEDEDE",
"N c #232323",
"5 c #323232",
"O c #FCFCFC",
"b c #505050",
"Z c #D7D7D7",
"X c #E6E6E6",
"9 c #DFDFDF",
"H c #EEEEEE",
"4 c #333333",
"e c #515151",
"d c #6F6F6F",
"M c #BABABA",
"p c #D8D8D8",
"> c #E7E7E7",
"V c #2C2C2C",
"L c #595959",
"a c #B3B3B3",
"r c #C2C2C2",
"y c #E0E0E0",
"$ c #343434",
"z c #434343",
"- c #525252",
"t c #707070",
/* pixels */
"  .XXXXXXXXXXoO ",
"+@#$$$$$$$$$$%&*",
"=-;;;;;;;;;;:>,<",
".1234444444567-.",
".890qqqqqqqqqwe.",
".1rtyuui7777ipe.",
".easdyf4g55hj0-.",
".eklzxfffffffwe.",
".ecvbnfm7777mpe.",
".eMN1=BVjCCjV9-.",
".1rh0uuZZZZZZwe.",
".80;7mm77777mpe.",
".1ASjjjjjjj6D7-.",
"<b>XXXXXXXXXFoG<",
"HJKLLLLLLLLLLKPH"
};
