/* XPM */
static char *Mad_xpm[] = {
/* columns rows colors chars-per-pixel */
"48 48 206 2",
"&X c #EDE6D1",
"w. c #3C3C35",
"L. c #160A0A",
"H. c #5F5E56",
"I  c #878476",
",X c #270D0D",
"f  c #B4AE9A",
"*. c #0D0F0C",
";  c #B9B5A7",
"M. c #D2CCB7",
"~. c #2B2D2A",
"R. c #35352E",
"g. c #3A3932",
"5  c #8C8276",
"*  c #190E0F",
"e. c #807D6F",
"K. c #200604",
"u. c #9E9B8D",
"k. c #1E0C07",
"Q  c #0D0605",
":  c #BCB9AA",
"O  c #A39F91",
"X. c #7D6D63",
"z  c #CBC8B9",
"9  c #372624",
"<  c #BCB6A2",
"#  c #C1BAA6",
"5. c #DFDBCC",
"{. c #EEE7D2",
"@. c #292A28",
">X c #302521",
"f. c #33322B",
"G  c #857B6F",
"m. c #888578",
"1X c #1E0301",
"(  c #24201F",
";X c #5C3630",
"A  c #9C988B",
"d  c #B5AF9B",
"'  c #D3CDB8",
".. c #C9C5B7",
"d. c #131412",
"y  c #D8D1BD",
"`. c #45453D",
"F. c #7E7468",
" X c #4A4942",
"H  c #68675F",
":. c #726F62",
"%. c #130E0C",
"R  c #27211C",
"9. c #020501",
"=X c #320D0E",
"g  c #AEA894",
"$. c #070905",
",  c #BDB7A3",
"W  c #161815",
"0  c #C2BEB0",
"v. c #DBD5C0",
"[  c #252724",
"%X c #EFE8D4",
"F  c #52514A",
"<X c #130506",
"=  c #B3A694",
"OX c #989587",
"$  c #110B09",
"%  c #350E0A",
"S. c #070000",
"b  c #B6B09C",
"!  c #000200",
"i  c #C5BFAB",
"#. c #D4CEB9",
"XX c #E8E4D5",
"&. c #D9D2BE",
"i. c #8E8478",
"W. c #290602",
">. c #4B4A43",
"`  c #696860",
"+X c #827F71",
"u  c #CABDAB",
"J  c #A09A86",
"q  c #BEBBAC",
"t  c #AFA996",
"O. c #DCD6C1",
"c  c #C3BCA8",
"}. c #EBE8D9",
"E  c #1C1D1B",
"B. c #1B0400",
"j. c #44433C",
"D. c #62615A",
"=. c #7B786B",
"X  c #140607",
"N  c #A8A28F",
"v  c #B7B19D",
"G. c #10120F",
"^  c #C6C0AC",
"-X c #62231A",
"y. c #534C46",
"-. c #DAD3BF",
"L  c #2E2D26",
"K  c #71675C",
"   c None",
"l. c #511A14",
"D  c #4C4B44",
"2. c #5B5A52",
"8. c #747164",
".  c #120303",
"&  c #2D1415",
"_. c #A19E90",
"~  c #040702",
"p  c #C1B3A1",
"I. c #979385",
"h. c #090B07",
"}  c #C4C0B2",
";. c #DDD7C2",
"1. c #E2DBC6",
".X c #F1EDDE",
"J. c #170104",
"q. c #54534B",
"/. c #6D6A5D",
"(. c #8B887A",
"3  c #B8B29E",
"+  c #AEAA9C",
"x  c #C7C1AD",
"l  c #D6D3C4",
"z. c #D0B39F",
"C  c #CCC5B1",
"b. c #2F312E",
"*X c #EAE6D7",
"4. c #81776B",
"/  c #5C5B54",
"T  c #757264",
"P  c #2A241F",
"7. c #050804",
"s  c #A7A395",
"r  c #B1AB97",
"w  c #B6B2A4",
"k  c #DED8C3",
"x. c #E3DCC7",
"+. c #1E1F1D",
"s. c #414139",
"o. c #505048",
"|  c #55544D",
"^. c #8C897B",
"r. c #918D7F",
"o  c #0A0301",
"B  c #AAA491",
"2  c #B9B39F",
"p. c #C8C2AE",
"#X c #E6E0CB",
"V. c #CDC6B2",
"'. c #EBE4CF",
"C. c #2A1515",
" . c #585850",
"t. c #4E4D46",
"@X c #858274",
"6. c #949183",
"7  c #3A342E",
"n  c #B2AFA1",
"4  c #B2AC98",
"3. c #0B0D0A",
"m  c #B7B3A5",
"Y  c #D0CAB5",
"3X c #672618",
"{  c #C6C2B4",
"a. c #E4DDC9",
"8  c #352A26",
"c. c #606058",
"S  c #65645C",
"T. c #AC8978",
"0. c #7E7B6D",
"2X c #621C13",
"N. c #21110D",
"h  c #ABA899",
"n. c #0B0403",
"e  c #B0AC9E",
"@  c #BAB4A0",
"Z  c #C9C3AF",
"Z. c #3B0601",
"$X c #E7E1CC",
"V  c #CEC7B3",
"U. c #9E8D83",
"|. c #ECE5D0",
"<. c #403F38",
"_  c #6D6C64",
")  c #777467",
"!. c #9A9689",
"M  c #A9A597",
"-  c #B3AD99",
"]  c #090100",
"U  c #D1CBB6",
"E. c #E5E1D2",
"]. c #E5DECA",
"P. c #6A5346",
"Y. c #57564E",
"). c #66655D",
"a  c #B8AB99",
":X c #291011",
"[. c #9D9A8C",
",. c #342E28",
"Q. c #938F82",
"A. c #2B0402",
"j  c #ACA692",
"6  c #6D5D54",
"1  c #BBB5A1",
">  c #C0B9A5",
"oX c #E8E2CD",
/* pixels */
"                                                                                                ",
"                                              . X o                                             ",
"                    O + @ #                 $ % & * o                                           ",
"                    = - ; : > , , < 1 2 3 4 5 6 7 8 8 9                                         ",
"                  0 > > # q # q : : ; ; w e - r 4 e t r - w w w                                 ",
"                  y u i u u 0 p p p p p p a = s s r d w w a a a f - 4 r t g h j j h +           ",
"                  k l z x u c , w v b w 1 n = = = + a p ; ; m w w w e + M = + M = N B           ",
"                  l y V C Z c m A S D F S G H n e p ; m , < 1 p a J K L P I a a h = M           ",
"                y V U z Y z x T R E W Q ! ~ R ^ # # # # # > ; v / ( ) _ ` + n - e 4 r           ",
"                y y y y ' V S K ; ^ p e 7 ] [ ' z { } 0 c c < | Q  .; , p v p w b e e           ",
"                l ..y y y X.o.y O.O.y : +.Q @.y #.V C u u : / $.%.O : ; ; 2 a m p p 3           ",
"                &.&.&.l M *.=.l -.;.&.:.>.*.,.' y U C ..0 K %.! <.p p < p ; > p w w m           ",
"              1.1.l -.-.2.3.4.5.-.5...,.6.7.,...y z V Z 8.F ( 9.0.s + b 1 ; , 1 @ p <           ",
"              -.&.1.1.1.7 ] | &.5.&.G q.s Q w.y ..y U e.q.r.$.@.+ e r e w < : # : : :           ",
"              5.&.&.l 5.t.y.e &.-.y ,.+ u.] <.&.y l i.y.p.y.Q 0.' ..^ p u # c u # u #           ",
"              &.a.5.1.&.V &.1.1.5.i.>.&.6.9.y.&.l J s.0 u W d.u -.&.l ' { x } i } # +           ",
"            y l -.-.1.5.-.-.l y z f.O -.i.] y.-.M g.< &.=.h.j.y -.1.l y z V C p.} u = k.        ",
"          l.z.1.x.5.5.-.1.1.y y 5 j.&.5.=.3.c.; 7 e v.l b.n.m.u V V y y y M.z C C p.; N.B.      ",
"        X N.u 5.1.1.1.-.-.-.y p ,.M -.5.` $ y.7 O -.-.O 3.( ; u u V V V l V ..Y V.u : C.Z.A.    ",
"      o S.( -.-.a.-.a.a.5.5.l D.F.5.x.-./ 9.G.5 l 5.1.y.! H.&.l l ..z y V y u w z Y a J.. K.L.  ",
"    . ] . P.a.a.a.-.5 F.I.U.o._ &.5.x.1.y.Q Y.-.1.-.u W h.M -.v.y &.l &.&.N I.a z #.a . J.B.S.  ",
"  J.. S.A.T.a.a.a.5 %.%.%.R.A 1.E.1.1.1.b.b...x.1.1.0.Q P y ; I.F.u &.l u y.u l y z + $ W.] $.  ",
"  W.k.S.J.m a.-.5.e Q.!.w l E.x.x.5.5.-.G u 5.5.1.l ~.3.,.m X.l y.u p ^.` /.&.&.&.y U.. ] ]     ",
"  S.J.B.( &.a.E.5.l u u q u V y l &.-.x.5.x.x.1.5.M $ 3.*.,._ (.H.l / u :.+ k l &.&.F.. ]       ",
"    n.S.y.5.1.x.1.5.5.x.x.5.-.&...V u x u u u y y 0 )._ =.[ w.b.X._.o.: `...&.5.l -.F.9.        ",
"      S.U.1.a.x.5.x.x.'.E.].].x.1.5.5.5.5.5.5.l l ' u V ; [.e 6.w t D.A j.a &.-.1.1.=.          ",
"        u -.a.&.u u ..&.-.-.u + J 6 = O > 1.x.1.x...A 1.1.-.&.y #.u a ; M u 1.-.-.5.            ",
"        5.].E.].5.l 1.l ..w y.u i.S z O M 5.1.5.I.= &.Q.u x.5.l 5.&.y V U l y 5.1.1.            ",
"      {.}.'.|.'.'.].'.'.].} I.5. X; -.-.&.u = i.`.m l M ..y u &.x.5.x.5.&.l &.1.-.1.            ",
"      .X{.XXXX].].'.'.].'.oXE.O S p u E.x.O OXH +XV @XU.V O / u z u ..u ..u -.5.5.5.            ",
"      }.'.|.|.1...u u ..y V l /.} E.x.l u / l | ..1.S 0 y / m...'.'.5.-.y ..V 1.1.1.            ",
"      ].].x.E.5.].E.5.x.l u K G !.O + K H 5 O | y ../ 1.l y.l #XE.].x.].a.1.1.5.-.l             ",
"    '.'.E.x.x.].].$X'.XXXXXX5.z e A e 5.Q.r.F.D.= 0.| + U.c.V &.x.].1.5.1.-.y -.V V             ",
"    XX%X{.&X..1.1.x.E.'.'.'.'.|.{.{.}.{.XX*X5.5.E.m 2 ;.[.| M u ..; u u a.-.V u p ;             ",
"    XX}.%X%XE.5.l V ..-.l 5.l 5.E.].XX|.&X{.{.'.XX'.'.E.'.E.5.].].5.1.5.].a.l #.V.u             ",
"    %X%X.X.X.X.X.X.X{.XX&.1.V V u ..; u u ..l 5.'.5.E.'.x.].'.'.].x.a.x.5.5.x.5.1.O.            ",
"  }.%X%X%X%X%X.X%X%X%X.X*X}.}..X&X}.E.XX1.1.&.u -.u u u u u V x.l 5.x.1.x.].x.5.5.x.            ",
"  {.%X%X%X%X%X%X%X.X%X%X{.{.{.|.}.{.&X}.XXXX*XXX}.XXXXXX5.5.l 5.V u u u u -.'.].].E.            ",
"              .X{..X%X%X%X%X}.{.}.}.{.}.{.{.%X|.&X{.|.&X&X'.'.%X*XXXE.E.5.E.'.'.x.#X            ",
"                                X.T.z.x.%X}.XX}.}.*X*X*XXX%X}.].XX'.XX'.'.].'.].'.E.            ",
"                                  =X-X;X;XX.U.p l x.&X}.%X*X%X{.%X|.XX%X|.E.|.E.'.oX            ",
"                                    :X% * L.& ( 9 >XX.M U.%X%X%X%X%X'.E.%X|.XX'.].E.            ",
"                                      :XC.k.,X:X<XS.$ Q                     XXXX'.'.            ",
"                                        J.C.K.. 1X* ]                                           ",
"                                          =XN.% 2X$                                             ",
"                                            C.3X$                                               ",
"                                            n.J.Q                                               ",
"                                                                                                "
};
