/* XPM */
static char *Mad_16x15_xpm[] = {
/* columns rows colors chars-per-pixel */
"16 15 165 2",
"n. c #FCFBF4",
"9  c #413D32",
"a  c #464136",
"Z  c #28231F",
"t  c #69604A",
"&  c #645C49",
"U  c #A09577",
"#. c #B9AF94",
"l. c #D7D0B9",
"~  c #676357",
"g  c #6C644F",
"q. c #767267",
"*  c #5D5544",
"o  c #80745A",
"4. c #C1B79D",
"Q  c #E4DFCD",
"V. c #010101",
"B. c #DFDBD0",
"F. c #9E9892",
",  c #6F654E",
"c  c #A69D83",
"i  c #B5AC92",
"y  c #C4BBA0",
"u. c #BAB095",
"D  c #CEC6AD",
">. c #1D1C18",
"M. c #FBF9F0",
"d. c #FBF9F2",
"p. c #2C2B28",
">  c #312C22",
"r. c #5E5C54",
"X. c #636055",
"@. c #9A9279",
"X  c #867C62",
"2  c #685E49",
"6  c #A49A7E",
"d  c #A99E80",
"x. c #9A8F75",
"2. c #C7BFA7",
"R  c #090000",
"{  c #E0D9C4",
"t. c #EAE4D3",
"+. c #161512",
"   c None",
"I. c #0E0100",
"v  c #433F34",
".. c #706C5E",
"`  c #6B6555",
"$  c #5C5341",
" . c #989280",
")  c #938E7F",
"f  c #A2977A",
"w  c #897D61",
"$. c #BBB196",
"1. c #1E1D19",
"s  c #23211B",
"r  c #28251C",
";  c #2D291F",
"b. c #FCFAF4",
"u  c #4B473B",
"S  c #37342E",
"K  c #6E6959",
"f. c #6E6C66",
"]  c #3C352B",
"6. c #B4B0A2",
"J  c #C8C0A6",
"H. c #CDCAC0",
"W  c #DCD6C3",
"=. c #F0ECDD",
"A. c #E1DAC7",
"*. c #F0ECDE",
"0  c #1C1A15",
"P  c #302D24",
"7  c #585345",
":. c #625E55",
"G  c #7B7564",
"T  c #080101",
"A  c #A8A290",
"m  c #ADA387",
"a. c #B2B0A8",
"i. c #2E2D2A",
"3  c #332E24",
"0. c #514F49",
"Y  c #423A2D",
"@  c #564D3B",
"+  c #6F644D",
"C  c #4C4234",
"|  c #ABA698",
"h. c #F1EDDE",
"L. c #F1EDDF",
"j. c #272622",
":  c #27231B",
"M  c #4F493C",
"k. c #817D70",
"^  c #868172",
"B  c #958A6D",
"<  c #776C53",
"-  c #867B60",
"7. c #908C81",
"3. c #B8AF93",
"k  c #7C7057",
"5. c #C7C4B8",
",. c #C7C1AF",
"y. c #D1C9B2",
"S. c #DBD4BF",
"&. c #F4F1E6",
"-. c #757269",
"[  c #938D7D",
"l  c #BBB39D",
"8. c #C0BDB4",
"h  c #050504",
"4  c #1E1C15",
"J. c #EDEAE0",
"C. c #282722",
"N. c #F7F5EC",
"N  c #0F0D0B",
"b  c #322F27",
"F  c #696454",
"5  c #3C372D",
"Y. c #1D0301",
"#  c #4B4334",
"'  c #AFA588",
"G. c #C8C5BB",
"g. c #F0EEE4",
"K. c #F5F2E6",
"v. c #FAF9F2",
"z  c #171512",
"_  c #58554C",
"L  c #676150",
"j  c #534B3A",
"V  c #8F8466",
"q  c #9E9374",
"=  c #A89E80",
"1  c #71664F",
"z. c #C1B89E",
"<. c #B2AC9B",
"O. c #D5CEB7",
"w. c #E4DDCA",
"9. c #F8F6EC",
"U. c #0D0100",
"D. c #826F6A",
"E  c #62574F",
"/  c #565248",
"e. c #6F6C62",
"o. c #656156",
"!  c #ECE8D7",
"P. c #0B0101",
"m. c #FBFAF2",
"c. c #FBFAF3",
".  c #040000",
"8  c #86806E",
"%  c #685F4B",
"I  c #A99F81",
"(  c #A9A28F",
"n  c #B8AE92",
"p  c #C2B99E",
"}  c #EAE5D3",
";. c #EAE5D5",
"s. c #F9F7ED",
"H  c #434036",
"e  c #433D2F",
"Z. c #757165",
"%. c #615B4D",
"O  c #756B52",
"x  c #BBB296",
/* pixels */
"                .               ",
"      X o O + @ # $ % & *       ",
"      = - ; : > , < 1 2 3 4 5   ",
"      6 7 8 9 0 q w < e r t     ",
"    y u i p a s d f g h j k     ",
"    l z x c v b n m M N B V C   ",
"  Z A S D F G H J K L P I U Y T ",
"R E W Q ! ~ ^ / ( ) _ ` n ' ]   ",
"  [ { } |  ...X.o.O.+.@.#.$.%.  ",
"  &.*.=.-.;.:.>.,.<.1.2.3.4.    ",
"  5.6.7.8.9.0.q.w.e.r.t.y.u.    ",
"  i.p.a.s.d.f.g.h.j.k.l.z.x.    ",
"c.v.b.n.m.M.N.s.B.V.C.Z.A.S.    ",
"            D.F.G.H.J.K.L.}     ",
"            P.I.U.              ",
//"              Y.                "
};
