/* XPM */
static char *null_xpm[] = {
/* columns rows colors chars-per-pixel */
"16 15 2 1",
". c Black",
"  c None",
/* pixels */
"                ",
"                ",
"                ",
"                ",
"                ",
"                ",
"                ",
"       ....     ",
"       .  .     ",
"       .  .     ",
"       ....     ",
"                ",
"                ",
"                ",
"                "
};
