/* XPM */
static char *uncomment_xpm[] = {
/* columns rows colors chars-per-pixel */
"16 15 84 1",
"c c #CACACA",
"~ c #D9D9D9",
"W c #1E1E1E",
"* c #E8E8E8",
"h c #696969",
", c #C3C3C3",
"& c #E1E1E1",
"M c #262626",
"n c #353535",
"  c None",
"9 c #535353",
"J c #717171",
"R c #808080",
"I c #8F8F8F",
"b c #9E9E9E",
"k c #BCBCBC",
"^ c #010101",
"2 c #E9E9E9",
"U c #5B5B5B",
"g c #6A6A6A",
"P c #797979",
"d c #A6A6A6",
") c #090909",
"T c #363636",
"A c #454545",
"< c #545454",
". c #9F9F9F",
"a c #BDBDBD",
"N c #DBDBDB",
"y c #3E3E3E",
"m c #7A7A7A",
"8 c #B6B6B6",
"i c #C5C5C5",
"E c #191919",
"t c #464646",
"= c #555555",
"D c #646464",
"# c #919191",
"O c #A0A0A0",
"q c #BEBEBE",
"% c #3F3F3F",
"K c #7B7B7B",
"; c #A8A8A8",
"u c #B7B7B7",
"0 c #C6C6C6",
"1 c #E4E4E4",
"S c #474747",
"3 c #565656",
"f c #656565",
"L c #747474",
"X c #929292",
"r c #A1A1A1",
"Q c #222222",
"@ c #404040",
"C c #4F4F4F",
"6 c #5E5E5E",
"> c #A9A9A9",
"B c #E5E5E5",
"s c #F4F4F4",
"e c #575757",
"H c #939393",
"p c #C0C0C0",
"j c #5F5F5F",
": c #AAAAAA",
"+ c #E6E6E6",
"7 c #585858",
"/ c #676767",
"F c #858585",
"o c #949494",
"4 c #A3A3A3",
"- c #C1C1C1",
"z c #606060",
"$ c #8D8D8D",
"v c #9C9C9C",
"! c #2C2C2C",
"5 c #595959",
"Z c #686868",
"Y c #777777",
"G c #868686",
"V c #959595",
"l c #B3B3B3",
"x c #434343",
"w c #525252",
"( c #8E8E8E",
/* pixels */
" .XoooooooooXO  ",
"+@#$$$$$$$$$#%& ",
"*=-;:::::::>,<1 ",
"234566666667891 ",
"2<-000000000qw1 ",
"2er%tttttttyu<1 ",
"2<-iiiii0paaa9s ",
"23dfggghj:kl-zxc",
"23qvbb.bnymcX@MN",
"B@#$$$$VCZ3ASDD ",
" VFGGGGGH9JKLA  ",
"         P=IUY  ",
"        qTREJxV ",
"        WhQ x9!s",
"       ~^/   ()8"
};
