/* XPM */
static char *unindent_xpm[] = {
/* columns rows colors chars-per-pixel */
"16 15 69 1",
"e c #D9D9D9",
"6 c #2D2D2D",
"V c #3C3C3C",
"a c #D2D2D2",
"H c #171717",
"= c #E1E1E1",
"  c None",
"u c #CBCBCB",
"p c #DADADA",
": c #E9E9E9",
"g c #2E2E2E",
"8 c #4C4C4C",
"v c #C4C4C4",
"L c #181818",
"< c #E2E2E2",
"3 c #272727",
"* c #F1F1F1",
"i c #636363",
"x c #818181",
"9 c #DBDBDB",
"; c #EAEAEA",
"M c #2F2F2F",
"j c #4D4D4D",
"& c #0A0A0A",
"N c #D4D4D4",
". c #E3E3E3",
"A c #282828",
"% c #373737",
"7 c #DCDCDC",
"Z c #212121",
"d c #303030",
"+ c #FAFAFA",
"n c #3F3F3F",
"2 c #C6C6C6",
"0 c #D5D5D5",
"o c #E4E4E4",
"# c #383838",
"F c #565656",
"c c #DDDDDD",
"f c #313131",
"1 c #4F4F4F",
"J c #5E5E5E",
"C c #C7C7C7",
"z c #D6D6D6",
"D c #E5E5E5",
"s c #2A2A2A",
", c #575757",
"@ c #050505",
"h c #DEDEDE",
"b c #232323",
"5 c #323232",
"O c #FCFCFC",
"S c #505050",
"q c #D7D7D7",
"X c #E6E6E6",
"k c #2B2B2B",
"w c #DFDFDF",
"G c #EEEEEE",
"4 c #333333",
"r c #515151",
"B c #ABABAB",
"t c #D8D8D8",
"> c #E7E7E7",
"m c #2C2C2C",
"K c #595959",
"l c #777777",
"y c #D1D1D1",
"$ c #343434",
"- c #525252",
/* pixels */
"  .XXXXXXXXXXoO ",
"+@#$$$$$$$$$$%&*",
"=-;;;;;;;;;;:>,<",
".1234444444567-.",
".890qw0000000er.",
".8tyuiqp7777ptr.",
".87as4X4d55fgh-.",
".jpkl#7zzzzzzer.",
".jp3x#7977779tr.",
".8cvbn.mgMMgmw-.",
".8tNBVpqqqqqqer.",
".899=:9777779tr.",
".1CZggggggg6A7-.",
"<S>XXXXXXXXXDoF<",
"GHJKKKKKKKKKKJLG"
};
