/* XPM */
static char *madedit_xpm[] = {
/* columns rows colors chars-per-pixel */
"48 48 7 1",
". c Black",
"+ c #FFFFFF",
"O c #808080",
"  c None",
"X c #800000",
"o c #FF0000",
"@ c #C0C0C0",
/* pixels */
"    ....................................        ",
"   ..XXXXXXXXXXXXXXXXXXXXXXXXXXXXXXXXX....      ",
" ...oooooooooooooooooooooooooooooooooXXXX...    ",
" .XXo..XoooooX....ooooooooooooooooooooooXXX...  ",
"..X....XXooXXX.O..ooooooXXXXXooooXXXXXooooXXX.. ",
"...OOOO..oXX..O+O.oooooo....Xoooo....XooooX..X. ",
".O@++++@O...++++@@.Xo...O@+......O@+..XX....O...",
".O@++++@@..O+++++@..XOOO@@+...OOO@@+OX..OO@@@O..",
".O++++++O.O+++++++...@@++++...++++++@O.O@+++++O.",
".O+++++@@.O+++++@@.O+++++++.O@+++++++O.+++++++O.",
".O+++++@@.O+++++@O.O+++++++.O@++++++@O.++++++@O.",
".O+++++@@.O+++++@O.O+++++++.O@++++++@O.++++++O..",
".O+++++@@.O+++++@O.O+++++@@.O@+++++++O.@@++++O. ",
".O+++++@O.O+++++@O.O+++++@@.O@++++++@O.O@++++O. ",
".O+++++@O.O+++++@O.O+++++@@.O@++++++@O..@++++O. ",
".O+++++O..O+++++@O.O+++++@O.O@++++++@O..@++++O. ",
".O+++++O..O+++++O..O+++++O..OO++++++@O..@+++@O. ",
".O+++++O..O+++++O..O+++++O...O++++++@O..@+++OO. ",
".O++++O...O@+++@O..O++++@O. ..++++++O...@+++O.. ",
".O++++.. ..O+++O...O@++@O..  .@@++++.. .@+++O.  ",
"..O+++.   ..@+@.. ..O+@@..   .O@++++.. .@++OO.  ",
" .O@++.    ..O..   ..O...    ...OO...  .@++O..  ",
" ..@++.     ...     ...        ....   ..@+OO.   ",
"  .O++..                              .O@+O..   ",
"  .OO+O.                              .O@OO.    ",
"   .OOO.                              .......   ",
"   ..O..                                  .+.   ",
"    .....                                 .+..  ",
"     ..@.      .       ...      .....    ..++.. ",
"    ..+@.    .....   ...O...   ..OOO.    .O++O. ",
"   ..++@.   ..O+O.   .O@+++.  ...+++..   .O++@..",
"  ..O++@.   .O@+O.  ..O@+++.. ..O+++O..  .O++@O.",
"  .OO++@.. ..O++O.. .O@++++....O++++@O.  .@++@O.",
"  .O+++@@. .@@++@O. .++++++O..O@+++++O.  .@++@O.",
" O.O+++@@. .@+++@O...++++++OO.O@+++++O.. .@+++O.",
" O.O++++@...++++@O..O++++++@O.@@+++++@O...@+++O.",
" ..O++++@..O++++@O.O@++++++@O.@@+++++@O..O++++O.",
" .OO++++@..O++++@O.O@++++++@O.@@+++++@O.OO++++O.",
" .O@++++@..O++++@O.O+++++++@O.@@+++++@O.O@++++O.",
" .O+++++@.O@++++@O.O++++++++O.+++++++@O.O+++++O.",
"..O+++++@.O@++++@O.O@+++++++O.@++++++@O.O++++O..",
".O@++++++.O@++++@O.O@+++++++O.@@+++++@O.O++++.. ",
".O+++++@O..O+@@...X..@@++@@....O++++@O.O@++O... ",
"..XX@@OO.XX.OOO.XXXXXOOOOOO.XX..OOOOOX..O@OX... ",
" ..oXO...oX....XXoooo......XXo........X..O..X.  ",
"  .Xoooooooooooooooooooooooooooooooooooooooo..  ",
"   ..XXXXXXXXXXXXXXXXXXXXXXXXXXXXXXXXXXXXX...   ",
"    .......................................     "
};
