/* XPM */
static char * bmkclearall_xpm[] = {
"16 15 52 1",
" 	c None",
".	c #3F48CC",
"+	c #ED1C24",
"@	c #00A2E8",
"#	c #99D9EA",
"$	c #BA4025",
"%	c #5F5F5F",
"&	c #AAAAAA",
"*	c #606060",
"=	c #434343",
"-	c #666FD7",
";	c #9E9E9E",
">	c #353535",
",	c #3E3E3E",
"'	c #7A7A7A",
")	c #D3EFF5",
"!	c #929292",
"~	c #404040",
"{	c #262626",
"]	c #A4A9E8",
"^	c #4F4F4F",
"/	c #686868",
"(	c #565656",
"_	c #454545",
":	c #474747",
"<	c #646464",
"[	c #939393",
"}	c #535353",
"|	c #717171",
"1	c #7B7B7B",
"2	c #747474",
"3	c #797979",
"4	c #555555",
"5	c #8F8F8F",
"6	c #5B5B5B",
"7	c #777777",
"8	c #00A1E8",
"9	c #BEBEBE",
"0	c #363636",
"a	c #808080",
"b	c #191919",
"c	c #959595",
"d	c #1E1E1E",
"e	c #696969",
"f	c #222222",
"g	c #2C2C2C",
"h	c #D9D9D9",
"i	c #010101",
"j	c #676767",
"k	c #8E8E8E",
"l	c #090909",
"m	c #B6B6B6",
"                ",
"..............  ",
".+++++@######.  ",
".+..............",
".+.@+++++######.",
".+.@+++++######.",
".+.@+++++######.",
".+.@+++$%&###*=-",
".@.@++@;>,')!~{]",
".@.@+@@@^/(_:<<.",
".@.@@@@@[}|12_#.",
"...@@@@@@34567#.",
"  .@@8@890ab|=c.",
"  ......def.=}g.",
"       hij   klm"};
