/* XPM */
static char * bmkclearall_xpm[] = {
"24 24 267 2",
"Qt c None",
"ae c #000000",
".# c #000000",
".t c #555555",
"#4 c #404040",
".f c #333333",
"b3 c #333333",
"cg c #2e2e2e",
"#l c #2b2b2b",
"b9 c #3b3b3b",
".9 c #373737",
"aF c #333333",
"b8 c #2d2d2d",
".s c #393939",
".A c #363636",
"#C c #313131",
"b. c #353535",
".Y c #333333",
".g c #313131",
"#m c #2f2f2f",
".X c #373737",
".b c #363636",
".r c #353535",
".k c #323232",
".p c #383838",
"af c #3a342e",
".h c #333333",
"av c #39342f",
"aG c #383833",
".q c #323232",
"aP c #3c3732",
"aY c #3b3631",
"#k c #353535",
"ci c #343434",
"ce c #323232",
"b# c #393930",
".i c #333333",
"bh c #373737",
"b4 c #403c32",
".8 c #433d36",
"bM c #323232",
"#D c #353535",
".j c #323232",
"bY c #353535",
"#. c #363633",
"#P c #3b3832",
".B c #3f3a31",
".c c #3e3931",
"#j c #393731",
"#3 c #3f3d2d",
".l c #3b3833",
"cf c #393732",
".u c #3b3634",
"#O c #45402e",
"cb c #413d2e",
"bw c #483f36",
"ca c #453f2d",
"b2 c #44402e",
"ag c #44402d",
"ch c #433e2e",
"#i c #46412c",
".L c #413b36",
".e c #46422d",
"bW c #3e3b2f",
"## c #413d2f",
"ah c #49432c",
"bx c #4a3f38",
"au c #413e2e",
"#5 c #433f2d",
"ad c #44402c",
".Q c #4c3f37",
"bq c #4a3f38",
".M c #4b4037",
"bN c #463e31",
"ai c #47422c",
".a c #3c3931",
"bp c #483e35",
"bT c #46412d",
"bZ c #47422c",
"b5 c #47422c",
"aO c #443f2d",
".m c #47432d",
"bL c #3f3934",
".z c #514238",
"bK c #594539",
"cc c #4a452c",
"aX c #4e472a",
".Z c #554539",
".W c #574539",
"bJ c #614a3a",
"b1 c #4b452b",
"c# c #4c452b",
"aH c #4e472a",
"#R c #605525",
".J c #6f513d",
"aQ c #50492a",
".o c #544b28",
"b7 c #5b5026",
"bV c #49432d",
"aZ c #51492a",
".I c #7e5840",
"bS c #47432d",
"a9 c #5c5026",
"bI c #74533e",
"#h c #4a4033",
"ba c #574e27",
".w c #8a5f41",
".G c #4b3f36",
".7 c #7c583f",
"#E c #403d2e",
"#A c #76641e",
"#S c #7a671d",
".H c #8c5f42",
".K c #524238",
"#N c #625624",
"#n c #3e3b30",
"#Q c #3f3c30",
"aw c #433f2e",
"bU c #7e6a1b",
"c. c #3f3c30",
".x c #9f6946",
".v c #4b3f37",
"cd c #554b28",
"aj c #4b452c",
".D c #7a671c",
".d c #655723",
"b6 c #8b7417",
"#6 c #987e13",
"bX c #3a3832",
"bv c #936342",
"#2 c #4b462a",
"b0 c #9c8211",
"bi c #4c4233",
"#a c #7f593f",
"#B c #353532",
".C c #3c3a31",
"#T c #927a14",
"bg c #554734",
".2 c #635429",
"by c #825a40",
"#z c #987d13",
".y c #b27248",
"at c #79671e",
"bH c #885f3f",
".F c #a7890e",
".P c #d7854f",
"aE c #383631",
"bF c #504237",
"ak c #594f27",
"bR c #5d4d2f",
"ac c #816c1b",
".U c #9d6844",
"bG c #9f6a43",
".1 c #a46b46",
"#g c #b57448",
"br c #c07a4a",
".N c #dd884f",
"#G c #4f4236",
"aN c #514a29",
"#e c #534633",
"a5 c #53482f",
"ao c #574932",
"ap c #5d4938",
"#0 c #5d5226",
"#V c #5d5227",
"#1 c #5f5325",
"#K c #604d35",
"aB c #61502f",
"a2 c #624f31",
"#s c #624f32",
"bc c #634f33",
"bb c #64522e",
"#w c #65532d",
"a8 c #675134",
".3 c #675a23",
"#Z c #695b22",
"aq c #6a5b22",
"bn c #6b5237",
"aS c #6c5336",
"bd c #6c592a",
".S c #6c5d21",
".5 c #6d5335",
"#Y c #705f23",
"al c #716120",
"#t c #725f25",
"#p c #735f27",
"aM c #756026",
"aD c #75641e",
"bQ c #766028",
"#b c #77583b",
"bt c #7b6422",
"a. c #7c6623",
"#X c #7d5a3b",
"#F c #7d6a1c",
"bs c #7e6624",
"bO c #7e6721",
"#W c #7f5c39",
"aV c #805a3f",
"aK c #805c3a",
"bP c #816823",
"ab c #836b21",
"bk c #865f3b",
"ay c #876f1e",
"ar c #8d7516",
"a6 c #93663e",
"aW c #937818",
".T c #937819",
"#J c #97673f",
"am c #977d14",
"#o c #987e13",
"#U c #987e14",
"aC c #a08310",
"aJ c #a18313",
"az c #a56e41",
"bl c #a78811",
".4 c #a7890e",
"as c #a8890e",
"#c c #a9890f",
"#d c #ae8e0c",
"aa c #b27446",
"#y c #b3910a",
".R c #b3920b",
"aR c #b4930b",
"#L c #b8960a",
"#9 c #b99609",
"#u c #bc7849",
"bu c #be7849",
"bm c #bf9a07",
"aL c #c17b49",
"bo c #c27b4a",
"#8 c #c39d06",
"#q c #c47c4a",
"a1 c #c49e05",
"a# c #c57d4a",
"bD c #c69f05",
"aI c #c8a104",
"a0 c #c9a204",
"#x c #cba303",
"bj c #cc804b",
"bE c #cca402",
".n c #cca403",
"an c #cda502",
"aU c #d0824d",
"#M c #d0a701",
"bz c #d1824e",
"ax c #d2a801",
"#7 c #d2a900",
".E c #d4aa00",
"a4 c #dd884f",
"bA c #de884f",
"#I c #df8950",
"be c #e08a50",
"#v c #e18a50",
"bC c #e48c51",
"bf c #e68c51",
"aA c #e78d51",
"#f c #ea8e51",
"bB c #eb8f52",
"a3 c #f19253",
"#H c #f29253",
"#r c #f69453",
".0 c #f89654",
".V c #f99654",
"a7 c #fa9654",
"aT c #fb9754",
".6 c #fd9854",
".O c #ff9955",
"QtQtQtQtQtQtQtQtQtQtQtQtQt.#.a.bQtQtQtQtQtQtQtQt",
"QtQtQtQtQtQtQtQtQtQtQtQtQt.c.d.eQtQtQtQtQtQtQtQt",
"QtQtQtQt.f.g.h.i.j.kQt.#.l.m.n.o.p.q.r.s.tQtQtQt",
"QtQtQtQt.u.v.w.x.y.z.A.B.C.D.E.F.G.H.I.J.K.LQtQt",
"QtQtQtQt.t.M.N.O.O.P.Q.m.R.S.E.T.U.O.O.V.W.XQtQt",
"QtQtQtQtQt.Y.Z.0.O.O.1.2.E.3.4.5.6.O.O.7.8QtQtQt",
"QtQtQtQt.9#.###a.O.O.O#b#c#d#e#f.O.O#g#h#i#j#k#l",
"QtQtQtQt#m#n#o#p#q.O.O#r#s#t#u.O.O#v#w#x#y#z#A#B",
"QtQtQtQt#C#D#E#F#G#H.O.O#I#J.O.O.V#K#L.E.E#M#N#O",
"QtQt#P#Q#R#S#T#U#V#W.O.O.O.O.O.O#X#Y#Z#0#1#2#3Qt",
"QtQt#4#5#6#7#8.3#9a.a#.O.O.O.Oaaab.E.E.EacadaeQt",
"afagahaiajakalam.Eanao.O.O.O.OapaqarasatauaeQtQt",
"avaw#yax.E.E.E.E.Eayaz.O.O.O.OaAaBaCaDaEaFQtQtQt",
"QtaGaHaI.E.E.E.EaJaK.O.O.O.O.O.OaLaMaNaOQtQtQtQt",
"QtQtaPaQaI.E.EaRaSaT.O.OaU.V.O.O.OaVaWaXQtQtQtQt",
"QtQtQtaYaZa0a1a2a3.O.Oa4a5a6.O.O.Oa7a8a9b.QtQtQt",
"QtQtQtQtb#babb#I.O.O.0bca1bdbe.O.O.ObfbgbhQtQtQt",
"QtQtQtQtaFbibj.O.O.Obkbl.Ebmbn.O.O.O.ObobpQtQtQt",
"QtQtQt.tbqbr.O.O.O#qbs.E.E.Ebtbu.O.O.O.ObvbwQtQt",
"QtQtQtbxbybzbAbBbCaBbD.E.E.EbEbFbGbHbIbJbKbL#lQt",
"QtQtQtbMbNbObPbQbRbSbTbUbE.E.EbVbWbXbY.fQtQtQtQt",
"QtQtQtQtbZaxb0b1b2b3Qtb4b5b6axb7b8#Cb9QtQtQtQtQt",
"QtQtQt.#c.c#cab3QtQtQtQt.fcbcccdceQtQtQtQtQtQtQt",
"QtQtQt.fcfcgQtQtQtQtQtQtQtQt.9chciQtQtQtQtQtQtQt"};
