/* XPM */
static char * bmknext_xpm[] = {
"24 24 144 2",
"Qt c None",
".d c #000000",
".l c #000000",
".m c #555555",
"#e c #404040",
"#n c #000000",
"ag c #333333",
"#5 c #000000",
".c c #2b2b2b",
"#. c #404040",
".v c #393939",
".5 c #2b2b2b",
".C c #393939",
"af c #000000",
"aj c #000000",
"ai c #2e2e2e",
"#I c #000000",
"ab c #000000",
"aa c #353535",
".# c #303030",
".w c #313131",
"#j c #323232",
".T c #373732",
".0 c #363631",
".6 c #353530",
"## c #393934",
"#y c #0f0f0a",
"#2 c #373732",
"#f c #363631",
"an c #0d0d09",
".S c #323232",
"ak c #000000",
"al c #000000",
".x c #333333",
"#1 c #2b2b28",
".a c #3a3730",
"#t c #030303",
"am c #000000",
".D c #3f3930",
".r c #3d3a31",
"#9 c #3c3931",
"#m c #363633",
".h c #3c3930",
"#o c #393931",
".B c #363431",
".s c #3e3b31",
".g c #3d3b2f",
"ah c #393730",
".R c #3d3b2f",
"#s c #423f2d",
"#8 c #1a1b11",
"#i c #423f2f",
"#z c #413c2a",
".Q c #47412d",
"#u c #262919",
"#d c #413d2e",
"#W c #1c1e12",
".9 c #413d2e",
"#H c #45412d",
".E c #46402c",
"#T c #44402d",
"#J c #1c1d13",
"#v c #353923",
".4 c #413e2e",
"#S c #46402d",
"#3 c #45402e",
"#6 c #1f2114",
".Z c #3e3b30",
".P c #46412d",
".F c #46412d",
".u c #443f2d",
".e c #44402d",
"#V c #46422c",
"#x c #2b2e1c",
"#w c #43492d",
".k c #45412d",
"ac c #323621",
".n c #45402e",
"a. c #46412d",
".y c #46412d",
".G c #4b442b",
".O c #4b442c",
"#4 c #4d462a",
".H c #554b28",
".N c #595027",
".I c #6d5e21",
"#a c #4b452b",
"#k c #6e5e20",
"#N c #2e321f",
".1 c #49442c",
"#U c #685a22",
"ae c #2e331e",
"#g c #5d5225",
".M c #79671d",
".i c #7d681c",
"#c c #887118",
".W c #d2a901",
".p c #d4aa00",
".U c #48422d",
".A c #74621e",
".8 c #937a14",
".z c #cea402",
".j c #cfa602",
".q c #7e6a1b",
".t c #816c1a",
"#h c #937914",
".3 c #9e8112",
"#q c #c19a00",
".V c #c59e04",
"#G c #c59f04",
"#b c #c69f04",
".L c #c7a004",
".o c #cba303",
".J c #867018",
".2 c #c39d06",
".7 c #c49d06",
".X c #b99609",
"#F c #bb9609",
".K c #b3910b",
".f c #7d691b",
"#l c #8f7716",
"#r c #ab8a0d",
".b c #393731",
"#p c #866d12",
"#E c #896f04",
"#O c #212115",
"a# c #433e2f",
".Y c #6e5e20",
"#K c #8c985d",
"#R c #2f2d16",
"#0 c #2f3220",
"#X c #9ba866",
"#D c #353211",
"#C c #575729",
"#A c #363414",
"#B c #696c38",
"#Z c #7c8652",
"#7 c #9daa68",
"#P c #9da964",
"ad c #96a363",
"#Q c #a6b36d",
"#Y c #b6c678",
"#M c #c7d783",
"#L c #cdde87",
"QtQtQtQtQtQtQtQtQtQtQtQtQtQtQtQtQtQtQtQtQtQtQtQt",
"QtQtQtQtQtQtQtQtQtQtQtQtQt.#QtQtQtQtQtQtQtQtQtQt",
"QtQtQtQtQtQtQtQtQtQtQtQt.a.b.cQtQtQtQtQtQtQtQtQt",
"QtQtQtQtQtQtQtQtQtQtQt.d.e.f.gQtQtQtQtQtQtQtQtQt",
"QtQtQtQtQtQtQtQtQtQtQt.h.i.j.k.lQtQtQtQtQtQtQtQt",
"QtQtQtQtQtQtQtQtQtQt.m.n.o.p.q.rQtQtQtQtQtQtQtQt",
"QtQtQtQtQtQtQtQtQtQt.s.t.p.p.o.u.dQtQtQtQtQtQtQt",
"QtQtQtQtQtQtQt.v.w.x.y.z.p.p.p.A.B.CQtQtQtQtQtQt",
"QtQtQt.D.E.F.G.H.I.J.K.p.p.p.p.L.M.N.O.P.Q.R.SQt",
"QtQtQt.T.U.V.p.p.p.p.p.p.p.p.p.p.p.p.p.W.X.Y.Z.d",
"QtQtQtQt.0.1.2.p.p.p.p.p.p.p.p.p.p.p.p.p.3.4.5Qt",
"QtQtQtQtQt.6.1.7.p.p.p.p.p.p.p.p.p.p.p.8.9#.QtQt",
"QtQtQtQtQtQt###a#b.p.p.p.p.p.p.p.p.p#c#d#eQtQtQt",
"QtQtQtQtQtQtQt#f#g.p.p.p.p.p.p.p.p#h#i.dQtQtQtQt",
"QtQtQtQtQtQtQt#j#k.p.p.p.p.p.p.p.p#l#mQtQtQtQtQt",
"QtQtQtQtQt#nQt#o#p#q.p.p.p.p.p.p.p#r#sQtQtQtQtQt",
"Qt#t#u#v#w#x#y#z#A#B#C#D#E#F.p.p.p#G#HQtQtQtQtQt",
"Qt#I#J#K#L#M#N#O#P#L#Q#R#S#T#U.2.p.p#VQtQtQtQtQt",
"QtQt.d#W#X#L#Y#Z#L#L#0#1QtQt#2#3.A.o#4.dQtQtQtQt",
"QtQtQt#5#6#Y#L#L#L#7#8QtQtQtQt.d#9a.a#aaQtQtQtQt",
"QtQtQtQtabacadadadaeafQtQtQtQtQtQtagahaiQtQtQtQt",
"QtQtQtQtQtajakalamanQtQtQtQtQtQtQtQtQtQtQtQtQtQt",
"QtQtQtQtQtQtQtQtQtQtQtQtQtQtQtQtQtQtQtQtQtQtQtQt",
"QtQtQtQtQtQtQtQtQtQtQtQtQtQtQtQtQtQtQtQtQtQtQtQt"};
