/* XPM */
static char * bmknext_xpm[] = {
"16 15 8 1",
" 	c None",
".	c #3F48CC",
"+	c #00A2E8",
"@	c #ED1C24",
"#	c #99D9EA",
"$	c #880015",
"%	c #FFFF80",
"&	c #00A1E8",
"                ",
"                ",
"................",
".+@@@@@+#######.",
".+@@@@@+#######.",
".+@@@@@+#######.",
".+@@@@@+#######.",
".+@@+@@+##$$$$#.",
".+@+++@+##$%%$#.",
".+++++++##$%%$#.",
".+++++++$$$%%$$$",
".++&+&++$%%%%%%$",
".........$%%%%$ ",
"          $%%$  ",
"           $$   "};
