/* XPM */
static char * bmkprev_xpm[] = {
"24 24 150 2",
"Qt c None",
".p c #000000",
"al c #555555",
".# c #333333",
".q c #2b2b2b",
".c c #000000",
".U c #404040",
".I c #393939",
"ar c #333333",
".T c #000000",
".8 c #363636",
"#m c #333333",
"#n c #2f2f2f",
".7 c #000000",
"#w c #313131",
"#C c #303030",
".b c #363636",
"ac c #333333",
"#H c #303030",
"#N c #363636",
"#v c #353535",
"#R c #373732",
"#X c #353535",
"ah c #343434",
"#l c #353535",
"#M c #393931",
"ad c #3d3932",
"#G c #3c3c2e",
".2 c #1c190e",
"#B c #423c2f",
"at c #3e392f",
"ap c #3c3a32",
".9 c #3b3831",
"am c #3d3b31",
"#1 c #3a3a30",
".6 c #1a1811",
".h c #3d3b2f",
"#k c #3d3a31",
".g c #211f14",
"aq c #3b3930",
".O c #0f0d09",
".H c #1c1a11",
".y c #3e3c2f",
".f c #262117",
".1 c #1b1910",
".k c #1b190f",
".d c #1b1911",
"as c #403c2d",
".e c #1e1c13",
".V c #3d3a2f",
"#. c #46412e",
".x c #1d1a12",
"#j c #46412d",
".j c #44402e",
".S c #18170f",
".5 c #29261a",
"ak c #46402e",
"#9 c #46412c",
"ab c #423e2e",
"#U c #47412d",
"## c #47412d",
".o c #201d13",
".4 c #2e2b1d",
"#i c #45402d",
"#W c #46422d",
"#a c #46412d",
"ae c #443f2d",
".3 c #2f2c1c",
"#S c #48422d",
"#5 c #423d2e",
"ai c #433e2e",
"an c #46412d",
"#b c #4c452b",
".a c #393831",
"#h c #49442c",
".r c #48422d",
"#x c #48432d",
"#D c #49432d",
"#0 c #4c452c",
".J c #4a442d",
"#V c #534b29",
"#8 c #5b5026",
"#I c #45412c",
"#c c #544b29",
"aa c #5d5226",
"#L c #4f492a",
"#4 c #554c29",
"#Y c #74631f",
".u c #2a271a",
"#Q c #49442c",
".t c #4f4729",
"#g c #615524",
"#d c #72611e",
"ag c #79661d",
"#O c #48422c",
"#6 c #73621e",
"#f c #d3a900",
"#e c #d3a901",
".A c #d4aa00",
".N c #3c3825",
"#F c #524a29",
"aj c #574d27",
"#t c #77651d",
"#z c #cea402",
".s c #cfa601",
"#Z c #cfa602",
"#r c #d0a601",
".K c #d0a701",
"#A c #574e27",
"af c #806c1b",
"#q c #c59f04",
"#P c #c7a003",
"#K c #c8a004",
"#7 c #c8a103",
"#E c #caa103",
".z c #8d7616",
".W c #937a15",
"#T c #c19b07",
"a. c #bb9608",
"#J c #bd9807",
"#y c #be9808",
".L c #ae8a01",
"#3 c #ae8d0c",
"a# c #b3910a",
"#s c #b6940a",
"#o c #3f3c30",
".E c #585135",
".P c #5c5638",
"#2 c #987d12",
".R c #665e3e",
"#p c #997e12",
".G c #726945",
".i c #665922",
".0 c #423d28",
"ao c #655823",
".X c #665307",
".B c #5c4c10",
".w c #9b8e5e",
".Y c #52471a",
"#u c #353432",
".l c #8f8457",
".Z c #534a26",
".M c #4c4421",
".C c #928759",
".n c #b2a46d",
".m c #c0b275",
".D c #c6b779",
".F c #dbcb85",
".Q c #ddcc86",
".v c #decd87",
"QtQtQtQtQtQtQtQtQtQtQtQtQtQtQtQtQtQtQtQtQtQtQtQt",
"QtQtQtQtQtQtQtQtQtQtQtQtQtQtQtQtQtQtQtQtQtQtQtQt",
"QtQtQtQtQtQtQtQtQtQt.#.a.b.c.d.e.f.g.cQtQtQtQtQt",
"QtQtQtQtQtQtQtQtQtQt.h.i.j.k.l.m.m.n.o.pQtQtQtQt",
"QtQtQtQtQtQtQtQtQt.q.r.s.t.u.v.v.v.v.w.xQtQtQtQt",
"QtQtQtQtQtQtQtQtQt.y.z.A.B.C.v.D.E.F.v.G.HQtQtQt",
"QtQtQtQtQtQtQtQt.I.J.K.L.M.v.v.N.O.P.Q.v.R.S.TQt",
"QtQtQtQtQtQtQt.U.V.W.A.X.Y.Z.0.1Qt.2.3.4.5.6.7Qt",
"Qt.8.9#.###a#b#c#d#e.A.A.A#f#g#h#i#j#k#l#mQtQtQt",
"Qt#n#o#p#q.A.A.A.A.A.A.A.A.A.A.A#r#s#p#t#u#vQtQt",
"QtQt#w#x#y.A.A.A.A.A.A.A.A.A.A.A.A.A#z#A#BQtQtQt",
"QtQtQt#C#D#y.A.A.A.A.A.A.A.A.A.A.A#E#F#GQtQtQtQt",
"QtQtQtQt#H#I#J.A.A.A.A.A.A.A.A.A#K#L#MQtQtQtQtQt",
"QtQtQtQtQt#N#O#e.A.A.A.A.A.A.A#P#Q#RQtQtQtQtQtQt",
"QtQtQtQtQtQt#S.A.A.A.A.A.A.A.A#T#UQtQtQtQtQtQtQt",
"QtQtQtQtQt.U#V.A.A.A.A.A.A.A.A#f#WQtQtQtQtQtQtQt",
"QtQtQtQtQt#X#Y.A.A.A.A#Z.A.A.A.A#0QtQtQtQtQtQtQt",
"QtQtQtQtQt#1#2.A.A#3#4#5#6#7.A.A#8#mQtQtQtQtQtQt",
"QtQtQtQtQt#9a.a#aaabacQtadaeaf#ZagahQtQtQtQtQtQt",
"QtQtQtQtQtaiajak#wQtQtQtQtalamanaoapQtQtQtQtQtQt",
"QtQtQtQtQtaq#CQtQtQtQtQtQtQtQtarasatQtQtQtQtQtQt",
"QtQtQtQtQtQtQtQtQtQtQtQtQtQtQtQtQtQtQtQtQtQtQtQt",
"QtQtQtQtQtQtQtQtQtQtQtQtQtQtQtQtQtQtQtQtQtQtQtQt",
"QtQtQtQtQtQtQtQtQtQtQtQtQtQtQtQtQtQtQtQtQtQtQtQt"};
