/* XPM */
static char * bmkprev_xpm[] = {
"16 15 7 1",
" 	c None",
".	c #880015",
"+	c #FFFF80",
"@	c #3F48CC",
"#	c #00A2E8",
"$	c #ED1C24",
"%	c #99D9EA",
"           ..   ",
"          .++.  ",
"@@@@@@@@@.++++.@",
"@#$$$$$#.++++++.",
"@#$$$$$#...++...",
"@#$$$$$#%%.++.%@",
"@#$$$$$#%%.++.%@",
"@#$$#$$#%%....%@",
"@#$###$#%%%%%%%@",
"@#######%%%%%%%@",
"@#######%%%%%%%@",
"@#######%%%%%%%@",
"@@@@@@@@@@@@@@@@",
"                ",
"                "};
