/* XPM */
static char * bmktoggle_xpm[] = {
"24 24 142 2",
"Qt c None",
"a# c #000000",
".K c #555555",
"ae c #404040",
".b c #2b2b2b",
"#E c #242424",
"#4 c #393939",
"ad c #333333",
".i c #2b2b2b",
"#h c #2d2d2d",
"a. c #363636",
".g c #353535",
".L c #313131",
".r c #303030",
"#s c #323232",
".F c #363636",
".a c #313131",
".U c #34342e",
"#n c #333333",
"#a c #393933",
".# c #323232",
"#i c #353530",
"#o c #393934",
"#t c #383833",
"#I c #323232",
"#D c #313131",
"al c #353535",
"#z c #383833",
"ai c #353535",
"#5 c #3d3932",
".E c #37482d",
".f c #35442a",
"aj c #383832",
"#M c #3b3831",
".c c #37472b",
"#y c #34422b",
"af c #3c3a31",
"## c #37482c",
".o c #413d2f",
"ac c #433f2f",
"#H c #403e2e",
"#3 c #433d2f",
"ak c #413d2f",
".V c #443f2e",
".T c #374c29",
"#S c #47412e",
".m c #423e2d",
"#. c #36432b",
"#L c #47412d",
".v c #423e2e",
".W c #46402c",
".l c #374f28",
".q c #375026",
".j c #365126",
".p c #375125",
".9 c #35412d",
".M c #423f2f",
".J c #365225",
".X c #45412d",
"#V c #44402e",
"#R c #45402d",
"#Z c #46422d",
".D c #395824",
"#6 c #443f2d",
"#C c #413d2f",
".Y c #4a442b",
".u c #48422c",
"ag c #48422d",
"#Y c #4b442b",
".0 c #645724",
".A c #39611f",
"#m c #48422d",
"#F c #514929",
".Z c #51492a",
"#9 c #5a5027",
"#j c #4b452b",
"#p c #4c452b",
"ab c #4a442c",
".s c #574e28",
".G c #5c5227",
"#J c #72611f",
"#2 c #48432c",
"#A c #554c29",
"#O c #d2a901",
"#Q c #d3a900",
".t c #d3a901",
".2 c #d4aa00",
"#W c #77641d",
".1 c #8f7715",
"#8 c #cfa601",
"#0 c #d0a701",
"#7 c #816d1b",
"#k c #c69f04",
"#P c #c7a003",
"#u c #c7a004",
".H c #caa103",
"#X c #cba303",
"#1 c #997d13",
"#K c #bf9a07",
"#U c #927815",
"#T c #b89509",
".3 c #bd9807",
".C c #3b6e19",
".w c #b08f0c",
"#B c #b3910a",
".N c #b6940a",
".B c #3b7018",
"#c c #b08f0b",
"#N c #977d14",
".h c #383632",
"#f c #72621e",
"#G c #a4870f",
".e c #3b6f19",
".8 c #36462a",
".z c #3a601f",
".d c #3c7218",
"#b c #413d2e",
"ah c #534a29",
"#v c #928112",
"aa c #3e3b30",
".n c #71601f",
"#g c #373632",
".x c #737019",
".4 c #746e1a",
"#r c #3b4b29",
".6 c #454a29",
".5 c #69651d",
"#q c #60671c",
"#l c #5a641e",
"#d c #5e681c",
"#e c #545e20",
".7 c #39492a",
".O c #4e5f20",
"#x c #3c671c",
".y c #44621f",
".I c #4a6d19",
".S c #41930a",
"#w c #447118",
".Q c #42a203",
".P c #43a005",
".R c #43a502",
".k c #44aa00",
"QtQtQtQtQtQtQtQtQtQtQtQtQtQtQtQtQtQtQtQtQtQtQtQt",
"QtQtQtQtQtQtQtQtQtQtQtQtQtQtQtQt.#.aQtQtQtQtQtQt",
"QtQtQtQtQtQtQtQtQtQtQt.bQtQtQt.c.d.e.fQtQtQtQtQt",
"QtQtQtQtQtQtQtQtQtQt.g.h.iQtQt.j.k.k.lQtQtQtQtQt",
"QtQtQtQtQtQtQtQtQtQt.m.n.oQtQt.p.k.k.qQtQtQtQtQt",
"QtQtQtQtQtQtQtQtQt.r.s.t.u.bQt.p.k.k.qQtQtQtQtQt",
"QtQtQtQtQtQtQtQtQt.v.w.x.y.z.A.B.k.k.C.A.A.D.EQt",
"QtQtQtQtQtQtQtQt.F.G.H.I.k.k.k.k.k.k.k.k.k.k.JQt",
"QtQtQtQtQtQt.K.L.M.N.t.O.P.Q.Q.R.k.k.R.Q.Q.S.TQt",
"Qt.U.V.W.X.Y.Z.0.1.2.2.3.4.5.6.7.k.k.8.9#.##.bQt",
"Qt#a#b#c.t.2.2.2.2.2.2.2.2.2.2#d.k.k#e#f#g#hQtQt",
"QtQt#i#j#k.2.2.2.2.2.2.2.2.2.2#d.k.k#l#m#nQtQtQt",
"QtQtQt#o#p#k.2.2.2.2.2.2.2.2.2#q.k.k#r#sQtQtQtQt",
"QtQtQtQt#t#p#u.2.2.2.2.2.2.2.2#v#w#x#yQtQtQtQtQt",
"QtQtQtQtQt#z#A.2.2.2.2.2.2.2.2#B#C#DQtQtQtQtQtQt",
"QtQtQtQtQt#E#F.2.2.2.2.2.2.2.2#G#HQtQtQtQtQtQtQt",
"QtQtQtQtQt#I#J.2.2.2.2.2.2.2.2#K#LQtQtQtQtQtQtQt",
"QtQtQtQtQt#M#N.2.2.2#O#P.2.2.2#Q#RQtQtQtQtQtQtQt",
"QtQtQtQtQt#S#T.2#O#U#m#V#W#X.2.2#YQtQtQtQtQtQtQt",
"QtQtQtQtQt#Z#0#1#2#3#4Qt#5#6#7#8#9a.QtQtQtQtQtQt",
"QtQtQtQta#aaabacadQtQtQtQtaeafagahaiQtQtQtQtQtQt",
"QtQtQtQtaeajadQtQtQtQtQtQtQtQt.iakalQtQtQtQtQtQt",
"QtQtQtQtQtQtQtQtQtQtQtQtQtQtQtQtQtQtQtQtQtQtQtQt",
"QtQtQtQtQtQtQtQtQtQtQtQtQtQtQtQtQtQtQtQtQtQtQtQt"};
