/* XPM */
static char *closeall_xpm[] = {
"24 24 193 2",
"Qt c None",
".e c #000000",
".f c #404040",
"a3 c #333333",
"a7 c #2b2b2b",
".u c #242424",
".F c #333333",
".k c #303030",
".G c #2d2d2d",
".# c #373737",
"aY c #333333",
"#. c #353535",
"aZ c #313131",
"a6 c #353535",
"a8 c #323232",
"#k c #343434",
"b. c #333333",
"a9 c #333333",
".d c #323232",
".l c #343434",
".H c #3e3934",
".a c #343434",
".m c #313131",
".c c #333333",
".b c #333333",
"aU c #323232",
"a2 c #323232",
".U c #373737",
"aA c #353535",
"aP c #373737",
"aX c #393939",
".t c #393939",
".E c #3a3a3a",
"a4 c #393939",
".v c #393939",
".g c #383838",
"aO c #393939",
"aN c #383838",
"a5 c #353535",
".i c #575757",
".h c #464646",
".x c #494949",
".w c #3d3d3d",
"az c #525252",
".j c #373737",
"aW c #343434",
"a1 c #676767",
".V c #333333",
".n c #333333",
".2 c #343433",
"aV c #343434",
".W c #353434",
".B c #353535",
".1 c #403a35",
".I c #463d36",
".y c #494949",
".z c #4d4d4d",
".A c #4e4e4e",
"ax c #595959",
"aR c #616161",
"#D c #646260",
"#t c #665143",
"aC c #66554a",
"#5 c #665d57",
"#K c #675f5a",
"#F c #676767",
".X c #694e3c",
"#v c #696969",
"a# c #6b6866",
"af c #6c5444",
"aJ c #6c584a",
"#j c #6c6c6c",
"#L c #6d6d6d",
"#A c #71665f",
".9 c #717171",
".3 c #72523d",
"#f c #74655b",
".T c #747474",
"#R c #787878",
".S c #797979",
"aa c #7a695d",
"#p c #7b6759",
"#T c #7c6657",
"ac c #7c6759",
"#x c #7d6759",
"am c #7d6e64",
"#1 c #7d6f66",
"ak c #7e6e64",
"#Q c #7e7e7e",
"#7 c #7f6656",
"#h c #7f7269",
"ap c #81756c",
"#P c #83766d",
".J c #837870",
".K c #84766d",
"aM c #848484",
".8 c #858585",
"#9 c #88664f",
"aK c #887b72",
"#m c #887c74",
"aI c #897161",
"#U c #8a6852",
"#C c #8c6348",
"#N c #8c8179",
"#c c #8d6850",
".s c #8d8d8d",
"a. c #926548",
"#3 c #926c53",
"aD c #926e56",
"aw c #92877f",
"ao c #939393",
".D c #949494",
".O c #958a82",
"aL c #958c87",
".L c #968c85",
"aH c #988d86",
"#B c #996f54",
"ai c #997054",
".o c #999999",
"au c #9b7154",
"#a c #9d9793",
"aB c #9d9895",
"#q c #9e9690",
"aE c #9f7355",
"as c #9f958f",
".6 c #a06d4a",
".P c #a19891",
"#H c #a57452",
".7 c #a59d98",
"ad c #aaa5a1",
"ay c #ababab",
"#Z c #ac7652",
"aF c #ac7753",
".Q c #ada6a2",
".p c #adadad",
".0 c #af7047",
"#Y c #b0a9a5",
"#b c #b37850",
".N c #b8b2ae",
"#d c #b8b6b5",
"aT c #bababa",
"aS c #bbbbbb",
".C c #bcbcbc",
"ae c #bd7d52",
"#J c #c58053",
"#2 c #c8c6c4",
"#G c #cac7c5",
"#r c #cb8252",
"#4 c #cc8352",
"ar c #cd8251",
".R c #cdcbc9",
"aj c #d3d1cf",
"#e c #d4d4d4",
"av c #d58550",
".q c #d5d5d5",
"## c #d6d6d6",
"at c #dad9d8",
"aQ c #dbdbdb",
"aq c #dd8952",
"#I c #de8850",
"#V c #e1e1e1",
"#O c #e28a51",
"#W c #e2e2e2",
"ah c #e48c52",
"#n c #e58c51",
"a0 c #e5e5e5",
".5 c #e68c51",
"#6 c #e7e7e6",
"#z c #e88e52",
"#E c #e8e8e8",
"#g c #e98e52",
"#u c #e9e9e9",
"#M c #eaeaea",
"ag c #ebebeb",
"#0 c #ed9052",
"#X c #eeeeee",
"al c #ef9152",
".M c #f1f1f1",
".4 c #f29253",
"ab c #f39353",
"#w c #f3f3f3",
"#S c #f5f5f5",
".Y c #f89654",
"#l c #f9f9f9",
"#o c #fb9754",
"an c #fbfbfb",
"#s c #fc9855",
"#y c #fd9854",
"#8 c #fd9855",
"aG c #fdfdfd",
"#i c #fefefe",
".Z c #ff9955",
".r c #ffffff",
"QtQtQtQtQtQtQtQt.#.a.b.b.b.b.b.b.b.b.b.b.b.c.d.e",
"QtQtQtQtQtQtQt.f.g.h.i.i.i.i.i.i.i.i.i.i.i.i.j.a",
"QtQtQtQtQt.k.l.m.n.o.p.p.p.p.p.p.p.p.p.q.r.r.s.t",
"QtQtQtQt.u.v.w.x.y.z.A.A.A.A.A.A.A.A.z.B.C.r.D.E",
"QtQt.F.G.H.I.J.K.L.M.M.M.M.M.N.O.P.Q.R.S.T.r.D.E",
"Qt.U.V.n.W.X.Y.Z.0.1.n.n.n.2.3.4.5.6.7.8.9.r.D.E",
"#..n.C#####a#b.Z.Z#c#d###e#f.4.Z#g#h#i.8#j.r.D.E",
"#k.n#l.r.r.r#m#n.Z#o#p.M#q#r.Z#s#t#u.r.8#v.r.D.E",
"#k.n#l.r.r.r#w#x#y.Z#z#A#B.Z.Z#C#D#E.r.8#F#l.D.E",
"#k.n#l.r.r.r.r#G#H.Z.Z#I#s.Z#J#K#L#M.r.8.9.r.D.E",
"#k.n#l.r.r.r.r.r#N#O.Z.Z.Z#z#P#Q#R.r.r.8.9.r.D.E",
"#k.n#l.r.r.r.r.r#S#T.Z.Z.Z#U#V#Q#L#W.r.8.9.r.D.E",
"#k.n#l.r.r.r.r#X#Y#Z.Z.Z.Z#0#1#Q#R.r.r.8.9.r.D.E",
"#k.n#l.r.r.r.r#2#3.Z.Z.Z.Z.Z#4#5#R.r.r.8.9.r.D.E",
"#k.n#l.r.r.r#6#7#8.Z#n#9.Z.Z.Za.a#.r.r.8.9.r.D.E",
"#k.n#l.r.r#Saaab.Z#sacadae.Z.Z#yafag.r.8.9.r.D.E",
"#k.n#l.r#l#1ah.Z.Zaiaj#iak.Y.Z.Zalaman.8.9.rao.E",
"#k.n#lanapaq.Z.Zaras.r.ratau.Z.Z.Zavaw.8axayazaA",
"#k.n#laBaCaDaEaFamaG.r.r.raHaIaJaCaKaLaMaNaOaP.#",
"#k.n#l.r.r#S#uaQ.M.r.r.r.r.r.r#QaRaSaTazaUQtQtQt",
"#k.n#l.r.r.r.r.r.r.r.r.r.r.r.r#QaV.naWaXaYQtQtQt",
"aZ.na0.r.r.r.r.r.r.r.r.r.r.raGa1a2QtQtQtQtQtQtQt",
"a3a4.n.n.n.n.n.n.n.n.n.n.n.n.na5a6QtQtQtQtQtQtQt",
"Qta7a8a9a9a9a9a9a9a9a9a9a9a9b.aYQtQtQtQtQtQtQtQt"};
