/* XPM */
static char *columnmode_xpm[] = {
"24 24 101 2",
"Qt c None",
"#I c #333333",
"#C c #404040",
".# c #333333",
".e c #373737",
"#G c #333333",
"#H c #333333",
".d c #323232",
"#F c #343434",
".a c #323232",
".i c #333333",
"#w c #333333",
".c c #333333",
".b c #333333",
".j c #343434",
"#t c #323232",
".p c #343434",
"#D c #343434",
"#B c #353535",
".o c #343434",
".f c #343434",
"#E c #353535",
"#v c #343434",
".t c #333333",
"#A c #464646",
".h c #333333",
".n c #595959",
".g c #333333",
".q c #353535",
"#j c #7474b2",
".5 c #7575b3",
".6 c #7878af",
"#i c #7e7ebc",
".V c #8181bf",
"#u c #838383",
".s c #858585",
".4 c #8787c5",
"#. c #8a8ac8",
".U c #8b8bc9",
".9 c #8c8cca",
"#x c #8d8d8d",
".T c #8e8ecc",
"#h c #9393d1",
".3 c #9494d2",
".S c #9595d3",
"#k c #9999cd",
".8 c #9a9ad8",
".R c #9f9fdd",
".W c #a1a1d6",
"#g c #a1a1df",
".2 c #a5a5e3",
"#z c #a8a8a8",
".7 c #aaaad8",
"#y c #adadad",
".1 c #b5b5e3",
".Q c #b6b6e3",
"#f c #b7b7e3",
".A c #bbbbbb",
".z c #bfbfbf",
".k c #c1c1c1",
".Y c #c1c1ff",
".H c #c5c5c5",
".M c #c7c7f3",
"## c #c8b5ec",
"#c c #c8c3fa",
".Z c #c8c8ff",
".y c #cccccc",
".x c #cecece",
".X c #d1d1ff",
".L c #d2d2ff",
".K c #d3d3ff",
".I c #dbdbdb",
".m c #dddddd",
"#p c #dedeff",
".P c #dfdfdf",
"#o c #dfdfff",
".N c #e0e0f6",
".w c #e2e2e2",
".l c #e4e4e4",
".B c #e8e8e8",
".F c #ececec",
".v c #eeeeee",
".C c #efefef",
".J c #efefff",
".0 c #f0f0f0",
".u c #f1f1f1",
"#q c #f2cbd8",
".E c #f3f3f3",
"#n c #f6f6ff",
".D c #f9f9f9",
".G c #fafafa",
".O c #fefefe",
"#r c #ff6969",
"#d c #ff7979",
"#l c #ff8181",
"#a c #ffbebe",
"#s c #ffc0c0",
"#b c #ffc7c7",
"#e c #ffefef",
"#m c #fffefe",
".r c #ffffff",
"QtQtQt.#.a.b.b.b.b.b.b.b.b.b.b.b.b.b.b.c.dQtQtQt",
"QtQt.e.f.g.g.g.g.g.g.g.g.g.g.g.g.g.g.g.g.h.iQtQt",
"QtQt.j.g.k.l.l.l.l.l.l.l.l.l.l.l.l.l.l.m.n.oQtQt",
"QtQt.p.q.r.r.r.r.r.r.r.r.r.r.r.r.r.r.r.r.s.tQtQt",
"QtQt.p.q.r.u.v.w.x.y.z.A.B.r.r.r.r.r.r.r.s.tQtQt",
"QtQt.p.q.r.r.r.r.r.r.r.C.D.r.r.r.r.r.r.r.s.tQtQt",
"QtQt.p.q.r.r.r.r.r.E.v.v.F.m.m.m.F.r.r.r.s.tQtQt",
"QtQt.p.q.r.G.v.l.m.m.m.y.y.y.H.A.I.r.r.r.s.tQtQt",
"QtQt.p.q.r.r.r.r.J.K.L.L.L.L.M.N.r.r.r.r.s.tQtQt",
"QtQt.p.q.r.O.v.P.Q.R.S.T.U.V.V.W.r.r.r.r.s.tQtQt",
"QtQt.p.q.r.r.r.r.X.Y.Y.Y.Y.Y.Y.Z.r.r.r.r.s.tQtQt",
"QtQt.p.q.r.r.0.m.1.2.3.T.T.4.5.6.A.r.r.r.s.tQtQt",
"QtQt.p.q.r.r.r.r.X.Y.Y.Y.Y.Y.Y.Z.r.r.r.r.s.tQtQt",
"QtQt.p.q.O.v.v.v.7.8.8.9.V.V#.###a#b.r.r.s.tQtQt",
"QtQt.p.q.r.r.r.r.X.Y.Y.Y.Y.Y.Y#c#d#e.r.r.s.tQtQt",
"QtQt.p.q.r.r.v.m#f#g#h.T.T#i#j#k#l#m.r.r.s.tQtQt",
"QtQt.p.q.r.r.r.r#n#o#p#p#p#p#p#q#r#s.r.r.s.tQtQt",
"QtQt.p.q.r.r.r.r.r.r.r.r.r.r.r.r.r.r.r.r.s.tQtQt",
"QtQt.p.q.r.r.r.r.r.r.r.r.r.r.r.r.r.r.r.r.s.tQtQt",
"QtQt.p.q.r.r.r.r.r.r.r.r.r.r.r.r.r.r.r.r.s.tQtQt",
"QtQt#t.q.O.r.r.r.r.r.r.r.r.r.r.r.r.r.r.r#u#vQtQt",
"QtQt#w.g#x#y#y#y#y#y#y#y#y#y#y#y#y#y#y#z#A#BQtQt",
"QtQt#C#D.g.g.g.g.g.g.g.g.g.g.g.g.g.g.g.g#E#FQtQt",
"QtQtQtQt#G.d.d.d.d.d.d.d.d.d.d.d.d.d.d#H#IQtQtQt"};
