/* XPM */
static char *comment_xpm[] = {
/* columns rows colors chars-per-pixel */
"16 15 60 1",
"& c #0F0F0F",
"c c #D9D9D9",
"j c #2D2D2D",
". c #F7F7F7",
"3 c #3C3C3C",
"u c #696969",
"w c #E1E1E1",
"  c None",
"a c #444444",
"i c #626262",
"f c #DADADA",
"- c #E9E9E9",
"4 c #3D3D3D",
"% c #4C4C4C",
"M c #888888",
"B c #C4C4C4",
"z c #D3D3D3",
"< c #E2E2E2",
"7 c #454545",
"N c #909090",
"x c #CCCCCC",
"1 c #202020",
"+ c #EAEAEA",
"2 c #3E3E3E",
"$ c #4D4D4D",
"n c #0A0A0A",
"p c #D4D4D4",
"s c #E3E3E3",
"b c #464646",
"r c #A0A0A0",
"X c #DCDCDC",
"= c #212121",
"g c #303030",
"* c #FAFAFA",
"V c #6C6C6C",
"6 c #D5D5D5",
"8 c #E4E4E4",
", c #474747",
"C c #747474",
"m c #929292",
"0 c #CECECE",
"O c #DDDDDD",
"d c #D6D6D6",
"; c #E5E5E5",
"l c #848484",
"o c #DEDEDE",
": c #E6E6E6",
"h c #2B2B2B",
"e c #A3A3A3",
"9 c #D0D0D0",
"k c #242424",
"5 c #333333",
"# c #515151",
"Z c #6F6F6F",
"@ c #0E0E0E",
"> c #E7E7E7",
"y c #686868",
"v c #E0E0E0",
"q c #434343",
"t c #9D9D9D",
/* pixels */
"                ",
"                ",
" .XooooooooooO+ ",
" @#$%%%%%%%%%#&*",
" =-;:::::::::>,<",
" 1:2344444445678",
" 1o9000000000Xq8",
" 1werrrrrrrrtOq8",
" 1<yyuuuuuuuipa8",
" 1Os::::Oddddfq8",
" 1>ghjjklzxxxcq8",
" =8v<<<<fzzzzwb8",
" nmMMMMMMMMMMNk<",
" BVCCCCCCCCCCZt ",
"                "
};
