/* XPM */
static char *comment_xpm[] = {
"24 24 156 2",
"Qt c None",
"#U c #000000",
"aa c #000000",
"#z c #000000",
"ap c #000000",
"#O c #000000",
"#2 c #000000",
".U c #000000",
".i c #000000",
".w c #000000",
"aq c #000000",
".# c #000000",
"#u c #000000",
"af c #000000",
".L c #000000",
".j c #000000",
"av c #000000",
"#T c #000000",
"#N c #000000",
"#q c #000000",
"az c #161616",
".K c #040404",
"at c #000000",
".E c #040404",
"au c #070707",
"#F c #0a0a0a",
".h c #030303",
"a# c #060606",
".8 c #0b0b0b",
".a c #050505",
".x c #0d0d0d",
".F c #0f0f0f",
"#y c #0f0f0f",
"aw c #232323",
"#p c #0e0e0e",
"#E c #131313",
"ab c #181818",
"aj c #1d1d1d",
"#3 c #202020",
".V c #151515",
"#1 c #171717",
".v c #151515",
".g c #181818",
"ag c #262626",
"#v c #151515",
"#7 c #111111",
"#A c #141414",
"#b c #1a1a1a",
".b c #1a1a1a",
"#i c #191919",
"#h c #1a1a1a",
"a. c #1b1b1b",
".k c #161616",
"ay c #343434",
"ax c #404040",
"#8 c #191919",
"ao c #1d1d1d",
"#6 c #2a2a2a",
"#4 c #313131",
".f c #181818",
"#5 c #3c3c3c",
"#V c #131313",
".c c #181818",
"ai c #414141",
".9 c #161616",
"as c #222222",
"ah c #4b4b4b",
"#M c #121212",
"#G c #131313",
"#9 c #141414",
"ak c #2e2e2e",
".e c #131313",
".d c #111111",
"ar c #434343",
".T c #121212",
"ae c #313131",
"an c #767676",
".D c #151515",
"#L c #424242",
"#t c #181818",
".M c #1d1d1d",
".l c #1f1f1f",
"#P c #0e0e0e",
".u c #161616",
".y c #1c1c1c",
".J c #202020",
"#D c #292929",
"#r c #333333",
"#H c #4b4b4b",
"#B c #434343",
".G c #3b3b3b",
"#x c #404040",
"#0 c #595959",
".t c #6e6e6e",
"#w c #6c6c6c",
".7 c #747474",
"al c #999999",
"#W c #7e7e7e",
"#S c #080808",
".m c #818181",
"#o c #8d8d8d",
".C c #999999",
"ac c #9d9d9d",
".W c #a4a4a4",
".z c #b6b6b6",
"#K c #acacac",
"am c #b0b0b0",
".s c #b4b4b4",
"#j c #bababa",
"#a c #bebebe",
".n c #bfbfbf",
"#Z c #c7c7c7",
"#g c #c8c8c8",
"#C c #d0d0d0",
"#X c #d4d4d4",
"#Q c #dcdcdc",
".S c #dddddd",
".I c #e0e0e0",
".r c #e2e2e2",
"#I c #e3e3e3",
".o c #e6e6e6",
"#. c #eaeaea",
"#J c #ececec",
"#R c #eeeeee",
"#Y c #f0f0f0",
".H c #f2f2f2",
"#s c #f3f3f3",
".q c #f5f5f5",
".p c #f8f8f8",
"ad c #f9f9f9",
"## c #fbfbfb",
".B c #fcfcfc",
".6 c #fdfdfd",
"#c c #fefefe",
".A c #ffffff",
"#m c #f2f2f2",
".4 c #f3f3f3",
"#n c #f4f4f4",
".R c #f5f5f5",
".Q c #f6f6f6",
".5 c #f7f7f7",
".3 c #f8f8f8",
"#f c #f9f9f9",
".0 c #e7e7e7",
"#l c #e8e8e8",
".2 c #ebebeb",
".N c #ececec",
".Z c #ededed",
".X c #eeeeee",
".O c #dddddd",
"#k c #e4e4e4",
".1 c #e6e6e6",
".Y c #d8d8d8",
"#e c #d9d9d9",
".P c #dbdbdb",
"#d c #dcdcdc",
"QtQtQtQtQtQtQtQtQtQtQtQtQtQtQtQtQtQtQtQtQtQtQtQt",
"QtQtQtQtQtQtQtQtQtQtQtQtQtQtQtQtQtQtQtQtQtQtQtQt",
"QtQtQtQtQtQtQtQt.#.a.b.c.d.e.f.g.h.iQtQtQtQtQtQt",
"QtQtQtQtQtQt.j.k.l.m.n.o.p.q.r.s.t.u.v.wQtQtQtQt",
"QtQtQtQtQt.x.y.z.A.A.A.A.A.A.A.A.A.B.C.D.EQtQtQt",
"QtQtQtQt.F.G.H.A.A.A.A.A.A.A.A.A.A.A.A.I.J.KQtQt",
"QtQtQt.L.M.H.A.A.A.N.O.P.Q.A.A.R.A.A.A.A.S.T.UQt",
"QtQtQt.V.W.A.A.X.Y.Z.A.A.0.1.2.3.4.5.6.A.A.7.8Qt",
"QtQtQt.9#..A.A.A.A.A.A.A.A.A.A.A.A.A##.A.A#a#bQt",
"QtQtQt.e.q.A.A.A#c.O#d#e#f.A##.R.A.A.A.A.A#g#hQt",
"QtQtQt#i#j.A.A.0.P.6.A.A#k#l#m.B#n.3.6.A.A#o#pQt",
"QtQtQt#q#r.6.A.A.A.A.A.A.A.A.A.A.A.A.B.A#s#t#uQt",
"QtQtQtQt#v#w#c.A.A.A.A.A.A.A.A.A.A.A.A.p#x#yQtQt",
"QtQtQtQt#z#A#B.S.A.A.A.A.A.A.A.A.A.A#C#D#EQtQtQt",
"QtQtQtQtQtQt#F#G#H#I.A.A.A.A.A#J#K#L#M#NQtQtQtQt",
"QtQtQtQtQtQtQt#O#P#Q.A.A.A.A#R#S.V#T#UQtQtQtQtQt",
"QtQtQtQtQtQtQt#U#V#W#X.q#Y#Z#0#1QtQtQtQtQtQtQtQt",
"QtQtQtQt#2#3#4#5#6#7#8.e#9a.a#aaQtQtQtQtQtQtQtQt",
"QtQtQtQtabac.A.AadaeafQtQtQtQtQtQtQtQtQtQtQtQtQt",
"#UagahaiajakalamanaoapQtQtQtQtQtQtQtQtQtQtQtQtQt",
"aqar.A##as.UatauavQtQtQtQtQtQtQtQtQtQtQtQtQtQtQt",
"QtawaxayazQtQtQtQtQtQtQtQtQtQtQtQtQtQtQtQtQtQtQt",
"QtQtQtQtQtQtQtQtQtQtQtQtQtQtQtQtQtQtQtQtQtQtQtQt",
"QtQtQtQtQtQtQtQtQtQtQtQtQtQtQtQtQtQtQtQtQtQtQtQt"};
