/* XPM */
static char *copy_xpm[] = {
"24 24 185 2",
"Qt c None",
"aZ c #000000",
"#l c #000000",
"aT c #000000",
"a# c #000000",
".e c #202020",
"#O c #1a1a1a",
".q c #1a1a1a",
"ay c #000000",
".d c #191919",
"#B c #000000",
"#m c #000000",
"aO c #000000",
".# c #181818",
"#A c #1b1b1b",
"#P c #000000",
"#n c #000000",
".C c #1f1f1f",
"aH c #060606",
".c c #1a1a1a",
".p c #191919",
"a2 c #1d1d1d",
"#k c #191919",
"#o c #0c0c0c",
"au c #121212",
".b c #1f1f1f",
".o c #1f1f1f",
".r c #212121",
"#. c #252525",
".a c #252525",
"a0 c #151515",
"aD c #191919",
".n c #2c2c2c",
"a1 c #1b1b1b",
".D c #2d2d2d",
".Y c #2e2e2e",
"aU c #171717",
".M c #2e2e2e",
"ao c #1a1a1a",
".N c #2b2b2b",
"aX c #1c1c1c",
".m c #2d2d2c",
"aA c #1f1f1f",
"aY c #222222",
"aS c #171717",
"ai c #0d0d0d",
"ax c #424242",
"#D c #595959",
"#C c #2d2d2d",
".j c #454545",
"a. c #3f3630",
"aW c #4e4e4e",
".f c #2d2d2d",
".i c #696969",
".B c #282828",
"#p c #464646",
"#E c #424242",
"aL c #5e5e5e",
"#Q c #626262",
".A c #6e6e6e",
"aN c #1b1b1b",
".Z c #212121",
"## c #292929",
"aP c #222222",
".k c #282828",
".l c #312c29",
"ah c #393939",
"#z c #645145",
"aK c #2c2c2c",
"#j c #6d635c",
"#N c #5c4739",
"#Y c #503f32",
".h c #909090",
"aG c #666666",
".s c #939393",
"#F c #646463",
"aQ c #646464",
"at c #7d7d7d",
".z c #8c8a89",
"az c #373737",
"aI c #383838",
"aa c #3c3c3c",
"aM c #3d3d3d",
"aj c #434343",
"av c #454545",
"ab c #484848",
"ac c #4b4b4b",
"ae c #4f4f4f",
"ad c #505050",
"#1 c #515151",
"aB c #555555",
"aE c #626262",
"#S c #696969",
"aq c #727272",
"ap c #767676",
"#w c #776a61",
"ag c #7e5b43",
"ar c #807166",
"al c #85644d",
"aF c #878787",
"#h c #897365",
"aR c #898989",
".y c #8b7261",
"#T c #909090",
".9 c #939393",
"ak c #948e89",
"af c #966646",
"#5 c #987c69",
"aV c #9a9a9a",
"as c #9b9591",
".Q c #9d7e69",
"aC c #9d9d9d",
"#7 c #9e8879",
".g c #9f9f9f",
"#G c #a0775c",
"#q c #a08c7e",
"aw c #a1a1a1",
"#V c #a37e64",
".S c #a39185",
"am c #a3a19f",
".W c #a48d7d",
"#v c #a49185",
".J c #a57d63",
".6 c #a59489",
".T c #a6826a",
"#2 c #a6a6a6",
"#0 c #a7a7a7",
"#8 c #a88167",
"an c #ababab",
"#K c #ad7957",
"#X c #ad856a",
"#s c #ada5a0",
"aJ c #aeaeae",
"#L c #af7c59",
"#r c #af7d5c",
".G c #af805f",
"#Z c #b0b0b0",
".v c #b17e5b",
"#6 c #b27e5b",
"#R c #b3b3b3",
".E c #b6b6b6",
".8 c #b97f58",
"#I c #bc7f56",
"#u c #bdb9b7",
".X c #bdbdbd",
".x c #bf7e52",
".L c #bfbfbf",
".R c #c18055",
"#t c #c28156",
".3 c #c48256",
"#W c #c4b9b2",
".1 c #c5bfba",
"#g c #c8c3c0",
"#c c #cac6c3",
"#x c #cbc7c4",
".u c #ccc5bf",
"#e c #cf8351",
"#H c #d18858",
".O c #d7d7d7",
"#y c #dc8952",
"#f c #dddddd",
"#4 c #dedddd",
"#U c #dfdcda",
"#d c #e18a50",
".w c #e28a50",
".7 c #e58f55",
".F c #e5e3e1",
"#b c #e5e3e2",
".2 c #e78d51",
".4 c #e7e7e7",
".K c #e9e7e6",
".U c #ed9153",
"#9 c #ee9052",
"#3 c #eeeeee",
"#i c #f19252",
".0 c #f5f5f5",
".P c #f8f8f8",
"#a c #f9f9f9",
"#M c #fbfbfb",
"#J c #fc9855",
".5 c #fcfcfc",
".V c #fd9854",
".I c #fe9855",
".H c #ff9955",
".t c #ffffff",
"QtQtQtQtQtQtQtQtQtQt.#.a.b.c.d.eQtQtQtQtQtQtQtQt",
"QtQtQtQtQtQtQtQtQt.d.f.g.h.i.j.k.l.m.n.o.p.qQtQt",
"QtQtQtQtQtQtQtQtQt.r.s.t.t.t.u.v.w.x.y.z.A.B.CQt",
"QtQtQtQtQtQtQtQtQt.D.E.t.t.F.G.H.H.H.I.J.K.L.MQt",
"QtQtQtQtQtQtQtQtQt.N.O.t.P.Q.R.S.T.U.H.V.W.X.YQt",
"QtQtQtQtQtQtQtQtQt.Z.0.t.1.2.3.4.5.6.7.H.8.9#.Qt",
"QtQtQtQtQtQtQtQt.e###a#b#c#d#e#f.t#g#h.H#i#j#kQt",
"Qt#l#m#n#n#n#n#n#o#p#q#r#s#t#d#u#v#w#x#y.H#z#AQt",
"Qt#B#C#D#D#D#D#D#E#F#G.H#H#I#J#K#L#b#M.G.H#N#OQt",
"Qt#P#Q#R#R#R#R#R#S#T#U#V#J.H#J.G#W.t.t#X.H#Y#lQt",
"Qt#P#Q#R#R#Z#0#0#1#2#3#4#5#6#7#f#3#3#3#8#9a.a#Qt",
"Qt#P#Q#R#RaaababaaacadadadaeadadadadadafagahaiQt",
"Qt#P#Q#R#0aj#R#R#R#R#R#R#R#R#R#R#R#RakalamanaoQt",
"Qt#P#Q#Rapaq#R#R#R#R#R#R#R#R#R#R#R#Raras#RatauQt",
"Qt#P#Q#Ravaw#R#R#R#R#R#R#R#R#R#R#R#R#R#R#RaxayQt",
"Qt#P#Q#Raz#R#R#R#R#R#R#R#R#R#R#R#R#R#R#R#RaAQtQt",
"Qt#P#Q.9aB#R#R#R#R#R#R#R#R#R#R#R#R#R#R#RaCaDQtQt",
"Qt#P#QaEaF#R#R#R#R#R#R#R#R#R#R#R#R#R#R#RaGaHQtQt",
"Qt#P#QaIaJ#R#R#R#R#R#R#R#R#R#R#R#R#R#R#RaKa#QtQt",
"Qt#PaLaM#R#R#R#R#R#R#R#R#R#R#R#R#R#R#R#ZaNQtQtQt",
"QtaOaPaQ#R#R#R#R#R#R#R#R#R#R#R#R#R#R#RaRaSQtQtQt",
"QtaTaUaV#R#R#R#R#R#R#R#R#R#R#R#R#R#R#RaW#nQtQtQt",
"QtQtaX#0#0#0#0#0#0#0#0#0#0#0#0#0#0#0#0aYaZQtQtQt",
"QtQta0a1a1a1a1a1a1a1a1a1a1a1a1a1a1a1a1a2QtQtQtQt"};
