/* XPM */
static char *cut_xpm[] = {
"24 24 207 2",
"Qt c None",
".m c #000000",
"aH c #000000",
"#R c #555555",
".0 c #333333",
".I c #393939",
"bd c #3b3b3b",
"ai c #373737",
"ae c #303030",
".M c #2d2d2d",
".f c #363636",
"#A c #333333",
".n c #313131",
"at c #3b3b3b",
".q c #353535",
"aA c #333333",
".c c #4d4d4d",
"## c #3a3a3a",
"#u c #343434",
".a c #444444",
"bi c #433d3d",
"aU c #413b3b",
".Z c #393939",
"#z c #3c3c3c",
"#t c #353535",
"#c c #3d3d3d",
"#k c #3f3f3f",
".P c #434343",
"aD c #383434",
"am c #473b3b",
"bj c #4d3e3e",
"#C c #443939",
".b c #4b4b4b",
"aY c #4c3b3b",
".E c #424242",
".g c #464646",
"aq c #373434",
".3 c #484848",
".A c #464646",
"#B c #473b3b",
"aQ c #453939",
"bc c #4f3e3e",
"bm c #534040",
"a7 c #543f3f",
".# c #515151",
"aK c #4c3f3f",
"aV c #523f3f",
"au c #3f3f3f",
".i c #464646",
"ab c #4a3d3d",
".j c #4a4a4a",
"aR c #543e3e",
"#p c #484848",
".t c #4c4c4c",
".U c #4a4a4a",
"aa c #554040",
"#Q c #574040",
"#h c #494949",
".D c #4b4b4b",
".8 c #4d4d4d",
"#9 c #544141",
"a8 c #5a4242",
"#v c #494949",
".Q c #4b4b4b",
"#8 c #574141",
"#D c #5b4141",
".4 c #4b4b4b",
"be c #604545",
".H c #555555",
"aj c #574141",
"aL c #563f3f",
"bh c #694747",
".T c #4e4e4e",
"ap c #564040",
".d c #575757",
"az c #584242",
"#o c #4f4f4f",
".x c #565656",
".l c #565656",
".7 c #505050",
".u c #505050",
"aE c #544040",
"a2 c #5a4141",
".W c #595959",
"bl c #734b4b",
"#g c #505050",
"aZ c #584141",
"#S c #5b4242",
"a1 c #5e4242",
"#. c #5d5d5d",
"#H c #634545",
"#0 c #515151",
"bk c #7e5050",
"#L c #544a4a",
".w c #575757",
"aN c #664646",
"#f c #4c4c4c",
"aG c #584242",
".N c #606060",
"#l c #636363",
"a4 c #825050",
"bg c #845151",
"#4 c #825151",
"#5 c #835151",
"bf c #865353",
".1 c #676767",
"ax c #644646",
"#V c #875353",
"b# c #895353",
".J c #595959",
".e c #666666",
"#d c #686868",
"an c #6a4747",
"#I c #595959",
".o c #5e5e5e",
"#E c #895454",
"#P c #815151",
".z c #6b6b6b",
"af c #585858",
".L c #646464",
".X c #666666",
"aX c #805050",
"#M c #8b5454",
"a6 c #8d5555",
"a3 c #995a5a",
"aO c #805050",
".r c #757575",
"aT c #825050",
"#a c #6f6f6f",
".p c #737373",
"aB c #925656",
"#W c #a96060",
"a9 c #a75e5e",
"aI c #674949",
".Y c #777777",
"al c #9d5b5b",
"a# c #aa5f5f",
"aS c #aa6161",
"ah c #784e4e",
"#j c #7a7a7a",
"#b c #7c7c7c",
".O c #848484",
"bb c #a45d5d",
".h c #636363",
"#G c #b26363",
".B c #878787",
"b. c #b66464",
"aW c #b66565",
".2 c #929292",
"a5 c #c16868",
"aw c #704c4c",
"#7 c #c66b6b",
"#Z c #8f8f8f",
".F c #919191",
"aC c #b26363",
"#U c #cc6c6c",
"#e c #969696",
"aP c #be6767",
"ba c #d36f6f",
"#s c #606060",
"#y c #828282",
".s c #9b9b9b",
"#i c #5f5f5f",
"#F c #c26969",
"#O c #cc6d6d",
"a. c #d37070",
"as c #6a4b4b",
"ak c #d67070",
"#6 c #dc7373",
"#2 c #775151",
"#K c #808080",
".V c #a0a0a0",
"aJ c #ba6767",
"#T c #df7373",
"#Y c #685757",
".R c #a1a1a1",
"#3 c #e97878",
"#q c #949494",
".k c #9e9e9e",
".C c #a0a0a0",
".9 c #a4a4a4",
"av c #a66161",
"ar c #b96565",
"ac c #cb6c6c",
"#r c #515151",
"#w c #6c6c6c",
"ad c #775959",
"#n c #8d8d8d",
"#m c #919191",
"#J c #9a9a9a",
"#x c #9e9e9e",
"#1 c #a3a3a3",
".5 c #a8a8a8",
".v c #acacac",
".S c #adadad",
"ag c #ae6464",
".G c #aeaeae",
".6 c #b0b0b0",
".y c #b2b2b2",
".K c #b3b3b3",
"#N c #da7272",
"aF c #e87777",
"ao c #ed7979",
"#X c #f07a7a",
"aM c #f37b7b",
"ay c #f67c7c",
"a0 c #f97e7e",
"QtQtQtQtQt.#.aQtQtQtQtQtQtQtQtQtQtQt.b.cQtQtQtQt",
"QtQtQtQtQt.d.e.fQtQtQtQtQtQtQtQtQt.g.h.iQtQtQtQt",
"QtQtQtQtQt.j.k.l.mQtQtQtQtQtQtQt.n.o.p.qQtQtQtQt",
"QtQtQtQtQt.f.r.s.tQtQtQtQtQtQtQt.u.v.wQtQtQtQtQt",
"QtQtQtQtQtQt.x.y.z.nQtQtQtQtQt.A.B.C.DQtQtQtQtQt",
"QtQtQtQtQtQt.E.F.G.HQtQtQtQt.I.J.K.L.MQtQtQtQtQt",
"QtQtQtQtQtQt.m.N.K.O.PQtQtQt.Q.R.S.TQtQtQtQtQtQt",
"QtQtQtQtQtQtQt.U.V.y.WQtQt.n.X.K.Y.ZQtQtQtQtQtQt",
"QtQtQtQtQtQtQt.0.1.K.2.3Qt.4.5.6.7QtQtQtQtQtQtQt",
"QtQtQtQtQtQtQtQt.8.9.K#.###a.K#b#cQtQtQtQtQtQtQt",
"QtQtQtQtQtQtQtQt.I#d.K#e#f.S.6#gQtQtQtQtQtQtQtQt",
"QtQtQtQtQtQtQtQtQt#h.V.K#i.K#j#kQtQtQtQtQtQtQtQt",
"QtQtQtQtQtQtQtQtQt.0#l.K#m#n#oQtQtQtQtQtQtQtQtQt",
"QtQtQtQtQtQtQtQtQtQt#p#q#r#s##QtQtQtQtQtQtQtQtQt",
"QtQtQtQtQtQt.0#t#uQt#v#w#x#y#z#A#B#C.0QtQtQtQtQt",
"QtQtQtQt.0#D#E#F#G#H#I#J#K.6#L#M#N#O#P#QQtQtQtQt",
"QtQtQt#R#S#T#U#V#W#X#Y#Z#0#1#2#3#4#5#6#7#8QtQtQt",
"QtQtQt#9a.a#aa.mabacad#gaeafagahai#RajakalamQtQt",
"QtQt.manaoapQtQtaqarasatQtauavaw.0Qt.0axayazQtQt",
"QtQtaAaBaCaDQtQtaEaFaGQtQtaHaIaJaKQtQtaLaMaNQtQt",
"QtQtaiaOaPaQQtaRaSaTaUQtQtQtaVaWaXaY.maZa0a1QtQt",
"QtQtQta2aFa3a4a5a6a7QtQtQtQtQta8a9b.b#babbbcQtQt",
"QtQtQtbdbebfbgbhbiQtQtQtQtQtQtQtbjbhbkblbmQtQtQt",
"QtQtQtQtQtQtQtQtQtQtQtQtQtQtQtQtQtQtQtQtQtQtQtQt"};
