/* XPM */
static char * delete_xpm[]={
"24 24 158 2",
"Qt c None",
"aw c #000000",
".w c #000000",
"#H c #404040",
".f c #2b2b2b",
".g c #242424",
".o c #393939",
"#q c #373737",
".J c #333333",
"a. c #363636",
".e c #2e2e2e",
"#5 c #353535",
".Y c #313131",
"#G c #2f2f2f",
"#1 c #373737",
"#D c #353535",
"#v c #333333",
"#l c #333333",
".# c #303030",
".d c #363636",
"aq c #313131",
".T c #353535",
".I c #393434",
".c c #333333",
".S c #393939",
"a# c #3b3b3b",
".b c #323232",
".2 c #3e3737",
"#z c #3c3636",
"#V c #3f3838",
".N c #3d3636",
"ap c #423939",
"ar c #323232",
".O c #3e3838",
"#r c #3e3838",
".a c #343434",
".3 c #443a3a",
"as c #343131",
"#. c #453939",
"#C c #423838",
"#U c #443a3a",
"#Y c #463a3a",
"aB c #3d3737",
"av c #473a3a",
"at c #433838",
"aj c #473a3a",
".h c #453a3a",
"aA c #493c3c",
"ad c #453a3a",
".6 c #473c3c",
"au c #4a3c3c",
"#f c #473b3b",
"#O c #483a3a",
"ac c #473a3a",
"ax c #4b3b3b",
".E c #493c3c",
"az c #4d3d3d",
"## c #483c3c",
".i c #4d3d3d",
"#R c #413838",
"ay c #4e3e3e",
"#4 c #473b3b",
".j c #4d3d3d",
"#k c #4a3b3b",
".x c #473a3a",
"#N c #483c3c",
".D c #493b3b",
"#Z c #483b3b",
"#y c #483a3a",
"#w c #453a3a",
".7 c #493c3c",
"#I c #483b3b",
".k c #4b3c3c",
"#8 c #493b3b",
"#g c #473a3a",
".p c #493b3b",
".l c #4d3d3d",
"#p c #483b3b",
".K c #4a3c3c",
".X c #4a3b3b",
".m c #523f3f",
"#9 c #4c3d3d",
"#u c #4e3e3e",
".Z c #503d3d",
"#2 c #513e3e",
"#F c #533f3f",
"#m c #543f3f",
".H c #564040",
"#Q c #574141",
".U c #584141",
".t c #7a4e4e",
".R c #5b4343",
".n c #453a3a",
".1 c #614545",
"aa c #664545",
"#W c #6e4949",
".u c #5c4343",
"#A c #6e4949",
"#s c #794d4d",
".s c #8a5454",
".P c #774c4c",
".9 c #7c4f4f",
"#c c #5a4141",
"ai c #764c4c",
".4 c #7e4f4f",
".M c #845151",
".v c #393535",
"#T c #8e5555",
"#B c #8f5656",
"#X c #8d5555",
"ak c #985a5a",
"#L c #8c5454",
".r c #9b5a5a",
"#e c #a25c5c",
"#d c #a25d5d",
"#S c #a65f5f",
"#P c #ab6060",
".5 c #ad6161",
"ao c #513e3e",
"ae c #654646",
"ab c #b16262",
"#a c #b66464",
".F c #b96666",
".q c #aa5f5f",
"#j c #c46a6a",
".y c #a45d5d",
"#3 c #cc6c6c",
"#0 c #d16f6f",
"#M c #d57070",
".8 c #d77070",
"#J c #da7171",
"af c #b46464",
"ag c #c16969",
"an c #cc6d6d",
"ah c #cd6d6d",
"#x c #d97171",
"am c #db7272",
".C c #dd7373",
"#o c #df7474",
"#h c #e07474",
"#K c #e17474",
"#7 c #e17575",
".L c #e67676",
"al c #ea7878",
".z c #ec7979",
"#t c #f07a7a",
".G c #f17a7a",
"#6 c #f17b7b",
".W c #f27b7b",
"#E c #f47c7c",
".Q c #f57c7c",
"#n c #f77d7d",
".V c #f97d7d",
"#i c #fa7e7e",
".0 c #fb7e7e",
".A c #fc7f7f",
"#b c #fe7f7f",
".B c #ff8080",
"QtQtQtQtQtQtQtQtQtQtQtQtQtQtQtQtQtQtQtQtQtQtQtQt",
"QtQtQtQtQtQtQtQtQtQtQtQtQtQtQtQtQtQtQtQtQtQtQtQt",
"QtQtQtQtQtQtQtQtQtQtQtQtQtQtQt.#.a.b.c.d.e.fQtQt",
"Qt.g.h.i.j.k.l.m.n.#QtQtQtQt.o.p.q.r.s.t.u.v.fQt",
"Qt.w.x.y.z.A.B.B.C.DQtQtQtQt.E.F.B.B.B.G.H.IQtQt",
"QtQt.J.K.L.B.B.B.B.M.NQtQt.O.P.B.B.B.Q.R.SQtQtQt",
"QtQtQt.T.U.V.B.B.B.W.X.g.Y.Z.Q.B.B.0.1.2QtQtQtQt",
"QtQtQtQt.3.4.B.B.B.B.5.6.7.8.B.B.B.9#.QtQtQtQtQt",
"QtQtQtQtQt###a.B.B.B#b#c#d.B.B.B#e#fQtQtQtQtQtQt",
"QtQtQtQtQt.g#g#h.B.B.B#i.B.B.B#j#k.wQtQtQtQtQtQt",
"QtQtQtQtQtQt#l#m#n.B.B.B.B.B#o#p#qQtQtQtQtQtQtQt",
"QtQtQtQtQtQtQt#r#s.B.B.B.B#t#u#vQtQtQtQtQtQtQtQt",
"QtQtQtQtQtQtQtQt#w#x.B.B.B.C#yQtQtQtQtQtQtQtQtQt",
"QtQtQtQtQtQtQt#z#A.B.B.B.B.B#B#CQtQtQtQtQtQtQtQt",
"QtQtQtQtQtQt#D.Z#E.B.B.B.B.B#i#F#GQtQtQtQtQtQtQt",
"QtQtQtQtQt#H#I#J.B.B#K#L.B.B.B#M#NQtQtQtQtQtQtQt",
"QtQtQtQtQt#O#P.B.B.0#Q#R#S.B.B.B#T#UQtQtQtQtQtQt",
"QtQtQtQt#V#W.B.B.B#X#Y.w#Z#0.B.B.A.U.dQtQtQtQtQt",
"QtQtQt#1#2.Q.B.B#3#4QtQt#5#u#6.B.B#7#8.fQtQtQtQt",
"QtQt#H#I#J.B.B.W#9a.QtQtQta#aa#b.B.BabacQtQtQtQt",
"QtQtadaeafagahai#VQtQtQtQtQtajakalamanaoapQtQtQt",
"QtQtaqarasatauavQtQtQtQtQtQtawaxayazaAaB.TQtQtQt",
"QtQtQtQtQtQtQtQtQtQtQtQtQtQtQtQtQtQtQtQtQtQtQtQt",
"QtQtQtQtQtQtQtQtQtQtQtQtQtQtQtQtQtQtQtQtQtQtQtQt"};
