/* XPM */
static char *dummy[]={
"24 24 101 2",
"Qt c None",
"#H c #ff0000",
"#F c #ff0000",
".# c #ff0000",
"#C c #ff0000",
"#A c #ff0000",
".a c #ff0000",
".j c #353535",
"#q c #313131",
"#u c #792020",
".i c #ff0000",
"#I c #ff0000",
".g c #ff0000",
".f c #ff0000",
"#G c #ff0000",
".r c #3f3f3f",
".d c #ff0000",
"#z c #414141",
"#E c #ff0000",
".b c #ff0000",
".n c #c50d0d",
"#D c #ff0000",
"#B c #ff0000",
"#v c #ff0000",
".s c #393939",
"#h c #393939",
".C c #3c3c3c",
"#l c #dd0909",
".h c #ff0000",
".e c #ff0000",
"#g c #d90a0a",
".c c #ff0000",
"#k c #5e3a3a",
"#e c #db0a0a",
".o c #464646",
".9 c #de0808",
".2 c #e00808",
".x c #ea0606",
"#w c #454545",
".0 c #e30707",
"#f c #613c3c",
"#d c #643b3b",
".S c #e50707",
".8 c #673a3a",
".w c #862a2a",
".J c #e30606",
".Y c #e50707",
".1 c #6a3939",
".Z c #6c3737",
".X c #723636",
".W c #763434",
".R c #7c3232",
".I c #803030",
".k c #454545",
"#r c #434343",
".m c #454545",
"#t c #434343",
".B c #424242",
"#p c #434343",
".q c #434343",
".M c #404040",
"#y c #3f3f3f",
".p c #414141",
".K c #6a6a6a",
".l c #414141",
".y c #5b5b5b",
"#m c #5e5e5e",
"#x c #3a3a3a",
"#s c #3a3a3a",
".t c #9b9b9b",
"#i c #9d9d9d",
".v c #b0b0b0",
"#j c #b2b2b2",
".P c #00ff00",
".O c #0cff0c",
".Q c #1cff1c",
".N c #aaadaa",
".U c #aaffaa",
".D c #acacac",
".H c #bfbfbf",
".T c #c5ffc5",
".V c #cbffcb",
".F c #ccffcc",
".E c #e5ffe5",
".A c #e8e8e8",
".G c #e9ffe9",
"#o c #eaeaea",
".L c #f7f7f7",
"#c c #f8dede",
".7 c #f9bfbf",
".z c #fdfdfd",
"#n c #fefefe",
".5 c #ff1111",
".4 c #ff1212",
".6 c #ff1818",
"#a c #ff6666",
"## c #ff6767",
"#b c #ff6e6e",
".3 c #ff8e8e",
"#. c #ffc5c5",
".u c #ffffff",
"QtQtQtQtQtQtQtQtQtQtQt.#.aQtQtQtQtQtQtQtQtQtQtQt",
"QtQtQtQtQtQtQtQtQtQtQt.b.cQtQtQtQtQtQtQtQtQtQtQt",
"QtQtQtQtQtQtQtQtQtQtQt.d.eQtQtQtQtQtQtQtQtQtQtQt",
"QtQtQtQtQtQtQtQtQtQtQt.f.eQtQtQtQtQtQtQtQtQtQtQt",
"QtQtQtQtQtQtQtQtQtQtQt.g.hQtQtQtQtQtQtQtQtQtQtQt",
"QtQtQtQtQtQtQtQtQtQtQt.i.hQtQtQtQtQtQtQtQtQtQtQt",
".j.k.l.l.l.l.l.l.l.l.m.n.h.o.p.l.l.l.l.l.l.l.q.r",
".s.t.u.u.u.u.u.u.u.u.v.w.x.y.z.u.u.u.u.u.u.u.A.B",
".C.D.E.F.F.F.F.F.F.G.H.I.J.K.u.u.u.u.u.u.u.u.L.M",
".C.N.O.P.P.P.P.P.P.Q.H.R.S.K.u.u.u.u.u.u.u.u.L.M",
".C.D.T.U.U.U.U.U.U.V.H.W.S.K.u.u.u.u.u.u.u.u.L.M",
".C.D.u.u.u.u.u.u.u.u.H.X.Y.K.u.u.u.u.u.u.u.u.L.M",
".C.D.u.u.u.u.u.u.u.u.H.Z.0.K.u.u.u.u.u.u.u.u.L.M",
".C.D.u.u.u.u.u.u.u.u.H.1.2.K.3.4.5.5.5.5.5.6.7.M",
".C.D.u.u.u.u.u.u.u.u.H.8.9.K#.###a#a#a#a#a#b#c.M",
".C.D.u.u.u.u.u.u.u.u.H#d#e.K.u.u.u.u.u.u.u.u.L.M",
".C.D.u.u.u.u.u.u.u.u.H#f#g.K.u.u.u.u.u.u.u.u.L.M",
"#h#i.u.u.u.u.u.u.u.u#j#k#l#m#n.u.u.u.u.u.u.u#o#p",
"#q#r#s#s#s#s#s#s#s#s#t#u#v#w#x#s#s#s#s#s#s#s#y#z",
"QtQtQtQtQtQtQtQtQtQtQt#A#BQtQtQtQtQtQtQtQtQtQtQt",
"QtQtQtQtQtQtQtQtQtQtQt#C#DQtQtQtQtQtQtQtQtQtQtQt",
"QtQtQtQtQtQtQtQtQtQtQt.##EQtQtQtQtQtQtQtQtQtQtQt",
"QtQtQtQtQtQtQtQtQtQtQt#F#GQtQtQtQtQtQtQtQtQtQtQt",
"QtQtQtQtQtQtQtQtQtQtQt#H#IQtQtQtQtQtQtQtQtQtQtQt"};
