/* XPM */
static char *filesaveas_xpm[] = {
"24 24 170 2",
"Qt c None",
".X c #000000",
"aj c #333333",
"as c #2b2b2b",
"aN c #242424",
".F c #2d2d2d",
".k c #363636",
"aG c #353535",
".P c #313b31",
"ao c #39442f",
".# c #373737",
".7 c #36442d",
"ae c #36452c",
"aF c #3e3e3e",
"aM c #3f3f3f",
".v c #3f3f3f",
"aH c #3e3e3e",
"#5 c #375027",
"#d c #375227",
".j c #414141",
"az c #404040",
"ay c #434343",
".E c #434343",
".O c #444444",
".Y c #374e26",
".a c #414141",
"aI c #434343",
".l c #414141",
"aL c #434343",
"#U c #385c22",
"aJ c #454545",
"ap c #375125",
"#n c #3a5e21",
"ak c #395923",
".Q c #385426",
"aK c #4b4b4b",
".i c #484848",
".b c #494949",
"#M c #396120",
"aw c #474747",
".c c #4b4b4b",
"#B c #3a631f",
".w c #484848",
".h c #525252",
".d c #5f5f5f",
"at c #3d4935",
".G c #3b4b30",
"#V c #3b4e30",
"#6 c #3c522d",
"#N c #3c532e",
".8 c #408b0d",
".g c #7e7e7e",
"ag c #3a5927",
"#C c #3b5a27",
"af c #40910b",
".e c #898989",
".f c #8f8f8f",
"am c #3e7e14",
"aE c #606060",
"#o c #3f8510",
"#E c #373e32",
"#J c #3a4f2c",
"au c #3b5629",
"#P c #3f582f",
".V c #3f592e",
".1 c #3f6923",
"#e c #40592f",
".5 c #406f20",
"#. c #415633",
"#F c #415733",
".H c #41751d",
"#R c #418a0f",
"aq c #41940a",
"#S c #419808",
".U c #419907",
"#K c #42900d",
"#w c #42940c",
"#Q c #429a07",
".I c #429f04",
"#Z c #42a004",
"#H c #434b3e",
"ar c #435438",
".K c #438616",
"#I c #43a005",
".R c #43a104",
".9 c #43a204",
".Z c #43a402",
".T c #43a900",
"#t c #44a403",
".0 c #44a602",
".J c #44a801",
".4 c #44a900",
"al c #44a901",
".S c #44aa00",
"#p c #454943",
"#T c #45533c",
".z c #46523e",
"#L c #475340",
"#x c #475d39",
".3 c #476733",
"ax c #4a5542",
"#G c #4b5644",
"#Y c #4b7431",
".y c #4c5745",
"av c #4c5845",
"#c c #4d5e42",
"#h c #4d653e",
"#b c #516843",
".L c #55644b",
"#k c #556649",
"#u c #566d47",
".2 c #58694d",
"#0 c #596a4e",
"#X c #596b4d",
"## c #5a5a59",
".W c #5a5d58",
"an c #5b5c59",
"#j c #5c6a53",
".x c #5d5e5c",
"#D c #5d5f5b",
"#g c #5d6d53",
".M c #5e5e5e",
"#q c #5f605f",
"#v c #5f6c56",
"#O c #60605f",
".C c #616161",
".u c #636363",
".n c #646464",
"aa c #647f52",
"#4 c #656565",
".m c #666666",
".6 c #666c62",
"#s c #677360",
"#A c #696969",
"#W c #696a69",
"ad c #6c6c6c",
"ai c #6d6d6d",
"a# c #718265",
"#r c #727272",
"aA c #747474",
".t c #7c7c7c",
"#m c #7e7e7e",
".N c #7f7f7f",
".A c #80857d",
".D c #818181",
".r c #838383",
".q c #8b8b8b",
"#7 c #8c8c8c",
"ah c #8e8e8e",
".o c #979797",
"#f c #9d9d9d",
"#z c #9f9f9f",
"#3 c #a0a0a0",
".B c #a3a3a3",
"#a c #a5a5a5",
"#l c #a5a6a5",
"#y c #a8a8a8",
"a. c #abb1a7",
".s c #acacac",
"#i c #b2b2b2",
".p c #b3b3b3",
"aD c #bebebe",
"#1 c #c2c2c2",
"#2 c #c6c6c6",
"aB c #dddddd",
"aC c #f1f1f1",
"#9 c #f2f2f2",
"ab c #f4f4f4",
"ac c #fefefe",
"#8 c #ffffff",
"QtQtQtQtQtQtQtQtQtQtQtQtQtQtQtQtQtQtQtQtQtQtQtQt",
"QtQtQtQtQtQtQtQtQtQtQtQtQtQtQtQtQtQtQtQtQtQtQtQt",
"QtQtQt.#.a.b.c.d.e.f.f.f.f.f.f.f.f.g.h.c.i.j.kQt",
"QtQtQt.l.m.m.n.o.p.q.r.s.p.p.p.p.p.p.t.m.m.u.vQt",
"QtQtQt.w.x.y.z.A.B.C.m.r.p.p.p.p.p.p.D.m.m.m.EQt",
"QtQt.F.G.H.I.J.K.L.M.m.N.p.p.p.p.p.p.D.m.m.m.OQt",
"Qt.P.Q.R.S.S.S.T.U.V.W.N.p.p.p.p.p.p.D.m.m.m.OQt",
".X.Y.Z.S.S.0.1.2.3.4.5.6.p.p.p.p.p.p.D.m.m.m.OQt",
".7.8.S.S.9#.###a#b.S.S#c.p.p.p.p.p.p.D.m.m.m.OQt",
"#d.4.S.4#e.u.C#f#g.S.S#h#i#j#k#l.p.p#m.m.m.m.OQt",
"#n.S.S#o#p#q.m#r#s#t.S#u#v#w.Z#x#y#z#A.m.m.m.OQt",
"#B.S.S#C#D#E#F#G#H#I.S#J#K.S#K#L.n.u.m.m.m.m.OQt",
"#M.S.S#N.m#O#P#Q#R.J.S.J.S#S#T.m.m.m.m.m.m.m.OQt",
"#U.S.S#V.m.m#W#X#Y#w.S.S#Z#0#1#2#2#2#3#4.m.m.OQt",
"#5.4.S#6.m.m#7#8#9a.a#aaa#ab#8#8#8#8acad.m.m.OQt",
"aeaf.Sag.m.mah#8#8#8#8#8#8#8#8#8#8#8#8ai.m.m.OQt",
"ajakalaman.mah#8#8#8#8#8#8#8#8#8#8#8#8ai.m.m.OQt",
"Qtaoapaqar.mah#8#8#8#8#8#8#8#8#8#8#8#8ai.m.m.OQt",
"QtQtasatauavah#8#8#8#8#8#8#8#8#8#8#8#8ai.m.m.OQt",
"QtQtQtaw.Waxah#8#8#8#8#8#8#8#8#8#8#8#8ai.m.mayQt",
"QtQtQtaz.n.maAaBaCaCaCaCaCaCaCaCaCaCaD.m.maEaFQt",
"QtQtQtaGaHaIaIaJaKaKaKaKaKaKaKaKaKaKaLaI.OaMaNQt",
"QtQtQtQtQtQtQtQtQtQtQtQtQtQtQtQtQtQtQtQtQtQtQtQt",
"QtQtQtQtQtQtQtQtQtQtQtQtQtQtQtQtQtQtQtQtQtQtQtQt"};
