/* XPM */
static char *filesave_xpm[] = {
"24 24 82 2",
"Qt c None",
".f c #000000",
".s c #333333",
".# c #333333",
".e c #2d2d2d",
".a c #353535",
".d c #373737",
".b c #353535",
".c c #343434",
"#b c #313131",
"#h c #343434",
".t c #333333",
".E c #373737",
"#i c #373737",
"#p c #363636",
"#. c #383838",
".F c #373737",
".O c #383838",
"#a c #383838",
".N c #393939",
".T c #393939",
".g c #393939",
".r c #383838",
"#j c #383838",
"#o c #383838",
"#k c #393939",
".i c #414141",
".p c #414141",
".j c #424242",
".h c #3b3b3b",
".q c #3c3c3c",
"#n c #404040",
"#l c #414141",
"#m c #454545",
"#c c #404040",
"#g c #444444",
".u c #484848",
".D c #4c4c4c",
".o c #6a6a6a",
".k c #6f6f6f",
".n c #8f8f8f",
".l c #909090",
".m c #949494",
"## c #555555",
".G c #565656",
".M c #595959",
".S c #5a5a5a",
".Q c #606060",
".J c #616161",
".W c #646464",
".3 c #656565",
".v c #666666",
".C c #676767",
".Y c #6a6a6a",
".w c #6b6b6b",
".L c #6c6c6c",
".U c #6d6d6d",
".H c #707070",
".P c #7c7c7c",
".z c #7f7f7f",
".I c #808080",
".2 c #848484",
".4 c #858585",
".V c #898989",
".Z c #8a8a8a",
".A c #8c8c8c",
"#d c #8f8f8f",
".R c #a6a6a6",
".y c #a8a8a8",
".K c #ababab",
".0 c #afafaf",
".X c #b0b0b0",
".1 c #b1b1b1",
".B c #b2b2b2",
".x c #b3b3b3",
".7 c #b8b8b8",
".9 c #b9b9b9",
".5 c #c3c3c3",
".6 c #c6c6c6",
"#e c #ededed",
"#f c #f1f1f1",
".8 c #ffffff",
"QtQtQtQtQtQtQtQtQtQtQtQtQtQtQtQtQtQtQtQtQtQtQtQt",
"QtQtQtQt.#.a.a.a.b.c.c.c.c.c.c.c.d.a.a.a.eQtQtQt",
"QtQt.f.g.h.i.j.k.l.m.m.m.m.m.m.m.n.o.p.i.q.r.sQt",
"QtQt.t.u.v.v.w.x.y.z.A.x.x.x.x.x.x.B.C.v.v.D.EQt",
"QtQt.F.G.v.v.H.x.I.v.J.K.x.x.x.x.x.x.L.v.v.M.NQt",
"QtQt.O.G.v.v.H.x.P.v.Q.R.x.x.x.x.x.x.L.v.v.S.TQt",
"QtQt.O.G.v.v.H.x.P.v.Q.R.x.x.x.x.x.x.L.v.v.S.TQt",
"QtQt.O.G.v.v.H.x.P.v.Q.R.x.x.x.x.x.x.L.v.v.S.TQt",
"QtQt.O.G.v.v.H.x.P.v.Q.R.x.x.x.x.x.x.L.v.v.S.TQt",
"QtQt.O.G.v.v.U.x.V.J.W.X.x.x.x.x.x.x.Y.v.v.S.TQt",
"QtQt.O.G.v.v.W.Z.B.y.0.x.x.x.x.x.1.2.W.v.v.S.TQt",
"QtQt.O.G.v.v.v.3.J.Q.Q.Q.Q.Q.Q.Q.Q.W.v.v.v.S.TQt",
"QtQt.O.G.v.v.v.v.v.v.v.v.v.v.v.v.v.v.v.v.v.S.TQt",
"QtQt.O.G.v.v.4.5.6.6.6.6.6.6.6.6.6.5.4.v.v.S.TQt",
"QtQt.O.G.v.v.7.8.8.8.8.8.8.8.8.8.8.8.7.v.v.S.TQt",
"QtQt.O.G.v.v.9.8.8.8.8.8.8.8.8.8.8.8.9.v.v.S.TQt",
"QtQt.O.G.v.v.9.8.8.8.8.8.8.8.8.8.8.8.9.v.v.S.TQt",
"QtQt.O.G.v.v.9.8.8.8.8.8.8.8.8.8.8.8.9.v.v.S.TQt",
"QtQt.O.G.v.v.9.8.8.8.8.8.8.8.8.8.8.8.9.v.v.S.TQt",
"QtQt#.##.v.v.9.8.8.8.8.8.8.8.8.8.8.8.9.v.v.M#aQt",
"QtQt#b#c.W.v#d#e#f#f#f#f#f#f#f#f#f#e#d.v.3#g#hQt",
"QtQtQt#i#j#k#k#l#m#m#m#m#m#m#m#m#m#n#k#k#o#pQtQt",
"QtQtQtQtQtQtQtQtQtQtQtQtQtQtQtQtQtQtQtQtQtQtQtQt",
"QtQtQtQtQtQtQtQtQtQtQtQtQtQtQtQtQtQtQtQtQtQtQtQt"};
