/* XPM */
static char *fileclose_xpm[] = {
"24 24 160 2",
"Qt c None",
".# c #000000",
"aA c #555555",
"as c #404040",
"aD c #2b2b2b",
".i c #373737",
".h c #333333",
".d c #303030",
"aB c #303030",
"ap c #363636",
"aC c #353535",
".p c #333333",
"aw c #353535",
"ax c #323232",
".a c #343434",
".o c #343434",
".c c #323232",
"ar c #333333",
".t c #343434",
".b c #333333",
"az c #323232",
".e c #343434",
".g c #353535",
"ay c #343434",
"at c #353535",
".j c #333333",
"au c #505050",
".f c #333333",
"#8 c #584c44",
".F c #625349",
".P c #645b55",
"av c #727272",
"#i c #75655a",
".k c #787878",
"#C c #79695e",
"ah c #796c64",
".9 c #7a695d",
"#t c #7a695e",
"#2 c #7b6a5f",
"#B c #7b6b60",
".L c #7b6c63",
"#a c #7c6d63",
"#y c #7d6759",
".2 c #7f6554",
"#o c #816654",
".X c #836754",
"#H c #857971",
"#R c #876955",
"#6 c #877b72",
"#7 c #878584",
"aa c #886854",
"ae c #886c59",
"af c #886f5f",
"ad c #896954",
"#4 c #896b56",
"ag c #897365",
"#X c #8a7d75",
".5 c #8f6c54",
"#F c #92877f",
"#c c #948a83",
"#e c #956f55",
"#W c #958b84",
".Z c #958b85",
".J c #978e88",
"#P c #979390",
"#M c #9d948e",
"aj c #9e9e9e",
".T c #9f7153",
"#J c #a06f4e",
"aq c #a0a0a0",
"#1 c #a17354",
".q c #a1a1a1",
"ac c #a39b95",
".R c #a47454",
"#Q c #a57453",
".y c #a59d98",
"#O c #a67453",
".x c #a69e98",
".6 c #a77250",
".V c #a9a19d",
".O c #ac724c",
".7 c #aca7a3",
"#U c #ad7854",
"#K c #ae7853",
"#9 c #b17751",
"#T c #b1aaa5",
"#w c #b1adaa",
".n c #b1b1b1",
".B c #b5b1ae",
".w c #b6b2af",
"#0 c #b9b4b0",
"#v c #ba7a4f",
"an c #bbb8b6",
"#L c #bcb7b3",
"a. c #bf7a4d",
".C c #c1c0c0",
".I c #c37e50",
".W c #c48052",
".v c #c5c5c5",
".N c #c67c4b",
".Q c #c6c2c0",
"#N c #c78152",
".U c #c9c5c3",
"am c #c9c9c9",
"ai c #cbcbcb",
"a# c #cc804d",
"ao c #cecccb",
".D c #cecece",
".M c #cf814d",
".4 c #cfcece",
".G c #d0824d",
"#m c #d18451",
"#b c #d68651",
"al c #d6d6d6",
"#V c #d78751",
".0 c #d78752",
"#p c #d7d7d6",
"#f c #d98852",
"#j c #dadada",
"#E c #db8951",
".3 c #dbdbdb",
"#d c #dcdbda",
"#g c #dd8951",
".E c #dddddd",
"#I c #df8a51",
"#5 c #e08a51",
"ab c #e0dfdf",
".H c #e18a50",
"#S c #e1e0e0",
"#k c #e1e1e1",
"#q c #e2e2e2",
"ak c #e3e3e3",
".s c #e4e4e4",
".Y c #e6e6e5",
".A c #e9e9e8",
"#x c #eaeaea",
"#3 c #ebebeb",
"#Y c #ec9052",
".l c #ededed",
"#D c #ee9052",
".K c #eeeeee",
"## c #f19253",
".m c #f1f1f1",
"#h c #f39353",
"#A c #f49453",
"#Z c #f69453",
".u c #f6f6f6",
"#l c #f7f7f7",
"#. c #f89654",
"#r c #f9f9f9",
"#u c #fa9654",
".8 c #fafafa",
"#z c #fc9855",
"#s c #fcfcfc",
".1 c #fd9854",
".z c #fdfdfd",
"#n c #fe9855",
"#G c #fefefe",
".S c #ff9955",
".r c #ffffff",
"QtQtQt.#.a.b.b.b.b.b.b.b.b.b.b.b.b.b.b.b.c.dQtQt",
"QtQtQt.e.f.f.f.f.f.f.f.f.f.f.f.f.f.f.f.f.f.g.hQt",
"QtQt.i.j.k.l.m.m.m.m.m.m.m.m.m.m.m.m.m.m.n.f.oQt",
"QtQt.p.f.q.r.r.r.r.r.r.r.r.r.r.r.r.r.r.r.s.f.tQt",
"QtQt.p.f.q.u.v.w.x.y.z.r.r.r.r.A.B.C.D.E.s.f.tQt",
"QtQt.p.f.q.l.F.G.H.I.J.K.K.K.l.L.M.N.O.P.s.f.tQt",
"QtQt.p.f.q.r.Q.R.S.S.T.U.r.r.V.W.S.S.X.Y.s.f.tQt",
"QtQt.p.f.q.r.r.Z.0.S.1.2.3.4.5.S.S.6.7.r.s.f.tQt",
"QtQt.p.f.q.r.r.8.9#..S###a.9#..S#b#c.r.r.s.f.tQt",
"QtQt.p.f.q.r.r.r#d#e.S.S#f#g.S#h#i#j#k.r.s.f.tQt",
"QtQt.p.f.q.r.r#l.K.J#m.S.S.S#n#o#p.K#q#r.s.f.tQt",
"QtQt.p.f.q.r.r.r.r#s#t#u.S.S#v#w.r.r.m#s.s.f.tQt",
"QtQt.p.f.q.r.r.r.r#x#y#z.S.S#A#B.8.r.r.r.s.f.tQt",
"QtQt.p.f.q.r.r.r#r#C#D.S.S.S.S#E#F.r.r.r.s.f.tQt",
"QtQt.p.f.q.r.r#G#H#I.S#n#J#z.S.S#K#L.r.r.s.f.tQt",
"QtQt.p.f.q.r.r#M#N.S.S#O#P#Q.S.S.S#R#S.r.s.f.tQt",
"QtQt.p.f.q.r#T#U.S.S#V#W.r#X#Y.S.S#Z.9#l.s.f.tQt",
"QtQt.p.f.q#0#1.S.S#Z#2.8.r#3#4.S.S.S#5#6.s.f.tQt",
"QtQt.p.f#7#8#9a.a#aaab.r.r.racadaeafagahai.f.tQt",
"QtQt.p.fajakalamanao.r.r.r.r#G#l.r.r.r.r.s.f.tQt",
"QtQtap.faq.r.r.r.r.r.r.r.r.r.r.r.r.r.r.r#q.farQt",
"QtQtasatauajaqaqaqaqaqaqaqaqaqaqaqaqaqaqav.fawQt",
"QtQtQtaxay.f.f.f.f.f.f.f.f.f.f.f.f.f.f.f.jazQtQt",
"QtQtQtQtaAaBaCaCaCaCaCaCaCaCaCaCaCaCaCaCaDQtQtQt"};
