/* XPM */
static char *fileopen_xpm[] = {
"24 24 158 2",
"Qt c None",
".u c #000000",
"#0 c #2b2b2b",
"aB c #242424",
"ap c #404040",
".G c #393939",
".# c #303030",
".e c #313131",
".5 c #373737",
"az c #333333",
"aA c #323232",
"#Q c #323232",
".d c #353535",
"#g c #353531",
"ay c #353535",
".a c #323232",
"#F c #35402c",
"aq c #333333",
"#q c #35432b",
".c c #333333",
".i c #343434",
".j c #323232",
".b c #333333",
"am c #333333",
".v c #323232",
"aa c #333530",
".N c #33392f",
"aw c #343434",
"av c #353535",
"#8 c #364a29",
".f c #353535",
".X c #364d27",
".t c #343434",
"#1 c #3a5e21",
"ax c #353535",
".6 c #3b6b1b",
"#R c #3d7e12",
"au c #4b4b4b",
".h c #333333",
"#h c #3f890e",
".s c #606060",
".g c #333333",
"ae c #343931",
".H c #35402e",
"ab c #3b6b1a",
".O c #3c7318",
"#v c #3f4938",
"#G c #40910a",
"#S c #418a10",
"#H c #41920b",
".2 c #428c10",
"#X c #42900e",
".J c #42950a",
"#r c #429609",
"## c #429808",
"#z c #429a07",
"#o c #429b07",
".y c #429c06",
"#M c #429e05",
"#s c #42a203",
"aj c #435637",
"ag c #438815",
".S c #438b14",
".K c #43930d",
"#L c #43a502",
"a. c #43a701",
"#B c #43a900",
".T c #44a702",
"#9 c #44a801",
".A c #44a900",
".z c #44aa00",
".7 c #479214",
"#A c #486734",
".P c #498e1a",
".I c #4a8820",
".B c #4c8327",
"#Y c #4d7e2c",
".1 c #4e7d30",
".Y c #4e8429",
"#c c #4f693d",
"#C c #506e3c",
"#N c #507636",
"#K c #517738",
"#n c #53763b",
".U c #547142",
".x c #54773e",
"#W c #547a3b",
"#y c #556d45",
"af c #567244",
"#. c #567640",
"#i c #5b724b",
"ac c #5b7848",
".L c #617555",
"#w c #617950",
"#l c #617d4f",
".Q c #657958",
"#p c #67725f",
".n c #697b5d",
".o c #6b7c60",
"#V c #6c7f5f",
"#d c #6d7a63",
"#6 c #708462",
"ai c #76846c",
"#5 c #79886f",
"a# c #7b8972",
"#x c #7c8873",
"#m c #81877c",
".C c #86917e",
".R c #888d84",
".m c #889182",
"ar c #898989",
"#j c #898e85",
"#t c #8a9582",
"ao c #8c8c8c",
".F c #8d8d8d",
".8 c #98a192",
"#a c #9ca498",
"ah c #9fa699",
".Z c #a0a89a",
".w c #a6aea1",
"at c #a9a9a9",
"#2 c #a9b0a5",
"as c #adadad",
"#Z c #b2b7ae",
".p c #b3b6b0",
"#4 c #b4b9b1",
"#u c #b4bab0",
"#7 c #b4bbb0",
".k c #b8b8b8",
"#I c #b8bcb5",
".3 c #babbb9",
"#b c #bfc2bd",
"#J c #c3c7c0",
"al c #c4cabf",
"#D c #c5c6c4",
"#O c #c5c8c4",
"#T c #cccccc",
"ak c #cdd2cb",
"#U c #d0d4cf",
"#e c #d5d5d5",
".l c #d8d8d8",
".r c #dedede",
".4 c #e1e1e1",
"#k c #e1e2e1",
".q c #e4e4e4",
".M c #e5e5e4",
"#f c #e9e9e9",
"#E c #ebebeb",
".V c #eeeeee",
".0 c #efefef",
"#P c #f0f0f0",
"#3 c #f5f5f5",
"an c #f7f7f7",
".9 c #f8f8f8",
".W c #f9f9f9",
".D c #fcfcfc",
"ad c #fdfdfd",
".E c #ffffff",
"QtQtQt.#.a.b.b.b.b.b.b.b.b.b.b.b.b.b.b.c.dQtQtQt",
"QtQt.e.f.g.g.g.g.g.g.g.g.g.g.g.g.g.g.g.g.h.iQtQt",
"QtQt.j.g.k.l.m.n.o.p.q.q.q.q.q.q.q.q.q.r.s.t.uQt",
"QtQt.v.g.w.x.y.z.A.B.C.D.E.E.E.E.E.E.E.E.F.g.GQt",
"QtQt.v.H.I.z.z.z.z.J.K.L.M.E.E.E.E.E.E.E.F.g.GQt",
"QtQt.N.O.z.z.z.P.Q.R.S.T.U.q.V.V.V.V.W.E.F.g.GQt",
"QtQt.X.z.z.z.Y.Z.E.0.1.z.2.3.V.4.V.V.W.E.F.g.GQt",
"Qt.5.6.z.z.7.8.E.9.V#..z###a#b#c#d#e#f.E.F.g.GQt",
"Qt#g#h.z.z#i#j#k.E.E#l.z###m#n.A#o#p.E.E.F.g.GQt",
"Qt#q#r.z#s#t#u#v#w#x#y.z#z#A#B#B#C#D#E.E.F.g.GQt",
"Qt#F#G.z#H#I.E#J#K#L#M.z.z.z.z#N#O.V#P.E.F.g.GQt",
"Qt#Q#R.z#S#T.E.E#U#V#W#X#B.z#Y#Z.V.V#P.E.F.g.GQt",
"Qt#0#1.z#r#2.E.E.E.E#3#4#5#6#7.E.E.E.E.E.F.g.GQt",
"QtQt#8#9a.a#.E.E.E.E.E.E.E.E.E.E.E.E.E.E.F.g.GQt",
"QtQtaaab.zacad.E.E.E.E.E.E.E.E.E.E.E.E.E.F.g.GQt",
"QtQt.vaeafagah.E.E.E.E.E.E.E.E.E.E.E.E.E.F.g.GQt",
"QtQt.v.g#Eaiajak.E.E.E.E.E.E.E.E.E.E.E.E.F.g.GQt",
"QtQt.v.g.9.E#Jal.E.E.E.E.E.E.E.E.E.E.E.E.F.g.GQt",
"QtQt.v.g.9.E.E.E.E.E.E.E.E.E.E.E.E.E.E.E.F.g.GQt",
"QtQt.v.g.9.E.E.E.E.E.E.E.E.E.E.E.E.E.E.E.F.g.GQt",
"QtQtam.gan.E.E.E.E.E.E.E.E.E.E.E.E.E.E.Eao.gapQt",
"QtQtaq.garasasasasasasasasasasasasasasatauavQtQt",
"QtQt#0aw.g.g.g.g.g.g.g.g.g.g.g.g.g.g.g.gaxayQtQt",
"QtQtQtQtaz#Q#Q#Q#Q#Q#Q#Q#Q#Q#Q#Q#Q#Q#QaAaBQtQtQt"};
