/* XPM */
static char *findprev_xpm[] = {
"24 24 169 2",
"Qt c None",
"as c #000000",
"#Q c #000000",
".Z c #333333",
"#A c #2b2b2b",
".L c #000000",
".d c #171717",
"ai c #151515",
"aJ c #272727",
".Y c #000000",
"ac c #242424",
"#u c #000000",
"#q c #000000",
"aE c #1e1e1e",
"a. c #232323",
".# c #1f1f1f",
"aF c #1d1d1d",
"aK c #1b1b1b",
"#f c #1a1a1a",
".D c #000000",
".E c #212121",
"#K c #1f1f1f",
"#Y c #1c1c1c",
"#. c #000000",
".m c #0d0d0d",
".e c #1a1a1a",
"#Z c #171717",
"#e c #000000",
"aM c #1d1d18",
".q c #16160d",
"#t c #000000",
".c c #181818",
".r c #1b1b1b",
"ab c #1a1a1a",
"#R c #1a1a1a",
".a c #1a1a1a",
"a# c #1a1a1a",
"#J c #1a1a1a",
"ad c #26231d",
".b c #1b1b1b",
"aa c #1a1a1a",
"az c #28211e",
"aj c #2a201e",
"aL c #29211d",
"#s c #232115",
"aw c #29231d",
".l c #202424",
"ao c #27221c",
".M c #202220",
"#F c #202222",
"at c #28221d",
"#E c #202020",
"ar c #29201d",
"#r c #1c1912",
".f c #222624",
"#0 c #222625",
"an c #27201c",
"ah c #29211c",
".o c #413c27",
".p c #393522",
"#P c #202222",
"aA c #27211c",
".X c #1f1d12",
"#z c #202323",
"#9 c #2a231c",
"aG c #2b221d",
".n c #262217",
"#T c #ade7dc",
".v c #afeadd",
"#w c #b1ebde",
"af c #c56e36",
"al c #c77038",
"aI c #30241d",
"#H c #a8e1d4",
".u c #ace5d9",
".Q c #b1eadd",
"#x c #b1eade",
"aC c #c56f37",
"aD c #33271e",
".w c #a1d6cb",
"#U c #a3d8cd",
"#v c #a5dad0",
"#h c #a5dbd0",
"#i c #b4ebe0",
"ae c #422d20",
"ak c #533723",
"ap c #6a4227",
"au c #7e4c2a",
"#N c #ade6da",
"ay c #4e3423",
"av c #643f26",
"aq c #7b4a2a",
"ax c #91552d",
".H c #9ed2c7",
"#8 c #ab6233",
"#7 c #b26734",
".j c #3a4745",
"#4 c #404e4b",
".h c #445551",
"#2 c #475a55",
"am c #8f552e",
"ag c #9c5c30",
"aB c #a05e30",
"#X c #2b221d",
".i c #4d625e",
".1 c #86b1a8",
"#C c #86b2a8",
".2 c #baede2",
"#3 c #546b68",
"#M c #80a8a0",
".G c #7ca39a",
"aH c #8c532c",
".K c #221f15",
".t c #698983",
"#S c #6e8d86",
"#y c #749890",
".x c #485a57",
".O c #c2eee5",
".N c #495c57",
"#G c #4a5d59",
"#p c #1b1c1b",
"#1 c #242827",
"#D c #59726d",
".g c #212523",
".P c #caf1e9",
".k c #1e2120",
"#I c #242928",
"## c #2b291b",
".F c #1d1f1e",
".s c #1e1f1f",
"#5 c #1e2121",
".0 c #1d1e1d",
"#L c #1d1e1e",
"#B c #1c1d1d",
"#l c #87a69e",
".C c #322d1e",
"#g c #1a1a1a",
"#O c #4f625e",
"#m c #60796e",
"#6 c #272321",
"#d c #090805",
".5 c #81958c",
".U c #15130d",
".y c #1f1e17",
"#n c #4f5e52",
".R c #455349",
"#j c #eafaf6",
".9 c #272418",
"#k c #effbf9",
"#V c #465653",
"#o c #3d4234",
".3 c #f0fbf9",
".4 c #f1fbf9",
"#W c #2e2722",
"#c c #686140",
".I c #3c3a29",
".6 c #545139",
".T c #a99b66",
".W c #b3a66d",
".S c #b4a66e",
".z c #b9ab71",
"#b c #baac71",
"#a c #c1b276",
".V c #c6b779",
".J c #c8b97a",
".7 c #d8c783",
".8 c #d9c884",
".B c #dbca85",
".A c #decd87",
"QtQtQtQtQtQtQtQtQtQtQtQtQtQtQtQtQtQtQtQtQtQtQtQt",
"QtQtQtQtQtQtQt.#.a.b.c.dQtQtQtQtQtQtQtQtQtQtQtQt",
"QtQtQtQtQt.e.f.g.h.i.j.k.l.m.n.o.o.p.qQtQtQtQtQt",
"QtQtQtQt.r.s.t.u.v.v.v.w.x.y.z.A.A.B.C.DQtQtQtQt",
"QtQtQt.E.F.G.v.v.v.v.v.v.H.I.A.A.A.A.J.K.LQtQtQt",
"QtQtQt.M.N.v.v.v.v.O.P.Q.R.S.A.T.U.V.A.W.X.YQtQt",
"QtQt.Z.0.1.v.v.v.2.3.4.5.6.7.8.9#.###a#b#c#d#eQt",
"QtQt#f#g#h.v.v.v#i#j#k#l#m#n#o#pQt#q#r#s#t#uQtQt",
"QtQt#f#g#v.v.v.v.v#w#x.v.v.v#y#zQtQtQtQtQtQtQtQt",
"QtQt#A#B#C.v.v.v.v.v.v.v.v.v#D#EQtQtQtQtQtQtQtQt",
"QtQtQt#F#G.v.v.v.v.v.v.v.v#H#I#JQtQtQtQtQtQtQtQt",
"QtQtQt#K#L#M.v.v.v.v.v.v#N#O#P#QQtQtQtQtQtQtQtQt",
"QtQtQtQt#R.s#S#T.v.v.v#U#V#W#X#YQtQtQtQtQtQtQtQt",
"QtQtQtQtQt#Z#0#1#2#3#4#5#6#7#8#9a.QtQtQtQtQtQtQt",
"QtQtQtQtQtQtQt#fa#aaabacadaeafagahaiQtQtQtQtQtQt",
"QtQtQtQtQtQtQtQtQtQtQtQtQtajakalaman#AQtQtQtQtQt",
"QtQtQtQtQtQtQtQtQtQtQtQtQtQtaoapalaqarasQtQtQtQt",
"QtQtQtQtQtQtQtQtQtQtQtQtQtQtasataualavawQtQtQtQt",
"QtQtQtQtQtQtQtQtQtQtQtQtQtQtQt#AanaxalayazQtQtQt",
"QtQtQtQtQtQtQtQtQtQtQtQtQtQtQtQtacaAaBaCaDaEQtQt",
"QtQtQtQtQtQtQtQtQtQtQtQtQtQtQtQtQtaFaGaHaIaJQtQt",
"QtQtQtQtQtQtQtQtQtQtQtQtQtQtQtQtQtQtaKaLaMQtQtQt",
"QtQtQtQtQtQtQtQtQtQtQtQtQtQtQtQtQtQtQtQtQtQtQtQt",
"QtQtQtQtQtQtQtQtQtQtQtQtQtQtQtQtQtQtQtQtQtQtQtQt"};
