/* XPM */
static char *findnext_xpm[] = {
"24 24 176 2",
"Qt c None",
"#Z c #000000",
"aT c #000000",
"#. c #000000",
"au c #000000",
"#d c #333333",
"ad c #000000",
"#E c #2b2b2b",
"ap c #000000",
".p c #1c1c1c",
".f c #1a1a1a",
"#K c #000000",
".o c #151515",
"av c #242424",
"aR c #1a1a1a",
".D c #181818",
"#r c #232323",
"aB c #000000",
"aE c #1d1d1d",
".L c #1c1c1c",
"#C c #1b1b1b",
"#D c #1a1a1a",
"#P c #080808",
".# c #212121",
".e c #1e1e1e",
"#s c #1c1c1c",
"aN c #1a1a1a",
"aJ c #12120c",
"#0 c #000000",
"a. c #0a0a05",
"aS c #181818",
"#L c #000000",
".5 c #171717",
"#e c #191919",
".9 c #181818",
"#6 c #000000",
"aA c #28201d",
".M c #1b1b1b",
"#k c #1e1e1e",
"#j c #1a1a1a",
"#U c #0e1109",
".S c #191919",
".1 c #1c1c1c",
"#F c #2a201e",
".a c #1d1d1d",
".d c #1d1d1d",
"ao c #261f1d",
".4 c #1a1a1a",
".T c #1c1c1c",
".0 c #1a1a1a",
"#M c #1e1e13",
"ak c #181a10",
"#Q c #1c1e12",
"ac c #29231d",
".x c #1c1e1e",
"#V c #26201a",
"aQ c #2d241d",
".C c #1e2020",
".b c #232525",
".c c #232827",
".g c #212323",
".n c #222523",
"#t c #222525",
"a# c #28221d",
"#Y c #29211d",
"aM c #212415",
"#T c #272a19",
"#x c #202523",
"#N c #262919",
"aK c #2b301d",
"aL c #2e331e",
"al c #28211d",
"#J c #27201c",
"ae c #1c1f12",
".q c #202121",
"#S c #2f331f",
"aI c #2c231c",
"#B c #28211c",
".w c #202121",
"aw c #28211c",
"#O c #1f2215",
"#q c #2a231c",
"## c #1f2120",
"aF c #2b241d",
".A c #ade7dc",
".t c #afeadd",
".Y c #b1ebde",
"#z c #c56e36",
"#H c #c77038",
"aO c #2d231d",
"aP c #553723",
"#W c #684127",
".u c #a7ddd2",
".7 c #aae2d7",
".z c #ace5d9",
"ay c #c56f37",
"aq c #1e2114",
".s c #a6dcd0",
"aH c #bc6a35",
"#c c #1f2220",
"#R c #353923",
"an c #513523",
"#G c #533723",
"ab c #643e25",
"aa c #7e4c2a",
"az c #3f2d21",
"#X c #7b4a2a",
".J c #95c5ba",
"aG c #ad6332",
".G c #b7ebe0",
"am c #8c542c",
"#g c #8cb9af",
".F c #90beb4",
"#I c #91552e",
"#A c #9c5b30",
"ax c #a05e30",
".Q c #b9ede1",
".V c #bcede2",
".i c #556c67",
"#v c #292f2e",
"#w c #2a302e",
".l c #566e68",
"#m c #66847c",
".j c #749890",
".k c #759891",
"#y c #35281e",
"#b c #709089",
".3 c #3d4a48",
".r c #42514e",
".v c #455653",
"#a c #698a82",
".2 c #374340",
".U c #3f4c49",
".Z c #455552",
".R c #2e3535",
".y c #384441",
".B c #3b4846",
".N c #2b302e",
".h c #212423",
".m c #212424",
"#u c #1e2120",
"#l c #1e211f",
"#n c #66847e",
"#f c #1e2020",
".8 c #202121",
"at c #242617",
".I c #d1f3eb",
"#1 c #10110a",
".6 c #1f2020",
"aC c #2a2e1b",
"#5 c #2e321f",
".O c #d5f4ed",
".E c #1a1b1b",
".K c #1b1b1b",
"#p c #674127",
"#h c #87b0a7",
".X c #d9f4ee",
"#7 c #383c25",
".H c #dbf5ef",
"#9 c #3a3e26",
".W c #e3f7f3",
"ah c #282c1a",
"#i c #202120",
".P c #f1fbf9",
"aj c #869058",
"#o c #242221",
"aD c #8c985c",
"#2 c #76814f",
"af c #9eab68",
"ar c #b5c477",
"ai c #b7c679",
"ag c #bbca7b",
"#4 c #bfce7d",
"#3 c #c9da84",
"as c #ccdd86",
"#8 c #cdde87",
"QtQtQtQtQtQtQtQtQtQtQtQtQtQtQtQtQtQtQtQtQtQtQtQt",
"QtQtQtQtQtQtQtQt.#.a.b.c.d.eQtQtQtQtQtQtQtQtQtQt",
"QtQtQtQtQtQt.f.g.h.i.j.k.l.m.n.oQtQtQtQtQtQtQtQt",
"QtQtQtQtQt.p.q.r.s.t.t.t.t.u.v.w.oQtQtQtQtQtQtQt",
"QtQtQtQtQt.x.y.z.t.t.t.t.t.t.A.B.CQtQtQtQtQtQtQt",
"QtQtQtQt.D.E.F.t.t.t.G.H.I.t.t.J.K.LQtQtQtQtQtQt",
"QtQtQtQt.M.N.t.t.t.t.O.P.P.Q.t.t.R.SQtQtQtQtQtQt",
"QtQtQtQt.T.U.t.t.t.t.V.W.X.Y.t.t.Z.0QtQtQtQtQtQt",
"QtQtQtQt.1.2.t.t.t.t.t.t.t.t.t.t.3.4QtQtQtQtQtQt",
"QtQtQtQt.5.6.7.t.t.t.t.t.t.t.t.z.8.9QtQtQtQtQtQt",
"QtQtQtQt#.###a.t.t.t.t.t.t.t.t#b#c#dQtQtQtQtQtQt",
"QtQtQtQtQt#e#f#g.t.t.t.t.t.t#h#i#jQtQtQtQtQtQtQt",
"QtQtQtQtQtQt#k#l#m.s.t.t.u#n#o#p#q#rQtQtQtQtQtQt",
"QtQtQtQtQtQtQt#s#t#u#v#w#u#x#y#z#A#B.oQtQtQtQtQt",
"QtQtQtQtQtQtQtQtQt#d#C#D#EQt#F#G#H#I#J#EQtQtQtQt",
"#K#L#M#N#O#PQt#Q#R#S#T#UQtQtQt#V#W#H#X#Y#ZQtQtQt",
"#0#1#2#3#4#5#6#7#8#8#9a.QtQtQt#Za#aa#HabacQtQtQt",
"Qtadaeaf#8agahai#8ajakQtQtQtQtQt#dalam#HanaoQtQt",
"QtQtapaqar#8#8#8asatauQtQtQtQtQtQtavawaxayazaAQt",
"QtQtQtaBaC#3#8#8aDakQtQtQtQtQtQtQtQtaEaFaGaHaIQt",
"QtQtQtQtaJaKaLaLaMapQtQtQtQtQtQtQtQtQtaNaOaPaQQt",
"QtQtQtQtQtQtQtQtQtQtQtQtQtQtQtQtQtQtQtQtaRaSaTQt",
"QtQtQtQtQtQtQtQtQtQtQtQtQtQtQtQtQtQtQtQtQtQtQtQt",
"QtQtQtQtQtQtQtQtQtQtQtQtQtQtQtQtQtQtQtQtQtQtQtQt"};
