/* XPM */
static char *find_xpm[] = {
"24 24 138 2",
"Qt c None",
".m c #000000",
"#D c #000000",
".d c #000000",
".A c #404040",
"#. c #333333",
"#r c #202020",
"#Q c #1c1c1c",
"#W c #1c1c1c",
".I c #1a1a1a",
"#d c #181818",
"ah c #232323",
"#2 c #1f1f1f",
".# c #181818",
"#7 c #181818",
"#E c #1b1b1b",
".c c #1a1a1a",
"#8 c #1f1a1a",
"#G c #171717",
"af c #1e1e1e",
".J c #1a1a1a",
".5 c #191919",
"#1 c #1f1b1b",
"ab c #241d1d",
".e c #1b1b1b",
".a c #1a1a1a",
"#s c #1c1c1c",
".b c #191919",
"#F c #1b1b1b",
".u c #1b1b1b",
"#e c #1a1a1a",
".R c #1a1a1a",
".9 c #191919",
"#V c #24221c",
".S c #1b1b1b",
".l c #1d1d1d",
".z c #1a1d1d",
"#P c #27211a",
"ag c #2a211d",
"#j c #1d1d1d",
".4 c #181818",
".Z c #181818",
".n c #1e2020",
"#k c #212321",
"#L c #29221c",
"#H c #29221d",
".t c #212221",
"#C c #29221d",
"#M c #29211d",
"ae c #2b221c",
"#q c #27201c",
"aa c #2c221d",
"#R c #28221d",
"#X c #29211c",
".q c #afeadd",
".2 c #b1ebde",
"#A c #c66f38",
"#T c #c76f38",
"#J c #c77038",
".f c #212323",
"#3 c #2d231d",
".L c #abe5d8",
".7 c #ace5d9",
".D c #b1eadd",
".1 c #b1eade",
"#Z c #c16d36",
".x c #a6dcd0",
".X c #b4ebe0",
"#5 c #ba6a35",
"a. c #bc6a35",
"#6 c #2f241d",
"#O c #5a3a24",
"#K c #6d4328",
"#I c #744729",
"#N c #89512d",
".w c #9dcec5",
"#g c #9dd1c6",
"#4 c #b46734",
"#9 c #33261e",
"#0 c #38291f",
"ac c #3b2a20",
"#U c #472f21",
"#B c #824d2b",
"a# c #b06333",
"#t c #202222",
".h c #495b57",
".i c #4c605c",
".G c #8ab6ac",
"#b c #8cb9af",
".r c #8fbcb3",
"#S c #96572e",
"#Y c #a55f31",
"#v c #4e655e",
"#w c #526863",
".p c #86afa7",
"#m c #88b3aa",
".P c #baede2",
"#x c #333d3c",
".B c #1d201e",
"#u c #2e3735",
".j c #2f3837",
"ad c #8a532d",
"#h c #a4d8cd",
".g c #2c3230",
".C c #759891",
"#a c #789b93",
"#n c #8fbeb4",
"## c #1e1f1f",
".k c #1f2220",
".U c #c2eee5",
".F c #c3efe6",
".0 c #333d3a",
".T c #343e3c",
".Q c #2d3433",
".s c #2d3533",
".8 c #2d3534",
".3 c #4a5b58",
".Y c #4a5d59",
"#l c #272c2b",
".y c #2c3433",
".o c #242929",
".E c #caf1e9",
"#f c #232827",
".v c #232626",
".M c #cef2ea",
"#y c #1f2121",
".H c #1c1d1d",
".6 c #1f2020",
".K c #202020",
"#c c #1b1d1d",
"#z c #332820",
"#i c #2c3332",
"#p c #3a2d24",
".W c #eafaf6",
".V c #effbf9",
".O c #f0fbf9",
".N c #f1fbf9",
"#o c #2f3633",
"QtQtQtQtQtQtQtQtQtQtQtQtQtQtQtQtQtQtQtQtQtQtQtQt",
"QtQtQtQtQtQtQt.#.a.b.c.dQtQtQtQtQtQtQtQtQtQtQtQt",
"QtQtQtQtQt.e.f.g.h.i.j.k.l.mQtQtQtQtQtQtQtQtQtQt",
"QtQtQtQt.n.o.p.q.q.q.q.r.s.t.dQtQtQtQtQtQtQtQtQt",
"QtQtQt.u.v.w.q.q.q.q.q.q.x.y.zQtQtQtQtQtQtQtQtQt",
"QtQt.A.B.C.q.q.q.D.E.F.q.q.G.H.IQtQtQtQtQtQtQtQt",
"QtQt.J.K.L.q.q.q.M.N.O.P.q.q.Q.RQtQtQtQtQtQtQtQt",
"QtQt.S.T.q.q.q.q.U.V.W.X.q.q.Y.ZQtQtQtQtQtQtQtQt",
"QtQt.S.0.q.q.q.q.q.1.2.q.q.q.3.4QtQtQtQtQtQtQtQt",
"QtQt.5.6.7.q.q.q.q.q.q.q.q.q.8.9QtQtQtQtQtQtQtQt",
"QtQt#.###a.q.q.q.q.q.q.q.q#b#c#dQtQtQtQtQtQtQtQt",
"QtQtQt#e#f#g.q.q.q.q.q.q#h#i#jQtQtQtQtQtQtQtQtQt",
"QtQtQtQt#k#l#m.q.q.q.q#n#o#p#q#rQtQtQtQtQtQtQtQt",
"QtQtQtQtQt#s#t#u#v#w#x#y#z#A#B#C.dQtQtQtQtQtQtQt",
"QtQtQtQtQtQt#D#E#F.u#G.A#H#I#J#K#LQtQtQtQtQtQtQt",
"QtQtQtQtQtQtQtQtQtQtQtQt.d#M#N#J#O#PQtQtQtQtQtQt",
"QtQtQtQtQtQtQtQtQtQtQtQtQt#Q#R#S#T#U#VQtQtQtQtQt",
"QtQtQtQtQtQtQtQtQtQtQtQtQtQt#W#X#Y#Z#0#1QtQtQtQt",
"QtQtQtQtQtQtQtQtQtQtQtQtQtQtQt#2#3#4#5#6#7QtQtQt",
"QtQtQtQtQtQtQtQtQtQtQtQtQtQtQtQt#8#9a.a#aaQtQtQt",
"QtQtQtQtQtQtQtQtQtQtQtQtQtQtQtQtQtabacadaeQtQtQt",
"QtQtQtQtQtQtQtQtQtQtQtQtQtQtQtQtQtQtafagahQtQtQt",
"QtQtQtQtQtQtQtQtQtQtQtQtQtQtQtQtQtQtQtQtQtQtQtQt",
"QtQtQtQtQtQtQtQtQtQtQtQtQtQtQtQtQtQtQtQtQtQtQtQt"};
