/* XPM */
static char *font_xpm[] = {
"24 24 116 2",
"Qt c None",
".e c #000000",
"#f c #408040",
".t c #246d24",
".K c #208020",
"#x c #177417",
"#C c #2b802b",
"#V c #248024",
".q c #227722",
"#q c #1c711c",
".C c #237423",
"#D c #217a21",
".a c #1f7a1f",
".k c #237b23",
".7 c #227722",
"#n c #207820",
"#k c #1f7c1f",
"#I c #1e781e",
".4 c #247524",
".2 c #237823",
".3 c #227522",
".d c #207920",
"#Q c #1f761f",
"#s c #1e791e",
".o c #247724",
".S c #237a23",
".W c #227722",
"#h c #217a21",
".T c #217721",
"#m c #1f781f",
"#E c #237823",
"#t c #227622",
".P c #217621",
"#c c #237723",
".U c #237923",
".b c #227722",
".N c #207920",
".I c #227a22",
"#A c #217621",
"#j c #217821",
".n c #1f771f",
".w c #217721",
"#K c #217721",
"#X c #227822",
"#l c #217921",
".s c #207920",
".i c #217921",
"#a c #217921",
".V c #207820",
"#N c #227722",
".Y c #227922",
"#w c #217721",
"#R c #217821",
".H c #217721",
"#y c #207920",
".R c #207720",
".0 c #207920",
"#W c #207920",
"#O c #227722",
".v c #217821",
"#e c #217721",
".h c #227822",
"#. c #217821",
".6 c #207820",
".m c #207920",
".D c #227822",
".x c #217821",
"#u c #227722",
"#d c #227822",
"#H c #217821",
".z c #217821",
".5 c #227822",
".A c #217821",
".j c #227822",
".# c #217821",
"#G c #217821",
".M c #217821",
"#v c #207920",
".1 c #227922",
"#L c #217821",
".Q c #217921",
"#S c #217721",
".G c #227822",
"#F c #217821",
"#T c #217721",
"#o c #207820",
".r c #217821",
".f c #217821",
".g c #217821",
"## c #217821",
"#i c #217821",
".Z c #217921",
"#b c #217921",
"#M c #227722",
".8 c #217821",
"#r c #217821",
".u c #217821",
"#J c #217821",
"#P c #227822",
".9 c #217821",
".p c #217821",
".F c #217721",
".l c #217821",
".y c #217821",
"#z c #217821",
".J c #217821",
".L c #217821",
".X c #217821",
"#B c #217821",
"#U c #217721",
"#g c #217821",
".O c #217821",
"#p c #217821",
".B c #217821",
".E c #217821",
".c c #217821",
"QtQtQtQtQtQtQtQtQtQtQtQtQtQtQtQtQtQtQtQtQtQtQtQt",
"QtQtQtQtQtQtQtQtQtQtQtQtQtQtQtQtQtQtQtQtQtQtQtQt",
"QtQtQtQtQtQt.#.aQtQtQtQtQtQtQtQtQtQtQtQtQtQtQtQt",
"QtQtQtQtQt.b.c.dQtQtQtQtQtQtQtQtQtQtQtQtQtQtQtQt",
"QtQtQtQt.e.f.g.hQtQtQtQtQtQtQtQtQtQtQtQtQtQtQtQt",
"QtQtQtQt.i.j.k.l.eQtQtQt.m.nQtQtQtQtQtQtQtQtQtQt",
"QtQtQt.o.p.qQt.r.bQtQt.b.c.sQtQtQtQtQtQtQtQtQtQt",
"QtQt.t.u.v.w.x.y.zQtQt.A.B.CQtQtQtQtQtQtQtQtQtQt",
"QtQt.D.E.F.G.H.I.J.K.e.L.MQtQtQtQtQtQtQtQtQtQtQt",
"Qt.N.O.PQtQtQtQt.Q.R.S.c.TQtQtQtQtQtQtQtQtQtQtQt",
".U.L.VQtQtQtQtQt.W.X.Y.ZQt.K.0.1.2QtQtQtQtQtQtQt",
".3.nQtQtQtQtQtQtQt.4.5.6.7.8.G.9#.QtQtQtQtQtQtQt",
"QtQtQtQtQtQtQtQtQtQt###a#b#cQt#d#eQtQtQtQtQtQtQt",
"QtQtQtQtQtQtQtQtQt#f#g.8#hQtQt#i#j#k.##lQtQtQtQt",
"QtQtQtQtQtQtQtQtQt#m.c.iQtQt.I.u#n.L#o#p#qQtQtQt",
"QtQtQtQtQtQtQtQtQt.R#r.eQt#s.F#t#o#uQt.u.WQtQtQt",
"QtQtQtQtQtQtQtQtQt#v#w#x#y#z.w#A#B#CQt#DQtQtQtQt",
"QtQtQtQtQtQtQtQtQt#E#F.O.r#hQt#G#HQtQtQtQtQtQtQt",
"QtQtQtQtQtQtQtQtQtQt.2#IQtQtQt#J#KQtQtQtQt.o#LQt",
"QtQtQtQtQtQtQtQtQtQtQtQtQtQtQt#M#NQtQt#x#O#P#QQt",
"QtQtQtQtQtQtQtQtQtQtQtQtQtQtQt#R#p#S#T#U#H#VQtQt",
"QtQtQtQtQtQtQtQtQtQtQtQtQtQtQtQt#j#W#X.CQtQtQtQt",
"QtQtQtQtQtQtQtQtQtQtQtQtQtQtQtQtQtQtQtQtQtQtQtQt",
"QtQtQtQtQtQtQtQtQtQtQtQtQtQtQtQtQtQtQtQtQtQtQtQt"};
