/* XPM */
static char *dummy[]={
"24 24 129 2",
"Qt c None",
".X c #000000",
".# c #000000",
"#8 c #000000",
"#A c #000000",
".s c #000000",
".E c #000000",
"#G c #1c1c1c",
"#n c #1c1c1c",
".a c #000000",
".e c #000000",
"#W c #3d3d3d",
"#z c #1f1f1f",
".d c #000900",
"#c c #151515",
".r c #001700",
"#T c #373737",
".D c #003100",
"#f c #3e3e3e",
".b c #001000",
"#F c #3a3a3a",
"#1 c #484848",
"#B c #4a4a4a",
"#s c #414141",
".f c #000f00",
"#r c #4d4d4d",
"#m c #111611",
"#0 c #5a5a5a",
"#7 c #595959",
"#i c #3d3d3d",
".W c #575757",
"#u c #535353",
"#h c #535353",
"#j c #444444",
"#y c #5d5d5d",
".Y c #001600",
"#k c #232323",
"#J c #696969",
"#3 c #3e3e3e",
"#Q c #6e6e6e",
"#V c #525252",
".c c #001d00",
"#N c #717171",
".G c #003500",
".U c #032803",
".g c #001800",
"#e c #7a7a7a",
".q c #003800",
"#4 c #787878",
"#X c #7b7b7b",
"#O c #2e2e2e",
"#M c #606060",
"a. c #585858",
"#l c #464a46",
".Z c #011c01",
"#2 c #848484",
"#Z c #8a8a8a",
".V c #626262",
"#R c #686868",
"#C c #868686",
"#q c #898989",
"#x c #8a8a8a",
"#9 c #5e5e5e",
"#6 c #8b8b8b",
".h c #002200",
"#a c #5c645c",
"#5 c #909090",
"#Y c #929292",
".i c #002b00",
".C c #005400",
"#v c #616161",
".p c #005300",
"#U c #868686",
"#P c #898989",
".9 c #045404",
"#H c #a2a2a2",
".j c #003500",
"#b c #757575",
"#I c #b3b3b3",
"#D c #b1b1b1",
".B c #007400",
"#K c #a8a8a8",
".o c #006f00",
"#p c #bcbcbc",
".F c #004300",
".H c #003f00",
".t c #002c00",
"## c #727b72",
".8 c #007d00",
"#d c #afafaf",
".k c #004f00",
".x c #003800",
".2 c #465a46",
".m c #003300",
"#o c #c4c4c4",
"#w c #d1d1d1",
".0 c #7e837e",
".3 c #5a6d5a",
".n c #00b000",
".T c #477e47",
"#S c #dddddd",
".1 c #a9ada9",
".O c #576657",
"#. c #b0b6b0",
".A c #00be00",
".4 c #495f49",
"#E c #e4e4e4",
".7 c #079407",
".l c #006700",
".u c #006a00",
".v c #007d00",
".w c #008000",
".z c #00f500",
".y c #00ff00",
".P c #04de04",
".I c #057605",
".Q c #18c818",
".M c #1b711b",
".N c #1c6d1c",
".5 c #2f612f",
".J c #447744",
".L c #548154",
".R c #56a956",
".S c #639f63",
".K c #658a65",
".6 c #dfdfdf",
"#L c #e8e8e8",
"#g c #f5f5f5",
"#t c #f6f6f6",
"QtQtQtQtQtQtQtQtQtQtQtQtQtQtQtQtQtQtQtQtQtQtQtQt",
"QtQtQtQtQtQtQtQtQtQtQtQtQtQtQtQtQtQtQtQtQtQtQtQt",
"QtQtQtQtQtQtQt.#.a.b.c.d.#QtQtQtQtQtQtQtQtQtQtQt",
"QtQt.e.f.g.h.i.j.k.l.m.n.o.p.q.r.sQtQtQtQtQtQtQt",
"Qt.s.t.u.v.w.w.w.w.w.x.y.y.y.z.A.B.C.DQtQtQtQtQt",
"Qt.E.F.w.w.w.w.w.w.w.x.y.y.y.y.y.y.y.GQtQtQtQtQt",
"Qt.E.F.w.w.w.w.w.w.w.x.y.y.y.y.y.y.y.GQtQtQtQtQt",
"Qt.E.F.w.w.w.w.w.w.w.x.y.y.y.y.y.y.y.GQtQtQtQtQt",
"Qt.E.F.w.w.w.w.w.w.w.x.y.y.y.y.y.y.y.GQtQtQtQtQt",
"Qt.E.F.w.w.w.w.w.w.w.x.y.y.y.y.y.y.y.GQtQtQtQtQt",
"Qt.E.F.w.w.w.w.w.w.w.x.y.y.y.y.y.y.y.GQtQtQtQtQt",
"Qt.E.F.w.w.w.w.w.w.w.x.y.y.y.y.y.y.y.GQtQtQtQtQt",
"Qt.E.F.w.w.w.w.w.w.w.x.y.y.y.y.y.y.y.GQtQtQtQtQt",
"Qt.E.F.w.w.w.w.w.w.w.x.y.y.y.y.y.y.y.GQtQtQtQtQt",
"Qt.E.F.w.w.w.w.w.w.w.x.y.y.y.y.y.y.y.GQtQtQtQtQt",
"Qt.E.H.w.I.J.K.L.M.N.O.P.y.y.Q.R.S.T.U.V.WQtQtQt",
"Qt.X.Y.Z.0.1.2.3.4.5.6.7.8.9#.###a#b#c#d#eQtQtQt",
"QtQtQt#f#g#h#i#j#k#l.6#m.E#n#o#p#q#r.s#d#eQtQtQt",
"QtQtQt#s#t#u#v#w#x#y.6#zQt#A#B#C#D#E#F#d#eQtQtQt",
"QtQtQt#G#H#I#J#K#x#y#L#M#N#O#P#Q#R#S#T#d#U#N#VQt",
"QtQtQtQt#W#X#Y#Z#0#1#2#2#2#3#4#5#6#7#8#9#2#2a.Qt",
"QtQtQtQtQtQtQtQtQtQtQtQtQtQtQtQtQtQtQtQtQtQtQtQt",
"QtQtQtQtQtQtQtQtQtQtQtQtQtQtQtQtQtQtQtQtQtQtQtQt",
"QtQtQtQtQtQtQtQtQtQtQtQtQtQtQtQtQtQtQtQtQtQtQtQt"};
