/* XPM */
static char *hexmode_xpm[] = {
"24 24 122 2",
"Qt c None",
".# c #000000",
"#3 c #353535",
"#W c #313131",
"#Z c #353535",
".k c #333333",
"#R c #343434",
".d c #323232",
"#Q c #353535",
".p c #343434",
"#2 c #333333",
"#0 c #313131",
"#1 c #353535",
".a c #343434",
"#O c #343434",
".l c #343434",
".c c #323232",
".b c #323232",
"#Y c #333333",
"#X c #343434",
".g c #323232",
".e c #343434",
"#V c #333333",
".f c #333333",
"#U c #696969",
"#S c #757575",
".j c #7d7d7d",
".h c #8d8d8d",
".H c #999999",
".y c #a0a0a0",
".I c #a1a1a1",
".V c #a7a7a7",
".x c #aaaaaa",
".P c #b4b4b4",
".w c #b5b5b5",
".G c #b6b6b6",
"#P c #b8b8b8",
".o c #b9b9b9",
"#T c #bababa",
".F c #bbbbbb",
".C c #c0c0c0",
".N c #c3c3c3",
".q c #c6c6c6",
".U c #c7c7c7",
".M c #c8c8c8",
".R c #c9c9c9",
".v c #cbcbcb",
".u c #cccccc",
".m c #cdcdcd",
".Y c #cfcfcf",
".L c #d3d3d3",
".E c #d4d4d4",
".t c #d5d5d5",
".i c #d6d6d6",
".T c #dadada",
".B c #dcdcdc",
".A c #dddddd",
".K c #e5e5e5",
".S c #e7e7e7",
".X c #e9e9e9",
".s c #ebebeb",
".O c #ededed",
".r c #eeeeee",
".J c #efefef",
".Q c #f0f0f0",
".D c #f3f3f3",
".z c #f7f7f7",
".W c #fcfcfc",
"#f c #ff5c5c",
".6 c #ff6464",
"#o c #ff6666",
"#D c #ff6969",
"#. c #ff6e6e",
"#A c #ff7070",
".3 c #ff7878",
".4 c #ff7979",
".1 c #ff7b7b",
"#H c #ff7c7c",
"#w c #ff7d7d",
"#g c #ff8585",
"#G c #ff8686",
"#q c #ff8888",
".0 c #ff8d8d",
"#h c #ff8f8f",
"#l c #ff9191",
"#J c #ff9494",
"#L c #ff9696",
"#j c #ff9797",
".7 c #ff9e9e",
"#r c #ff9f9f",
".9 c #ffa2a2",
"#z c #ffa7a7",
"#I c #ffa8a8",
".2 c #ffb1b1",
"#m c #ffb3b3",
"#y c #ffbaba",
"#M c #ffbbbb",
"#n c #ffbcbc",
".8 c #ffbdbd",
"#a c #ffc4c4",
"#d c #ffc7c7",
"#x c #ffc9c9",
"#k c #ffcccc",
"#t c #ffcdcd",
"#p c #ffcfcf",
"#e c #ffd1d1",
"#u c #ffd3d3",
".5 c #ffd4d4",
"#N c #ffd8d8",
"#i c #ffdddd",
"#K c #ffe3e3",
"#s c #ffe4e4",
"#C c #ffe5e5",
"#E c #ffe9e9",
"#v c #ffeeee",
"#B c #fff1f1",
"## c #fff2f2",
"#F c #fffbfb",
".Z c #fffcfc",
"#b c #fffdfd",
"#c c #fffefe",
".n c #ffffff",
"QtQtQt.#.a.b.b.b.b.b.b.b.b.b.b.b.b.b.b.c.dQtQtQt",
"QtQt.#.e.f.f.f.f.f.f.f.f.f.f.f.f.f.f.f.f.f.gQtQt",
"QtQt.d.f.h.i.i.i.i.i.i.i.i.i.i.i.i.i.i.i.j.f.kQt",
"QtQt.l.f.m.n.n.n.n.n.n.n.n.n.n.n.n.n.n.n.o.f.pQt",
"QtQt.l.f.m.n.n.n.n.n.n.n.n.n.n.n.n.n.n.n.o.f.pQt",
"QtQt.l.f.q.r.s.t.u.v.w.x.x.y.n.z.A.B.C.i.o.f.pQt",
"QtQt.l.f.m.n.n.n.n.n.n.n.n.n.n.n.n.n.n.n.o.f.pQt",
"QtQt.l.f.m.D.A.A.E.F.F.G.H.I.n.J.K.L.M.i.o.f.pQt",
"QtQt.l.f.m.n.n.n.n.n.n.n.n.n.n.n.n.n.n.n.o.f.pQt",
"QtQt.l.f.N.r.O.L.u.u.P.x.x.y.n.Q.K.L.R.i.o.f.pQt",
"QtQt.l.f.m.n.n.n.n.n.n.n.n.n.n.n.n.n.n.n.o.f.pQt",
"QtQt.l.f.R.r.S.T.u.U.o.x.V.I.W.r.X.Y.u.t.o.f.pQt",
"QtQt.l.f.m.n.n.n.n.n.n.n.n.n.n.n.n.n.n.n.o.f.pQt",
"QtQt.l.f.m.Z.0.1.2.n.n.n.n.n.n.3.4.5.6.7.o.f.pQt",
"QtQt.l.f.m.8.9.n#.###a#b#c#d#e#f#a#g#h#i.o.f.pQt",
"QtQt.l.f.m#j#k.n#l.5#m#j.7#n.5#o#p#q#r#s.o.f.pQt",
"QtQt.l.f.m#j#t.n#l#u.n.3#g.n#v#w.n.9#x.n.o.f.pQt",
"QtQt.l.f.m#y#z.n#A#B#C.4#D#E#v#w.n.9#x.n.o.f.pQt",
"QtQt.l.f.m#F#G#H#I.n#J#v#K#L###r.n#M#N.n.o.f.pQt",
"QtQt.l.f.m.n.n.n.n.n.n.n.n.n.n.n.n.n.n.n.o.f.pQt",
"QtQt#O.f.u.n.n.n.n.n.n.n.n.n.n.n.n.n.n.n#P.f#QQt",
"QtQt#R.f#S#T.F.F.F.F.F.F.F.F.F.F.F.F.F.o#U#V#WQt",
"QtQtQt#X.f.f.f.f.f.f.f.f.f.f.f.f.f.f.f.f#V#YQtQt",
"QtQtQtQt#Z#0#1#1#1#1#1#1#1#1#1#1#1#1#1#2#3QtQtQt"};
