/* XPM */
static char *indent_xpm[] = {
"24 24 127 2",
"Qt c None",
"#Y c #555555",
"#n c #55aa00",
".E c #404040",
"#i c #40bf00",
".# c #242424",
".x c #404040",
"#u c #408000",
".f c #333333",
"#T c #2e2e2e",
"#8 c #373737",
".Q c #303030",
".J c #2d2d2d",
"#5 c #2e2e2e",
"#d c #2c8500",
"#C c #373737",
".L c #313131",
".K c #353535",
"#a c #338300",
".M c #328000",
"#v c #348300",
"#U c #333333",
".I c #323232",
"#7 c #343434",
"#6 c #323232",
".W c #393939",
".e c #333333",
".P c #347d00",
"#Q c #333333",
".0 c #338100",
"#w c #328000",
".u c #313131",
".m c #343434",
".F c #323232",
"#x c #3f3f3f",
"#o c #3b3b3b",
".r c #343434",
".a c #373737",
".6 c #328100",
".H c #3e3e3e",
"#j c #338000",
"#m c #327e00",
"#4 c #454545",
".8 c #328000",
"#B c #454545",
".G c #444444",
".d c #3f3f3f",
"#G c #464646",
".X c #338000",
".b c #414141",
".N c #338000",
".c c #424242",
".D c #454545",
".1 c #424242",
".O c #337f00",
"#D c #494949",
".l c #464646",
"#t c #474747",
"#e c #474747",
".9 c #494949",
"#c c #338000",
"#y c #4f4f4f",
"#F c #505050",
"#E c #525252",
"#A c #4e4e4e",
"#b c #338000",
"#z c #4d4d4d",
"#N c #444444",
".R c #494949",
".5 c #464646",
".y c #454545",
".Z c #348100",
".V c #4f4f4f",
".g c #444444",
"#k c #338000",
".S c #737373",
".U c #7c7c7c",
"#l c #347f00",
".T c #818181",
".7 c #338000",
"#h c #444444",
"## c #444444",
".Y c #338000",
"#H c #454545",
"#g c #fefefe",
".3 c #ffffff",
"#r c #f9f9f9",
".4 c #ebebeb",
"#q c #f1f1f1",
"#p c #6d6d6d",
"#3 c #555555",
"#Z c #636363",
"#s c #a0a0a0",
"#. c #cccccc",
"#f c #c9c9c9",
"#2 c #919191",
".2 c #b3b3b3",
"#O c #6a6a6a",
".C c #6c6c6c",
"#R c #6e6e6e",
"#V c #595959",
"#0 c #969696",
"#1 c #999999",
".k c #747474",
".v c #767676",
".n c #787878",
".q c #3f3f3f",
".w c #404040",
"#X c #414141",
"#S c #464646",
"#P c #454545",
".s c #828282",
".t c #3f3f3f",
".z c #989898",
".h c #a2a2a2",
"#M c #ababab",
"#I c #c5c5c5",
".B c #b9b9b9",
".A c #bbbbbb",
".j c #c4c4c4",
".i c #c9c9c9",
"#L c #ededed",
"#J c #efefef",
"#K c #f1f1f1",
"#W c #f9f9f9",
".p c #fdfdfd",
".o c #ffffff",
"QtQtQtQtQtQtQtQtQtQtQtQtQtQtQtQtQtQtQtQtQtQtQtQt",
"QtQt.#.a.b.c.c.c.c.c.c.c.c.c.c.c.c.c.c.c.d.eQtQt",
"Qt.f.g.h.i.i.i.i.i.i.i.i.i.i.i.i.i.i.i.i.j.k.lQt",
"Qt.m.n.o.o.o.o.o.o.o.o.o.o.o.o.o.o.o.o.o.o.p.qQt",
"Qt.r.s.o.o.o.o.o.o.o.o.o.o.o.o.o.o.o.o.o.o.o.tQt",
"Qt.u.v.o.o.o.o.o.o.o.o.o.o.o.o.o.o.o.o.o.o.p.wQt",
"Qt.x.y.z.A.A.A.A.A.A.A.A.A.A.A.A.A.A.A.A.B.C.DQt",
"QtQt.E.F.G.G.G.G.G.G.G.G.G.G.G.G.G.G.G.G.H.IQtQt",
"QtQtQtQtQtQtQtQtQtQtQt.J.K.K.K.K.K.K.K.K.LQtQtQt",
"QtQtQt.M.N.O.PQtQt.Q.R.S.T.T.T.T.T.T.T.T.U.V.WQt",
"QtQtQtQt.X.Y.Z.0Qt.1.2.3.3.3.3.3.3.3.3.3.3.4.5Qt",
"QtQtQtQtQt.6.Y.7.8.9#..3.3.3.3.3.3.3.3.3.3.3##Qt",
"QtQtQtQt#a#b.Y#c#d#e#f.3.3.3.3.3.3.3.3.3.3#g#hQt",
"QtQt#i#j#k#l#m#nQt#o#p#q.3.3.3.3.3.3.3.3#r#s#tQt",
"QtQt#u#v#w#aQtQtQtQt#x#y#z#z#z#z#z#z#z#z#A#B.EQt",
"QtQtQtQtQtQtQtQtQtQtQtQtQtQtQtQtQtQtQtQtQtQtQtQt",
"QtQt#C#D#E#E#E#E#E#E#E#E#E#E#E#E#E#E#E#E#F#G.fQt",
"Qt.f#H#I#J#K#K#K#K#K#K#K#K#K#K#K#K#K#K#K#L#M#NQt",
"Qt.e#O.o.o.o.o.o.o.o.o.o.o.o.o.o.o.o.o.o.o.o#P.x",
"Qt#Q#R.o.o.o.o.o.o.o.o.o.o.o.o.o.o.o.o.o.o.o#S#T",
"Qt#U#V.o.o.o.o.o.o.o.o.o.o.o.o.o.o.o.o.o.o#W#X#Y",
"QtQt#t#Z#0#1#1#1#1#1#1#1#1#1#1#1#1#1#1#1#2#3#4Qt",
"QtQtQt#5#6#6#6#6#6#6#6#6#6#6#6#6#6#6#6#6#7#8QtQt",
"QtQtQtQtQtQtQtQtQtQtQtQtQtQtQtQtQtQtQtQtQtQtQtQt"};
