/* XPM */
static char *new_xpm[] = {
"24 24 88 2",
"Qt c None",
"#p c #303030",
".q c #353535",
"#v c #343434",
"#s c #343434",
".c c #323232",
"#j c #323232",
".# c #313131",
".i c #343434",
".x c #323232",
".z c #313131",
".H c #333333",
"#u c #323232",
"#t c #343434",
".b c #343434",
".a c #333333",
".y c #323232",
".2 c #333f2d",
"#r c #323232",
".h c #333333",
"#q c #333333",
".d c #333333",
".Q c #36472a",
".U c #375026",
"#o c #333333",
".e c #333333",
".G c #353b30",
".g c #35452b",
".f c #36462c",
".1 c #375424",
".P c #408f0c",
".n c #42a004",
".M c #42a203",
".L c #439d06",
".m c #43a204",
".N c #43a402",
".O c #44a403",
".u c #44aa00",
".0 c #49742c",
".Z c #4b8027",
".Y c #4b8126",
".T c #4e7633",
".X c #507c33",
".W c #527839",
".E c #54644a",
".D c #556649",
".K c #566c48",
".8 c #657659",
"#b c #657858",
"#c c #66785a",
".7 c #67795b",
".l c #6a7861",
"#g c #6d7e61",
".o c #6e7a65",
".t c #6e8161",
".F c #6f7a68",
"#h c #6f8064",
".v c #708264",
"#n c #727272",
".p c #767676",
"#d c #7b8971",
"#k c #7d7d7d",
"#e c #7f8c76",
".j c #818181",
".V c #85917c",
".C c #8c9785",
".B c #969f90",
"#. c #b2b2b2",
".w c #bbbbbb",
"#m c #c7c7c7",
"#l c #c8c8c8",
".k c #c9c9c9",
".r c #cacaca",
"#a c #dddddd",
".6 c #e1e1e1",
".S c #e3e3e3",
".A c #e8e9e8",
".5 c #e9e9e9",
"#f c #ebeceb",
".J c #ececec",
"#i c #ededed",
".4 c #eeeeee",
"## c #efefef",
".9 c #f1f1f1",
".3 c #f4f4f4",
".I c #f9f9f9",
".R c #fefefe",
".s c #ffffff",
"QtQtQt.#.a.a.a.a.a.a.a.a.a.a.a.a.a.a.b.cQtQtQtQt",
"QtQt.d.e.e.e.e.e.e.e.e.e.e.e.e.f.g.e.e.e.hQtQtQt",
"Qt.i.e.j.k.k.k.k.k.k.k.k.k.k.l.m.n.o.k.p.e.qQtQt",
"Qt.a.e.r.s.s.s.s.s.s.s.s.s.s.t.u.u.v.s.w.e.xQtQt",
"Qt.y.e.r.s.s.s.s.s.s.s.s.s.s.t.u.u.v.s.w.e.zQtQt",
"Qt.y.e.r.s.s.s.s.s.s.A.B.C.C.D.u.u.E.C.F.G.HQtQt",
"Qt.y.e.r.s.s.s.s.I.J.K.L.M.M.N.u.u.O.M.M.P.QQtQt",
"Qt.y.e.r.s.s.s.s.R.S.T.u.u.u.u.u.u.u.u.u.u.UQtQt",
"Qt.y.e.r.s.s.s.s.s.s.V.W.X.X.Y.u.u.Z.X.0.1.2QtQt",
"Qt.y.e.r.s.s.3.4.4.4.4.5.6.6.7.u.u.8.9#..e.zQtQt",
"Qt.y.e.r.s.s.s.s.s.s.s.s.s.s.t.u.u.v.s.w.e.zQtQt",
"Qt.y.e.r.s.s.s.s.s.s.s###a#a#b.u.u#c.s.w.e.zQtQt",
"Qt.y.e.r.s.s.s.s.s.s.s.s.s.s#d.O.M#e.s.w.e.zQtQt",
"Qt.y.e.r.s.s.s.s.s.s.s.s.s.s#f#g#h#i.s.w.e.zQtQt",
"Qt.y.e.r.s.s.s.s.s.s.s.s.s.s.s.s.s.s.s.w.e.zQtQt",
"Qt.y.e.r.s.s.s.s.s.s.s.s.s.s.s.s.s.s.s.w.e.zQtQt",
"Qt.y.e.r.s.s.s.s.s.s.s.s.s.s.s.s.s.s.s.w.e.zQtQt",
"Qt.y.e.r.s.s.s.s.s.s.s.s.s.s.s.s.s.s.s.w.e.zQtQt",
"Qt.y.e.r.s.s.s.s.s.s.s.s.s.s.s.s.s.s.s.w.e.zQtQt",
"Qt.y.e.r.s.s.s.s.s.s.s.s.s.s.s.s.s.s.s.w.e.zQtQt",
"Qt.a.e.r.s.s.s.s.s.s.s.s.s.s.s.s.s.s.s.w.e.xQtQt",
"Qt#j.e#k#l.k.k.k.k.k.k.k.k.k.k.k.k.k#m#n#o#pQtQt",
"QtQt#q.e.e.e.e.e.e.e.e.e.e.e.e.e.e.e.e.e#rQtQtQt",
"QtQtQt#s#t.a.a.a.a.a.a.a.a.a.a.a.a.a#u#vQtQtQtQt"};
