/* XPM */
static char *nowrap_xpm[] = {
/* columns rows colors chars-per-pixel */
"24 24 66 1",
"  c black",
". c gray19",
"X c #313131",
"o c #323232",
"O c gray20",
"+ c #343434",
"@ c #353535",
"# c gray21",
"$ c #393939",
"% c gray23",
"& c #464646",
"* c #505050",
"= c gray32",
"- c #555555",
"; c #656565",
": c gray40",
"> c #888888",
", c gray55",
"< c #929292",
"1 c gray59",
"2 c #989898",
"3 c gray60",
"4 c gray61",
"5 c #9F9F9F",
"6 c gray63",
"7 c #A5A5A5",
"8 c #A9A9A9",
"9 c #AAAAAA",
"0 c gray67",
"q c gray68",
"w c #AFAFAF",
"e c gray70",
"r c gray73",
"t c #BBBBBB",
"y c #C1C1C1",
"u c gray77",
"i c gray78",
"p c #C8C8C8",
"a c #CACACA",
"s c #CBCBCB",
"d c gray80",
"f c #CECECE",
"g c gray82",
"h c gray84",
"j c #D7D7D7",
"k c gray85",
"l c #DDDDDD",
"z c gray87",
"x c #DFDFDF",
"c c gray88",
"v c #E1E1E1",
"b c #E4E4E4",
"n c #E6E6E6",
"m c gray92",
"M c #EEEEEE",
"N c gray94",
"B c #F1F1F1",
"V c gray95",
"C c #F3F3F3",
"Z c #F4F4F4",
"A c gray97",
"S c #F9F9F9",
"D c gray98",
"F c #FBFBFB",
"G c gray100",
"H c None",
/* pixels */
"HHHX+OOOOOOOOOOOOOOO#HHH",
"HH@@OOOOOOOOOOOOOOOO+oHH",
"HHO%gbbbbbbbbbbbbbbj&OHH",
"HHO=GGGGGGGGGGGGGGGG:@HH",
"HHO=GGGGGGGGGGBMMMnS:@HH",
"HHO=GZMblkdptttt099N:@HH",
"HHO=GGGGGGGGGGGGGGGG:@HH",
"HHO=GDMxllfutte8332m:@HH",
"HHO=GGGGGGGGGGGGGGGG:@HH",
"HHO=AMMMvdddiw9991>m:@HH",
"HHO=GGGGGGGGGGGGGGGG:@HH",
"HHO=VMMMcddda9999<>m:@HH",
"HHO=GGGGGGGGGGGGGGGG:@HH",
"HHO=GFMzllfytte7332m:@HH",
"HHO=GGGGGGGGGGGGGGGG:@HH",
"HHO=GCMnlhdstr9953,m:@HH",
"HHO=GGGGGGGGGGGGGGGG:@HH",
"HHO=GGGGGGGGGGGGGGGG:@HH",
"HHO=GGGGGGGGGGGGGGGG:@HH",
"HHO=GGGGGGGGGGGGGGGG:@HH",
"HHO*GGGGGGGGGGGGGGGG;@HH",
"HH+@4qqqqqqqqqqqqqq6$OHH",
"HH@@OOOOOOOOOOOOOOOO@oHH",
"HHH .ooooooooooooooO-HHH"
};
