/* XPM */
static char * olist_xpm[] = {
"24 24 117 2",
"Qt c None",
".O c #000000",
".# c #000000",
"#K c #cccccc",
".d c #d5d5d5",
".N c #ffffff",
"#t c #1c1c1c",
".f c #202020",
".6 c #9f9f9f",
".c c #1c1c1c",
".M c #1a1a1a",
"#p c #979797",
"#Y c #1f1f1f",
".G c #b1b1b1",
".V c #979797",
"#o c #1b1b1b",
"#A c #919191",
"#g c #808080",
".z c #adadad",
"#O c #1c1c1c",
".3 c #797979",
".a c #171717",
"#D c #6c6c6c",
".u c #7a7a7a",
"#N c #707070",
".b c #191919",
".Z c #1c1c1c",
".Y c #898989",
".B c #1a1a1a",
"#H c #b1b1b1",
"#E c #1c1c1c",
".U c #242424",
"#n c #1b1b1b",
"#l c #232323",
"#m c #1a1a1a",
".7 c #191919",
"#T c #2d2d2d",
".e c #747474",
".o c #1b1b1b",
"#s c #656565",
".l c #2c2c2c",
".v c #191919",
"#e c #545454",
"#a c #6f6f6f",
".m c #8c8c8c",
".H c #333333",
"#I c #979797",
"#f c #484848",
"#z c #323232",
".P c #353535",
"#r c #707070",
"#M c #3f3f3f",
"#C c #8b8b8b",
"#L c #515151",
"#h c #343434",
".5 c #626262",
"#. c #676767",
"#q c #5e5e5e",
".4 c #7b7b7b",
".A c #474747",
".L c #383838",
"#X c #393939",
".n c #4c4c4c",
"#J c #666666",
"#B c #6c6c6c",
".t c #4a4a4a",
".W c #595959",
"## c #636363",
".F c #313131",
".X c #585858",
"#U c #3c3c3c",
"#S c #303030",
"#V c #404040",
".I c #3e3e3e",
"#W c #3f3f3f",
".K c #424242",
"#u c #313131",
".J c #454545",
".s c #303030",
".g c #333333",
".T c #3d3d3d",
"#k c #3d3d3d",
".y c #2f2f2f",
".2 c #2e2e2e",
"#d c #2e2e2e",
".Q c #484848",
"#i c #494949",
".S c #515151",
"#j c #525252",
".R c #535353",
"#G c #2c2c2c",
".k c #484848",
"#y c #565656",
".9 c #2b2b2b",
".h c #7d7d7d",
"#P c #424242",
".0 c #595959",
"#b c #5b5b5b",
"#v c #848484",
".C c #555555",
"#F c #6c6c6c",
".j c #8b8b8b",
".i c #8c8c8c",
".8 c #737373",
".p c #838383",
"#x c #9d9d9d",
"#w c #9f9f9f",
".w c #8b8b8b",
".E c #bebebe",
"#R c #cccccc",
".r c #e9e9e9",
".1 c #ededed",
"#c c #eeeeee",
".x c #f2f2f2",
"#Q c #f5f5f5",
".D c #fbfbfb",
".q c #ffffff",
"QtQtQtQtQtQtQtQtQtQtQtQtQtQtQtQtQtQtQtQtQtQtQtQt",
"QtQtQtQtQtQtQt.#.a.b.b.b.b.b.b.b.b.b.b.b.cQtQtQt",
"QtQtQt.d.eQt.f.g.h.i.i.i.i.i.i.i.i.i.i.j.k.lQtQt",
"QtQtQt.m.nQt.o.p.q.q.q.q.q.q.q.q.q.q.q.q.r.sQtQt",
"QtQtQt.t.uQt.v.w.q.q.q.q.q.q.q.q.q.q.q.q.x.yQtQt",
"QtQt.z.AQtQt.B.C.D.q.q.q.q.q.q.q.q.q.q.q.E.FQtQt",
"QtQtQt.GQtQtQt.H.I.J.J.J.J.J.J.J.J.J.J.K.L.MQtQt",
"QtQtQtQtQtQtQtQtQtQtQtQtQtQtQtQtQtQtQtQtQtQtQtQt",
"QtQtQtQtQtQtQtQtQtQtQtQtQtQtQtQtQtQtQtQtQtQtQtQt",
"QtQtQtQt.NQt.O.P.Q.R.R.R.R.R.R.R.R.R.R.S.T.UQtQt",
"QtQt.V.W.X.Y.Z.0.q.q.q.q.q.q.q.q.q.q.q.q.1.2QtQt",
"QtQt.3.4.5.6.7.8.q.q.q.q.q.q.q.q.q.q.q.q.q.9QtQt",
"QtQt#.###aQt.Z#b.q.q.q.q.q.q.q.q.q.q.q.q#c#dQtQt",
"QtQt#e#f#gQt.O#h#i.R.R.R.R.R.R.R.R.R.R#j#k#lQtQt",
"QtQtQtQtQtQtQtQtQtQtQtQtQtQtQtQtQtQtQtQtQtQtQtQt",
"QtQtQtQtQtQtQtQtQtQtQtQtQtQtQtQtQtQtQtQtQtQtQtQt",
"QtQtQtQtQtQtQt.#.b#m#m#m#m#m#m#m#m#m#m#n#oQtQtQt",
"QtQt#p#q#r#s#t#u#v#w#w#w#w#w#w#w#w#w#w#x#y#zQtQt",
"QtQt#A#B#C#D#E#F.q.q.q.q.q.q.q.q.q.q.q.q.D#GQtQt",
"QtQt#H#I#JQt.7.8.q.q.q.q.q.q.q.q.q.q.q.q.q.9QtQt",
"Qt#K#L#M#NQt#O#P#Q.q.q.q.q.q.q.q.q.q.q.q#R#SQtQt",
"QtQtQtQtQtQtQt#T#U#V#V#V#V#V#V#V#V#V#V#W#X#YQtQt",
"QtQtQtQtQtQtQtQtQtQtQtQtQtQtQtQtQtQtQtQtQtQtQtQt",
"QtQtQtQtQtQtQtQtQtQtQtQtQtQtQtQtQtQtQtQtQtQtQtQt"};
