/* XPM */
static char * olist_xpm[] = {
"16 15 3 1",
" 	c None",
".	c #0000FF",
"+	c #666666",
"                ",
"   .            ",
"  ..   +++++++  ",
"   .   +++++++  ",
"   .            ",
"                ",
"  ..            ",
" .  .  +++++++  ",
"   .   +++++++  ",
" ....           ",
"                ",
" ....           ",
"   .   +++++++  ",
" .  .  +++++++  ",
"  ...           "};
