/* XPM */
static char *options_xpm[]={
"24 24 180 2",
"Qt c None",
"at c #000000",
".p c #000000",
"#8 c #000000",
"#9 c #000000",
"#V c #000000",
".c c #000000",
".2 c #000000",
".V c #000000",
".k c #000000",
".N c #000000",
".W c #000000",
".3 c #000000",
".g c #000000",
".q c #000000",
".a c #000000",
"aX c #000000",
"#t c #070707",
".I c #000000",
".y c #070707",
"aF c #060606",
".# c #000000",
"ak c #000000",
"#S c #060606",
"#H c #0a0a0a",
".H c #000000",
"#G c #0d0d0d",
"ao c #000000",
".l c #000000",
"aQ c #0c0c0c",
"aB c #0c0c0c",
".b c #080808",
".x c #0f0f0f",
"aC c #030303",
"#T c #141414",
"#W c #101010",
"aW c #131313",
"#s c #121212",
"#j c #0f0f0f",
"#A c #090909",
"#u c #141414",
"#b c #0b0b0b",
"#y c #111111",
"#i c #0c0c0c",
"#r c #0e0e0e",
".A c #101010",
".8 c #111111",
"aO c #111111",
"aA c #171717",
"aR c #161616",
".h c #151515",
"aS c #181818",
"ag c #151515",
"aa c #111111",
"ap c #171717",
"#o c #161616",
"#U c #161616",
"#D c #141414",
".4 c #1a1a1a",
".j c #1a1a1a",
".J c #1a1a1a",
".G c #1a1a1a",
"ah c #1a1a1a",
"a# c #171717",
"#5 c #181818",
"as c #181818",
".z c #141414",
"aV c #161616",
"a. c #191919",
"#f c #1e1e1e",
".9 c #212121",
".1 c #1f1f1f",
"aN c #111111",
"aT c #1c1c1c",
"#a c #161616",
"#h c #232323",
"#Z c #222222",
"aj c #151515",
"#0 c #171717",
"aL c #181818",
".U c #141414",
"#z c #141414",
"#m c #202020",
".Z c #1d1d1d",
"#x c #1d1d1d",
"ai c #292929",
".d c #1e1e1e",
".5 c #232323",
".O c #212121",
"af c #252525",
".M c #181818",
"#n c #2e2e2e",
".o c #303030",
"#7 c #303030",
"aJ c #101010",
"#C c #222222",
"#6 c #323232",
"#e c #333333",
"aG c #1e1e1e",
".w c #2e2e2e",
".m c #343434",
"## c #363636",
".f c #171717",
"aE c #242424",
"#F c #272727",
".t c #343434",
"#X c #2b2b2b",
"ac c #313131",
"az c #333333",
".0 c #3b3b3b",
"#B c #232323",
"#R c #2b2b2b",
"#I c #313131",
"ay c #363636",
".X c #3c3c3c",
".E c #3c3c3c",
"aM c #414141",
".r c #242424",
"#v c #3d3d3d",
".D c #434343",
".e c #474747",
"#2 c #131313",
"#p c #151515",
"au c #1e1e1e",
"#E c #343434",
"aD c #3c3c3c",
"aP c #141414",
"al c #191919",
"#M c #373737",
"ad c #4a4a4a",
".P c #4d4d4d",
"ae c #4e4e4e",
"av c #454545",
".i c #3f3f3f",
"#g c #5c5c5c",
"#k c #4f4f4f",
"#N c #1f1f1f",
"#K c #565656",
"an c #565656",
".Q c #676767",
"aK c #4e4e4e",
".B c #5c5c5c",
"#. c #686868",
"#Y c #6a6a6a",
"#O c #565656",
"aI c #5f5f5f",
"am c #5e5e5e",
".u c #606060",
".s c #707070",
"#l c #6f6f6f",
"#J c #797979",
"#c c #6d6d6d",
"#3 c #6f6f6f",
"aH c #7e7e7e",
"#1 c #7f7f7f",
".L c #818181",
"#q c #525252",
"ax c #868686",
"aU c #737373",
".7 c #797979",
"ar c #7a7a7a",
".S c #7f7f7f",
".F c #828282",
"#P c #868686",
".v c #888888",
".K c #898989",
"aq c #8a8a8a",
".6 c #8b8b8b",
"aw c #8c8c8c",
"ab c #8e8e8e",
"#4 c #8f8f8f",
".Y c #919191",
".R c #929292",
"#L c #939393",
".T c #949494",
"#Q c #959595",
".C c #969696",
"#d c #979797",
"#w c #989898",
".n c #999999",
"QtQtQtQtQtQtQtQtQtQtQtQtQtQtQtQtQtQtQtQtQtQtQtQt",
"QtQtQtQtQtQtQtQt.#.aQtQtQtQtQtQtQtQtQtQtQtQtQtQt",
"QtQtQtQt.b.cQtQt.d.e.f.gQtQtQtQtQtQtQtQtQtQtQtQt",
"QtQtQt.h.i.j.k.l.m.n.o.pQtQtQtQtQtQtQtQtQtQtQtQt",
"QtQt.q.r.n.s.t.u.v.n.w.x.y.z.qQtQtQtQtQtQtQtQtQt",
"QtQtQt.A.B.n.n.n.n.n.C.D.E.F.GQtQtQtQtQtQtQtQtQt",
"Qt.H.I.J.K.n.n.n.n.n.n.n.n.L.M.NQtQtQtQtQtQtQtQt",
"Qt.O.P.Q.n.n.n.R.S.n.n.n.T.U.VQtQtQtQtQtQtQtQtQt",
".W.X.n.n.n.n.Y.Z.h.0.n.n.n.1.2QtQtQtQtQtQtQtQtQt",
".3.4.5.6.n.n.7.8Qt.9.n.n.n#.###aQtQtQtQtQtQtQtQt",
"QtQt#b#c.n.n#d#e#f#g.n.n.n.n.n#h.##i.gQtQtQtQtQt",
"QtQt#j#k.n.n.n.n.n.n.n.n#l#m#n#o#p#q#rQt#s#tQtQt",
"Qt#u#v#w.n.n.n.n.n.n.n#w#x#y#z#A#B.Y#C#D#E#F#GQt",
"Qt#H#I#J.M#K.C.n.n.n#L.n#M#N.v#O#L.n.n#P#Q#R#SQt",
"QtQt#T#U#V#W#X.n#Y#Z#0#J#1#2#3.n.n.n.n.n#4#5QtQt",
"QtQtQtQtQt#V#6.n#7#8#9a.a#aa.F.nabacad.n.naeafag",
"QtQtQtQtQt.NahaiajQtQtakalam.n.nanaoapaq.n#4aras",
"QtQtQtQtQtQtQtQtatQtQt.cauavaw.nax.5ay#w.nazaAaB",
"QtQtQtQtQtQtQtQtQtQtQtQt.laCaD.n.n.n.n.n.naEaFQt",
"QtQtQtQtQtQtQtQtQtQtQtQtQt.gaG.n.n.n.naHaIawaJQt",
"QtQtQtQtQtQtQtQtQtQtQtQtQt.8aK#kaLaM#PaNaOaPaQQt",
"QtQtQtQtQtQtQtQtQtQtQtQtQtQtaRaSQtaTaUaVQt.VQtQt",
"QtQtQtQtQtQtQtQtQtQtQtQtQtQtQtQtQtaW.8aXQtQtQtQt",
"QtQtQtQtQtQtQtQtQtQtQtQtQtQtQtQtQtQtQtQtQtQtQtQt"};
