/* XPM */
static char *paste_xpm[] = {
"24 24 205 2",
"Qt c None",
".I c #000000",
".# c #000000",
"au c #404040",
".c c #242424",
"am c #202020",
".q c #393939",
".p c #171717",
".J c #2b2b2b",
"aC c #373737",
"a2 c #222222",
".d c #2d2d2d",
"be c #1a1a1a",
"#P c #373737",
"#Z c #1c1c1c",
".4 c #3a3a31",
"aP c #181818",
"aI c #484038",
".b c #191919",
".o c #1b1b1b",
".a c #1a1a1a",
"bf c #1b1b1b",
"#M c #181818",
"aM c #1a1a1a",
"ax c #322e2b",
".n c #191919",
"a3 c #191919",
".e c #3e3731",
"#z c #1a1a1a",
"aH c #1b1b1b",
".H c #1d1d1d",
".U c #1c1c1c",
"#B c #554537",
".m c #1a1a1a",
"aQ c #1a1a1a",
"bg c #1a1a1a",
"aj c #5d4a3a",
"a4 c #1b1b1b",
"#o c #1b1b1b",
"aN c #1a1a1a",
"#d c #5f493c",
"aB c #1b1b1b",
"bd c #202020",
"#Q c #1e1e1e",
"bk c #212121",
".r c #644b3b",
".l c #202020",
"#g c #574338",
".V c #664d3b",
"#C c #40352e",
"bh c #242424",
"a5 c #252525",
"#c c #252525",
"#p c #76543f",
"a# c #76553e",
"at c #272727",
"av c #694e3c",
"#2 c #272727",
"aE c #5b4537",
".3 c #292929",
".K c #6d503d",
"#A c #835b3f",
"#0 c #835b40",
"#r c #403833",
"#q c #76553e",
".k c #272727",
".G c #282828",
"#N c #885d41",
"aD c #6e513d",
"bi c #272727",
"aa c #8c6042",
"a6 c #272727",
"#1 c #8e6042",
"aJ c #4e3f34",
"ai c #262626",
"al c #966543",
".s c #996543",
"a1 c #252525",
"bj c #262626",
"ab c #252525",
".f c #2f2c2a",
".5 c #a46c46",
"#O c #a76d47",
"aT c #222222",
".j c #242424",
".F c #222222",
".C c #3f3f3f",
"a9 c #474747",
"#y c #4e4e4e",
".6 c #cf814d",
"aL c #313131",
"aF c #323232",
"#s c #373736",
"aU c #424242",
"aG c #545454",
"aK c #555555",
"aw c #b37348",
"a7 c #1f1f1f",
"#L c #2e2e2e",
".T c #313131",
".B c #626262",
"a8 c #292929",
"bc c #474747",
".g c #272727",
"aR c #606060",
"#f c #dc884f",
".D c #222222",
"b. c #6d6d6d",
"a. c #1e1e1e",
"an c #1c1c1c",
".h c #212121",
"aV c #737373",
"#n c #747474",
"aS c #1c1c1c",
"#h c #1d1d1d",
"aO c #787878",
"aA c #797979",
"ak c #e68d51",
"ay c #1c1c1c",
".i c #1b1b1b",
"#Y c #1c1c1c",
"#D c #604b3e",
".L c #ed9052",
".E c #1a1a1a",
".7 c #4d3c31",
"#R c #6f5b4e",
"#W c #88786e",
".A c #888888",
".O c #8e7868",
".v c #8f7361",
"#4 c #917562",
"b# c #919191",
"#7 c #928075",
"#3 c #949393",
"aW c #959595",
"#b c #969696",
".Z c #97755e",
".1 c #9a8b80",
"as c #9a9a9a",
"#F c #9c8c81",
"#I c #9d775d",
"ag c #9f9188",
"ad c #a1938a",
"#H c #a19d99",
".2 c #a2a2a2",
"aq c #a3948a",
"#t c #a59991",
"#m c #a59992",
"#T c #a87756",
".z c #a8a8a8",
".Y c #aa7552",
"ae c #af7b57",
"#j c #b0a69f",
"ba c #b0b0b0",
"#v c #b2a9a4",
"#J c #b37c57",
"#U c #b47a53",
"#E c #b4aba5",
"aX c #b4b4b4",
"#V c #b57d57",
".9 c #b9b2ad",
"ar c #bab1ab",
"ah c #bbbbbb",
"a0 c #bdbdbd",
"#x c #beb7b2",
"bb c #bebebe",
"ac c #c0c0c0",
"#a c #c4beb9",
"#G c #c88151",
".y c #c8c8c8",
"#K c #cbc6c2",
"af c #cd8555",
".S c #cdcdcd",
"## c #ce8555",
".8 c #d1d1d0",
".u c #d2834e",
"aY c #d5d5d5",
"#S c #d78752",
".t c #d9864f",
".0 c #d9874f",
"#9 c #dbdbdb",
"ao c #e0e0e0",
"#6 c #e18c54",
"ap c #e2e1e0",
"#. c #e58c51",
"#w c #e8e7e7",
".x c #e8e8e8",
".w c #eae9e9",
"#u c #eb8f52",
"#5 c #ec9053",
".R c #ededed",
"#k c #ef9152",
".W c #f19252",
"#e c #f29253",
".X c #f59453",
"aZ c #f5f5f5",
"#8 c #f8f8f8",
".N c #f99654",
"#X c #f9f9f9",
"#l c #fa9654",
".P c #fafafa",
"az c #fbfbfb",
"#i c #fdfdfd",
".M c #ff9955",
".Q c #ffffff",
"QtQtQtQtQtQtQtQtQtQtQtQtQtQtQtQtQtQtQtQtQtQtQtQt",
"QtQtQtQtQtQtQt.#.a.b.cQtQtQtQtQtQtQtQtQtQtQtQtQt",
"QtQtQtQtQt.d.e.f.g.h.i.j.k.l.m.n.o.pQtQtQtQtQtQt",
"QtQtQt.q.r.s.t.u.v.w.x.y.z.A.B.C.D.E.F.G.H.IQtQt",
"QtQt.J.K.L.M.M.M.N.O.P.Q.Q.Q.Q.Q.Q.R.S.z.T.UQtQt",
"QtQt.V.W.M.M.X.Y.Z.0.1.Q.Q.Q.Q.Q.Q.Q.Q.Q.2.3QtQt",
"Qt.4.5.M.M.6.7.8.9#.###a.Q.Q.Q.Q.Q.Q.Q.Q#b#cQtQt",
"Qt#d#e.M#f#g#h#i#j#k#l#m.Q.Q.Q.Q.Q.Q.Q.Q#n#oQtQt",
"Qt#p.M.M#q#r#s.Q#t#l#u#v#w#x.Q.Q.Q.Q.Q.Q#y#zQtQt",
"Qt#A.M#.#B#C#D#E#F.M#G#H#I#J#K.Q.Q.Q.Q.Q#L#MQtQt",
"Qt#N.M#O#P#Q#R#S#T.M#U#V.M#k#W.Q.Q.Q.Q#X#Y#ZQtQt",
"Qt#0.M#1Qt#2#3#4#5.M.M.M#6#7#8.Q.Q.Q.Q#9a..IQtQt",
"Qta#.MaaQtabac#8adae.Nafag#i.Q.Q.Q.Q.QahaiQtQtQt",
"Qtajakalamanao.Q.Qapaqar.Q.Q.Q.Q.Q.Q.QasatQtQtQt",
"Qtauavawaxayaz.Q.Q.Q.Q.Q.Q.Q.Q.Q.Q.Q.QaAaBQtQtQt",
"QtQtaCaDaEaF.Q.Q.Q.Q.Q.Q.Q.Q.Q.Q.Q.Q.QaGaHQtQtQt",
"QtQtQtaIaJaK.Q.Q.Q.Q.Q.Q.Q.Q.Q.Q.Q.Q.QaLaMQtQtQt",
"QtQtQtQtaNaO.Q.Q.Q.Q.Q.Q.Q.Q.Q.Q.Q.QazayaPQtQtQt",
"QtQtQtQtaQaR.Q.Q.Q.Q.Q.Q.Q.Q.Q.Q.Q.QaoaS.#QtQtQt",
"QtQtQtQt#ZaTaUaVaWaXaYaZ.Q.Q.Q.Q.Q.Qa0a1QtQtQtQt",
"QtQtQtQtQta2a3a4a5a6a7.Ea8a9b.b#babbbcbdQtQtQtQt",
"QtQtQtQtQtQtQtQtQtQtQtbebfa3bgbhbibjbkamQtQtQtQt",
"QtQtQtQtQtQtQtQtQtQtQtQtQtQtQtQtQtQtQtQtQtQtQtQt",
"QtQtQtQtQtQtQtQtQtQtQtQtQtQtQtQtQtQtQtQtQtQtQtQt"};
