/* XPM */
static char *preview_xpm[] = {
"24 24 122 2",
"Qt c None",
".f c #000000",
"#3 c #000000",
".# c #333333",
"#Z c #393939",
"#P c #272727",
"#L c #30261c",
"#O c #30241e",
".l c #323232",
".e c #323232",
"#Y c #333333",
".a c #333333",
".g c #333333",
"#H c #372820",
"#0 c #343434",
"#V c #333333",
".r c #333333",
"#U c #343434",
".B c #323232",
"#z c #323232",
".d c #343434",
".b c #323232",
"#N c #5d3b25",
"#K c #814e2c",
".c c #333333",
"#2 c #343434",
".m c #343434",
"#Q c #353535",
".s c #353535",
"#1 c #353535",
"#M c #372c26",
"#D c #352b25",
"#J c #885230",
"#G c #8d5531",
".q c #444444",
"#T c #464646",
".k c #4b4b4b",
"#t c #4c4c4c",
".A c #4f4f4f",
".i c #505050",
"#y c #41372f",
"#I c #423a36",
"#X c #575757",
".n c #5b5b5b",
"#W c #5e5e5e",
".h c #333333",
"#j c #40413e",
"#q c #4d4b47",
"#b c #585c5c",
".j c #5c5c5c",
"#m c #5d6161",
"#g c #5d6764",
"#R c #5f5f5f",
".x c #5f6563",
"#p c #5f6765",
".D c #606564",
".R c #626c6a",
".O c #636d6b",
".I c #636e6c",
".w c #676c6b",
".t c #696969",
"#. c #6c7170",
"#n c #6d7b78",
".7 c #707e7c",
".K c #747877",
"#o c #778884",
".0 c #778885",
"#F c #784f33",
"#s c #786a62",
".y c #7d8180",
".W c #808383",
"#d c #839b96",
"#i c #85a49c",
"#w c #876c5b",
".E c #87a19c",
"#B c #93715b",
"#C c #965d37",
".L c #97b9b1",
".V c #a6ccc4",
".H c #a6cdc5",
".v c #a7a9a9",
".J c #a9abab",
"#E c #aca7a3",
"#e c #aeb0af",
"#h c #b4dfd6",
"#c c #b5e0d6",
".9 c #b5e0d7",
".N c #b8e5dc",
".F c #b9e4db",
".M c #b9e7dd",
"#f c #bbbcbc",
".5 c #bbe9df",
".1 c #bceae0",
".2 c #bdeae0",
".8 c #bdebe1",
"#A c #c0bdbb",
".G c #c0eee4",
"#r c #c1835b",
"#x c #c2855d",
".S c #c2eee5",
".Z c #c4c4c4",
"#l c #c9caca",
".4 c #d0f0e9",
"#v c #d1cfce",
".z c #d6d6d6",
".P c #d7d7d7",
".3 c #dcf4ef",
".U c #dcf6f0",
".6 c #dfdfdf",
"#u c #e4e4e4",
"#k c #e9e9e9",
".T c #ebfaf6",
"#a c #ededed",
".Y c #eeeeee",
".Q c #f0f0f0",
".C c #f3f3f3",
"## c #f4f4f4",
".X c #f7f7f7",
".u c #fafafa",
".p c #fcfcfc",
"#S c #fdfdfd",
".o c #ffffff",
"QtQtQtQtQtQtQtQtQtQtQtQtQtQtQtQtQtQtQtQtQtQtQtQt",
"QtQt.#.a.b.c.c.c.c.c.c.c.c.c.c.c.c.c.c.d.e.fQtQt",
"QtQt.g.h.i.j.j.j.j.j.j.j.j.j.j.j.j.j.j.k.h.lQtQt",
"QtQt.m.n.o.o.o.o.o.o.o.o.o.o.o.o.o.o.o.p.q.rQtQt",
"QtQt.s.t.o.o.o.o.o.o.o.o.u.v.w.x.y.z.o.o.A.BQtQt",
"QtQt.s.t.o.o.o.o.o.o.o.C.D.E.F.G.H.I.J.o.A.BQtQt",
"QtQt.s.t.o.o.o.o.o.o.o.K.L.M.M.M.M.N.O.P.A.BQtQt",
"QtQt.s.t.o.o.o.o.o.o.Q.R.G.G.S.T.U.G.V.W.A.BQtQt",
"QtQt.s.t.o.o.X.Y.Y.Y.Z.0.1.1.2.3.4.M.5.D.A.BQtQt",
"QtQt.s.t.o.o.o.o.o.o.6.7.G.G.8.1.1.1.9#..A.BQtQt",
"QtQt.s.t.o.o.o.o.o###a#b#c.1.1.1.1.1#d#e.A.BQtQt",
"QtQt.s.t.o.o.o.o.o.p.Y#f#g#h.5.M.M#i#j#k.A.BQtQt",
"QtQt.s.t.o.o.o.o.o.o.o.o#l#m#n#o#p#q#r#s#t.BQtQt",
"QtQt.s.t.o.o.o.o.o.o.o.o.o.o#u.P###v#w#x#y#zQtQt",
"QtQt.s.t.o.o.o.o.o.o.o.o.o.o.o.o.o.o#A#B#C#D.fQt",
"QtQt.s.t.o.o.o.o.o.o.o.o.o.o.o.o.o.o.o#E#F#G#HQt",
"QtQt.s.t.o.o.o.o.o.o.o.o.o.o.o.o.o.o.o.o#I#J#K#L",
"QtQt.s.t.o.o.o.o.o.o.o.o.o.o.o.o.o.o.o.o.A#M#N#O",
"QtQt.s.t.o.o.o.o.o.o.o.o.o.o.o.o.o.o.o.o.A.B#PQt",
"QtQt.s.t.o.o.o.o.o.o.o.o.o.o.o.o.o.o.o.o.A.BQtQt",
"QtQt.s.t.o.o.o.o.o.o.o.o.o.o.o.o.o.o.o.o.A.BQtQt",
"QtQt#Q#R.o.o.o.o.o.o.o.o.o.o.o.o.o.o.o#S#T#UQtQt",
"QtQt#V.h#W.t.t.t.t.t.t.t.t.t.t.t.t.t.t#X.h#YQtQt",
"QtQt#Z#0#Q#1#1#1#1#1#1#1#1#1#1#1#1#1#1#2.a#3QtQt"};
