/* XPM */
static char *print_xpm[] = {
"24 24 132 2",
"Qt c None",
".G c #000000",
"a# c #000000",
"#Z c #000000",
"ab c #000000",
".# c #000000",
".H c #000000",
"aa c #000000",
"#R c #000000",
".t c #000000",
".d c #000000",
"#Q c #000000",
"#A c #000000",
"#Y c #000000",
"#S c #000000",
"#X c #000000",
".P c #000000",
"#H c #070707",
".F c #070707",
"#s c #040404",
".X c #070707",
".c c #0e0e0e",
".4 c #090909",
"#3 c #1f1f1f",
".O c #0a0a0a",
".u c #0b0b0b",
"#0 c #222222",
".a c #0d0d0d",
".b c #0f0f0f",
"#T c #1d1d1d",
".k c #151515",
".E c #0d0d0d",
"a. c #3f3f3f",
"#G c #090909",
"#1 c #2e2e2e",
"#P c #090909",
".v c #0b0b0b",
".e c #292929",
".I c #080808",
"#5 c #242424",
"#8 c #1f1f1f",
"#U c #272727",
"#N c #333333",
"#J c #2a2a2a",
".3 c #181818",
".7 c #1b1b1b",
"#O c #1d1d1d",
"#7 c #161616",
"#6 c #171717",
"#z c #0f0f0f",
"#B c #0e0e0e",
".N c #292929",
"#I c #070707",
".Q c #3a3a3a",
"#9 c #151515",
"#K c #242424",
".W c #050505",
"#4 c #070707",
".J c #5a5a5a",
".D c #0b0b0b",
"#2 c #1c1c1c",
"#t c #565656",
"#W c #202020",
".w c #0d0d0d",
"#F c #717171",
"#f c #000000",
"#e c #0c0c0c",
"#h c #0e0e0e",
"#g c #0f0f0f",
".C c #101010",
".y c #111111",
".x c #121212",
"#o c #131313",
"#l c #141414",
".z c #151515",
"#v c #171717",
"#p c #1a1a1a",
".B c #1d1d1d",
".A c #1e1e1e",
"#M c #252525",
".0 c #333333",
".Z c #343434",
".1 c #393939",
"#. c #3c3c3c",
".9 c #414141",
"#k c #464646",
"#q c #474747",
"## c #484848",
"#j c #4a4a4a",
".h c #4b4b4b",
".i c #4c4c4c",
".p c #4e4e4e",
"#i c #515151",
".j c #5b5b5b",
".l c #636363",
".5 c #646464",
".g c #656565",
".f c #666666",
".6 c #737373",
"#c c #757575",
"#b c #797979",
".m c #7f7f7f",
"#w c #848484",
"#V c #878787",
".q c #888888",
".M c #8a8a8a",
"#E c #8b8b8b",
".Y c #8c8c8c",
"#C c #8d8d8d",
"#r c #8f8f8f",
".K c #959595",
".8 c #969696",
"#y c #979797",
"#m c #989898",
"#n c #9a9a9a",
".L c #9b9b9b",
"#d c #9e9e9e",
".2 c #a0a0a0",
".T c #a2a2a2",
"#a c #a6a6a6",
".V c #a8a8a8",
".S c #aaaaaa",
".U c #adadad",
"#u c #b1b1b1",
".R c #b3b3b3",
"#x c #bcbcbc",
"#D c #d8d8d8",
".o c #e7e7e7",
".n c #eeeeee",
".s c #f7f7f7",
"#L c #fefefe",
".r c #ffffff",
"QtQtQtQtQtQtQtQtQtQtQtQtQtQtQtQtQtQtQtQtQtQtQtQt",
"QtQtQtQtQtQtQtQtQtQtQtQtQtQtQtQtQtQtQtQtQtQtQtQt",
"QtQtQtQt.#.a.b.b.b.b.b.b.b.b.b.b.b.b.b.b.cQtQtQt",
"QtQtQtQt.d.e.f.f.g.h.i.i.i.i.i.i.i.i.i.j.kQtQtQt",
"QtQtQtQt.d.e.f.f.l.m.n.n.n.n.n.n.n.n.o.p.kQtQtQt",
"QtQtQtQt.d.e.f.f.l.q.r.r.r.r.r.r.r.r.s.p.kQtQtQt",
"QtQt.t.u.v.w.x.x.y.z.A.A.A.A.A.A.A.A.B.C.D.E.F.G",
"Qt.H.I.J.K.L.L.L.L.L.L.L.L.L.L.L.L.L.L.L.L.M.N.O",
"Qt.P.Q.R.R.R.R.R.R.R.R.R.R.R.R.R.R.R.S.T.T.U.V.W",
"Qt.X.l.R.R.R.R.R.R.R.R.R.R.R.R.R.R.Y.Z.0.0.1.2.3",
"Qt.4.5.R.R.R.R.R.R.R.R.R.R.R.R.R.R.6.0.0.0.0.Y.7",
"Qt.4.5.R.R.R.R.R.R.R.R.R.R.R.R.R.R.8.9#.#.###a.7",
"Qt.4.5.R.R.R.R.R.R.R.R.R.R.R.R.R.R.R.R.R.R.R.R.7",
"Qt.4.5.R.R.R.R.R.R.R.R.R.R.R.R.R.R.R.R.R.R.R.R.7",
"Qt.4.5#b#c#c#c#c#c#c#c#c#c#c#c#c#c#c#c#c#c#c#d.7",
"Qt.4.5#e#f#f#f#g.C.C.C.x.x.x.C.C.C.C#h#f#f#f#c.7",
"Qt.4.5#i#j#j#k#l#m.L.L.L.L.L.L.L#n#o#p#q#j#j#r.7",
"Qt#s#t.R.R#u#v#w.r.r.r.r.r.r.r.r#x#f#y.R.R.R.R#z",
"Qt#A#B.2.R#C#f#D.r.r.r.r.r.r.r.r#E#v.R.R.R.R#F#G",
"QtQt#H#I#J#K#g#L.r.r.r.r.r.r.r.r#w#M#N#N#N#O#P#Q",
"QtQtQt#R#S#T#U.r.r.r.r.r.r.r.r.r#V#W#X#X#X#Y#ZQt",
"QtQtQtQtQt#0#1.r.r.r.r.r.r.r.r.r.q#2QtQtQtQtQtQt",
"QtQtQtQtQt#3#4#5#6#7#8#5#5#5#5#5#9a.QtQtQtQtQtQt",
"QtQtQtQtQta#aaabQtQtQtQtQtQtQtQtQtQtQtQtQtQtQtQt"};
