/* XPM */
static char *quit_xpm[] = {
"24 24 77 2",
"Qt c None",
".# c #161616",
"#g c #1d1d1d",
"#. c #181818",
".9 c #191919",
".1 c #1c1c1c",
".d c #1e1e1e",
".T c #1a1a1a",
"## c #1f1f1f",
"#h c #242424",
".e c #1a1a1a",
".j c #1b1b1b",
".0 c #1c1c1c",
".Q c #1a1a1a",
".n c #1a1a1a",
".u c #191919",
"#a c #343434",
".2 c #2b2b2b",
"#k c #2c2c2c",
"#i c #343434",
".a c #1b1b1b",
".i c #1b1b1b",
".S c #1b1b1b",
".m c #1b1b1b",
".c c #1c1c1c",
"#b c #313131",
"#f c #333333",
".3 c #2f2f2f",
"#j c #303030",
".8 c #353535",
"#c c #555555",
".b c #1c1c1c",
".4 c #464646",
".Y c #1f1f1f",
".Z c #1d1d1d",
".5 c #8c8c8c",
".f c #252525",
"#d c #9b9b9b",
".X c #333333",
".U c #444444",
".B c #2c2c2c",
".h c #2d2d2d",
".t c #2e2e2e",
".s c #2f2f2f",
".k c #303030",
".g c #323232",
".l c #333333",
".A c #343434",
".F c #353535",
".r c #373737",
".E c #4d4d4d",
".L c #4f4f4f",
".I c #595959",
".z c #5f5f5f",
".M c #626262",
".H c #686868",
".q c #6b6b6b",
".o c #868686",
".D c #989898",
".P c #9e9e9e",
".R c #9f9f9f",
".v c #a0a0a0",
".y c #a7a7a7",
".O c #aeaeae",
".p c #b5b5b5",
".V c #c1c1c1",
".N c #cbcbcb",
".6 c #cccccc",
".C c #d7d7d7",
"#e c #d8d8d8",
".x c #e4e4e4",
".K c #e5e5e5",
".J c #f0f0f0",
".W c #f3f3f3",
".7 c #f7f7f7",
".G c #f8f8f8",
".w c #f9f9f9",
"QtQtQtQtQtQtQtQtQtQtQtQtQtQtQtQtQtQtQtQtQtQtQtQt",
"QtQtQtQt.#.a.b.b.b.b.b.b.b.b.b.b.b.b.c.dQtQtQtQt",
"QtQtQtQt.e.f.g.g.g.g.g.g.g.g.g.g.g.g.h.iQtQtQtQt",
"QtQtQtQt.j.h.k.h.l.l.l.l.l.l.l.l.l.l.k.mQtQtQtQt",
"QtQtQtQt.n.o.p.q.r.l.s.t.l.l.l.l.l.l.k.mQtQtQtQt",
"QtQtQtQt.u.v.w.w.w.x.y.z.l.A.B.k.l.l.k.mQtQtQtQt",
"QtQtQtQt.u.v.w.w.w.w.w.w.w.C.D.E.F.l.k.mQtQtQtQt",
"QtQtQtQt.u.v.w.w.w.w.w.w.w.w.w.w.r.l.k.mQtQtQtQt",
"QtQtQtQt.u.v.w.w.w.w.w.w.w.w.w.w.F.l.k.mQtQtQtQt",
"QtQtQtQt.u.v.w.w.w.w.w.w.w.w.w.w.F.l.k.mQtQtQtQt",
"QtQtQtQt.u.v.w.w.w.w.w.w.w.w.w.w.F.l.k.mQtQtQtQt",
"QtQtQtQt.u.v.w.w.w.w.w.w.w.w.w.w.F.l.k.mQtQtQtQt",
"QtQtQtQt.u.v.w.w.w.w.w.w.w.w.w.w.F.l.k.mQtQtQtQt",
"QtQtQtQt.u.v.w.w.w.w.w.w.G.H.I.J.F.l.k.mQtQtQtQt",
"QtQtQtQt.u.v.w.w.w.w.w.w.K.L.M.N.F.l.k.mQtQtQtQt",
"QtQtQtQt.u.v.w.w.w.w.w.w.w.O.P.G.F.l.k.mQtQtQtQt",
"QtQtQtQt.u.v.w.w.w.w.w.w.w.w.w.w.F.l.k.mQtQtQtQt",
"QtQtQtQt.u.v.w.w.w.w.w.w.w.w.w.w.F.l.k.mQtQtQtQt",
"QtQtQtQt.Q.R.w.w.w.w.w.w.w.w.w.w.F.l.s.SQtQtQtQt",
"QtQtQtQt.T.U.V.W.w.w.w.w.w.w.w.w.X.Y.Z.0QtQtQtQt",
"QtQtQtQtQt.1.2.3.4.5.6.7.w.w.w.w.8.9#.QtQtQtQtQt",
"QtQtQtQtQtQtQtQt.####a#b#c#d#e.w#fQtQtQtQtQtQtQt",
"QtQtQtQtQtQtQtQtQtQtQtQt#g#h#i#j#kQtQtQtQtQtQtQt",
"QtQtQtQtQtQtQtQtQtQtQtQtQtQtQtQtQtQtQtQtQtQtQtQt"};
