/* XPM */
static char *redo_xpm[] = {
"24 24 168 2",
"Qt c None",
".8 c #000000",
"#K c #000000",
"#B c #000000",
"## c #333333",
"#Z c #171717",
"ab c #1b1b1b",
"aL c #1a1a1a",
".K c #181818",
"#9 c #161616",
"#s c #151515",
"#Y c #1c1c1c",
"ar c #1b1b1b",
"aI c #242424",
".H c #1a1a1a",
"#3 c #191919",
".L c #171717",
"aJ c #1c1c1c",
".1 c #1c1c1c",
"ai c #1a1a1a",
"#h c #191919",
"aB c #1f1f1f",
"#C c #1a1a1a",
"aK c #191919",
".m c #191919",
".P c #181818",
".y c #1b1b1b",
"#a c #242424",
"aj c #23231f",
"#L c #1b1b1b",
".# c #22221e",
".G c #252521",
"#4 c #191919",
"#o c #1b1b1b",
"#w c #1f1f1c",
".U c #1b1b1b",
"av c #262620",
".h c #2b2923",
"#x c #1a1a1a",
"ac c #282522",
"#A c #1e1e1e",
".0 c #282823",
"#8 c #262321",
"#k c #2b2924",
"an c #2e2c25",
".v c #2f2d26",
"#5 c #2b2925",
"#r c #2d2b26",
"#D c #2c2b25",
".z c #302e24",
"aA c #2f2d26",
"as c #302f28",
"#X c #302e27",
"#n c #323028",
"af c #323127",
"#J c #313027",
".n c #2f2d27",
".X c #312e26",
".g c #353329",
".i c #312f27",
"#6 c #353329",
"#j c #333228",
"#7 c #343229",
"#g c #343329",
".f c #353329",
".a c #343229",
"#N c #201f1e",
"#2 c #333128",
"aC c #333027",
".e c #323128",
"#E c #343229",
".d c #373329",
"a. c #343329",
".l c #312f26",
".c c #333229",
"az c #323127",
".7 c #343328",
"aq c #322f27",
"#W c #343228",
".j c #39362b",
"ag c #312f27",
".b c #353329",
".k c #36342a",
"am c #343228",
".T c #353229",
".Q c #36332a",
".9 c #38352b",
"#. c #39362b",
".W c #3c3a2d",
".w c #3b372c",
".O c #37352a",
".2 c #39372c",
"aa c #423f30",
"#0 c #454232",
"au c #3a372b",
"#F c #4b4735",
"#I c #484433",
"#V c #4f4a37",
".J c #514d39",
"aD c #5c563f",
"ah c #444031",
".M c #464233",
".I c #57533c",
"aE c #6b6447",
"#i c #615b41",
"#b c #474332",
"aw c #4c4736",
"#t c #252421",
"ak c #4d4936",
"aH c #282722",
".F c #554f3b",
".o c #605b41",
".u c #615a42",
".x c #726b4a",
"aF c #655e44",
"ao c #686246",
"ay c #6e6749",
"#O c #1e1d1c",
".5 c #1f1f1d",
".C c #36342a",
"#l c #756d4d",
"ad c #7b7350",
".A c #7c7350",
"#v c #79704f",
".V c #847b55",
".Z c #867d57",
"#p c #877d56",
"#d c #6e6849",
"aG c #454233",
"#Q c #4a4634",
"#U c #92885d",
".4 c #a39766",
"ae c #a59a67",
"#G c #a89c69",
"#y c #968b5f",
"#H c #a89c69",
".B c #bbad73",
"ap c #bcae73",
"#P c #1a1a1a",
"#z c #9b9062",
"#R c #9f9464",
"#q c #a99d69",
".6 c #ab9e6b",
"#M c #aca06c",
".Y c #b2a46e",
"#m c #b3a66f",
"at c #beb075",
".t c #c2b377",
".D c #c3b478",
"#u c #c3b578",
"#S c #c5b679",
"al c #c6b77a",
".R c #c8b97b",
"#T c #cbbc7d",
".p c #cdbd7d",
"#f c #cfbf7e",
".s c #cfc07f",
"#e c #d0c17f",
".3 c #d1c180",
".S c #d3c381",
"a# c #d5c482",
"#1 c #d5c582",
".N c #d6c683",
"ax c #d7c783",
"#c c #dbca85",
".r c #dccb86",
".E c #ddcc86",
".q c #decd87",
"QtQtQtQtQtQtQtQtQtQtQtQtQtQtQtQtQtQtQtQtQtQtQtQt",
"QtQtQtQtQtQtQtQtQtQtQtQtQtQtQtQtQtQtQtQtQtQtQtQt",
"QtQtQtQtQtQt.#.a.b.c.d.e.f.g.hQtQtQt.i.j.k.l.mQt",
"QtQtQtQtQt.n.o.p.q.q.q.r.s.t.u.vQtQt.w.q.q.x.yQt",
"QtQtQtQt.z.A.q.q.q.B.C.D.q.q.E.F.G.H.I.q.q.J.KQt",
"QtQtQt.L.M.E.q.q.N.O.P.Q.R.q.q.S.T.U.V.q.q.WQtQt",
"QtQtQt.X.Y.q.q.q.Z.0Qt.1.2.3.q.q.4.5.6.q.q.7QtQt",
"QtQt.8.9.q.q.q.q#.##QtQt#a#b#c.q.q#d#e.q#f#gQtQt",
"QtQt#h#i.q.q.q.R#jQtQtQtQt#k#l.q.q.q.q.q#m#nQtQt",
"QtQt#o#p.q.q.q#q#rQtQtQtQt#s#t#u.q.q.q.q#v#wQtQt",
"QtQt#x#y.q.q.q#z#A#B#C#D#E#F#G.q.q#c#H#I#J#KQtQt",
"QtQt#L.A.q.q.q#M#N#O#P#Q#R#S#T#U#V#W#X#YQtQtQtQt",
"QtQt#Z#0.q.q.q#1#2Qt#3#4#5#6#7#8#9QtQtQtQtQtQtQt",
"QtQtQta.a#.q.q.qaaabQtQtQtQtQtQtQtQtQtQtQtQtQtQt",
"QtQtQtacad.q.q.qaeafQtQtQtQtQtQtQtQtQtQtQtQtQtQt",
"QtQtQt.8ag.s.q.q.qahaiQtQtQtQtQtQtQtQtQtQtQtQtQt",
"QtQtQtQtajak.r.q.qalam#sQtQtQtQtQtQtQtQtQtQtQtQt",
"QtQtQtQtQtanao.q.q.qapaqarQtQtQtQtQtQtQtQtQtQtQt",
"QtQtQtQtQtQtasao.r.q.qatauavQtQtQtQtQtQtQtQtQtQt",
"QtQtQtQtQtQtQtanaw.R.q.qaxayazaA.LQtQtQtQtQtQtQt",
"QtQtQtQtQtQtQtQtaBaCaDaEaEaEaFaGaHaIQtQtQtQtQtQt",
"QtQtQtQtQtQtQtQtQtQtaJaKaKaKaKaKaLQtQtQtQtQtQtQt",
"QtQtQtQtQtQtQtQtQtQtQtQtQtQtQtQtQtQtQtQtQtQtQtQt",
"QtQtQtQtQtQtQtQtQtQtQtQtQtQtQtQtQtQtQtQtQtQtQtQt"};
