/* XPM */
static char *replace_xpm[] = {
"24 24 167 2",
"Qt c None",
"ak c #000000",
"#B c #000000",
"a# c #404040",
"ap c #333333",
".# c #2b2b2b",
".3 c #404040",
".x c #171717",
".j c #2e2e2e",
".k c #151515",
".s c #2b2b2b",
".b c #373737",
"au c #222222",
"a. c #303030",
".E c #2d2d2d",
"#8 c #1c1c1c",
"aJ c #1a1a1a",
"#F c #242424",
"#V c #232323",
".N c #202020",
"aa c #1f1f1f",
"aA c #1d1d1d",
".c c #1d1d1d",
".f c #1c1c1c",
"aF c #191919",
"aK c #191919",
"#k c #34392f",
".a c #313131",
"#x c #1a1a1a",
"#9 c #323232",
".w c #313131",
"#G c #181818",
".H c #353535",
"az c #29211e",
"#A c #1f1f1f",
"#w c #35422b",
"#L c #181818",
"#N c #1e1e1e",
".4 c #1a1a1a",
"## c #34412c",
"#l c #1b1b1b",
"at c #27201d",
".d c #1d1d1d",
"ab c #27201c",
"#a c #1b1b1b",
"ao c #29231d",
"aI c #2b241c",
"ag c #27211c",
".I c #1f2121",
".M c #1f2020",
".l c #222222",
".e c #242727",
".r c #222523",
"#Z c #222626",
"al c #28201d",
"aj c #29201d",
"#v c #364b2a",
"#u c #354929",
"#3 c #222525",
"aq c #28211d",
"af c #27201c",
".2 c #364d27",
"aE c #2a221c",
".g c #374d28",
".y c #202222",
"#W c #374d28",
".D c #1f2121",
"#7 c #28211c",
"#t c #35412d",
"av c #27211c",
"#U c #2a231c",
"#C c #1e2120",
"aB c #2b241d",
".K c #ade6da",
".L c #ade7dc",
".B c #afeadd",
"#5 c #c66f36",
"ad c #c77038",
"aG c #2d231d",
"aH c #4f3523",
".A c #a7ddd2",
"#z c #abe3d8",
"ax c #c56f37",
"#Q c #a5dbd0",
"aD c #bd6a36",
"ac c #533723",
"ah c #6a4227",
"am c #7e4c2a",
"ay c #3f2d20",
"as c #4f3523",
"an c #633f26",
"ai c #7b4a2a",
"ar c #92552d",
".T c #a5d9cd",
"aC c #ad6332",
"#q c #314027",
"#I c #8cb9af",
"ae c #8f552e",
".P c #91c1b8",
"#6 c #9c5b30",
"aw c #a15e30",
".Q c #b8ebe0",
"#c c #bcede2",
".n c #57716b",
"#2 c #292e2d",
".i c #385127",
".q c #57706a",
"#P c #66837b",
".o c #759992",
".p c #769b92",
"#1 c #292e2d",
"#4 c #36291f",
"#Y c #375326",
"#m c #384442",
".z c #445551",
".C c #455653",
"#D c #6b8b84",
"#E c #6c8c85",
"#b c #3f4f4b",
".5 c #2c3432",
".J c #3a4744",
".m c #212424",
"#0 c #1e2020",
"#O c #1e211f",
"#R c #637f78",
"#f c #80a897",
"#H c #1e2020",
".1 c #3a611f",
"#n c #7da493",
".S c #d1f3eb",
"#y c #1f2020",
".0 c #39611f",
"#T c #6b4328",
".6 c #d5f4ed",
".O c #1b1c1b",
".t c #3b681c",
"#e c #d8f4ee",
".X c #39611e",
"#J c #85ada3",
".F c #3a6a1b",
".R c #dcf6f0",
".8 c #6b8b76",
"#d c #e3f7f3",
"#r c #3c6f19",
"#j c #3b6e1a",
"#o c #59795f",
"#p c #374832",
"#K c #202120",
".U c #4e6c48",
".Y c #408c0d",
".7 c #f1fbf9",
".h c #3f8212",
"#S c #242320",
"#X c #3f8510",
".V c #436b2f",
".v c #3e860f",
".W c #36591e",
"#M c #3f860f",
"#g c #42811c",
"#. c #3f8e0b",
".G c #3f8a0e",
"#s c #408c0d",
".Z c #429a07",
".9 c #429c06",
"#h c #44a900",
"#i c #44a901",
".u c #44aa00",
"QtQtQtQtQtQtQtQtQtQtQtQtQtQtQtQtQtQtQtQtQtQtQtQt",
"QtQtQtQtQtQtQtQtQtQtQtQtQtQtQt.#.a.bQtQtQtQtQtQt",
"QtQtQtQtQt.c.d.e.e.d.fQtQtQtQt.g.h.i.jQtQtQtQtQt",
"QtQtQt.k.l.m.n.o.p.q.m.r.kQt.s.t.u.v.wQtQtQtQtQt",
"QtQt.x.y.z.A.B.B.B.B.A.C.D.k.E.F.u.G.HQtQtQtQtQt",
"QtQt.I.J.K.B.B.B.B.B.B.L.J.M.E.F.u.G.HQtQtQtQtQt",
"Qt.N.O.P.B.B.B.Q.R.S.T.U.V.W.X.Y.u.Z.0.0.1.2.3Qt",
"Qt.4.5.B.B.B.B.6.7.7.8.9.u.u.u.u.u.u.u.u.u#.##Qt",
"Qt#a#b.B.B.B.B#c#d#e#f#g#h.u.u.u.u.u.u.u#i#j#kQt",
"Qt#l#m.B.B.B.B.B.B.B.B#n#o#p#q#r.u#s#t#u#v#wQtQt",
"Qt#x#y#z.B.B.B.B.B.B.B.B#z#y#A.F.u.G.HQtQtQtQtQt",
"Qt#B#C#D.B.B.B.B.B.B.B.B#E#C#F.F.u.G.HQtQtQtQtQt",
"QtQt#G#H#I.B.B.B.B.B.B#J#K#L.s.t.u#M.wQtQtQtQtQt",
"QtQtQt#N#O#P#Q.B.B#Q#R#S#T#U#V#W#X#Y.sQtQtQtQtQt",
"QtQtQtQt.f#Z#0#1#2#0#3#4#5#6#7#8#9a.QtQtQtQtQtQt",
"QtQtQtQtQtQta#aaaaa#Qtabacadaeaf.#QtQtQtQtQtQtQt",
"QtQtQtQtQtQtQtQtQtQtQtQtagahadaiajakQtQtQtQtQtQt",
"QtQtQtQtQtQtQtQtQtQtQtQtakalamadanaoQtQtQtQtQtQt",
"QtQtQtQtQtQtQtQtQtQtQtQtQtapaqaradasatQtQtQtQtQt",
"QtQtQtQtQtQtQtQtQtQtQtQtQtQtauavawaxayazQtQtQtQt",
"QtQtQtQtQtQtQtQtQtQtQtQtQtQtQtaAaBaCaDaEQtQtQtQt",
"QtQtQtQtQtQtQtQtQtQtQtQtQtQtQtQtaFaGaHaIQtQtQtQt",
"QtQtQtQtQtQtQtQtQtQtQtQtQtQtQtQtQtaJaKakQtQtQtQt",
"QtQtQtQtQtQtQtQtQtQtQtQtQtQtQtQtQtQtQtQtQtQtQtQt"};
