/* XPM */
static char *saveall_xpm[] = {
"24 24 129 2",
"Qt c None",
".# c #404040",
"#f c #333333",
"#S c #393939",
".t c #333333",
"#U c #2e2e2e",
"#H c #313131",
"#3 c #373737",
"a. c #393939",
"#F c #393939",
".U c #313131",
"#R c #353535",
".h c #343434",
".a c #323232",
".b c #353535",
".E c #3b3b3b",
"#4 c #383838",
"#Y c #373737",
"#X c #3a3a3a",
".g c #363636",
".c c #393939",
"#9 c #3a3a3a",
"#5 c #3b3b3b",
"#g c #3c3c3c",
"#6 c #393939",
"#8 c #393939",
"#7 c #383838",
"#k c #3d3d3d",
".6 c #3d3d3d",
".f c #434343",
".d c #434343",
".e c #444444",
".s c #3d3d3d",
"#h c #3d3d3d",
"#q c #3f3f3f",
"#E c #3d3d3d",
"#u c #3e3e3e",
"#W c #404040",
".i c #3d3d3d",
".N c #404040",
"#y c #3f3f3f",
"#a c #434343",
"#D c #3b3b3b",
".F c #414141",
"#V c #3d3d3d",
".D c #444444",
".M c #454545",
".G c #424242",
"#M c #464646",
".V c #3e3e3e",
"#T c #434343",
".u c #494949",
"#2 c #444444",
"#G c #4b4b4b",
"#L c #494949",
"#Q c #4d4d4d",
".7 c #4f4f4f",
".r c #4f4f4f",
"#i c #414141",
"#Z c #535353",
".j c #535353",
"#l c #5a5a5a",
"#C c #4e4e4e",
".H c #4a4a4a",
"#K c #4e4e4e",
".Z c #4b4b4b",
".X c #4c4c4c",
".y c #4d4d4d",
"#p c #4e4e4e",
"## c #4f4f4f",
".k c #505050",
".W c #515151",
".q c #525252",
".w c #535353",
".5 c #545454",
".4 c #555555",
".K c #565656",
".T c #575757",
"#x c #585858",
"#t c #595959",
".p c #5a5a5a",
".0 c #5b5b5b",
".O c #5c5c5c",
".Y c #5d5d5d",
".L c #5e5e5e",
"#e c #5f5f5f",
"#v c #606060",
".I c #616161",
".J c #626262",
"#m c #636363",
".v c #646464",
".Q c #656565",
".C c #666666",
"#B c #676767",
"#j c #686868",
"#s c #696969",
"#0 c #6a6a6a",
"#r c #6b6b6b",
"#z c #6d6d6d",
"#w c #6e6e6e",
"#. c #707070",
".l c #727272",
".9 c #747474",
"#A c #767676",
"#P c #777777",
".1 c #7c7c7c",
"#J c #7d7d7d",
".n c #7e7e7e",
"#I c #7f7f7f",
".m c #808080",
".P c #828282",
".B c #868686",
"#b c #878787",
".8 c #898989",
"#c c #8d8d8d",
"#1 c #8f8f8f",
".2 c #919191",
".3 c #959595",
".x c #989898",
".o c #999999",
".R c #9b9b9b",
"#n c #a1a1a1",
".z c #a2a2a2",
".S c #a4a4a4",
"#d c #a6a6a6",
"#o c #a8a8a8",
".A c #b3b3b3",
"#N c #d1d1d1",
"#O c #ffffff",
"QtQtQtQtQtQtQtQtQtQtQtQtQtQtQtQtQtQtQtQtQtQtQtQt",
"QtQtQtQtQtQtQtQtQtQt.#.a.b.c.d.e.e.e.e.f.g.b.hQt",
"QtQtQtQtQtQtQtQtQtQt.i.j.k.l.m.n.o.o.o.o.p.q.r.s",
"QtQtQtQtQtQtQtQtQt.t.u.v.w.x.y.y.z.A.A.A.B.p.C.D",
"QtQtQtQtQtQtQt.E.F.G.H.I.I.J.I.I.J.w.k.K.L.p.C.M",
"QtQtQtQtQtQtQt.N.C.O.P.Q.k.R.A.A.A.S.T.C.k.T.C.M",
"QtQtQtQtQt.U.b.V.W.X.Y.Z.X.0.1.2.3.S.4.C.5.5.C.M",
"QtQtQtQt.6.7.q.O.8.9.o.o.o.o#.##.K.5.4.C.W.p.C.M",
"QtQtQtQt#a.C.p#b.T.w#c.A.A.A#d.K.C.4.W.C.k#e.C.M",
"Qt#f#g#h#i##.k.4.k.W.5.5.I#j.B.K.C.5.q.C.W.p.C.M",
"Qt#k#l.Q.Y.3#m#n.A.A.A#o.4.Q.W.W.C#p.Y.C.Y.T.C.M",
"Qt#q.C#m#r.L.v#s.A.A.A.A.K.C#t.Z.C#p.Y.C.Y.K.C.M",
"Qt#u.C#m#r.L.Q.C.A.A.A.A.K.C#t#p.C#t.O.C.Y.K.C.M",
"Qt#u.C#m#r.L.Q.C.A.A.A.A.K.C#t.K.C.Y.Q.C.Y.K.C.M",
"Qt#u.C.v#s#v.0#w.A.A.A.A.K.C#t.w.C.Y.Q.C#x#x.Q#y",
"Qt#u.C.C.q#z#p#A.1.1.1#B#t.C#t#x.C.Y.Q.C#C#D#E#F",
"Qt#u.C.C.C.Y.O.O.O.O.O.I.C.C#t#t.C.Y.J.C#G#HQtQt",
"Qt#u.C.I.C#I#I#I#I#I#I#J.J.C#t#t.C#K#L#M#hQtQtQt",
"Qt#u.C.p#N#O#O#O#O#O#O#O#P.C#t#t.C#Q#R#SQtQtQtQt",
"Qt#u.C.p#N#O#O#O#O#O#O#O#P.C#t.w.C#T#UQtQtQtQtQt",
"Qt#u.C.p#N#O#O#O#O#O#O#O#P.C#t#V#W#XQtQtQtQtQtQt",
"Qt#u.C.0#N#O#O#O#O#O#O#O#P.C#t#YQtQtQtQtQtQtQtQt",
"Qt#g#Z#t#0#1#1#1#1#1#1#c#e.L#2#3QtQtQtQtQtQtQtQt",
"QtQt#4#5#6#7#7#7#7#7#7#8#5#9a.QtQtQtQtQtQtQtQtQt"};
