/* XPM */
static char *dummy[]={
"24 24 100 2",
"Qt c None",
"#s c #000000",
".r c #000000",
"#f c #000000",
".D c #000000",
"#w c #000000",
".F c #000000",
".Q c #000000",
"#t c #000000",
".H c #000000",
"#o c #000000",
".t c #000000",
"#H c #000000",
".S c #000000",
".C c #000000",
".k c #000000",
".Z c #000000",
".# c #000000",
".N c #000000",
"#d c #000000",
"#E c #000000",
".f c #000000",
".v c #000000",
".A c #000000",
".T c #000000",
"## c #000000",
"#A c #000000",
"#b c #000000",
".j c #000000",
".g c #000000",
"#n c #000000",
".w c #000000",
".z c #000000",
".O c #000000",
"#B c #000000",
"#x c #000000",
".o c #000000",
"#v c #000000",
".I c #000000",
"#. c #000000",
".8 c #000000",
".m c #000000",
".n c #000000",
".L c #000000",
".p c #000000",
".6 c #000000",
".J c #000000",
"#e c #000000",
".2 c #000000",
"#j c #000000",
"#i c #000000",
"#q c #000000",
"#m c #000000",
".9 c #000000",
"#G c #000000",
".M c #000000",
".d c #000000",
"#z c #000000",
".s c #000000",
"#g c #000000",
".y c #000000",
".E c #000000",
".X c #000000",
".1 c #000000",
".l c #000000",
".c c #000000",
".V c #000000",
".e c #000000",
".R c #000000",
"#p c #000000",
".7 c #000000",
".b c #000000",
".3 c #000000",
".i c #000000",
".h c #000000",
".x c #000000",
".Y c #000000",
".u c #000000",
"#y c #000000",
".a c #000000",
"#D c #000000",
"#C c #000000",
"#h c #000000",
"#r c #000000",
".0 c #000000",
"#l c #000000",
".q c #000000",
".U c #000000",
".5 c #000000",
"#u c #000000",
".W c #000000",
".K c #000000",
"#k c #000000",
".4 c #000000",
"#F c #000000",
".G c #000000",
".P c #000000",
"#a c #000000",
".B c #000000",
"#c c #000000",
"QtQtQtQtQtQtQtQtQtQtQtQtQtQtQtQtQtQtQtQtQtQtQtQt",
"QtQtQtQtQtQtQtQtQtQtQtQtQtQtQtQtQtQtQtQtQtQtQtQt",
"QtQtQtQtQtQtQtQtQtQtQtQtQtQtQtQtQtQtQtQtQtQtQtQt",
"QtQtQtQtQtQtQtQtQtQtQtQtQtQtQtQtQtQtQtQtQtQtQtQt",
"QtQtQtQtQtQtQtQtQtQtQtQtQtQtQtQtQtQtQtQtQtQtQtQt",
"QtQtQtQtQtQtQtQtQtQtQtQtQtQtQtQtQtQtQtQtQtQtQtQt",
"QtQtQtQtQtQtQtQtQtQtQtQtQtQtQtQtQtQtQtQtQtQtQtQt",
"Qt.#.a.b.c.a.d.e.a.fQtQtQtQtQt.g.h.i.jQt.k.l.h.m",
"Qt.n.oQt.p.qQtQt.e.rQtQtQtQtQtQt.s.qQtQt.t.u.vQt",
"Qt.wQtQt.x.yQtQt.zQtQtQtQtQtQtQt.A.B.C.D.E.kQtQt",
"QtQtQt.F.G.wQtQtQt.H.I.J.gQtQtQtQt.K.L.M.NQtQtQt",
"QtQtQt.O.P.QQtQt.g.R.S.T.UQtQtQtQt.V.W.NQtQtQtQt",
"QtQtQt.X.YQtQt.Z.0.SQt.1.2QtQtQt.D.3.4.rQtQtQtQt",
"QtQtQt.5.6QtQt.l.7.8.9#.QtQtQt.r.d###a#bQtQtQtQt",
"QtQt.v#c#dQtQt.5#e.QQtQtQtQt#f#g.fQt#h#iQtQtQtQt",
"QtQt#j#kQtQtQt#l#mQtQt#n.##o#p.vQtQt#q#r#sQtQtQt",
"#t#..U#u#v#wQt#x.G#y#z#A#B#C#D.#Qt#E.b#F#G.CQtQt",
"QtQtQtQtQtQtQtQt.D#HQtQtQtQtQtQtQtQtQtQtQtQtQtQt",
"QtQtQtQtQtQtQtQtQtQtQtQtQtQtQtQtQtQtQtQtQtQtQtQt",
"QtQtQtQtQtQtQtQtQtQtQtQtQtQtQtQtQtQtQtQtQtQtQtQt",
"QtQtQtQtQtQtQtQtQtQtQtQtQtQtQtQtQtQtQtQtQtQtQtQt",
"QtQtQtQtQtQtQtQtQtQtQtQtQtQtQtQtQtQtQtQtQtQtQtQt",
"QtQtQtQtQtQtQtQtQtQtQtQtQtQtQtQtQtQtQtQtQtQtQtQt",
"QtQtQtQtQtQtQtQtQtQtQtQtQtQtQtQtQtQtQtQtQtQtQtQt"};
