/* XPM */
static char *textmode_xpm[] = {
"24 24 130 2",
"Qt c None",
"#Y c #000000",
".i c #404040",
"#8 c #393939",
".d c #2b2b2b",
".h c #373737",
"a# c #353535",
"#U c #313131",
".p c #373737",
"#9 c #313131",
"a. c #323232",
".# c #313131",
"#4 c #333333",
"#5 c #323232",
".c c #333333",
".o c #343434",
".a c #333333",
".b c #333333",
"#X c #343434",
".w c #333333",
".e c #333333",
"#7 c #323232",
".g c #353535",
"#Z c #343434",
"#6 c #343434",
".j c #343434",
"#0 c #535353",
".f c #333333",
".k c #6d6d6d",
"#p c #7474b2",
"#M c #7878b6",
"#o c #7b7bb9",
"#3 c #7e7e7e",
"#e c #8181bf",
"#y c #8383c1",
"#d c #8686c4",
"#L c #8787c5",
"#n c #8d8dcb",
".E c #8e8ebb",
".2 c #8e8ecc",
"#c c #8f8fcd",
"#I c #96969f",
".F c #9696c6",
".D c #9797c7",
"#x c #9898d6",
"#K c #9999d7",
"#. c #9a9a9d",
".C c #9a9acc",
".1 c #9a9ad8",
"#V c #9b9b9b",
".H c #9b9b9c",
".x c #9b9b9d",
".q c #9c9c9c",
"#m c #9e9edc",
".0 c #a0a0de",
".B c #a3a3d7",
".Z c #a7a7e5",
".U c #aaaae4",
"#z c #aaaae8",
"#1 c #ababab",
".T c #ababe5",
"#w c #ababe9",
".n c #acacac",
"#2 c #adadad",
"#l c #adadeb",
".S c #afafe9",
"#b c #afafed",
".A c #b2b2eb",
".Y c #b3b3f1",
".7 c #b3b3f2",
".z c #b4b4ee",
"#v c #b4b4f2",
".Q c #b5b5f2",
".L c #b6b6f1",
".R c #b6b6f2",
".X c #b7b7f5",
"#a c #b9b9f7",
".6 c #babaf9",
".K c #bbbbf7",
"#u c #bbbbf8",
"#J c #bbbbf9",
"#f c #bdbdf7",
"#k c #bdbdfb",
".P c #bfbffc",
".5 c #c0c0ff",
".J c #c1c1ff",
".y c #c2c2fa",
".O c #c2c2ff",
"## c #c3c3ff",
"#N c #c4b3e5",
"#h c #c4c4ff",
"#j c #c5c5ff",
".W c #c6c6ff",
".3 c #c9c9fd",
".I c #cbcbff",
"#s c #ccccff",
".8 c #cdcdfd",
"#E c #cdcdff",
".N c #cfcfff",
".G c #d1d1ff",
".4 c #d3d3ff",
".V c #d5d5fe",
"#r c #d5d5ff",
"#q c #d6d6f1",
"#D c #d6d6ff",
"#g c #d7d7ff",
".M c #d8d8ff",
"#Q c #dedeff",
".l c #e1e1e1",
".m c #e4e4e4",
"#P c #e6e6ff",
"#W c #e8e8e8",
".v c #e9e9e9",
"#F c #edccde",
"#R c #f198a6",
".s c #f3f3ff",
"#t c #f4f4ff",
"#i c #f5f5ff",
"#A c #f8c0c7",
".r c #fafaff",
".9 c #fcfcff",
".t c #fdfdff",
"#S c #ff7474",
"#G c #ff8c8c",
"#O c #ff9595",
"#B c #ffbebe",
"#C c #ffe8e8",
"#T c #ffebeb",
"#H c #fff9f9",
".u c #ffffff",
"QtQtQt.#.a.b.b.b.b.b.b.b.b.b.b.b.b.b.b.c.dQtQtQt",
"QtQt.e.f.f.f.f.f.f.f.f.f.f.f.f.f.f.f.f.f.g.hQtQt",
"Qt.i.j.k.l.m.m.m.m.m.m.m.m.m.m.m.m.m.m.n.f.oQtQt",
"Qt.p.f.q.r.s.s.s.s.s.s.s.t.u.u.u.u.u.u.v.f.wQtQt",
"Qt.p.f.x.y.z.A.B.C.D.E.F.G.u.u.u.u.u.u.v.f.wQtQt",
"Qt.p.f.H.I.J.J.J.J.J.K.L.M.u.u.u.u.u.u.v.f.wQtQt",
"Qt.p.f.H.N.O.O.O.P.Q.Q.R.S.T.T.U.V.u.u.v.f.wQtQt",
"Qt.p.f.x.W.X.Y.Z.Z.Z.0.1.1.1.2.2.3.u.u.v.f.wQtQt",
"Qt.p.f.q.4.5.5.5.5.5.5.5.5.6.7.8.9.u.u.v.f.wQtQt",
"Qt.p.f#.###a#b.Z.Z.1#c.2#d#e#e#f.u.u.u.v.f.wQtQt",
"Qt.p.f.q#g#h#h#h#h#h#h#h#h#h#h.N#i.u.u.v.f.wQtQt",
"Qt.p.f.H#j#k#l.Z.Z#m.2.2#n#o#p#p#q.u.u.v.f.wQtQt",
"Qt.p.f.q#r###################s#t.u.u.u.v.f.wQtQt",
"Qt.p.f#.#u#v#v#w.1.1#x#y#e#e#z#A#B#C.u.v.f.wQtQt",
"Qt.p.f.q#D#j#j#j#j#j#j#j#j#j#E#F#G#H.u.v.f.wQtQt",
"Qt.p.f#I.J#J#l.Z.Z#K.2.2#L#M#p#N#O.u.u.v.f.wQtQt",
"Qt.p.f.q#P#Q#Q#Q#Q#Q#Q#Q#Q#Q#Q#R#S#T.u.v.f.wQtQt",
"Qt.p.f.q.u.u.u.u.u.u.u.u.u.u.u.u.u.u.u.v.f.wQtQt",
"Qt.p.f.q.u.u.u.u.u.u.u.u.u.u.u.u.u.u.u.v.f.wQtQt",
"Qt.p.f.q.u.u.u.u.u.u.u.u.u.u.u.u.u.u.u.v.f.wQtQt",
"Qt#U.f#V.u.u.u.u.u.u.u.u.u.u.u.u.u.u.u#W.f#XQtQt",
"Qt#Y#Z#0#1#2#2#2#2#2#2#2#2#2#2#2#2#2#2#3.f#4QtQt",
"QtQt#5#6.f.f.f.f.f.f.f.f.f.f.f.f.f.f.f.f#7#YQtQt",
"QtQtQt#8#9a.a.a.a.a.a.a.a.a.a.a.a.a.a.a#QtQtQtQt"};
