/* XPM */
static char *uncomment_xpm[] = {
"24 24 212 2",
"Qt c None",
".f c #000000",
"aI c #555555",
"az c #333333",
"ar c #404040",
".H c #000000",
".V c #000000",
"br c #000000",
"ah c #000000",
".9 c #000000",
".G c #000000",
"#j c #000000",
"aH c #393939",
"bn c #000000",
".t c #0c0c0c",
"#E c #000000",
"#Y c #000000",
".s c #313131",
"#P c #000000",
"#8 c #000000",
"bl c #000000",
"a9 c #070707",
"#9 c #000000",
"ag c #000000",
"aW c #343434",
".# c #000000",
"a8 c #353535",
"#k c #000000",
"ay c #423939",
"#u c #000000",
"#v c #000000",
".g c #323232",
"#D c #000000",
"bm c #070707",
"a7 c #373737",
"bg c #1e1e1e",
"bk c #121212",
"a6 c #4d4037",
".a c #121212",
".r c #1e1e1e",
"bh c #1c1c1c",
".W c #121212",
"aq c #161616",
"ai c #1b1b1b",
"a5 c #534338",
".8 c #131313",
"a3 c #534338",
".h c #2d2826",
"bq c #2a2a2a",
"bb c #1a1a1a",
"bo c #2d2d2d",
"a4 c #554438",
"#Q c #121212",
"aQ c #2d2926",
".b c #1e1e1e",
"#X c #121212",
"ba c #2d2d2d",
"bp c #444444",
"aP c #1d1d1d",
"b. c #303030",
"aN c #1e1e1e",
".c c #1b1b1b",
"a2 c #20201f",
"aA c #534338",
".e c #1b1b1b",
".I c #101010",
".U c #101010",
"aJ c #4d3e35",
".d c #1a1a1a",
"b# c #525252",
"aO c #181818",
"as c #554338",
"a. c #131313",
"bf c #424242",
"aV c #493e36",
"bc c #5e5e5e",
"#7 c #111111",
"#Z c #101010",
"#l c #363636",
"#t c #3f3f3f",
"#w c #424242",
"#C c #494949",
".q c #202020",
"#. c #0e0e0e",
"#O c #151515",
"#F c #121212",
"aG c #604a3b",
".F c #342d29",
".X c #757575",
".7 c #7a7a7a",
"a# c #949494",
"af c #979797",
".T c #9e9e9e",
"be c #a2a2a2",
"#W c #a2a2a2",
".p c #474544",
"#R c #9e9e9e",
"bj c #a5a5a5",
"bd c #acacac",
".i c #352d29",
"bi c #bbbbbb",
"#0 c #c9c9c9",
"#6 c #cbcbcb",
".l c #dedede",
"## c #f2f2f2",
"#i c #f5f5f5",
".m c #f9f9f9",
"#x c #fdfdfd",
"#I c #fefefe",
".n c #ffffff",
"aE c #eaeaea",
"#5 c #f4f4f4",
".O c #f5f5f5",
"#a c #f6f6f6",
"#N c #f9f9f9",
".z c #fbfbfb",
".J c #888786",
".k c #999999",
"#m c #ececec",
"#G c #eeeeee",
"ap c #37312c",
"#M c #e2e2e2",
".6 c #eaeaea",
"ax c #7e583f",
"aa c #d7d6d6",
"#H c #dbdbdb",
"#V c #d9d7d6",
"aM c #504035",
".A c #d0cecd",
".o c #878381",
"#1 c #c2bfbd",
"au c #c7c3c1",
".j c #504640",
"#h c #bfbbb8",
".1 c #a9a3a0",
"aR c #a26a45",
"#y c #a29c99",
".Y c #a8a09c",
"#e c #8f8c89",
"av c #9c958f",
"#S c #9c9590",
"aX c #473b32",
"#s c #958d86",
"aD c #8e857e",
".N c #8e837c",
".u c #443a34",
".2 c #857a73",
"ae c #81766d",
"aj c #554336",
"#J c #7d7068",
"#b c #74675f",
"#B c #76685f",
".S c #786960",
"aY c #7d6b5e",
"aZ c #816d5e",
"aF c #69584b",
".P c #746357",
"#4 c #746358",
".y c #76675e",
"a0 c #826a5b",
"a1 c #67574c",
"#L c #776152",
"am c #776253",
".5 c #7a6453",
"#n c #7b6453",
"#d c #806351",
"ab c #806452",
"an c #856652",
"#U c #876652",
".K c #886752",
"at c #996d51",
"aB c #da874f",
".E c #78573f",
".B c #8c674e",
"#q c #94694c",
"#2 c #986e52",
"#g c #9a6e50",
".0 c #a3714f",
"#f c #a67351",
"ao c #af744c",
"aK c #d1824e",
"aU c #aa6e47",
"#z c #ae754f",
".Z c #ba7a51",
".D c #bb784c",
"#T c #c47e50",
"#r c #ca8250",
"aC c #cd814e",
"aw c #cd824f",
".M c #d18450",
".v c #c17a4b",
".C c #c97e4c",
"aT c #d1824d",
".w c #d9864e",
".3 c #dc8851",
".x c #dd8850",
"ad c #de8950",
"aS c #e28a50",
"#c c #e88e51",
"#K c #e98e52",
"#A c #eb8f52",
".R c #ed9052",
"ac c #ef9152",
"aL c #f29253",
"#p c #f49453",
"ak c #f69453",
"#3 c #f89654",
".Q c #f99654",
".4 c #fd9854",
"al c #fd9855",
"#o c #fe9855",
".L c #ff9955",
"QtQtQtQtQtQtQtQtQtQtQtQtQtQtQtQtQtQtQtQtQtQtQtQt",
"QtQtQtQtQtQtQtQtQtQtQtQtQtQtQtQtQtQtQtQtQtQtQtQt",
"QtQtQtQtQtQtQtQtQt.#.a.b.c.d.e.b.a.#QtQtQtQtQtQt",
"QtQtQtQtQt.f.g.h.i.j.k.l.m.n.m.l.o.p.q.r.sQtQtQt",
"QtQtQtQtQt.t.u.v.w.x.y.z.n.n.n.A.B.C.D.E.F.GQtQt",
"QtQtQtQt.H.I.J.K.L.L.M.N.n.n.O.P.Q.L.R.S.T.U.VQt",
"QtQtQtQt.W.X.n.Y.Z.L.L.0.1.n.2.3.L.4.5.6.n.7.8Qt",
"QtQtQt.9#.##.n#a#b#c.L.L#d#e#f.L.L#g#h.n.n#i#.#j",
"QtQtQt#k#l.n.n.n#m#n#o.L#p#q#o.L#r#s.n.n.n.n#t#u",
"QtQtQt#v#w.n.n.n#x#y#z.L.L.L.L#A#B#x.n.n.n.n#C#D",
"QtQtQt#E#F#x.n#G#H#I#J#K.L.L.L#L#M#a#N.n.n#x#O#P",
"QtQtQtQt#Q#R.n.n.n.n#S#T.L.L.L#U#V.n#I.n.n#W#XQt",
"QtQtQtQt#Y#Z#0.n.n#1#2.L.L.L.L#3#4#5.n.n#6#7#8Qt",
"QtQtQtQtQt#9a.a#aaab.4.Lac#p.L.Ladae#xafa.agQtQt",
"QtQtQtQtQtQtahaiajak.Lalaman.L.L.Laoapaq.GQtQtQt",
"QtQtQtQtQtQtaras#c.L.Latauavaw.L.L.LaxayQtQtQtQt",
"QtQtQtQtQtazaAaB.L.LaCaD.naEaFal.L.L.QaGaHQtQtQt",
"QtQtQtQtaIaJaK.L.LaLaMaNaOaPaQaR#paSaTaUaVQtQtQt",
"QtQtQtQtaWaXaYaZa0a1a2QtQtQtQta3a4a5a6a7a8QtQtQt",
"Qta9b.b#babbbcbdbebfbgQtQtQtQtQtQtQtQtQtQtQtQtQt",
"Qtbhbi.nbjbkblbm#DbnQtQtQtQtQtQtQtQtQtQtQtQtQtQt",
"Qt#jbobpbqbrQtQtQtQtQtQtQtQtQtQtQtQtQtQtQtQtQtQt",
"QtQtQtQtQtQtQtQtQtQtQtQtQtQtQtQtQtQtQtQtQtQtQtQt",
"QtQtQtQtQtQtQtQtQtQtQtQtQtQtQtQtQtQtQtQtQtQtQtQt"};
