/* XPM */
static char *undo_xpm[] = {
"24 24 161 2",
"Qt c None",
".t c #000000",
".V c #000000",
"#0 c #000000",
".e c #242424",
".U c #1a1a1a",
"#T c #151515",
"aC c #141414",
"## c #121212",
"#B c #222222",
"aE c #1e1e1e",
"#U c #1c1c1c",
"#s c #161616",
"aD c #151515",
"#o c #1f1f1f",
"#8 c #1c1c1c",
"#G c #1b1b1b",
"#a c #1a1a1a",
".L c #171717",
"#F c #1c1c1c",
"#i c #1b1b1b",
"#Z c #1a1a1a",
"aj c #191919",
"av c #1c1c1c",
".S c #1b1b1b",
".n c #23231e",
"ap c #303027",
"#A c #1b1b1b",
"ao c #23231f",
".A c #191919",
"ab c #252522",
"#2 c #1e1e1b",
".O c #1e1e1e",
"af c #272724",
"#Y c #191919",
"aw c #252822",
".K c #262620",
"#V c #22221f",
".5 c #272722",
"#9 c #2a2c23",
".o c #262822",
".# c #292b25",
".z c #2b2d25",
"#H c #2c2e24",
"#X c #2f3025",
"#z c #2f3026",
".d c #2f3028",
".D c #2e2e26",
".f c #2e3026",
".2 c #2e3026",
"ak c #2d2f25",
"aa c #303128",
"#W c #323529",
"#t c #2f3227",
"#C c #323429",
"aq c #323529",
".u c #2f3027",
".R c #2e2f26",
"#p c #323327",
".1 c #2d2f25",
".g c #313429",
"#n c #262621",
".m c #313227",
"#e c #313328",
"#d c #313328",
".s c #313327",
".h c #313429",
"#5 c #303227",
"#y c #323429",
".i c #37392b",
"#P c #21211e",
".l c #3c3e2e",
"#. c #313228",
"#j c #323429",
".j c #34372a",
".6 c #35382b",
".b c #3a3c2d",
"ae c #313428",
"au c #323529",
".k c #373a2b",
".C c #383b2c",
".a c #34362a",
"#1 c #3a3d2d",
"ar c #383a2c",
"#k c #3a3e2e",
"aB c #3e402f",
".W c #3e4130",
"az c #555b3f",
"#Q c #252620",
"#S c #434733",
"#I c #464b35",
"#r c #4f553b",
".c c #363a2b",
"ai c #3a3c2c",
"#7 c #404431",
"#u c #454934",
"#x c #484d36",
".N c #4f533a",
"an c #3b3e2e",
"#h c #3f4231",
"#b c #4d5239",
".M c #575d3f",
"#E c #5b6141",
"ag c #414431",
".T c #414531",
"aA c #4a4e37",
"ac c #464a34",
".P c #4c5239",
".y c #50563c",
".Y c #252520",
"ay c #424533",
"al c #595e40",
".J c #5a6142",
"#3 c #6d754d",
"ax c #282b23",
".G c #2e2f26",
"a. c #727a50",
".X c #778052",
".B c #798154",
".E c #818b58",
"#N c #343629",
".F c #8c975f",
".4 c #828b59",
"#J c #828c5a",
".8 c #929e63",
"#M c #7d8756",
".v c #909a62",
".Q c #939e64",
"as c #929e63",
"#l c #8f9a61",
"at c #98a567",
"a# c #9ba869",
"#O c #1b1c1b",
".0 c #a2af6c",
"#m c #919c63",
"#w c #9ca869",
"#4 c #a0ad6c",
"#v c #99a567",
".3 c #9fac6b",
".p c #95a165",
"#L c #a0ac6c",
".7 c #abb872",
"#K c #afbd75",
"#D c #b5c479",
".9 c #b7c67a",
".H c #bbca7c",
".Z c #bccb7c",
"am c #bccb7d",
".x c #bdcd7d",
"#6 c #bece7e",
"#q c #c2d281",
"#c c #c4d481",
"#R c #c5d582",
"ah c #c6d683",
".w c #c7d783",
"#f c #c8d884",
".r c #c8d984",
"ad c #cadb85",
"#g c #cbdb85",
".I c #ccdd86",
".q c #cdde87",
"QtQtQtQtQtQtQtQtQtQtQtQtQtQtQtQtQtQtQtQtQtQtQtQt",
"QtQtQtQtQtQtQtQtQtQtQtQtQtQtQtQtQtQtQtQtQtQtQtQt",
"Qt.#.a.b.c.dQtQt.e.f.g.h.i.j.k.l.m.nQtQtQtQtQtQt",
"Qt.o.p.q.r.sQt.t.u.v.w.q.q.q.q.q.x.y.zQtQtQtQtQt",
"Qt.A.B.q.q.CQt.D.E.q.q.q.F.G.H.q.q.I.J.KQtQtQtQt",
"Qt.L.M.q.q.N.O.P.q.q.q.Q.R.S.T.q.q.q.w.a.UQtQtQt",
"Qt.V.W.q.q.X.Y.Z.q.q.0.1.eQt.2.3.q.q.q.4.5QtQtQt",
"QtQt.6.q.q.7.8.q.q.9#.##QtQt#a#b.q.q.q#c#dQtQtQt",
"QtQt#e#f.q.q.q.q#g#h#iQtQtQtQt#j.q.q.q.q#k.VQtQt",
"QtQt.d#l.q.q.q.q#m#n#oQtQtQtQt#p#q.q.q.q#r#sQtQt",
"QtQt.e#t#u#v.r.q.I#w#x#y#z#A#B#C#D.q.q.q#E#FQtQt",
"QtQtQtQt#G#H.h#I#J#K#L#M#N#O#P#Q#R.q.q.q#S#TQtQt",
"QtQtQtQtQtQtQt#U#V#W#X#Y#Z#0.V#1.q.q.q#g#yQtQtQt",
"QtQtQtQtQtQtQtQtQtQtQtQtQtQt#2#3.q.q.q#4.fQtQtQt",
"QtQtQtQtQtQtQtQtQtQtQtQtQtQt#5#6.q.q.q#7#8QtQtQt",
"QtQtQtQtQtQtQtQtQtQtQtQtQt#9a..q.q.qa#aaQtQtQtQt",
"QtQtQtQtQtQtQtQtQtQtQtQtabacad.q.q.Hae##QtQtQtQt",
"QtQtQtQtQtQtQtQtQtQtQtafagah.q.q#caiajQtQtQtQtQt",
"QtQtQtQtQtQtQtQtQt#Takalah.q.qamanaoQtQtQtQtQtQt",
"QtQtQtQtQtQtQtapaqaras.q.q.qatauavQtQtQtQtQtQtQt",
"QtQtQtQtQtQtawaxayazazazaAaB.2##QtQtQtQtQtQtQtQt",
"QtQtQtQtQtQtQtaC.LaDaEaEaE.eQtQtQtQtQtQtQtQtQtQt",
"QtQtQtQtQtQtQtQtQtQtQtQtQtQtQtQtQtQtQtQtQtQtQtQt",
"QtQtQtQtQtQtQtQtQtQtQtQtQtQtQtQtQtQtQtQtQtQtQtQt"};
