/* XPM */
static char *unindent_xpm[] = {
"24 24 123 2",
"Qt c None",
"#N c #000000",
"#j c #ff0000",
".R c #000000",
".z c #555555",
".N c #aa5555",
".M c #404040",
".Y c #ff4040",
"#H c #2b2b2b",
".G c #404040",
".q c #2e2e2e",
".y c #333333",
"#V c #2d2d2d",
"#B c #333333",
"#d c #cc3333",
".u c #2e2e2e",
"#X c #313131",
"#R c #333333",
".8 c #c53a3a",
"#Q c #363636",
".l c #353535",
"## c #c63939",
"#s c #c83737",
".d c #363636",
"#v c #c63939",
"#U c #323232",
".v c #313131",
"#g c #c83737",
"#4 c #343434",
".# c #333333",
".2 c #c63939",
".r c #343434",
".Q c #c73838",
".X c #3c3c3c",
"#n c #3c3434",
".P c #c83737",
".c c #333333",
".a c #323232",
"#3 c #343434",
".b c #333333",
"#w c #424242",
".O c #c93939",
".3 c #343434",
".L c #3e3e3e",
"#C c #3d3d3d",
"#G c #3e3e3e",
"#u c #c63636",
".H c #3f3f3f",
"#k c #c93636",
"#t c #c73838",
"#h c #3c3c3c",
"#a c #3f3f3f",
".Z c #c83737",
".k c #464646",
"#D c #494949",
"#F c #4a4a4a",
"#E c #484848",
".K c #4e4e4e",
".I c #515151",
".S c #4b4b4b",
"#Y c #484848",
"#A c #4d4d4d",
".J c #515151",
"#e c #c83737",
"#2 c #474747",
".9 c #c73737",
".e c #474747",
".F c #454545",
"#. c #c83737",
"#x c #525252",
"#I c #444444",
"#f c #c93737",
"#r c #464646",
"#z c #565656",
"#y c #565656",
"#M c #444444",
".W c #515151",
".1 c #c83737",
".A c #444444",
".U c #6d6d6d",
".V c #686868",
".T c #5d5d5d",
"#m c #c83737",
"#l c #c93636",
".7 c #454545",
".0 c #c83737",
".5 c #ffffff",
"#p c #f8f8f8",
".6 c #efefef",
"#o c #696969",
"#c c #484848",
".4 c #8a8a8a",
"#q c #cfcfcf",
".j c #6a6a6a",
"#T c #5d5d5d",
".w c #5e5e5e",
".s c #656565",
"#Z c #707070",
"#1 c #747474",
".f c #767676",
"#S c #545454",
".m c #565656",
"#P c #585858",
".t c #4f4f4f",
"#O c #505050",
"#W c #515151",
"#i c #b2b2b2",
"#b c #b3b3b3",
".x c #494949",
".p c #454545",
".E c #999999",
"#J c #9c9c9c",
"#L c #a2a2a2",
".B c #a7a7a7",
".i c #ababab",
".g c #acacac",
"#0 c #acacac",
".h c #adadad",
"#K c #d4d4d4",
".D c #d5d5d5",
".C c #d6d6d6",
".o c #fefefe",
".n c #ffffff",
"QtQtQtQtQtQtQtQtQtQtQtQtQtQtQtQtQtQtQtQtQtQtQtQt",
"QtQtQt.#.a.b.b.b.b.b.b.b.b.b.b.b.b.b.b.b.c.dQtQt",
"QtQt.e.f.g.h.h.h.h.h.h.h.h.h.h.h.h.h.h.h.i.j.kQt",
"Qt.l.m.n.n.n.n.n.n.n.n.n.n.n.n.n.n.n.n.n.n.o.p.q",
"Qt.r.s.n.n.n.n.n.n.n.n.n.n.n.n.n.n.n.n.n.n.n.t.u",
"Qt.v.w.n.n.n.n.n.n.n.n.n.n.n.n.n.n.n.n.n.n.n.x.y",
"Qt.z.A.B.C.C.C.C.C.C.C.C.C.C.C.C.C.C.C.C.D.E.FQt",
"QtQt.G.H.I.J.J.J.J.J.J.J.J.J.J.J.J.J.J.J.K.L.MQt",
"QtQtQtQtQtQtQtQtQtQtQtQtQtQtQtQtQtQtQtQtQtQtQtQt",
"QtQtQtQtQt.N.O.P.Q.R.S.T.U.U.U.U.U.U.U.U.V.W.XQt",
"QtQtQtQt.Y.Z.0.1.2.3.4.5.5.5.5.5.5.5.5.5.5.6.7Qt",
"QtQtQt.8.9.0#.##Qt#a#b.5.5.5.5.5.5.5.5.5.5.5#cQt",
"QtQtQt#d#e.0#f#gQt#h#i.5.5.5.5.5.5.5.5.5.5.5#cQt",
"QtQtQtQt#j#k#l#m#k#n#o#p.5.5.5.5.5.5.5.5.5#q#rQt",
"QtQtQtQtQtQt#s#t#u#v#w#x#y#y#y#y#y#y#y#y#z#A#BQt",
"QtQtQtQtQtQtQtQtQtQtQtQtQtQtQtQtQtQtQtQtQtQtQtQt",
"QtQt.M#C#D#E#E#E#E#E#E#E#E#E#E#E#E#E#E#E#F#G#HQt",
"QtQt#I#J#K.C.C.C.C.C.C.C.C.C.C.C.C.C.C.C.D#L#M#N",
"Qt.u#O.n.n.n.n.n.n.n.n.n.n.n.n.n.n.n.n.n.n.n#P#Q",
"Qt#R#S.n.n.n.n.n.n.n.n.n.n.n.n.n.n.n.n.n.n.n#T#U",
"Qt#V.x.n.n.n.n.n.n.n.n.n.n.n.n.n.n.n.n.n.n.n#W#X",
"QtQt#Y#Z.g.h.h.h.h.h.h.h.h.h.h.h.h.h.h.h#0#1#2Qt",
"QtQtQt#U.a.b.b.b.b.b.b.b.b.b.b.b.b.b.b.b#3#4QtQt",
"QtQtQtQtQtQtQtQtQtQtQtQtQtQtQtQtQtQtQtQtQtQtQtQt"};
