/* XPM */
static char *wrapbywin_xpm[] = {
"24 24 71 2",
"Qt c None",
"#d c #242424",
".# c #333333",
"#a c #333333",
".e c #373737",
".d c #333333",
"#e c #323232",
".a c #343434",
".i c #343434",
".c c #343434",
".b c #333333",
".8 c #333333",
".j c #323232",
".q c #333333",
"## c #353535",
".p c #353535",
"#b c #353535",
".f c #353535",
".u c #343434",
"#c c #353535",
".h c #343434",
".r c #3b3b3b",
"#. c #494949",
".o c #4c4c4c",
".g c #333333",
".k c #343434",
".t c #7b7b7b",
".E c #7c7c7c",
".C c #999999",
".B c #9c9c9c",
".3 c #a3a3a3",
".4 c #a9a9a9",
".2 c #aaaaaa",
".A c #aeaeae",
".l c #b0b0b0",
".D c #b1b1b1",
".7 c #b2b2b2",
".1 c #b8b8b8",
".z c #bbbbbb",
".Q c #bdbdbd",
".0 c #bfbfbf",
".9 c #c0c0c0",
".W c #c1c1c1",
".n c #c3c3c3",
".m c #c9c9c9",
".6 c #cacaca",
".R c #cbcbcb",
".P c #cccccc",
".H c #cfcfcf",
".I c #d1d1d1",
".V c #d2d2d2",
".Z c #d4d4d4",
".y c #dadada",
".5 c #dcdcdc",
".x c #dddddd",
".J c #dfdfdf",
".K c #e0e0e0",
".L c #e2e2e2",
".M c #e4e4e4",
".O c #e5e5e5",
".w c #e6e6e6",
".U c #e8e8e8",
".Y c #ededed",
".G c #eeeeee",
".X c #efefef",
".S c #f0f0f0",
".v c #f5f5f5",
".N c #f6f6f6",
".T c #f9f9f9",
".F c #fdfdfd",
".s c #ffffff",
"QtQtQt.#.a.b.b.b.b.b.b.b.b.b.b.b.b.b.b.c.dQtQtQt",
"QtQt.e.f.g.g.g.g.g.g.g.g.g.g.g.g.g.g.g.g.h.iQtQt",
"QtQt.j.k.l.m.m.m.m.m.m.m.m.m.m.m.m.m.m.n.o.pQtQt",
"QtQt.q.r.s.s.s.s.s.s.s.s.s.s.s.s.s.s.s.s.t.uQtQt",
"QtQt.q.r.s.s.v.w.x.x.y.m.z.z.z.A.B.C.C.D.E.uQtQt",
"QtQt.q.r.s.s.s.s.s.s.s.s.s.s.s.s.s.s.s.F.E.uQtQt",
"QtQt.q.r.F.G.G.w.x.x.H.I.s.s.s.s.s.s.s.s.E.uQtQt",
"QtQt.q.r.s.s.s.v.G.G.J.K.s.s.s.s.s.s.s.s.E.uQtQt",
"QtQt.q.r.s.s.s.s.s.s.F.G.G.G.G.L.x.x.x.M.E.uQtQt",
"QtQt.q.r.s.s.N.O.x.x.x.y.P.P.P.P.Q.z.z.R.E.uQtQt",
"QtQt.q.r.s.s.s.s.s.s.s.S.s.s.s.s.s.s.s.s.E.uQtQt",
"QtQt.q.r.s.T.U.x.V.W.z.W.s.s.s.s.s.s.s.s.E.uQtQt",
"QtQt.q.r.s.s.s.s.s.s.s.s.s.s.s.s.s.s.s.s.E.uQtQt",
"QtQt.q.r.s.s.X.Y.x.x.Z.P.0.z.1.2.3.C.C.4.E.uQtQt",
"QtQt.q.r.s.s.s.s.s.s.s.s.s.s.s.s.s.s.s.s.E.uQtQt",
"QtQt.q.r.s.S.G.5.P.6.D.7.s.s.s.s.s.s.s.s.E.uQtQt",
"QtQt.q.r.s.s.s.s.s.s.s.s.s.s.s.s.s.s.s.s.E.uQtQt",
"QtQt.q.r.s.s.s.s.s.s.s.s.s.s.s.s.s.s.s.s.E.uQtQt",
"QtQt.q.r.s.s.s.s.s.s.s.s.s.s.s.s.s.s.s.s.E.uQtQt",
"QtQt.q.r.s.s.s.s.s.s.s.s.s.s.s.s.s.s.s.s.E.uQtQt",
"QtQt.q.r.s.s.s.s.s.s.s.s.s.s.s.s.s.s.s.s.t.uQtQt",
"QtQt.8.g.2.m.m.m.m.m.m.m.m.m.m.m.m.m.m.9#.##QtQt",
"QtQt#a#b.g.g.g.g.g.g.g.g.g.g.g.g.g.g.g.g#c.aQtQt",
"QtQtQt#d#e.b.b.b.b.b.b.b.b.b.b.b.b.b.b.i#aQtQtQt"};
