/* XPM */
static char *dummy[]={
"48 48 483 2",
"Qt c None",
"fx c None",
".# c #4c4c4c",
"fo c #494949",
".m c #4b4b4b",
"fy c #4a4a4a",
".v c #4b4b4b",
".L c #494949",
"fd c #494949",
"fG c #4a4a4a",
"fp c #4a4a4a",
".w c #4c4c4c",
".a c #4b4b4b",
"fe c #4c4c4c",
".U c #4a4a4a",
".l c #4b4b4b",
"fw c #4a4a4a",
"fk c #4b4b4b",
".n c #4c4c4c",
".B c #4b4b4b",
"fj c #4b4b4b",
".u c #4b4b4b",
"fn c #4b4b4b",
"e7 c #4b4b4b",
"fz c #4b4b4b",
".C c #4c4c4c",
".b c #4c4c4c",
"fq c #4c4c4c",
"fa c #4c4c4c",
".0 c #4a4a4a",
"fF c #4b4b4b",
"e6 c #4a4a4a",
".k c #4c4c4c",
".K c #4c4c4c",
"fc c #4c4c4c",
".x c #4c4c4c",
".o c #4c4c4c",
"fl c #4c4c4c",
"ff c #4c4c4c",
"fA c #4c4c4c",
".M c #4c4c4c",
".c c #4d4d4d",
"e8 c #4c4c4c",
"fE c #4c4c4c",
"fv c #4d4d4d",
".t c #4c4c4c",
".j c #4d4d4d",
"fm c #4d4d4d",
"fi c #4d4d4d",
".T c #4c4c4c",
"f# c #4c4c4c",
".6 c #4e4e4e",
"e3 c #4e4e4e",
".5 c #4c4c4c",
"e2 c #4d4d4d",
".V c #4b4b4b",
"fr c #4d4d4d",
".d c #4d4d4d",
"e4 c #4b4b4b",
"fD c #4d4d4d",
"fu c #4d4d4d",
".i c #4d4d4d",
".Z c #4b4b4b",
"e5 c #4b4b4b",
"fB c #4d4d4d",
".e c #4c4c4c",
"fs c #4d4d4d",
"e1 c #4c4c4c",
"fC c #4d4d4d",
"ft c #4d4d4d",
".4 c #4b4b4b",
".h c #4c4c4c",
".D c #4d4d4d",
"ci c #000000",
"#n c #0000ff",
"#o c #0101ff",
"#F c #0201fc",
"cc c #020202",
"cP c #030303",
"#w c #0605f8",
"dM c #070707",
"#m c #0707ff",
"d# c #080808",
"cO c #090909",
"dH c #0a0a0a",
"dj c #0b0b0b",
"c8 c #0d0d0d",
"c4 c #0e0e0e",
"ee c #0f0f0f",
"eb c #101010",
"do c #121212",
"dS c #131313",
"cT c #141414",
"dD c #151515",
"#x c #1612e7",
"d9 c #161616",
"d3 c #171717",
"dY c #1a1a1a",
"b0 c #1b1b1b",
"#T c #1c16df",
"bZ c #1c1c1d",
"du c #1d1d1d",
"cd c #222329",
"dA c #242424",
"c3 c #252525",
"av c #2606dd",
"di c #262626",
"bp c #287800",
"be c #297800",
"bb c #297900",
"bd c #2a7a00",
"cN c #2c2c2c",
"bc c #2c7b00",
"b5 c #2c7b01",
"cm c #2c7b02",
"br c #2c7c00",
"bo c #2c7c06",
"bs c #2d7b07",
"cF c #2d7c02",
"d8 c #2e2e2e",
"eH c #2e7c00",
"ev c #2e7c01",
"eK c #2e7c06",
"bH c #2e7d00",
"aw c #2f23c5",
"eG c #2f7c02",
"eJ c #2f7e00",
"eD c #307e0d",
"c9 c #313131",
"bG c #317e05",
"eI c #317f00",
"d2 c #323232",
"eu c #327e05",
"bq c #327f00",
"b4 c #327f09",
"eC c #327f0d",
"dd c #333333",
"#t c #3333ff",
"cl c #337f0a",
"cE c #33800a",
"dG c #373737",
"dW c #383838",
"aj c #392cc4",
"#h c #3939ff",
"#8 c #3a2ec1",
"dB c #3a3a3a",
"#f c #3b3bff",
"#g c #3c3cff",
"eO c #3d851a",
"dE c #3e3e3e",
"eh c #3f3f3f",
"eR c #40871b",
"eP c #40881a",
"eQ c #40881b",
"dI c #424242",
"ch c #424243",
"#e c #4242ff",
"aU c #42881d",
".3 c #434343",
".9 c #444444",
"aX c #448a1f",
"#. c #454545",
"aV c #458b1e",
"aW c #458b1f",
".S c #464646",
"#G c #4738b5",
"#y c #4743e2",
".Y c #474747",
".N c #484848",
".z c #494949",
".q c #4a4a4a",
"eN c #4a8d2a",
"eS c #4a8d2b",
".r c #4b4b4b",
".f c #4c4c4c",
"eq c #4d4c4e",
".g c #4d4d4d",
".p c #4e4e4e",
"aT c #4e902e",
".s c #4f4f4f",
".y c #505050",
"aY c #509030",
".A c #515151",
".7 c #525252",
"fg c #535353",
"fh c #545454",
"dz c #555555",
".X c #575757",
"dV c #585858",
"dL c #595959",
"dw c #5b5b5b",
"ed c #5c5c5c",
"d5 c #5d5d5d",
"ew c #609b39",
"cX c #616161",
"de c #636363",
"#i c #6363ff",
"bI c #639d3d",
".2 c #646464",
".8 c #656565",
"#p c #6565ff",
"cB c #666666",
"dN c #686868",
"dp c #696969",
"cC c #6a6a6a",
".E c #6b6b6b",
"cU c #6d6d6d",
"c0 c #6e6e6e",
"c1 c #6f6f6f",
"ep c #707070",
"dx c #727272",
"d. c #757575",
"et c #76aa55",
"dX c #777777",
"da c #787878",
"ez c #7b7b7b",
".J c #7c7c7c",
"bF c #7cad5d",
"aO c #7d80ff",
"aM c #7e2cac",
"aN c #7f78f7",
"d6 c #818181",
"fb c #828282",
"dg c #838383",
"cy c #848484",
"e# c #84b166",
"cn c #85b267",
"bC c #868686",
"b6 c #86b268",
"aL c #871289",
"en c #878787",
"ek c #87b369",
".R c #898989",
"el c #8a8a8a",
"ea c #8c8c8c",
"f. c #8d8d8d",
"ba c #8db870",
"cS c #8e8e8e",
"dm c #909090",
"#7 c #914db9",
"d0 c #919191",
"eF c #91bb76",
"bf c #92bb77",
"#S c #9391fa",
"#v c #9393ff",
"#s c #9494ff",
"#E c #9495ff",
"eL c #96bd7c",
"ai c #991074",
"ei c #999999",
"#d c #9999ff",
"aP c #9b90c5",
"dl c #9b9b9b",
"dO c #9c9c9c",
"dn c #a0a0a0",
"ec c #a1a1a1",
"bB c #a1a2a3",
"dZ c #a2a2a2",
"c2 c #a4a4a4",
"eB c #a4c58d",
"bn c #a4c78d",
".F c #a5a5a5",
"dk c #a6a6a6",
"c7 c #ababab",
"eE c #abca97",
"bt c #abcb96",
"df c #acacac",
".I c #adadad",
"#H c #b08f4c",
"e. c #b1ce9e",
"eo c #b2b2b2",
"ck c #b2cf9f",
"b3 c #b3d0a1",
"ex c #b3d0a2",
"dt c #b5b5b5",
"cY c #b5b6b6",
"ej c #b5d1a3",
"eM c #b7d1a4",
".G c #b8b8b8",
".H c #b9b9b9",
"aS c #b9d3a8",
"es c #b9d5a9",
"bJ c #bad4ac",
"dP c #bcbcbc",
"#l c #bcbcff",
"bY c #bcbdc1",
"eA c #bdb9c0",
"dT c #bdbdbd",
"bE c #bed6af",
"d4 c #bfbfbf",
"eT c #bfd6ae",
"aZ c #c0d7b1",
"dQ c #c1c1c1",
"dC c #c2c2c2",
"aK c #c41f58",
"dq c #c5c5c5",
"aB c #c5dab6",
"aD c #c5dbb7",
"aC c #c6dbb7",
"eW c #c6dcb8",
"eX c #c7dbb9",
"eY c #c7dcb9",
"#U c #c8a134",
"bQ c #c8c6bd",
"b1 c #c9c8c9",
"cM c #cacaca",
".W c #cccccc",
"dv c #cdcdcd",
"ce c #cdcfd8",
"au c #cf214d",
"dh c #d0d0d0",
"aA c #d0e1c5",
"ds c #d1d1d1",
"aE c #d1e2c5",
"eV c #d2e3c9",
"er c #d4dad1",
"eZ c #d4e3c8",
"ax c #d5af27",
"ef c #d5d5d5",
"c5 c #d6d6d6",
"ak c #d7b126",
".1 c #d7d7d7",
"#I c #d8b12e",
"#9 c #d8b324",
"d1 c #d8d8d8",
"cg c #d8d8d9",
".O c #d9d9d9",
"bD c #dbe0d7",
"e9 c #dddddd",
"#j c #ddddff",
"eg c #dedede",
"dF c #dfdfdf",
"dR c #e1e1e1",
"bR c #e2d49c",
"dr c #e3e3e3",
"cj c #e5e5e5",
"cK c #e5ecec",
"dJ c #e6e6e6",
"cZ c #e6e7e7",
"cx c #e7e7e7",
"cA c #e9e9e9",
"cH c #e9f1f1",
"dU c #eaeaea",
"aQ c #ebc027",
"bP c #ebecef",
".Q c #ececec",
"dc c #ededed",
"cW c #eeeeee",
"#u c #eeeeff",
"#z c #efeae2",
"em c #efefef",
"cQ c #f1f1f1",
"cJ c #f1f8f8",
"dK c #f2f2f2",
"ey c #f2f6f0",
"cD c #f3f3f3",
"bK c #f3f7f1",
"cR c #f4f4f4",
"#q c #f5f5ff",
"cV c #f6f6f6",
"dy c #f7f7f7",
"#c c #f7f7ff",
"d7 c #f8f8f8",
"cI c #f8fcfc",
"a5 c #f95b5b",
"a6 c #f9eef0",
"cz c #f9f9f9",
"a7 c #f9faff",
"az c #f9fbf7",
"a8 c #faf0c2",
"## c #fafaff",
"eU c #fafcf9",
"aJ c #fb2829",
"#6 c #fb8583",
"#J c #fbd12e",
"db c #fbfbfb",
"#a c #fbfbff",
"aF c #fbfcfa",
"ah c #fc1c15",
"a4 c #fc2221",
"bS c #fcea9c",
"#R c #fcf4f7",
"c6 c #fcfcfc",
"#r c #fcfcff",
"#D c #fcfdff",
"at c #fd2927",
"bA c #fdfaec",
"e0 c #fdfdfc",
"cb c #fdfdfd",
"#k c #fdfdff",
"b7 c #fdfefd",
"cG c #fdffff",
"aI c #fe2929",
"a9 c #fed125",
"bX c #fefcf0",
"b2 c #fefefd",
"cf c #fefefe",
"#b c #fefeff",
"cL c #feffff",
"ae c #ff1818",
"af c #ff1c1c",
"ag c #ff1d1d",
"bM c #ff2222",
"bg c #ff2320",
"aq c #ff2323",
"ar c #ff2626",
"aH c #ff2727",
"c. c #ff2828",
"a2 c #ff2928",
"bL c #ff2929",
"a3 c #ff2a23",
"a1 c #ff2a29",
"as c #ff2a2a",
"b9 c #ff3838",
"ad c #ff3e3e",
"bN c #ff5a5a",
"bu c #ff5b5b",
"bh c #ff5d59",
"cr c #ff6969",
"cs c #ff6a6a",
"ct c #ff6b6b",
"cu c #ff6d6d",
"cq c #ff6f6f",
"c# c #ff8282",
"#4 c #ff8686",
"#5 c #ff8687",
"#3 c #ff8b8b",
"cv c #ff9090",
"aG c #ff9292",
"ap c #ff9393",
"a0 c #ff9494",
"cp c #ffaeae",
"b8 c #ffb8b8",
"#2 c #ffbdbd",
"ac c #ffc2c2",
"#Z c #ffc600",
"#Y c #ffc800",
"#X c #ffc900",
"a. c #ffca00",
"am c #ffcb00",
"a# c #ffcc00",
"aa c #ffcc13",
"b. c #ffcc14",
"aR c #ffcd00",
"by c #ffcd06",
"an c #ffcd15",
"bl c #ffcd17",
"#0 c #ffcf1f",
"#W c #ffd100",
"bk c #ffd128",
"al c #ffd200",
"#L c #ffd330",
"#K c #ffd42f",
"#M c #ffd640",
"#V c #ffdb00",
"bz c #ffdb51",
"bx c #ffe674",
"bU c #ffe99c",
"cw c #ffe9e9",
"bV c #ffea9c",
"bT c #ffea9d",
"#N c #ffea9e",
"ab c #ffeba3",
"b# c #ffeca5",
"ao c #ffeca7",
"ay c #ffeda7",
"bW c #ffedae",
"bm c #ffeeac",
"bv c #fff0f1",
"#1 c #fff2c6",
"bO c #fff2f2",
"bi c #fff3f0",
"bj c #fff6cb",
"#Q c #fff7f7",
"#A c #fff9e2",
"#B c #fff9e5",
"#P c #fff9f9",
"co c #fffafa",
"#C c #fffcf5",
"#O c #fffdf8",
"bw c #fffefa",
"ca c #fffefe",
".P c #ffffff",
"QtQt.#.a.b.c.d.e.f.g.g.g.g.g.g.g.g.g.g.g.g.g.g.g.g.g.g.g.g.g.g.g.g.g.g.g.g.f.h.i.j.k.l.mQtQtQtQt",
"Qt.#.n.o.g.p.f.q.r.r.r.r.r.r.r.r.r.r.r.r.r.r.r.r.r.r.r.r.r.r.r.r.r.r.r.r.r.r.q.f.p.s.t.u.vQtQtQt",
"Qt.w.x.y.r.z.f.y.A.A.A.A.A.A.A.A.A.A.A.A.A.A.A.A.A.A.A.A.A.A.A.A.A.A.A.A.A.A.A.p.z.q.y.j.BQtQtQt",
"Qt.C.D.r.q.E.F.G.H.H.H.H.H.H.H.H.H.H.H.H.H.H.H.H.H.H.H.H.H.H.H.H.H.H.H.H.H.H.H.I.J.g.z.y.K.LQtQt",
"Qt.M.p.N.E.O.P.P.P.P.P.P.P.P.P.P.P.P.P.P.P.P.P.P.P.P.P.P.P.P.P.P.P.P.P.P.P.P.P.P.Q.R.S.s.T.UQtQt",
"Qt.V.r.f.F.P.P.P.P.P.P.P.P.P.P.P.P.P.P.P.P.P.P.P.P.P.P.P.P.P.P.P.P.P.P.P.P.P.P.P.P.W.X.Y.Z.0.uQt",
"Qt.e.q.A.H.P.P.P.P.P.P.P.P.P.P.P.P.P.P.P.P.P.P.P.P.P.P.P.P.P.P.P.P.P.P.P.P.P.P.P.P.1.2.3.4.5.6Qt",
"Qt.g.r.7.H.P.P.P.P.P.P.P.P.P.P.P.P.P.P.P.P.P.P.P.P.P.P.P.P.P.P.P.P.P.P.P.P.P.P.P.P.1.8.9.f.s.sQt",
"Qt.g.r.7.H.P.P.P.P.P.P.P.P.P.P.P.P.P.P.P.P.P.P.P.P.P.P.P.P.P.P.P.P.P.P.P.P.P.P.P.P.1.8#..g.f.fQt",
"Qt.g.r.7.H.P.P.P.P.P.P.P.P.P.P.P###a#a###a.P.P.P.P.P.P.P.P.P.P.P.P.P.P.P.P.P.P.P.P.1.8#..g.g.gQt",
"Qt.g.r.7.H.P.P.P.P.P.P.P#b#c#d#e#f#g#g#f#h#i#j.P.P.P.P.P.P.P.P.P.P.P.P.P.P.P.P.P.P.1.8#..g.g.gQt",
"Qt.g.r.7.H.P.P.P.P.P.P.P#k#l#m#n#n#n#n#n#n#o#p#q.P.P.P.P.P.P.P.P.P.P.P.P.P.P.P.P.P.1.8#..g.g.gQt",
"Qt.g.r.7.H.P.P.P.P.P.P.P#r#s#n#n#n#n#n#n#n#n#t#u.P.P.P.P.P.P.P.P.P.P.P.P.P.P.P.P.P.1.8#..g.g.gQt",
"Qt.g.r.7.H.P.P.P.P.P.P.P#r#v#n#n#n#n#n#n#w#x#y#z#A#A#A#B#C.P.P.P.P.P.P.P.P.P.P.P.P.1.8#..g.g.gQt",
"Qt.g.r.7.H.P.P.P.P.P.P.P#D#E#n#n#n#n#n#F#G#H#I#J#K#K#L#M#N#O.P.P.P.P.P.P.P.P.P.P.P.1.8#..g.g.gQt",
"Qt.g.r.7.H.P.P.P.P#P#Q#Q#R#S#n#n#n#n#n#T#U#V#W#X#Y#X#Y#Z#0#1.P.P.P.P.P.P.P.P.P.P.P.1.8#..g.g.gQt",
"Qt.g.r.7.H.P.P#Q#2#3#4#5#6#7#n#n#n#n#n#8#9#Wa.a#a#a#a#a.aaab.P.P.P.P.P.P.P.P.P.P.P.1.8#..g.g.gQt",
"Qt.g.r.7.H.P.Pacadaeafagahai#n#n#n#n#najakalama#a#a#a#a.anao.P.P.P.P.P.P.P.P.P.P.P.1.8#..g.g.gQt",
"Qt.g.r.7.H.P.Papaqarasasatauav#n#n#n#nawaxala.a#a#a#a#a.anay.P.PazaAaBaCaDaCaEaF.P.1.8#..g.g.gQt",
"Qt.g.r.7.H.P.PaGaraHasasaIaJaKaLaMaNaOaPaQaRama#a#a#a#a.anay.P.PaSaTaUaVaWaXaYaZ.P.1.8#..g.g.gQt",
"Qt.g.r.7.H.P.Pa0aHaHasasa1a2a3a4a5a6a7a8a9#Xa#a#a#a#a#a.b.b#.P.Pbabbbbbcbcbdbebf.P.1.8#..g.g.gQt",
"Qt.g.r.7.H.P.Pa0aHaHasasasa1a1bgbhbi.Pbjbk#Ya#a#a#a#a##Xblbm.P.Pbnbobpbqbqbrbsbt.P.1.8#..g.g.gQt",
"Qt.g.r.7.H.P.PaGaHaHasasasasasaqbubv.Pbwbxby#Y#Y#X#X#Y#YbzbAbBbCbDbEbFbGbHbIbJbK.P.1.8#..g.g.gQt",
"Qt.g.r.7.H.P.PapararbLbLbLbLbLbMbNbO.PbPbQbRbSbTbUbVbTbWbXbYbZb0b1b2b3b4b5b6b7.P.P.1.8#..g.g.gQt",
"Qt.g.r.7.H.P.Pb8b9bMc.c.c.c.aHaHc#cacb.Jcccdcecfcacacacfcgchci.Acj.Pckclcmcn.P.P.P.1.8#..g.g.gQt",
"Qt.g.r.7.H.P.Pcocpcqcrcsctcscucvcw.Pcx.Ycicicycz.P.PcbcAcBcicicCcD.PckcEcFcn.P.P.P.1.8#..g.g.gQt",
"Qt.g.r.7.H.P.P.PcGcHcI.P.P.PcJcKcL.PcMcNcOcP.qcQ.P.PcRcScPcTcccUcV.PckcEcFcn.P.P.P.1.8#..g.g.gQt",
"Qt.g.r.7.H.P.P.PcWcXcYcb.PcZc0c1cb.Pc2cO.Xc3c4c5.Pc6c7c8c9d.d#dadb.PckcEcFcn.P.P.P.1.8#..g.g.gQt",
"Qt.g.r.7.H.P.P.Pdcdd.fczcQdecN.Fcfdbd.cidfcXcidg.Pdhdidjdkdlcidm.P.PckcEcFcn.P.P.P.1.8#..g.g.gQt",
"Qt.g.r.7.H.P.P.P.Pdndo.IdpcNdq.P.Pdr.9cTdsdtc8dudvdwcidxdbd.ci.F.P.PckcEcFcn.P.P.P.1.8#..g.g.gQt",
"Qt.g.r.7.H.P.P.P.PdydzdAdBdC.P.P.PdCdDdEdFcV.ScidGdHdIdJdKdLdMdt.P.PckcEcFcn.P.P.P.1.8#..g.g.gQt",
"Qt.g.r.7.H.P.P.P.PcQ.AcidN.P.P.P.PdOcicBdK.PdPcOcidDdQ.PdR.9dSdT.P.PckcEcFcn.P.P.P.1.8#..g.g.gQt",
"Qt.g.r.7.H.P.P.PdUdVdWdXdYdZ.P.PcRc1ci.Jc6.Pc6d0.9c2cf.Pd1d2d3d4.P.PckcEcFcn.P.P.P.1.8#..g.g.gQt",
"Qt.g.r.7.H.P.Pdcd5du.HcRcCd3.F.Pdr.zcid6cb.P.Pd7cxdb.P.Pc5d8d9dT.P.Pe.cEcFe#.P.P.P.1.8#..g.g.gQt",
"Qt.g.r.7.H.P.Peaebeccb.PcWedeec1ef.pci.Rcf.P.P.P.P.P.P.Pegehcceicf.Pejclcmek.P.P.P.1.8#..g.g.gQt",
"Qt.g.r.7.H.P.Peld6cQ.P.P.PemencUemeod.ef.P.P.P.P.P.P.P.PcRepcPeqereseteuevewexey.P.1.8#..g.g.gQt",
"Qt.g.r.7.H.P.Pdycz.P.P.P.P.Pcfcbcfcfcfcf.P.P.P.P.P.P.P.P.Pc5ezeAeBeCbdbqbqbHeDeE.P.1.8#..g.g.gQt",
"Qt.g.r.7.H.P.P.P.P.P.P.P.P.P.P.P.P.P.P.P.P.P.P.P.P.P.P.P.P.P.P.PeFeGeHeIeIeJeKeL.P.1.8#..g.g.gQt",
"Qt.g.r.7.H.P.P.P.P.P.P.P.P.P.P.P.P.P.P.P.P.P.P.P.P.P.P.P.P.P.P.PeMeNeOePeQeReSeT.P.1.8#..g.f.fQt",
"Qt.g.r.7.H.P.P.P.P.P.P.P.P.P.P.P.P.P.P.P.P.P.P.P.P.P.P.P.P.P.P.PeUeVeWeXeXeYeZe0.P.1.8.9.f.p.sQt",
"Qte1.q.A.H.P.P.P.P.P.P.P.P.P.P.P.P.P.P.P.P.P.P.P.P.P.P.P.P.P.P.P.P.P.P.P.P.P.P.P.P.1.2.3.4e2e3Qt",
"Qte4.r.gdk.P.P.P.P.P.P.P.P.P.P.P.P.P.P.P.P.P.P.P.P.P.P.P.P.P.P.P.P.P.P.P.P.P.P.P.PdvdV.Ye5e6e7Qt",
"Qte8.p.Nc0e9.P.P.P.P.P.P.P.P.P.P.P.P.P.P.P.P.P.P.P.P.P.P.P.P.P.P.P.P.P.P.P.P.P.Pemf..Y.sf#.UQtQt",
"Qtfa.p.r.qepc7dPdTdTdTdTdTdTdTdTdTdTdTdTdTdTdTdTdTdTdTdTdTdTdTdTdTdTdTdTdTdTdTeofb.p.N.yfcfdQtQt",
"Qtfeff.y.r.N.pfgfhfhfhfhfhfhfhfhfhfhfhfhfhfhfhfhfhfhfhfhfhfhfhfhfhfhfhfhfhfhfh.y.N.z.yfifjQtQtQt",
"QtQtfkfl.p.p.q.N.N.z.z.z.z.z.z.z.z.z.z.z.z.z.z.z.z.z.z.z.z.z.z.z.z.z.z.z.z.N.N.z.p.yfmfnfoQtQtQt",
"QtQtQtfpfq.cfrfs.g.g.g.g.g.g.g.g.g.g.g.g.g.g.g.g.g.g.g.g.g.g.g.g.g.g.g.g.g.gftfufv.kfwfxQtQtQtQt",
"QtQtQtfyfzfAe2fB.g.g.g.g.g.g.g.g.g.g.g.g.g.g.g.g.g.g.g.g.g.g.g.g.g.g.g.g.g.gfCfDfEfFfGQtQtQtQtQt"};
