/* XPM */
static char * wxmedit_xpm[] = {
"48 48 373 2",
"  	c None",
". 	c #4D4D4D",
"+ 	c #4E4E4E",
"@ 	c #515151",
"# 	c #535353",
"$ 	c #797979",
"% 	c #ADADAD",
"& 	c #B3B3B3",
"* 	c #B2B2B2",
"= 	c #A9A9A9",
"- 	c #7D7D7D",
"; 	c #4C4C4C",
"> 	c #525252",
", 	c #9B9B9B",
"' 	c #FFFFFF",
") 	c #FEFEFE",
"! 	c #A8A8A8",
"~ 	c #4B4B4B",
"{ 	c #606060",
"] 	c #FCFCFC",
"^ 	c #E1E1E1",
"/ 	c #777777",
"( 	c #474747",
"_ 	c #707070",
": 	c #EEEEEE",
"< 	c #8C8C8C",
"[ 	c #454545",
"} 	c #717171",
"| 	c #EDEDED",
"1 	c #F8F8FF",
"2 	c #F6F6FF",
"3 	c #F7F7FF",
"4 	c #EDEDFF",
"5 	c #ADADFF",
"6 	c #8686FF",
"7 	c #8383FF",
"8 	c #8484FF",
"9 	c #AFAFFF",
"0 	c #F4F4FF",
"a 	c #9595FF",
"b 	c #0303FF",
"c 	c #0000FF",
"d 	c #ACACFF",
"e 	c #FBFBFF",
"f 	c #5B5BFF",
"g 	c #6162FF",
"h 	c #EFF0FF",
"i 	c #E7E7FF",
"j 	c #5858FF",
"k 	c #615FF8",
"l 	c #EFEEF8",
"m 	c #FFFFF8",
"n 	c #FFFEF8",
"o 	c #E8E8FF",
"p 	c #5959FF",
"q 	c #4537BB",
"r 	c #846978",
"s 	c #BB9D6C",
"t 	c #F8DB6C",
"u 	c #FFE36C",
"v 	c #FFE26C",
"w 	c #FFE377",
"x 	c #FFF3C4",
"y 	c #E8F1FF",
"z 	c #595CFF",
"A 	c #261FD9",
"B 	c #C9A136",
"C 	c #FFD600",
"D 	c #FFD200",
"E 	c #FFCA00",
"F 	c #FFC900",
"G 	c #FFD530",
"H 	c #FFFCF0",
"I 	c #FFFBFB",
"J 	c #FFC8C8",
"K 	c #FFADAD",
"L 	c #FFAEAE",
"M 	c #FFB1AD",
"N 	c #E89EB6",
"O 	c #583CE3",
"P 	c #5E4BA2",
"Q 	c #EABB15",
"R 	c #FFCF00",
"S 	c #FFCC00",
"T 	c #FFF5CE",
"U 	c #FFF8F8",
"V 	c #FFAFAF",
"W 	c #FF4747",
"X 	c #FF3A3A",
"Y 	c #FF3B3B",
"Z 	c #FF3B38",
"` 	c #E8354D",
" .	c #5714BC",
"..	c #644F9C",
"+.	c #EABB16",
"@.	c #FFCE00",
"#.	c #FFF3C3",
"$.	c #FFE7E7",
"%.	c #FF5F5F",
"&.	c #FF1E1E",
"*.	c #FF2727",
"=.	c #FF2726",
"-.	c #FD272A",
";.	c #74129E",
">.	c #5E4A9D",
",.	c #E9BA16",
"'.	c #FFF3C5",
").	c #FEFEFD",
"!.	c #FFE2E2",
"~.	c #FF4F4F",
"{.	c #FF2525",
"].	c #FF2A2A",
"^.	c #FF2B26",
"/.	c #D6234D",
"(.	c #6E12A3",
"_.	c #3C07CA",
":.	c #3B24E8",
"<.	c #3C3CFF",
"[.	c #3336FF",
"}.	c #87739D",
"|.	c #EEC016",
"1.	c #FFCD00",
"2.	c #ECF3E7",
"3.	c #73A850",
"4.	c #6BA346",
"5.	c #6CA347",
"6.	c #76AA54",
"7.	c #BFD7AF",
"8.	c #FF5050",
"9.	c #FF2A29",
"0.	c #ED2739",
"a.	c #D9193F",
"b.	c #D882A9",
"c.	c #D8D8FF",
"d.	c #D7DAFF",
"e.	c #E7D49D",
"f.	c #FCCD16",
"g.	c #FDFEFC",
"h.	c #BCD5AB",
"i.	c #287900",
"j.	c #2C7C00",
"k.	c #2D7C00",
"l.	c #2B7B00",
"m.	c #79AB58",
"n.	c #FF2A28",
"o.	c #FF1E19",
"p.	c #FF9D98",
"q.	c #FFEE9B",
"r.	c #FFD115",
"s.	c #FFCB00",
"t.	c #B5D1A2",
"u.	c #247600",
"v.	c #2F7D00",
"w.	c #338000",
"x.	c #327F00",
"y.	c #277900",
"z.	c #6FA64C",
"A.	c #FF1D1D",
"B.	c #FF9A9A",
"C.	c #FFD21D",
"D.	c #FFCE08",
"E.	c #FFFCEF",
"F.	c #EDEEEE",
"G.	c #CBCCCB",
"H.	c #F1F9EC",
"I.	c #70A54C",
"J.	c #5B9831",
"K.	c #317E00",
"L.	c #3C850B",
"M.	c #70A64B",
"N.	c #BFD7AE",
"O.	c #FF9999",
"P.	c #FEFFFF",
"Q.	c #FFFFBF",
"R.	c #FFE55B",
"S.	c #FFDA3F",
"T.	c #FFD93E",
"U.	c #FFD93F",
"V.	c #FFDC4E",
"W.	c #FFF2BA",
"X.	c #464646",
"Y.	c #222222",
"Z.	c #CCCDCC",
"`.	c #F2F8EE",
" +	c #D1E3C6",
".+	c #2F7E00",
"++	c #5B9932",
"@+	c #F2F7EE",
"#+	c #FAFCF9",
"$+	c #FFE6E6",
"%+	c #FF5C5C",
"&+	c #FF2222",
"*+	c #FF1C1C",
"=+	c #FFA3A3",
"-+	c #868688",
";+	c #383733",
">+	c #959283",
",+	c #F5F0DF",
"'+	c #FFFCEA",
")+	c #FFFBE9",
"!+	c #FFFBEC",
"~+	c #010101",
"{+	c #0B0B0B",
"]+	c #F6F6F6",
"^+	c #E6EFE0",
"/+	c #267800",
"(+	c #609C39",
"_+	c #FFFCFC",
":+	c #FFB8B8",
"<+	c #FF2F2F",
"[+	c #FF2020",
"}+	c #FF1F1F",
"|+	c #FF6464",
"1+	c #FFDEDE",
"2+	c #E6E6E6",
"3+	c #383838",
"4+	c #000000",
"5+	c #040405",
"6+	c #D0D1D2",
"7+	c #AEAEAE",
"8+	c #080808",
"9+	c #393939",
"0+	c #E4EEDE",
"a+	c #267900",
"b+	c #609C38",
"c+	c #FFECEC",
"d+	c #FFDDDD",
"e+	c #FFD9D9",
"f+	c #FFD8D8",
"g+	c #FFE3E3",
"h+	c #FFF5F5",
"i+	c #FFFEFE",
"j+	c #BCBCBC",
"k+	c #242424",
"l+	c #999999",
"m+	c #F9F9F9",
"n+	c #DADADA",
"o+	c #151515",
"p+	c #4A4A4A",
"q+	c #E4E5E5",
"r+	c #B9B9B9",
"s+	c #BFBFBF",
"t+	c #D4D4D4",
"u+	c #898989",
"v+	c #090909",
"w+	c #353535",
"x+	c #070707",
"y+	c #F7F7F7",
"z+	c #2C2C2C",
"A+	c #666666",
"B+	c #595959",
"C+	c #1C1C1C",
"D+	c #C5C5C5",
"E+	c #858585",
"F+	c #565656",
"G+	c #A1A1A1",
"H+	c #292929",
"I+	c #575757",
"J+	c #A7A7A7",
"K+	c #D0D0D0",
"L+	c #6D6D6D",
"M+	c #929292",
"N+	c #343434",
"O+	c #E4E4E4",
"P+	c #4F4F4F",
"Q+	c #7F7F7F",
"R+	c #050505",
"S+	c #212121",
"T+	c #F1F1F1",
"U+	c #828282",
"V+	c #8D8D8D",
"W+	c #909090",
"X+	c #252525",
"Y+	c #646464",
"Z+	c #9A9A9A",
"`+	c #141414",
" @	c #C0C0C0",
".@	c #161616",
"+@	c #CACACA",
"@@	c #5E5E5E",
"#@	c #020202",
"$@	c #AAAAAA",
"%@	c #D7D7D7",
"&@	c #3A3A3A",
"*@	c #7A7A7A",
"=@	c #F5F5F5",
"-@	c #FDFDFD",
";@	c #3D3D3D",
">@	c #030303",
",@	c #C2C2C2",
"'@	c #FAFAFA",
")@	c #0D0D0D",
"!@	c #181818",
"~@	c #AFAFAF",
"{@	c #C4C4C4",
"]@	c #3C3C3C",
"^@	c #1F1F1F",
"/@	c #040404",
"(@	c #CECECE",
"_@	c #F8F8F8",
":@	c #979797",
"<@	c #838383",
"[@	c #878787",
"}@	c #1B1B1B",
"|@	c #D3D3D3",
"1@	c #BBBBBB",
"2@	c #B0B0B0",
"3@	c #6B6B6B",
"4@	c #E9E9E9",
"5@	c #0A0A0A",
"6@	c #A5A5A5",
"7@	c #EBEBEB",
"8@	c #5B5B5B",
"9@	c #B4B4B4",
"0@	c #C1C1C1",
"a@	c #E5EFDF",
"b@	c #DEDEDE",
"c@	c #545454",
"d@	c #939393",
"e@	c #BEBEBE",
"f@	c #363636",
"g@	c #121212",
"h@	c #C7C7C7",
"i@	c #747474",
"j@	c #F8FBF6",
"k@	c #DAE8D0",
"l@	c #5D9A34",
"m@	c #FBFCF9",
"n@	c #FDFEFD",
"o@	c #E5E5E5",
"p@	c #D8D8D8",
"q@	c #F0F0F0",
"r@	c #101010",
"s@	c #EFF4EB",
"t@	c #93BC78",
"u@	c #76AA53",
"v@	c #317F00",
"w@	c #438A14",
"x@	c #90BA74",
"y@	c #D2E3C7",
"z@	c #EEEDED",
"A@	c #A0A0A0",
"B@	c #D4D5D4",
"C@	c #BFD9AF",
"D@	c #217500",
"E@	c #338001",
"F@	c #75A952",
"G@	c #B6D1A3",
"H@	c #2A7B00",
"I@	c #FFFFFE",
"J@	c #E3EDDC",
"K@	c #5C9A33",
"L@	c #5A9830",
"M@	c #5A9831",
"N@	c #59982F",
"O@	c #619D39",
"P@	c #ADCC98",
"Q@	c #F3F8F0",
"R@	c #E5EFDD",
"S@	c #E6EFDF",
"T@	c #E5EFDE",
"U@	c #EDF3E7",
"V@	c #6E6E6E",
"W@	c #8B8B8B",
"X@	c #616161",
"Y@	c #757575",
"Z@	c #484848",
"`@	c #A2A2A2",
" #	c #505050",
".#	c #B5B5B5",
"+#	c #8E8E8E",
"@#	c #585858",
"##	c #494949",
"          . . . . . . . . . . . . . . . . . . . . . . . . . . . . . . . . . . . . . .           ",
"        . . . . . . . . . . . . . . . . . . . . . . . . . . . . . . . . . . . . . . . .         ",
"      . . . + @ @ @ @ @ @ @ @ @ @ @ @ @ @ @ @ @ @ @ @ @ @ @ @ @ @ @ @ @ @ @ @ @ @ + . . .       ",
"    . . . # $ % & * * * * * * * * * * * * * * * * * * * * * * * * * * * * * * * = - @ ; . .     ",
"    . . > , ' ' ' ' ' ' ' ' ' ' ' ' ' ' ' ' ' ' ' ' ' ' ' ' ' ' ' ' ' ' ' ' ' ' ' ) ! ~ ; .     ",
"  . . ; { ] ' ' ' ' ' ' ' ' ' ' ' ' ' ' ' ' ' ' ' ' ' ' ' ' ' ' ' ' ' ' ' ' ' ' ' ' ^ / ( .     ",
"  . . . _ ' ' ' ' ' ' ' ' ' ' ' ' ' ' ' ' ' ' ' ' ' ' ' ' ' ' ' ' ' ' ' ' ' ' ' ' ' : < [ . .   ",
"  . . . } ' ' ' ' ' ' ' ' ' ' ' ' ' ' ' ' ' ' ' ' ' ' ' ' ' ' ' ' ' ' ' ' ' ' ' ' ' : < [ . .   ",
"  . . . } ' ' ' ' ' ' ' ' ' ' ' ' ' ' ' ' ' ' ' ' ' ' ' ' ' ' ' ' ' ' ' ' ' ' ' ' ' | < [ . .   ",
"  . . . } ' ' ' ' ' ' ' ' ' ' ' 1 2 2 2 2 3 ' ' ' ' ' ' ' ' ' ' ' ' ' ' ' ' ' ' ' ' | < [ . .   ",
"  . . . } ' ' ' ' ' ' ' ' ' 4 5 6 7 8 8 7 8 9 0 ' ' ' ' ' ' ' ' ' ' ' ' ' ' ' ' ' ' | < [ . .   ",
"  . . . } ' ' ' ' ' ' ' ' ' a b c c c c c c c d e ' ' ' ' ' ' ' ' ' ' ' ' ' ' ' ' ' | < [ . .   ",
"  . . . } ' ' ' ' ' ' ' ' 4 f c c c c c c c c g h ' ' ' ' ' ' ' ' ' ' ' ' ' ' ' ' ' | < [ . .   ",
"  . . . } ' ' ' ' ' ' ' ' i j c c c c c c c c k l m n n ' ' ' ' ' ' ' ' ' ' ' ' ' ' | < [ . .   ",
"  . . . } ' ' ' ' ' ' ' ' o p c c c c c c q r s t u v v w x ' ' ' ' ' ' ' ' ' ' ' ' | < [ . .   ",
"  . . . } ' ' ' ' ' ' ' ' y z c c c c c A B C D E F F F F G H ' ' ' ' ' ' ' ' ' ' ' | < [ . .   ",
"  . . . } ' ' ' I J K L M N O c c c c c P Q R S S S S S S E T ' ' ' ' ' ' ' ' ' ' ' | < [ . .   ",
"  . . . } ' ' U V W X Y Z `  .c c c c c ..+.@.S S S S S S S #.' ' ' ' ' ' ' ' ' ' ' | < [ . .   ",
"  . . . } ' ' $.%.&.*.*.=.-.;.c c c c c >.,.@.S S S S S S S '.' ' ' ' ).) ) ).' ' ' | < [ . .   ",
"  . . . } ' ' !.~.{.].].].^./.(._.:.<.[.}.|.1.S S S S S S S '.' ' 2.3.4.5.5.4.6.7.' | < [ . .   ",
"  . . . } ' ' !.8.{.].].].].9.0.a.b.c.d.e.f.S S S S S S S S x ' g.h.i.j.k.k.j.l.m.' : < [ . .   ",
"  . . . } ' ' !.8.{.].].].].].n.o.p.' ' q.r.s.S S S S S S s.x ' ' t.u.v.w.w.x.y.z.' : < [ . .   ",
"  . . . } ' ' !.8.{.].].].].].].A.B.' ' T C.E s.s.s.s.s.E D.E.F.G.H.I.J.K.x.L.M.N.' : < [ . .   ",
"  . . . } ' ' !.~.{.].].].].].].A.O.' P.' Q.R.S.T.U.U.T.V.W.' X.Y.Z.`. +i..+++@+#+' | < [ . .   ",
"  . . . } ' ' $+%+&+].].].].].].*+=+' ' -+;+>+,+'+)+)+)+!+' $ ~+{+]+' ^+/+v.(+' ' ' | < [ . .   ",
"  . . . } ' ' _+:+<+A.[+[+[+}+*+|+1+' 2+3+4+5+6+' ' ' ' ' 7+8+4+9+' ' 0+a+v.b+' ' ' | < [ . .   ",
"  . . . } ' ' ' I c+d+e+e+e+f+g+h+i+' j+k+4+4+l+m+' ' ' n+o+4+~+p+' ' 0+a+v.b+' ' ' | < [ . .   ",
"  . . . } ' ' ' ' q+r+' ' ' m+s+t+' ' u+v+w+x+# | ' ' y+z+4+A+4+B+' ' 0+a+v.b+' ' ' | < [ . .   ",
"  . . . } ' ' ' ' % C+D+' ' E+x+, ' ' F+4+G+H+4+n+' ' + 4+I+J+4+_ ' ' 0+a+v.b+' ' ' | < [ . .   ",
"  . . . } ' ' ' ' K+z+L+' M+Y.J+' ' ^ N+Y.O+P+4+Q+) u+R+S+T+U+~+V+' ' 0+a+v.b+' ' ' | < [ . .   ",
"  . . . } ' ' ' ' ] W+X+Y+X+Z+' ' ' % o+# : % `+{+ @.@4++@' @@#@$@' ' 0+a+v.b+' ' ' | < [ . .   ",
"  . . . } ' ' ' ' ' %@&@v+l+' ' ' ' *@4+U+=@' [ 4+4+4+E+-@' ;@>@,@' ' 0+a+v.b+' ' ' | < [ . .   ",
"  . . . } ' ' ' ' '@G+)@!@l+' ' ' ' @ 4+~@' ' {@C+4+]@y+' ' ^@/@(@' ' 0+a+v.b+' ' ' | < [ . .   ",
"  . . . } ' ' ' _@:@o+<@[@}@$@' ' |@w+4+1@' ' ' 2@3@4@' ' ' 5@R+(@' ' 0+a+v.b+' ' ' | < [ . .   ",
"  . . . } ' ' ] 6@v+$ ' 7@8@}@J+' 9@Y.4+j+' ' ' ' ' ' ' ' ' )@/@0@' ' a@a+v.b+' ' ' | < [ . .   ",
"  . . . } ' ' b@3+c@' ' ' ^ # 5@d@e@f@g@h@' ' ' ' ' ' ' ' ' z+4+i@' j@k@y.v.l@m@n@' | < [ . .   ",
"  . . . } ' ' o@[@p@' ' ' ' q@:@r+' & r+=@' ' ' ' ' ' ' ' ' E+r@k+s@t@u@.+v@w@x@y@' z@< [ . .   ",
"  . . . } ' ' ' ' ' ' ' ' ' ' ' ' ' ' ' ' ' ' ' ' ' ' ' ' ' ] A@B@C@D@k.E@w.v@i.F@' : < [ . .   ",
"  . . . } ' ' ' ' ' ' ' ' ' ' ' ' ' ' ' ' ' ' ' ' ' ' ' ' ' ' ' ' G@i.v.v.v.v.H@3.' : < [ . .   ",
"  . . . } ' ' ' ' ' ' ' ' ' ' ' ' ' ' ' ' ' ' ' ' ' ' ' ' ' ' ' I@J@K@L@M@M@N@O@P@' | < [ . .   ",
"  . . . } ' ' ' ' ' ' ' ' ' ' ' ' ' ' ' ' ' ' ' ' ' ' ' ' ' ' ' ' ' Q@R@S@S@T@U@' ' : < [ . .   ",
"  . . . V@' ' ' ' ' ' ' ' ' ' ' ' ' ' ' ' ' ' ' ' ' ' ' ' ' ' ' ' ' ' ' ' ' ' ' ' ' | W@[ . .   ",
"  . . ; X@_@' ' ' ' ' ' ' ' ' ' ' ' ' ' ' ' ' ' ' ' ' ' ' ' ' ' ' ' ' ' ' ' ' ' ' ' ^ Y@Z@.     ",
"    . . # G+]+' ' ' ' ' ' ' ' ' ' ' ' ' ' ' ' ' ' ' ' ' ' ' ' ' ' ' ' ' ' ' ' ' ' =@`@ #; .     ",
"    . . ; # M+* .#.#.#.#.#.#.#.#.#.#.#.#.#.#.#.#.#.#.#.#.#.#.#.#.#.#.#.#.#.#.#.#2@+#@###. .     ",
"      . . ~ [ Z@; ; ; ; ; ; ; ; ; ; ; ; ; ; ; ; ; ; ; ; ; ; ; ; ; ; ; ; ; ; ; ; ##[ ~ . .       ",
"        . . . ; ; ; ; ; ; ; ; ; ; ; ; ; ; ; ; ; ; ; ; ; ; ; ; ; ; ; ; ; ; ; ; ; ; . . .         ",
"            . . . . . . . . . . . . . . . . . . . . . . . . . . . . . . . . . . . .             "};
