/* XPM */
static char * wxmedit_xpm[] = {
"32 32 89 1",
" 	c None",
".	c #4D4D4D",
"+	c #575757",
"@	c #B1B1B1",
"#	c #D0D0D0",
"$	c #B0B0B0",
"%	c #4E4E4E",
"&	c #BABABA",
"*	c #FFFFFF",
"=	c #E0E0E0",
"-	c #E1E1E1",
";	c #E2E2E2",
">	c #FDFDFF",
",	c #EEEEFF",
"'	c #F8F8FF",
")	c #D2D2FF",
"!	c #1616FF",
"~	c #0000FF",
"{	c #0404FF",
"]	c #9292FF",
"^	c #8282FF",
"/	c #2F2FFF",
"(	c #7E7EFF",
"_	c #2B22D4",
":	c #806C99",
"<	c #FFEB99",
"[	c #FFF6D4",
"}	c #0F0CF0",
"|	c #F3C20C",
"1	c #FFCC00",
"2	c #FFCE0C",
"3	c #FFFCEF",
"4	c #FFDCDC",
"5	c #FF5C5C",
"6	c #FF4646",
"7	c #7E23A4",
"8	c #FFF6D3",
"9	c #FF7E7E",
"0	c #FF2A2A",
"a	c #B71E66",
"b	c #0100FE",
"c	c #FBFDFA",
"d	c #E4EEDD",
"e	c #EDF4E8",
"f	c #FF7777",
"g	c #D5234D",
"h	c #BB4E92",
"i	c #BBBBFF",
"j	c #C6BDD4",
"k	c #9BC182",
"l	c #338000",
"m	c #398408",
"n	c #F5F9F2",
"o	c #FF6A6A",
"p	c #FFF8DC",
"q	c #FFF8DB",
"r	c #95BD7A",
"s	c #368204",
"t	c #F2F7EF",
"u	c #FFFFFE",
"v	c #FFE168",
"w	c #FFD016",
"x	c #FFCF11",
"y	c #FFD015",
"z	c #F5F9F3",
"A	c #B9D4A8",
"B	c #488D1A",
"C	c #D9E8D0",
"D	c #FF9393",
"E	c #FF8787",
"F	c #E9F2E4",
"G	c #4F9123",
"H	c #FFF8F8",
"I	c #FFA9A9",
"J	c #FF9C9C",
"K	c #FFA6A6",
"L	c #FFF6F6",
"M	c #000000",
"N	c #686868",
"O	c #C7C7C7",
"P	c #9A9A9A",
"Q	c #C2D9B3",
"R	c #58972E",
"S	c #398307",
"T	c #6FA54B",
"U	c #FDFEFD",
"V	c #89B56B",
"W	c #D5E5CA",
"X	c #85B366",
"   ..........................   ",
"  ............................  ",
" ..+@######################$+.% ",
" ..&************************&.. ",
" ..=************************=.. ",
" ..-************************;.. ",
" ..-******>,,,'*************;.. ",
" ..-*****)!~~~{]************;.. ",
" ..-*****^~~~~~/************;.. ",
" ..-*****(~~~~_:<<<[********;.. ",
" ..-*****(~~~}|111123*******;.. ",
" ..-*45667~~~_1111118*******;.. ",
" ..-*9000ab~~_1111118*cddde*;.. ",
" ..-*f0000ghij1111118*klllmn;.. ",
" ..-*f00000o*p111111q*rlllst;.. ",
" ..-*f00000o*uvwxxyvu*zAlBC*;.. ",
" ..-*D00000E***********FlG**;.. ",
" ..-*HIJJJKL********MM*FlG**;.. ",
" ..-***********NM**MMM*FlG**;.. ",
" ..-*MM**MMO***MM*MMMM*FlG**;.. ",
" ..-*PMMMMM***NMMMMMM-*FlG**;.. ",
" ..-**MMMM***-MMMMMMM**FlG**;.. ",
" ..-**MMM****MMMMM*MM**FlG**;.. ",
" ..-*MMMMO**MM-MM-*MM**FlG**;.. ",
" ..-*MM-MM**M-*P-*-MN*QRlSTU;.. ",
" ..-*--*MM************VllllF;.. ",
" ..-******************WXXXr*;.. ",
" ..=************************=.. ",
" ..&************************&.. ",
" %.+$######################@+.% ",
"  ............................  ",
"   .........................%   "};
