/* XPM */
static char * wxmedit0_24x24_xpm[] = {
"24 24 251 2",
"  	c None",
". 	c #5DBBBB",
"+ 	c #5ABABA",
"@ 	c #68BFBF",
"# 	c #5AB9B9",
"$ 	c #217A7A",
"% 	c #68A9A9",
"& 	c #72AEAE",
"* 	c #45AEAE",
"= 	c #67A8A8",
"- 	c #74AEAE",
"; 	c #41AEAE",
"> 	c #69A9A9",
", 	c #6AA9A9",
"' 	c #4AB2B2",
") 	c #43ACAC",
"! 	c #74B0B0",
"~ 	c #308484",
"{ 	c #BCDEDE",
"] 	c #F8FFFF",
"^ 	c #DDF1F1",
"/ 	c #3BACAC",
"( 	c #FBFFFF",
"_ 	c #F2FDFD",
": 	c #31A7A7",
"< 	c #F0FCFC",
"[ 	c #F6FDFD",
"} 	c #42B2B2",
"| 	c #DBF1F1",
"1 	c #F9FFFF",
"2 	c #4FB8B8",
"3 	c #CCE8E8",
"4 	c #F7FFFF",
"5 	c #D6ECEC",
"6 	c #006565",
"7 	c #C4E4E4",
"8 	c #F2FFFF",
"9 	c #ABD0D0",
"0 	c #5A8A8A",
"a 	c #EAFBFB",
"b 	c #C8E4E4",
"c 	c #5E8989",
"d 	c #CBE8E8",
"e 	c #DFF3F3",
"f 	c #669090",
"g 	c #ACD2D2",
"h 	c #EAFCFC",
"i 	c #729B9B",
"j 	c #95BFBF",
"k 	c #F1FFFF",
"l 	c #D9EDED",
"m 	c #016666",
"n 	c #F0FFFF",
"o 	c #F5FFFF",
"p 	c #F4FFFF",
"q 	c #F6FFFF",
"r 	c #F3FFFF",
"s 	c #D8EDED",
"t 	c #FFCC99",
"u 	c #C5E4E4",
"v 	c #C3F2F2",
"w 	c #9FE8E8",
"x 	c #9CE8E8",
"y 	c #A0ECE9",
"z 	c #5CA5DC",
"A 	c #4F97DB",
"B 	c #4E96DB",
"C 	c #7DC7E3",
"D 	c #9DE8E8",
"E 	c #9EE8E8",
"F 	c #B4EEEE",
"G 	c #DDEEEE",
"H 	c #6B5D99",
"I 	c #C9A499",
"J 	c #FFD099",
"K 	c #EFFFFF",
"L 	c #D2DFF5",
"M 	c #0000F4",
"N 	c #0405FD",
"O 	c #0405FE",
"P 	c #2124E8",
"Q 	c #FEFFFF",
"R 	c #006964",
"S 	c #2D3D91",
"T 	c #333399",
"U 	c #292B99",
"V 	c #AA8E99",
"W 	c #C6E4E4",
"X 	c #B8F0F0",
"Y 	c #8CE6E6",
"Z 	c #8AE8E8",
"` 	c #74C4E1",
" .	c #0000F9",
"..	c #080DFD",
"+.	c #040AFF",
"@.	c #606390",
"#.	c #DDED89",
"$.	c #D7E787",
"%.	c #9FE1C3",
"&.	c #89E3E4",
"*.	c #8BE3E3",
"=.	c #A5EBEB",
"-.	c #DDEFED",
";.	c #1C517E",
">.	c #34329A",
",.	c #3C3A99",
"'.	c #C3E4E4",
").	c #F79494",
"!.	c #FB4B4B",
"~.	c #D4415C",
"{.	c #0001FF",
"].	c #1010FF",
"^.	c #3435C4",
"/.	c #FFFF00",
"(.	c #FFFF0F",
"_.	c #FFFF0E",
":.	c #F5EE32",
"<.	c #FFFFFF",
"[.	c #CAD9E8",
"}.	c #312F98",
"|.	c #343499",
"1.	c #FAFFFF",
"2.	c #F02A2A",
"3.	c #FF1111",
"4.	c #FF1010",
"5.	c #5C008C",
"6.	c #594CE3",
"7.	c #726FB7",
"8.	c #FFFF05",
"9.	c #EBEC32",
"0.	c #4647A2",
"a.	c #B7F3F3",
"b.	c #DC2727",
"c.	c #F90E0E",
"d.	c #F90D0D",
"e.	c #FC0000",
"f.	c #9CCAC5",
"g.	c #9DDEAD",
"h.	c #FFFF03",
"i.	c #FAFE0D",
"j.	c #D7E729",
"k.	c #8CE7F3",
"l.	c #97ECEA",
"m.	c #476FB0",
"n.	c #323199",
"o.	c #383799",
"p.	c #EA2E2E",
"q.	c #FD0606",
"r.	c #FC0606",
"s.	c #F40000",
"t.	c #EADEDE",
"u.	c #F0FEFD",
"v.	c #E3E966",
"w.	c #E7EC60",
"x.	c #E7EC5F",
"y.	c #E6EFB0",
"z.	c #B4BCDD",
"A.	c #2A2994",
"B.	c #36349A",
"C.	c #CBF5F5",
"D.	c #A6D1D1",
"E.	c #A0A6A6",
"F.	c #A0A8A8",
"G.	c #A0B7B7",
"H.	c #A9EFEF",
"I.	c #A9ECED",
"J.	c #AAEEF1",
"K.	c #ABEEF2",
"L.	c #A9EDEE",
"M.	c #AFE1E8",
"N.	c #35349A",
"O.	c #333498",
"P.	c #E9FDFD",
"Q.	c #E4FBFB",
"R.	c #E5FCFC",
"S.	c #EEFFFF",
"T.	c #E9FFFF",
"U.	c #E7FEFD",
"V.	c #565CA9",
"W.	c #2D2E99",
"X.	c #34309B",
"Y.	c #115875",
"Z.	c #454747",
"`.	c #D4E2E2",
" +	c #404141",
".+	c #E5EFEF",
"++	c #1B1C1C",
"@+	c #2A2C2C",
"#+	c #121111",
"$+	c #7C8484",
"%+	c #F9FBF3",
"&+	c #FFD391",
"*+	c #B89999",
"=+	c #2C2D98",
"-+	c #5E6DAD",
";+	c #046B68",
">+	c #BDF2F2",
",+	c #95E6E6",
"'+	c #95E9E9",
")+	c #000000",
"!+	c #5A9090",
"~+	c #7ABEBE",
"{+	c #476E6E",
"]+	c #3F6161",
"^+	c #8BD4D4",
"/+	c #142020",
"(+	c #C6E8D4",
"_+	c #FFCC97",
":+	c #FFCD97",
"<+	c #B399A2",
"[+	c #D8EEEF",
"}+	c #006666",
"|+	c #5F5F5F",
"1+	c #7D8585",
"2+	c #191717",
"3+	c #BFC2C2",
"4+	c #6B6F6F",
"5+	c #EEFAFA",
"6+	c #FCFFFF",
"7+	c #1C1D1D",
"8+	c #D8CDBC",
"9+	c #FEC994",
"0+	c #F8E5CA",
"a+	c #D7F9F9",
"b+	c #BADCDC",
"c+	c #D8FDFD",
"d+	c #C0E3E3",
"e+	c #CEF2F2",
"f+	c #BEE0E0",
"g+	c #D3F8F8",
"h+	c #D8FBFB",
"i+	c #B5D7D7",
"j+	c #A8CACB",
"k+	c #CFF6F8",
"l+	c #D5F8F9",
"m+	c #E0FBFB",
"n+	c #DAEDED",
"o+	c #CFF6F6",
"p+	c #BCF0F0",
"q+	c #BBF0F0",
"r+	c #C5F3F3",
"s+	c #DCEEEE",
"t+	c #DAEEEE",
"u+	c #3D8D8D",
"v+	c #A6CFCF",
"w+	c #A5CFCF",
"x+	c #A7CFCF",
"y+	c #539A9A",
"z+	c #006464",
"A+	c #005E5E",
"B+	c #005F5F",
"          .     +     @     #                   ",
"    $ % & * = - ; > , ' > = ) ! % ~             ",
"    { ] ^ / ( _ : < [ } | 1 2 3 4 5 6           ",
"    7 8 9 0 a b c d e f g h i j k l m           ",
"    7 n o ] n p q 8 8 o p n o 4 n l m           ",
"    7 n n n n n n n n n n n n n n l m           ",
"    7 k 8 8 8 r r r 8 8 8 8 8 8 k s m     t     ",
"    u v w x y z A B C D D D D E F G m   H I J   ",
"    7 K K K L M N O P Q K K K K K l R S T U V   ",
"    W X Y Z `  ...+.@.#.$.%.&.*.=.-.;.>.T T ,.  ",
"    '.( ).!.~.{.].^./.(._.:.<.<.Q [.}.T T |.    ",
"    '.1.2.3.4.5.6.7.8.(.(.9.<.Q ( 0.T T T       ",
"    W a.b.c.d.e.f.g.h.i.i.j.k.l.m.n.T T o.      ",
"    7 n p.q.r.s.t.u.v.w.x.y.r z.A.T T B.        ",
"    u C.D.E.F.G.H.I.J.K.K.L.M.N.T T O.          ",
"    7 P.Q.k R.S.R.8 k o T.U.V.W.T X.Y.          ",
"    7 r <.Z.`. +.+++@+#+$+%+&+*+=+-+;+          ",
"    u >+,+'+)+!+~+{+]+^+/+(+_+:+<+[+}+          ",
"    7 p <.|+1+2+3+4+5+6+7+8+9+0+8 s m           ",
"    7 R.a+b+c+d+e+f+g+h+i+j+k+l+m+n+m           ",
"    u o+p+q+p+q+p+q+p+p+q+q+p+p+r+s+m           ",
"    7 n K K K K K K K K K K K K K t+}+          ",
"    u+v+w+w+w+w+w+w+w+w+w+w+w+w+x+y+z+          ",
"      A+B+B+B+B+B+B+B+B+B+B+B+B+B+6 }+          "};
