/* XPM */
static char * wxmedit0_xpm[] = {
"48 48 607 2",
"  	c None",
". 	c #14A1A1",
"+ 	c #7CC1C1",
"@ 	c #1EA3A3",
"# 	c #57B6B6",
"$ 	c #42ADAD",
"% 	c #46B3B3",
"& 	c #26A7A7",
"* 	c #006464",
"= 	c #1E7979",
"- 	c #207B7B",
"; 	c #1D7979",
"> 	c #449797",
", 	c #17A0A0",
"' 	c #5BA7A7",
") 	c #227C7C",
"! 	c #429090",
"~ 	c #22A1A1",
"{ 	c #4CA9A9",
"] 	c #267F7F",
"^ 	c #217A7A",
"/ 	c #399D9D",
"( 	c #4AB7B7",
"_ 	c #2C8686",
": 	c #3F9696",
"< 	c #28A9A9",
"[ 	c #4F9E9E",
"} 	c #237C7C",
"| 	c #1E7A7A",
"1 	c #096C6C",
"2 	c #0B6D6D",
"3 	c #7BB5B5",
"4 	c #ACD4D4",
"5 	c #AFD6D6",
"6 	c #B1D6D6",
"7 	c #A3D2D2",
"8 	c #1CA3A3",
"9 	c #9ED1D1",
"0 	c #B0D6D6",
"a 	c #B2D7D7",
"b 	c #35ACAC",
"c 	c #78C4C4",
"d 	c #B5D8D8",
"e 	c #7AC4C4",
"f 	c #3BAFAF",
"g 	c #A4D3D3",
"h 	c #B1D7D7",
"i 	c #98CFCF",
"j 	c #24A7A7",
"k 	c #9FD1D1",
"l 	c #AED5D5",
"m 	c #8CBFBF",
"n 	c #006262",
"o 	c #005A5A",
"p 	c #65A6A6",
"q 	c #EBFCFC",
"r 	c #F5FFFF",
"s 	c #FAFFFF",
"t 	c #D4F2F2",
"u 	c #1CA4A4",
"v 	c #C3E9E9",
"w 	c #F6FFFF",
"x 	c #EDFDFD",
"y 	c #41B3B3",
"z 	c #87CECE",
"A 	c #FCFFFF",
"B 	c #9AD9D9",
"C 	c #34AAAA",
"D 	c #E4FBFB",
"E 	c #C8EDED",
"F 	c #20A4A4",
"G 	c #CAEEEE",
"H 	c #F8FFFF",
"I 	c #84BBBB",
"J 	c #086B6B",
"K 	c #006666",
"L 	c #005858",
"M 	c #8FC2C2",
"N 	c #EEFEFE",
"O 	c #F0FFFF",
"P 	c #F1FFFF",
"Q 	c #E1F5F5",
"R 	c #87C0C0",
"S 	c #0A9B9B",
"T 	c #55A3A3",
"U 	c #E1F6F6",
"V 	c #B5D9D9",
"W 	c #179C9C",
"X 	c #41A0A0",
"Y 	c #AED6D6",
"Z 	c #F2FFFF",
"` 	c #C4E0E0",
" .	c #49A5A5",
"..	c #3DB3B3",
"+.	c #70B1B1",
"@.	c #EFFEFE",
"#.	c #DBF1F1",
"$.	c #76BABA",
"%.	c #1BA4A4",
"&.	c #56A2A2",
"*.	c #E9FBFB",
"=.	c #F7FFFF",
"-.	c #A5D0D0",
";.	c #137373",
">.	c #006565",
",.	c #005757",
"'.	c #91C3C3",
").	c #CBE9E9",
"!.	c #7AA7A7",
"~.	c #95B3B3",
"{.	c #619090",
"].	c #BDDEDE",
"^.	c #E7F9F9",
"/.	c #92BCBC",
"(.	c #7AA5A5",
"_.	c #8FA6A6",
":.	c #78B1B1",
"<.	c #F3FFFF",
"[.	c #B2D3D3",
"}.	c #659595",
"|.	c #A9BDBD",
"1.	c #4C8E8E",
"2.	c #C8E6E6",
"3.	c #6F9F9F",
"4.	c #A2B9B9",
"5.	c #4D8686",
"6.	c #D8EEEE",
"7.	c #A7D0D0",
"8.	c #147373",
"9.	c #EDFEFE",
"0.	c #8FBDBD",
"a.	c #518585",
"b.	c #559696",
"c.	c #ECFCFC",
"d.	c #F4FFFF",
"e.	c #B3D8D8",
"f.	c #578D8D",
"g.	c #438484",
"h.	c #CEE8E8",
"i.	c #D2EDED",
"j.	c #6AA0A0",
"k.	c #468080",
"l.	c #9AC7C7",
"m.	c #EFFFFF",
"n.	c #E8FAFA",
"o.	c #88B9B9",
"p.	c #4C8383",
"q.	c #66A2A2",
"r.	c #DEF5F5",
"s.	c #E3F8F8",
"t.	c #ECFEFE",
"u.	c #ECFDFD",
"v.	c #DEF6F6",
"w.	c #E3FCFC",
"x.	c #E2FBFB",
"y.	c #E1FBFB",
"z.	c #E2FCFB",
"A.	c #E9FDFD",
"B.	c #FFCD99",
"C.	c #FFCC99",
"D.	c #F0FEFE",
"E.	c #CEF6F6",
"F.	c #64DBDB",
"G.	c #56D7D7",
"H.	c #4FD5D5",
"I.	c #4DD5D5",
"J.	c #4ED6D5",
"K.	c #4CD4D5",
"L.	c #3EC5D0",
"M.	c #46CDD3",
"N.	c #50D9D6",
"O.	c #4ED5D5",
"P.	c #54D6D6",
"Q.	c #60D9D9",
"R.	c #A1EAEA",
"S.	c #FEFFFF",
"T.	c #A98C99",
"U.	c #D1AA99",
"V.	c #EBBD99",
"W.	c #FDFFFF",
"X.	c #F6FBFF",
"Y.	c #9492ED",
"Z.	c #6764EC",
"`.	c #6864ED",
" +	c #6965ED",
".+	c #8380EE",
"++	c #DEE1FA",
"@+	c #FFFFFF",
"#+	c #006566",
"$+	c #006765",
"%+	c #2F3099",
"&+	c #2E2F99",
"*+	c #655999",
"=+	c #BC9A99",
"-+	c #FFCE99",
";+	c #B2BDF0",
">+	c #0000E4",
",+	c #0506FA",
"'+	c #0607FA",
")+	c #0707F0",
"!+	c #6A70E3",
"~+	c #006665",
"{+	c #0E5E71",
"]+	c #37329B",
"^+	c #333399",
"/+	c #323299",
"(+	c #2C2D99",
"_+	c #3C3A99",
":+	c #A18599",
"<+	c #FFD299",
"[+	c #939BE9",
"}+	c #0201F2",
"|+	c #0E0FFF",
"1+	c #0A0AF9",
"2+	c #5054E4",
"3+	c #016766",
"4+	c #2D3F91",
"5+	c #333299",
"6+	c #313199",
"7+	c #383799",
"8+	c #C4A099",
"9+	c #FFD399",
"0+	c #F9FFFF",
"a+	c #979CEB",
"b+	c #0302F2",
"c+	c #0F0FFF",
"d+	c #0505FF",
"e+	c #4B50ED",
"f+	c #127670",
"g+	c #244A85",
"h+	c #5F5499",
"i+	c #C8F5F5",
"j+	c #4CD5D5",
"k+	c #3CD0D0",
"l+	c #34CDCD",
"m+	c #33CCCC",
"n+	c #33CDCC",
"o+	c #1F7CCA",
"p+	c #0101F2",
"q+	c #030CFD",
"r+	c #030CFC",
"s+	c #0C15F0",
"t+	c #8A8D4E",
"u+	c #C4CA11",
"v+	c #C1D511",
"w+	c #C1D412",
"x+	c #C0D312",
"y+	c #8BC73D",
"z+	c #30C9BC",
"A+	c #33CED0",
"B+	c #33CDCD",
"C+	c #3ACFCF",
"D+	c #47D3D3",
"E+	c #93E7E7",
"F+	c #A5D2CF",
"G+	c #2B6585",
"H+	c #313597",
"I+	c #353499",
"J+	c #FBFFFF",
"K+	c #FAF8F8",
"L+	c #F3BEBE",
"M+	c #EF9E9E",
"N+	c #EF9F9F",
"O+	c #F1A09F",
"P+	c #9261AE",
"Q+	c #0202F2",
"R+	c #0F0DFE",
"S+	c #0B0CFF",
"T+	c #61618A",
"U+	c #F6F500",
"V+	c #FAFA0D",
"W+	c #FFFF0F",
"X+	c #FFFF0E",
"Y+	c #FEFC10",
"Z+	c #E3E178",
"`+	c #ABC7D4",
" @	c #3F479D",
".@	c #EFFCFC",
"+@	c #E29A9A",
"@@	c #E30000",
"#@	c #F10000",
"$@	c #F10101",
"%@	c #F30100",
"&@	c #98014A",
"*@	c #0000F2",
"=@	c #0E02F5",
"-@	c #0E0CFD",
";@	c #0A0BFF",
">@	c #727372",
",@	c #F7F708",
"'@	c #F5F60D",
")@	c #FEFF0F",
"!@	c #FAFB10",
"~@	c #DBE063",
"{@	c #E8F6FA",
"]@	c #797BBD",
"^@	c #323199",
"/@	c #3A3999",
"(@	c #EDF3F3",
"_@	c #E16464",
":@	c #FB0505",
"<@	c #FF0F0F",
"[@	c #D70D2C",
"}@	c #2102C1",
"|@	c #0000EE",
"1@	c #0000EB",
"2@	c #0000EA",
"3@	c #0000EF",
"4@	c #696A69",
"5@	c #F7F808",
"6@	c #F9F90E",
"7@	c #DBE065",
"8@	c #A0A8D2",
"9@	c #36359A",
"0@	c #323298",
"a@	c #373699",
"b@	c #F8F6F6",
"c@	c #E46565",
"d@	c #FA0606",
"e@	c #FE0F0F",
"f@	c #D10C30",
"g@	c #A90340",
"h@	c #A572B0",
"i@	c #AFBAF8",
"j@	c #AEB6FA",
"k@	c #B9BD6E",
"l@	c #FCFD08",
"m@	c #FBFB10",
"n@	c #CDD7EA",
"o@	c #40419F",
"p@	c #302F97",
"q@	c #353599",
"r@	c #CAF5F5",
"s@	c #5DCDCD",
"t@	c #A15353",
"u@	c #F60404",
"v@	c #F50C0C",
"w@	c #F80C0B",
"x@	c #ED0301",
"y@	c #7D8684",
"z@	c #46DAD8",
"A@	c #47D6D8",
"B@	c #8CCA5E",
"C@	c #F8FC07",
"D@	c #F5FD0C",
"E@	c #F5FC0C",
"F@	c #F0F80D",
"G@	c #97CF53",
"H@	c #40D3DE",
"I@	c #48D3D3",
"J@	c #4CD4D4",
"K@	c #54D2D5",
"L@	c #4252A5",
"M@	c #312F98",
"N@	c #343499",
"O@	c #ECF3F3",
"P@	c #ED0404",
"Q@	c #E39F9F",
"R@	c #D8DF78",
"S@	c #FBFC07",
"T@	c #FAFB11",
"U@	c #D9E069",
"V@	c #EEFFFF",
"W@	c #8185C0",
"X@	c #2D2D96",
"Y@	c #E16565",
"Z@	c #FA0505",
"`@	c #E4A0A0",
" #	c #E7F4D0",
".#	c #DCDD16",
"+#	c #F4F618",
"@#	c #F3F419",
"##	c #E3E526",
"$#	c #E0EBBA",
"%#	c #B3BCDC",
"&#	c #2C2B95",
"*#	c #EFF9F9",
"=#	c #E38989",
"-#	c #ED0505",
";#	c #F70707",
">#	c #F70808",
",#	c #E71919",
"'#	c #E5B8B8",
")#	c #E9F6E2",
"!#	c #DDE7AE",
"~#	c #DEE8B0",
"{#	c #DEE8B1",
"]#	c #E8F3D9",
"^#	c #D3DFEE",
"/#	c #3E3D9E",
"(#	c #35339A",
"_#	c #EBE6E6",
":#	c #DD8080",
"<#	c #E06767",
"[#	c #E06969",
"}#	c #E06868",
"|#	c #DF6969",
"1#	c #DF9F9F",
"2#	c #EBF5F5",
"3#	c #EEFEFF",
"4#	c #E2F2F7",
"5#	c #6164B1",
"6#	c #35329B",
"7#	c #2C448C",
"8#	c #D4F8F8",
"9#	c #7FE1E1",
"0#	c #76E2E2",
"a#	c #72E4E4",
"b#	c #6FDEDE",
"c#	c #6FE0E0",
"d#	c #71E5E5",
"e#	c #71DFDF",
"f#	c #70DEDE",
"g#	c #71DFDE",
"h#	c #72DFDE",
"i#	c #6085BB",
"j#	c #35309B",
"k#	c #28458A",
"l#	c #056568",
"m#	c #E8FDFD",
"n#	c #D0F7F7",
"o#	c #CFF6F6",
"p#	c #CEF7F7",
"q#	c #D1FAF8",
"r#	c #8FB3D6",
"s#	c #313A9B",
"t#	c #33329A",
"u#	c #323A94",
"v#	c #09606D",
"w#	c #E3ECF0",
"x#	c #9184AB",
"y#	c #443F97",
"z#	c #343399",
"A#	c #135876",
"B#	c #8F9898",
"C#	c #535858",
"D#	c #E6F4F4",
"E#	c #BEC9C9",
"F#	c #595F5F",
"G#	c #CFDCDC",
"H#	c #858D8D",
"I#	c #232626",
"J#	c #353838",
"K#	c #7F8787",
"L#	c #484D4D",
"M#	c #1F2020",
"N#	c #767E7E",
"O#	c #ECFBFB",
"P#	c #F5F0E1",
"Q#	c #FFCC93",
"R#	c #FFCF99",
"S#	c #AD8E99",
"T#	c #403D99",
"U#	c #35339B",
"V#	c #416198",
"W#	c #106E70",
"X#	c #95A1A1",
"Y#	c #040505",
"Z#	c #545A5A",
"`#	c #C8D4D4",
" $	c #1B1D1D",
".$	c #313636",
"+$	c #D3E4E4",
"@$	c #A3AFAF",
"#$	c #000000",
"$$	c #222727",
"%$	c #1F2323",
"&$	c #141717",
"*$	c #232828",
"=$	c #97A2A2",
"-$	c #F6E6CC",
";$	c #FFC994",
">$	c #DEB399",
",$	c #4B4699",
"'$	c #2E2F98",
")$	c #6667B4",
"!$	c #90B7C3",
"~$	c #177675",
"{$	c #E0FBFB",
"]$	c #A7ECEC",
"^$	c #9DE9E9",
"/$	c #99E8E8",
"($	c #A1F3F3",
"_$	c #438383",
":$	c #010404",
"<$	c #191A1A",
"[$	c #0E2020",
"}$	c #68B4B4",
"|$	c #A7FCFC",
"1$	c #4B7373",
"2$	c #89D6D6",
"3$	c #80C5C5",
"4$	c #588888",
"5$	c #8EDBDB",
"6$	c #0A1010",
"7$	c #406060",
"8$	c #A2EEEC",
"9$	c #E3D6B3",
"0$	c #FFCB96",
"a$	c #FFD099",
"b$	c #D5AC98",
"c$	c #4746A0",
"d$	c #C2CAE6",
"e$	c #AFD9D5",
"f$	c #DDFAFA",
"g$	c #A9ECEC",
"h$	c #A5EBEB",
"i$	c #A9F1F1",
"j$	c #9DDFDF",
"k$	c #0F1313",
"l$	c #344949",
"m$	c #AAF3F3",
"n$	c #AEF9F9",
"o$	c #517474",
"p$	c #A0E4E4",
"q$	c #93D1D1",
"r$	c #1A1D1D",
"s$	c #6C9797",
"t$	c #A1E5E5",
"u$	c #0D1212",
"v$	c #446060",
"w$	c #AFF0ED",
"x$	c #EACFA5",
"y$	c #FFCC98",
"z$	c #FFCA96",
"A$	c #FFCE9C",
"B$	c #BEBED2",
"C$	c #A7D1D1",
"D$	c #F0FAFA",
"E$	c #515353",
"F$	c #525858",
"G$	c #8B9090",
"H$	c #797F7F",
"I$	c #ECF7F7",
"J$	c #EFFBFB",
"K$	c #C6D2D2",
"L$	c #E4F0F0",
"M$	c #E7F1F1",
"N$	c #131414",
"O$	c #656969",
"P$	c #FFDBAA",
"Q$	c #FFC993",
"R$	c #FBDCB8",
"S$	c #F4F4E9",
"T$	c #F2FFFD",
"U$	c #97A1A1",
"V$	c #E1EFEF",
"W$	c #424646",
"X$	c #0E0F0F",
"Y$	c #C2CECE",
"Z$	c #787F7F",
"`$	c #E8F7F7",
" %	c #0D0D0D",
".%	c #5F6565",
"+%	c #E6F4F3",
"@%	c #5A4836",
"#%	c #E3B384",
"$%	c #FFDAB1",
"%%	c #F4F2E5",
"&%	c #F1FCFA",
"*%	c #BCC8C8",
"=%	c #A4AEAE",
"-%	c #EEFDFD",
";%	c #D8E6E6",
">%	c #959F9F",
",%	c #CAD7D7",
"'%	c #868F8F",
")%	c #879090",
"!%	c #545958",
"~%	c #D0DBD9",
"{%	c #C1F3F3",
"]%	c #B6F0F0",
"^%	c #B2EFEF",
"/%	c #B4F2F2",
"(%	c #B6F4F4",
"_%	c #B1EFEF",
":%	c #B3F0F0",
"<%	c #B7F4F4",
"[%	c #B2F0F0",
"}%	c #B4F1F1",
"|%	c #B8F5F5",
"1%	c #B1EEEE",
"2%	c #BBF9F9",
"3%	c #B3F1F1",
"4%	c #BDF2F2",
"5%	c #DBF9F9",
"6%	c #D3F8F8",
"7%	c #8AE4E4",
"8%	c #86E3E3",
"9%	c #83E3E3",
"0%	c #82E3E3",
"a%	c #85E3E3",
"b%	c #8AE5E5",
"c%	c #92C4C4",
"d%	c #157373",
"e%	c #85BBBB",
"f%	c #9ECACA",
"g%	c #0F7070",
"h%	c #237D7D",
"i%	c #D9F1F1",
"j%	c #E6F8F8",
"k%	c #509999",
"l%	c #006363",
"m%	c #479393",
"n%	c #4D9898",
"o%	c #4A9595",
"p%	c #016666",
"                                                                                                ",
"                    . +         @ #         $ %           &                                     ",
"          * = - ; > , ' ) - = ! ~ { ] - - ^ / ( _ - - = : < [ } - | 1                           ",
"        2 3 4 5 6 7 8 9 0 5 0 a b c 5 5 5 d e f g 5 5 h i j k 0 5 l m ] n                       ",
"      o p q r r s t u v w r w x y z w r r A B C D r r s E F G w r r H I J K                     ",
"      L M N O P Q R S T U P O V W X Y P Z `  ...+.@.P #.$.%.&.*.O O =.-.;.>.                    ",
"      ,.'.N O Z ).!.~.{.].Z ^./.(._.:.Z <.[.}.|.1.@.P 2.3.4.5.6.P O =.7.8.>.K                   ",
"      ,.'.N O O 9.0.a.b.c.O d.e.f.g.h.O Z i.j.k.l.m.O n.o.p.q.q O O =.7.8.>.K                   ",
"      ,.'.N O O P d.r.r P O O w s.t.<.O O d.u.s.r O O P Z v.r P O O =.7.8.>.K                   ",
"      ,.'.N O O O O <.P O O O O Z P O O O O P Z O O O O P <.P O O O =.7.8.>.K                   ",
"      ,.'.N O O O O O O O O O O O O O O O O O O O O O O O O O O O O =.7.8.>.K                   ",
"      ,.'.N O O O O O O O O O O O O O O O O O O O O O O O O O O O O =.7.8.>.K                   ",
"      ,.'.N O O O O O O O O O O O O O O O O O O O O O O O O O O O O =.7.8.>.K                   ",
"      ,.'.N 9.w.x.x.y.y.y.y.x.z.z.z.z.z.z.y.y.y.y.y.y.y.y.y.y.x.w.A.=.7.8.>.K     B.C.C.C.      ",
"      ,.'.D.E.F.G.H.I.I.I.J.K.L.L.L.L.L.M.N.I.I.I.I.I.I.I.I.O.P.Q.R.S.7.8.>.K   T.U.V.B.C.C.    ",
"      ,.'.N <.A W.W.W.W.W.X.Y.Z.`. + + +.+++@+W.W.W.W.W.W.W.W.W.A =.w 7.8.#+$+  %+&+*+=+-+C.C.  ",
"      ,.'.N O O O O O O P ;+>+,+'+'+'+'+)+!+s O O O O O O O O O O O =.7.8.~+{+]+^+/+(+_+:+<+C.  ",
"      ,.'.N O O O O O O Z [+}+|+|+|+|+|+1+2+=.P O O O O O O O O O O =.7.8.3+4+5+^+^+^+6+7+8+9+  ",
"      ,.'.N Z =.H H =.=.0+a+b+c+|+|+|+|+d+e+H Z P P <.=.=.=.H H =.d.w 7.f+g+^+^+^+^+^+^+/+h+    ",
"      ,.'.D.i+j+k+l+m+m+n+o+p+q+r+r+r+s+t+u+v+w+w+x+y+z+A+B+B+C+D+E+@+F+G+H+^+^+^+^+^+^+I+      ",
"      ,.'.N <.J+K+L+M+N+O+P+Q+R+c+c+S+T+U+V+W+X+X+X+Y+Z+S.A A A J+w w `+ @5+^+^+^+^+^+^+        ",
"      ,.'.N O .@+@@@#@$@%@&@*@=@-@|+;@>@,@'@W+)@)@)@!@~@Z O O O O Z {@]@^@^+^+^+^+^+^+/@        ",
"      ,.'.N O (@_@:@<@<@<@[@}@|@1@2@3@4@5@6@)@)@)@)@!@7@<.P P P O @.8@9@0@^+^+^+^+^+a@          ",
"      ,.'.N <.b@c@d@<@<@<@e@f@g@h@i@j@k@l@W+W+W+W+W+m@7@w d.d.w s n@o@p@^+^+^+^+^+q@            ",
"      ,.'.D.r@s@t@u@v@v@v@v@w@x@y@z@A@B@C@D@E@E@E@E@F@G@H@D+I@J@K@L@M@^+^+^+^+^+N@              ",
"      ,.'.N O O@_@d@e@e@e@e@<@P@Q@m.O R@S@)@)@)@)@)@T@U@O m.V@Z W@X@^+^+^+^+^+^+a@              ",
"      ,.'.N O (@Y@Z@<@e@e@e@<@P@`@P O  #.#+#@#@#@#@###$#P O d.%#&#^+^+^+^+^+^+N@                ",
"      ,.'.N O *#=#-#;#>#>#>#;#,#'#P P P )#!#~#~#~#{#]#<.O w ^#/#^+^+^+^+^+^+(#                  ",
"      ,.'.N Z r _#:#<#[#[#}#|#1#2#V@N 3#m.m.m.m.m.m.m.N O 4#5#/+^+^+^+^+^+6#7#                  ",
"      ,.'.D.8#9#0#a#b#b#b#b#c#d#e#f#f#f#f#f#f#f#f#f#f#g#h#i#9@^+^+^+^+^+j#k#l#                  ",
"      ,.'.@.m#n#o#E.p#p#p#p#p#E.E.E.E.E.E.E.E.E.E.E.E.q#r#s#0@^+^+^+^+t#u#v#K                   ",
"      ,.'.N O O O O d.r P O Z r Z O d.=.w d.w =.d.O P w#x#y#%+^+^+^+^+z#A#K K                   ",
"      ,.'.N O O O 0+B#C#D#O E#F#G#w H#I#J#K#L#M#N#O#O P#Q#R#S#T#^+^+U#V#W#K K                   ",
"      ,.'.N P m.9.r X#Y#Z#`# $.$+$@$#$$$%$#$&$*$#$=$P -$;$C.9+>$,$'$)$!$~$>.K                   ",
"      ,.'.@.{$]$^$/$($_$:$<$[$}$|$1$#$2$3$#$4$5$6$7$8$9$0$C.C.a$b$c$d$e$8.>.K                   ",
"      ,.'.@.f$g$]$h$i$j$k$#$l$m$n$o$#$p$q$r$s$t$u$v$w$x$y$C.C.z$A$B$0+C$8.>.K                   ",
"      ,.'.N P d.r w D$E$#$F$#$G$@+H$#$I$J$K$L$M$N$O$@+P$B.0$Q$R$S$T$=.7.8.>.K                   ",
"      ,.'.N O O O J+N##$U$V$W$X$Y$Z$#$`$P P <.V$ %.%+%@%#%$%%%&%O O =.7.8.>.K                   ",
"      ,.'.N O O O d.*%=%-%O ;%>%V$,%'%Z O O O r )%K$V$!%~%<.O O O O =.7.8.>.K                   ",
"      ,.'.@.A.{%]%^%/%(%_%_%:%<%[%}%|%_%_%_%_%1%|%}%[%2%3%_%^%]%4%5%0+7.8.>.K                   ",
"      ,.'.D.6%7%8%9%0%9%9%9%9%9%9%9%9%9%9%9%9%9%9%9%9%9%9%9%0%a%b%1%A 7.8.>.K                   ",
"      ,.'.N Z 0+0+0+0+0+0+0+0+0+0+0+0+0+0+0+0+0+0+0+0+0+0+0+0+0+0+r w 7.8.>.K                   ",
"      ,.c%N O O O O O O O O O O O O O O O O O O O O O O O O O O O O =.C$d%>.K                   ",
"      L e%x O O O O O O O O O O O O O O O O O O O O O O O O O O O O 0+f%g%K K                   ",
"        h%i%<.<.<.<.<.<.<.<.<.<.<.<.<.<.<.<.<.<.<.<.<.<.<.<.<.<.<.r j%k%l%K K                   ",
"        l%1 m%n%n%n%n%n%n%n%n%n%n%n%n%n%n%n%n%n%n%n%n%n%n%n%n%n%n%o%= l%p%K                     ",
"            n n n n n n n n n n n n n n n n n n n n n n n n n n n n * K K K                     ",
"              K K K K K K K K K K K K K K K K K K K K K K K K K K K K K                         "};
