/* XPM */
static char * wxmedit_xpm[] = {
"48 48 120 2",
"  	c None",
". 	c #4D4D4D",
"+ 	c #818181",
"@ 	c #B4B4B4",
"# 	c #B8B8B8",
"$ 	c #A7A7A7",
"% 	c #FFFFFF",
"& 	c #4C4C4C",
"* 	c #5D5D5D",
"= 	c #FCFCFC",
"- 	c #5C5C5C",
"; 	c #787878",
"> 	c #4E4E4E",
", 	c #7A7A7A",
"' 	c #B1B1FF",
") 	c #6E6EFF",
"! 	c #6666FF",
"~ 	c #6F6FFF",
"{ 	c #B3B3FF",
"] 	c #9A9AFF",
"^ 	c #0000FF",
"/ 	c #9F9FFF",
"( 	c #4848FF",
"_ 	c #4B4BFF",
": 	c #3E3EFF",
"< 	c #4141FF",
"[ 	c #211ADE",
"} 	c #8E7271",
"| 	c #C09E55",
"1 	c #FFDD55",
"2 	c #FFE371",
"3 	c #FFF8DE",
"4 	c #0A08F5",
"5 	c #E3B61C",
"6 	c #FFCC00",
"7 	c #FFD21D",
"8 	c #FFFDF5",
"9 	c #FFE8E8",
"0 	c #FFC7C7",
"a 	c #FFC6C6",
"b 	c #3E30F1",
"c 	c #382DC7",
"d 	c #FFF4C6",
"e 	c #FFB0B0",
"f 	c #FF2D2D",
"g 	c #FF2A2A",
"h 	c #3F0ACA",
"i 	c #4033BF",
"j 	c #FFF2BE",
"k 	c #FF4646",
"l 	c #6E12A3",
"m 	c #FF3333",
"n 	c #EE2738",
"o 	c #550EB8",
"p 	c #1604ED",
"q 	c #1109F7",
"r 	c #1111FF",
"s 	c #4D40BF",
"t 	c #F5F9F2",
"u 	c #7AAC59",
"v 	c #69A244",
"w 	c #6DA449",
"x 	c #D8E7CE",
"y 	c #FF8B8B",
"z 	c #FFF2BF",
"A 	c #B5D1A2",
"B 	c #338000",
"C 	c #7BAD5A",
"D 	c #FFF3C2",
"E 	c #FFF3C1",
"F 	c #B0CE9C",
"G 	c #76AA54",
"H 	c #FFFBEC",
"I 	c #FFCE0B",
"J 	c #FFFBED",
"K 	c #EDF4E8",
"L 	c #5D9A35",
"M 	c #4A8E1D",
"N 	c #398307",
"O 	c #519225",
"P 	c #C7DCB9",
"Q 	c #FFF1B9",
"R 	c #FFD83A",
"S 	c #FFD322",
"T 	c #DEEBD6",
"U 	c #5D9A34",
"V 	c #FF4747",
"W 	c #FF9F9F",
"X 	c #FFB6B6",
"Y 	c #FF3030",
"Z 	c #FF4E4E",
"` 	c #FFF1F1",
" .	c #000000",
"..	c #9A9A9A",
"+.	c #FFEDED",
"@.	c #FFCACA",
"#.	c #FFD4D4",
"$.	c #FFFBFB",
"%.	c #B2B2B2",
"&.	c #D9D9D9",
"*.	c #E9E9E9",
"=.	c #C7C7C7",
"-.	c #7C7C7C",
";.	c #F6FAF4",
">.	c #81B061",
",.	c #619C39",
"'.	c #3E870E",
").	c #71A74E",
"!.	c #DCE9D3",
"~.	c #B6D2A4",
"{.	c #7DAE5C",
"].	c #AFCD9B",
"^.	c #75A953",
"/.	c #E9F2E4",
"(.	c #539428",
"_.	c #418811",
":.	c #458B17",
"<.	c #C2D9B3",
"[.	c #A6A6A6",
"}.	c #808080",
"          . . . . . . . . . . . . . . . . . . . . . . . . . . . . . . . . . . . . . .           ",
"        . . . . . . . . . . . . . . . . . . . . . . . . . . . . . . . . . . . . . . . .         ",
"      . . . . . . . . . . . . . . . . . . . . . . . . . . . . . . . . . . . . . . . . . .       ",
"    . . . . + @ # # # # # # # # # # # # # # # # # # # # # # # # # # # # # # # # @ + . . . .     ",
"    . . . $ % % % % % % % % % % % % % % % % % % % % % % % % % % % % % % % % % % % % $ . . .     ",
"  & . . * = % % % % % % % % % % % % % % % % % % % % % % % % % % % % % % % % % % % % = - . . .   ",
"  . . . ; % % % % % % % % % % % % % % % % % % % % % % % % % % % % % % % % % % % % % % ; . . .   ",
"  > . . , % % % % % % % % % % % % % % % % % % % % % % % % % % % % % % % % % % % % % % , . . .   ",
"  > . . , % % % % % % % % % % % % % % % % % % % % % % % % % % % % % % % % % % % % % % , . . .   ",
"  > . . , % % % % % % % % % % % % % % % % % % % % % % % % % % % % % % % % % % % % % % , . . .   ",
"  > . . , % % % % % % % % % % ' ) ! ! ! ! ~ { % % % % % % % % % % % % % % % % % % % % , . . .   ",
"  > . . , % % % % % % % % % ] ^ ^ ^ ^ ^ ^ ^ ^ / % % % % % % % % % % % % % % % % % % % , . . .   ",
"  > . . , % % % % % % % % % ( ^ ^ ^ ^ ^ ^ ^ ^ _ % % % % % % % % % % % % % % % % % % % , . . .   ",
"  > . . , % % % % % % % % % : ^ ^ ^ ^ ^ ^ ^ ^ < % % % % % % % % % % % % % % % % % % % , . . .   ",
"  > . . , % % % % % % % % % : ^ ^ ^ ^ ^ ^ [ } | 1 1 1 1 2 3 % % % % % % % % % % % % % , . . .   ",
"  > . . , % % % % % % % % % : ^ ^ ^ ^ ^ 4 5 6 6 6 6 6 6 6 7 8 % % % % % % % % % % % % , . . .   ",
"  > . . , % % % % 9 0 a a a b ^ ^ ^ ^ ^ c 6 6 6 6 6 6 6 6 6 d % % % % % % % % % % % % , . . .   ",
"  > . . , % % % e f g g g g h ^ ^ ^ ^ ^ i 6 6 6 6 6 6 6 6 6 j % % % % % % % % % % % % , . . .   ",
"  > . . , % % % k g g g g g l ^ ^ ^ ^ ^ i 6 6 6 6 6 6 6 6 6 j % % % % % % % % % % % % , . . .   ",
"  > . . , % % % m g g g g g n o p q r r s 6 6 6 6 6 6 6 6 6 j % % t u v v v v w x % % , . . .   ",
"  > . . , % % % m g g g g g g g g y % % z 6 6 6 6 6 6 6 6 6 j % % A B B B B B B C % % , . . .   ",
"  > . . , % % % m g g g g g g g g y % % D 6 6 6 6 6 6 6 6 6 E % % F B B B B B B G % % , . . .   ",
"  > . . , % % % m g g g g g g g g y % % H I 6 6 6 6 6 6 6 I J % % K L M B B N O P % % , . . .   ",
"  > . . , % % % m g g g g g g g g y % % % Q R S S S S S R Q % % % % % T B B U % % % % , . . .   ",
"  > . . , % % % V g g g g g g g g W % % % % % % % % % % % % % % % % % T B B U % % % % , . . .   ",
"  > . . , % % % X Y g g g g g g Z ` % % % % % % % % % % % %  . ...% % T B B U % % % % , . . .   ",
"  > . . , % % % % +.@.a a a a #.$.% % % % % % % % % % % % %. . . .% % T B B U % % % % , . . .   ",
"  > . . , % % % % % % % % % % % % % % % % % %  . ...% % &. . . ...% % T B B U % % % % , . . .   ",
"  > . . , % % % % %.*.% % % %  . .% % % % % %  . . .% *. . . . .*.% % T B B U % % % % , . . .   ",
"  > . . , % % % =. . .*.% *. . . .. % % % % .. . . .%  . . . . .% % % T B B U % % % % , . . .   ",
"  > . . , % % % %  . . .*. . . . .*.% % % *. . . . . . . . . . .% % % T B B U % % % % , . . .   ",
"  > . . , % % % % .. . . . . . .% % % % %  . . . . . . .*. . .%.% % % T B B U % % % % , . . .   ",
"  > . . , % % % % %  . . . . .% % % % %  . . . . . . .=.%  . .*.% % % T B B U % % % % , . . .   ",
"  > . . , % % % % %  . . . .% % % % % -. . .-. . . .-.% &. . .% % % % T B B U % % % % , . . .   ",
"  > . . , % % % % -. . . . .% % % % .. . . .*. . . .% % %. . .% % % % T B B U % % % % , . . .   ",
"  > . . , % % % -. . . . . .-.% % %  . . .% *. . .% % %  . . .% % % % T B B U % % % % , . . .   ",
"  > . . , % % %  . . .*.-. . .% % % =. .=.% % % % % % %  . . .% % ;.>.,.B B '.).!.% % , . . .   ",
"  > . . , % % % .. .=.% %. . .% % % % % % % % % % % % %  . ...% % ~.B B B B B B {.% % , . . .   ",
"  > . . , % % % % % % % %  . .% % % % % % % % % % % % % % % % % % ].B B B B B B ^.% % , . . .   ",
"  > . . , % % % % % % % % % % % % % % % % % % % % % % % % % % % % /.(._._._._.:.<.% % , . . .   ",
"  > . . , % % % % % % % % % % % % % % % % % % % % % % % % % % % % % % % % % % % % % % , . . .   ",
"  . . . ; % % % % % % % % % % % % % % % % % % % % % % % % % % % % % % % % % % % % % % ; . . .   ",
"  & . . * = % % % % % % % % % % % % % % % % % % % % % % % % % % % % % % % % % % % % = - . . &   ",
"    . . . $ % % % % % % % % % % % % % % % % % % % % % % % % % % % % % % % % % % % % [.. . .     ",
"    . . . . + @ # # # # # # # # # # # # # # # # # # # # # # # # # # # # # # # # @ }.. . . .     ",
"      . . . . . . . . . . . . . . . . . . . . . . . . . . . . . . . . . . . . . . . . . .       ",
"        . . . . . . . . . . . . . . . . . . . . . . . . . . . . . . . . . . . . . . . .         ",
"          > . . . . . . . . . . . . . . . . . . . . . . . . . . . . . . . . . . . . >           "};
