/* XPM */
static char * wxmedit_24x24_xpm[] = {
"24 24 90 1",
" 	c None",
".	c #4D4D4D",
"+	c #8B8B8B",
"@	c #AFAFAF",
"#	c #B8B8B8",
"$	c #FFFFFF",
"%	c #B5B5B5",
"&	c #D0D0D0",
"*	c #C1C1FF",
"=	c #7C7CFF",
"-	c #C6C6FF",
";	c #0000FF",
">	c #8F71DD",
",	c #ECBF7C",
"'	c #FFD77C",
")	c #FFDE99",
"!	c #FFD3D3",
"~	c #FFACAC",
"{	c #7C51F1",
"]	c #CBA2AA",
"^	c #FFCC00",
"/	c #FFF6E8",
"(	c #FF2A2A",
"_	c #AA18CB",
":	c #FFF6E7",
"<	c #D0DACE",
"[	c #CDD8CB",
"}	c #FBFBFA",
"|	c #FF8181",
"1	c #FFE2AA",
"2	c #E8EDE7",
"3	c #338000",
"4	c #D2DBD0",
"5	c #FFEED1",
"6	c #FFCE38",
"7	c #FFDA85",
"8	c #E6E6E6",
"9	c #D2D3D1",
"0	c #CBD6C9",
"a	c #A6BBA2",
"b	c #F7F9F7",
"c	c #FF7575",
"d	c #FFA5A5",
"e	c #909090",
"f	c #F8F8F8",
"g	c #616161",
"h	c #C5C5C5",
"i	c #FCFDFC",
"j	c #FFFEFE",
"k	c #F6DDDD",
"l	c #FFE8E8",
"m	c #F6E1E1",
"n	c #FAFAFA",
"o	c #F1F1F1",
"p	c #313131",
"q	c #727272",
"r	c #8F8F8F",
"s	c #535353",
"t	c #CECECE",
"u	c #A2A2A2",
"v	c #A0A0A0",
"w	c #F6F6F6",
"x	c #CFCFCF",
"y	c #B1B1B1",
"z	c #505050",
"A	c #EBEBEB",
"B	c #9B9B9B",
"C	c #E7E7E7",
"D	c #AAAAAA",
"E	c #F4F4F4",
"F	c #9A9A9A",
"G	c #D5D5D5",
"H	c #7E7E7E",
"I	c #747474",
"J	c #ECECEC",
"K	c #8A8A8A",
"L	c #919191",
"M	c #989898",
"N	c #E2E2E2",
"O	c #000000",
"P	c #E8E8E8",
"Q	c #888888",
"R	c #383838",
"S	c #D2D6D2",
"T	c #82A47A",
"U	c #6C9761",
"V	c #E4E9E3",
"W	c #F1F4F1",
"X	c #46862E",
"Y	c #E2E8E1",
"  ....................  ",
" ..+@@@@@@@@@@@@@@@@+.. ",
" .#$$$$$$$$$$$$$$$$$$%. ",
" .&$$$$$$$$$$$$$$$$$$&. ",
" .&$$$$$$$$$$$$$$$$$$&. ",
" .&$$$$*===-$$$$$$$$$&. ",
" .&$$$$=;;;=$$$$$$$$$&. ",
" .&$$$$=;;>,'')$$$$$$&. ",
" .&$!~~{;;]^^^^/$$$$$&. ",
" .&$(((_;;]^^^^:$<[[}&. ",
" .&$((((|$1^^^^:23334&. ",
" .&$((((|$56^^78903ab&. ",
" .&$c(((d$e&$$fghi3[$&. ",
" .&$jklmnopq$$rsti3[$&. ",
" .&$ouovwxyzA#BrCi3[$&. ",
" .&$$DBE$FGhHgnIJi3[$&. ",
" .&$oKLn$zCnMN$O$i3[$&. ",
" .&$+oPQJOJ$$$$RPi3[$&. ",
" .&$J$$wno$$$$$hST3UV&. ",
" .&$$$$$$$$$$$$$WX33Y&. ",
" .&$$$$$$$$$$$$$$$$$$&. ",
" .#$$$$$$$$$$$$$$$$$$%. ",
" ..+@@@@@@@@@@@@@@@@+.. ",
"  ....................  "};
