/* XPM */
static char * wxmedit_24x24_xpm[] = {
"24 24 77 1",
" 	c None",
".	c #4C4C4C",
"+	c #4E4E4E",
"@	c #4D4D4D",
"#	c #717171",
"$	c #888888",
"%	c #919191",
"&	c #FFFFFF",
"*	c #909090",
"=	c #BBBBBB",
"-	c #BCBCBC",
";	c #9292FF",
">	c #3535FF",
",	c #3333FF",
"'	c #9494FF",
")	c #2121FF",
"!	c #0000FF",
"~	c #2323FF",
"{	c #1F1FFF",
"]	c #4436BB",
"^	c #D0A836",
"/	c #FFD633",
"(	c #FFDE5B",
"_	c #FFFEFC",
":	c #FFB1B1",
"<	c #FF7F7F",
"[	c #1F0FEF",
"}	c #9E7E61",
"|	c #FFCC00",
"1	c #FFF9E0",
"2	c #FF3232",
"3	c #FF2A2A",
"4	c #6C12A5",
"5	c #0401FC",
"6	c #A18160",
"7	c #FFF8DE",
"8	c #FDFEFD",
"9	c #B6D2A4",
"0	c #ADCC99",
"a	c #B1CF9E",
"b	c #F7FAF5",
"c	c #FF2E2E",
"d	c #FF5A5A",
"e	c #FFDF60",
"f	c #FFF9DF",
"g	c #DDEAD4",
"h	c #338000",
"i	c #BFD7AF",
"j	c #FFEEAC",
"k	c #FFD117",
"l	c #FFCF11",
"m	c #FFD940",
"n	c #FFFEFA",
"o	c #FCFDFB",
"p	c #A0C488",
"q	c #78AB56",
"r	c #F3F8F0",
"s	c #FF5555",
"t	c #FF8383",
"u	c #D9D9D9",
"v	c #000000",
"w	c #7C7C7C",
"x	c #EEF5EA",
"y	c #FFFBFB",
"z	c #FFE3E3",
"A	c #FFE6E6",
"B	c #FFFEFE",
"C	c #B2B2B2",
"D	c #EDF4E9",
"E	c #55952A",
"F	c #478C19",
"G	c #D9E8D0",
"H	c #E9F1E3",
"I	c #3D860C",
"J	c #378205",
"K	c #D1E2C5",
"L	c #8F8F8F",
"  .+@@@@@@@@@@@@@@@@+@  ",
" @@#$$$$$$$$$$$$$$$$#@@ ",
" @%&&&&&&&&&&&&&&&&&&*@ ",
" @=&&&&&&&&&&&&&&&&&&=@ ",
" @-&&&&&&&&&&&&&&&&&&-@ ",
" @-&&&&;>,>'&&&&&&&&&-@ ",
" @-&&&&)!!!~&&&&&&&&&-@ ",
" @-&&&&{!!]^//(_&&&&&-@ ",
" @-&:<<[!!}||||1&&&&&-@ ",
" @-&23345!6||||7890ab-@ ",
" @-&c333d&e||||fghhhi-@ ",
" @-&c333d&jkllmnophqr-@ ",
" @-&s333t&&&&&uvwxh0&-@ ",
" @-&yzzAB&&vv&vvuxh0&-@ ",
" @-&vvwvv&&vvvvv&xh0&-@ ",
" @-&uvvv&&vvvvvv&xh0&-@ ",
" @-&uvv&&vvCvuvv&xh0&-@ ",
" @-&vvvv&vCuw&vv&xh0&-@ ",
" @-&vuvv&&&&&&vCDEhFG-@ ",
" @-&&&&&&&&&&&&&HIhJK-@ ",
" @=&&&&&&&&&&&&&&&&&&=@ ",
" @%&&&&&&&&&&&&&&&&&&L@ ",
" @@#$$$$$$$$$$$$$$$$#@. ",
"  @+@@@@@@@@@@@@@@@@+@  "};
