/* XPM */
static char * wxmedit_xpm[] = {
"16 16 62 1",
" 	c None",
".	c #555555",
"+	c #505050",
"@	c #4D4D4D",
"#	c #545454",
"$	c #676767",
"%	c #E0E0E0",
"&	c #E7E7E7",
"*	c #656565",
"=	c #4E4E4E",
"-	c #969696",
";	c #FFFFFF",
">	c #979797",
",	c #F7F7FF",
"'	c #8484FF",
")	c #7777FF",
"!	c #AAAAFF",
"~	c #C0C0FF",
"{	c #0000FF",
"]	c #352FDF",
"^	c #FFF5CC",
"/	c #FFF9DF",
"(	c #FFF7F7",
"_	c #FFB0B0",
":	c #BF7FBF",
"<	c #0C0AF3",
"[	c #FAC805",
"}	c #FFCC00",
"|	c #FFCD05",
"1	c #FFFCF2",
"2	c #FFBFBF",
"3	c #FF2A2A",
"4	c #F12836",
"5	c #641FBA",
"6	c #635FEA",
"7	c #FFFBE9",
"8	c #A9C993",
"9	c #85B366",
"0	c #C6DCB8",
"a	c #FFBBBB",
"b	c #FF4B4B",
"c	c #FFFEF8",
"d	c #FFD428",
"e	c #FFCF11",
"f	c #A1C489",
"g	c #398307",
"h	c #C3DAB4",
"i	c #FFE6E6",
"j	c #FF6969",
"k	c #FF6363",
"l	c #FF9A9A",
"m	c #000000",
"n	c #F4F8F1",
"o	c #418811",
"p	c #B2B2B2",
"q	c #74A851",
"r	c #348001",
"s	c #A2C58B",
"t	c #D4E4C9",
"u	c #BBD5AA",
"v	c #E5EFDE",
"w	c #666666",
" .+@@@@@@@@@@+# ",
" $%&&&&&&&&&&%* ",
"=-;;;;;;;;;;;;-=",
"=>;;,')!;;;;;;>=",
"=>;;~{{]^/;;;;>=",
"=>(_:{<[}|1;;;>=",
"=>23456}}}7890>=",
"=>a33bcdedcfgh>=",
"=>ijkl;;;;mno;>=",
"=>;m;m;m;mmno;>=",
"=>;pmm;mmmmno;>=",
"=>;;m;m;m;mno;>=",
"=>;m;mp;;;mqrs>=",
"=-;;;;;;;;;tuv-=",
" w%&&&&&&&&&&%* ",
" #+@@@@@@@@@@+. "};
