/* XPM */
static char *font_xpm[] = {
/* columns rows colors chars-per-pixel */
"16 15 19 1",
"o c Black",
"= c #7F0000",
"; c #5F2020",
"  c None",
". c #00003F",
"< c #909090",
"@ c #202020",
"X c #00007F",
"* c #BF0000",
"> c #303030",
"# c #20205F",
"O c #0000BF",
"% c #404040",
"- c #FF0000",
"+ c #0000FF",
", c #C0C0C0",
": c #505050",
"& c #3F0000",
"$ c #606060",
/* pixels */
"      .X. ..    ",
"     oOO+@#+X@  ",
"     o$@+% .#$  ",
"     o@o+%oXXo  ",
"   o& @oO$@#+X@ ",
"   &*  oX.  X#% ",
"  o=-@o.++Xo@$  ",
"  &;*;@%@XX#$$$@",
" o=$&*@  @%:$>>%",
" &=@o**@ >,%@ >%",
"o=====-; $,%   %",
"&;$%%@**@$,%    ",
"@$    @%$o,:  >@",
"          ><$$:$",
"           @%%$ "
};
