/* XPM */
static char * madedit_xpm[] = {
"48 48 349 2",
"  	c None",
". 	c #110000",
"+ 	c #150000",
"@ 	c #140000",
"# 	c #130000",
"$ 	c #040000",
"% 	c #020000",
"& 	c #090000",
"* 	c #480000",
"= 	c #AF0000",
"- 	c #BC0000",
"; 	c #D80000",
"> 	c #D50000",
", 	c #D70000",
"' 	c #D20000",
") 	c #B40000",
"! 	c #B90000",
"~ 	c #D90000",
"{ 	c #D60000",
"] 	c #DB0000",
"^ 	c #CA0000",
"/ 	c #640000",
"( 	c #500000",
"_ 	c #190000",
": 	c #2F0000",
"< 	c #6F0000",
"[ 	c #370000",
"} 	c #400000",
"| 	c #D10000",
"1 	c #FF0000",
"2 	c #EE0000",
"3 	c #C50000",
"4 	c #310000",
"5 	c #432323",
"6 	c #2E0000",
"7 	c #D00000",
"8 	c #CD0000",
"9 	c #F30000",
"0 	c #C40000",
"a 	c #EF0000",
"b 	c #EB0000",
"c 	c #A40000",
"d 	c #600000",
"e 	c #350000",
"f 	c #0A0000",
"g 	c #000000",
"h 	c #1E0F0F",
"i 	c #585656",
"j 	c #616666",
"k 	c #4B4141",
"l 	c #F40000",
"m 	c #710000",
"n 	c #2A0000",
"o 	c #4F4C4C",
"p 	c #C7CACA",
"q 	c #221919",
"r 	c #F00000",
"s 	c #0F0101",
"t 	c #220505",
"u 	c #3C0000",
"v 	c #D40000",
"w 	c #FB0000",
"x 	c #150101",
"y 	c #1E0303",
"z 	c #340000",
"A 	c #E80000",
"B 	c #F20000",
"C 	c #260000",
"D 	c #111111",
"E 	c #B2B3B3",
"F 	c #F3F4F4",
"G 	c #F7F7F7",
"H 	c #E3E4E4",
"I 	c #A3A4A4",
"J 	c #070000",
"K 	c #322D2D",
"L 	c #C8CACA",
"M 	c #F8F8F8",
"N 	c #B5B6B6",
"O 	c #1E0202",
"P 	c #990303",
"Q 	c #492323",
"R 	c #1F1818",
"S 	c #9A9D9D",
"T 	c #BEC1C1",
"U 	c #232020",
"V 	c #0F0000",
"W 	c #281F1F",
"X 	c #221A1A",
"Y 	c #9A9C9C",
"Z 	c #BAC0C0",
"` 	c #483232",
" .	c #4D0000",
"..	c #430000",
"+.	c #282828",
"@.	c #3E3B3B",
"#.	c #636464",
"$.	c #1D1B1B",
"%.	c #131313",
"&.	c #CFCFCF",
"*.	c #FFFFFF",
"=.	c #ACACAC",
"-.	c #080808",
";.	c #B8B8B8",
">.	c #FEFEFE",
",.	c #E6E6E6",
"'.	c #040505",
").	c #180D0D",
"!.	c #989494",
"~.	c #DEDEDE",
"{.	c #F4F4F4",
"].	c #D8D8D8",
"^.	c #1E1E1E",
"/.	c #DFDFDF",
"(.	c #E5E5E5",
"_.	c #F3F3F3",
":.	c #EDF0F0",
"<.	c #B9A5A5",
"[.	c #0F0A0A",
"}.	c #6D7171",
"|.	c #DCDCDC",
"1.	c #F9F8F8",
"2.	c #FBFAFA",
"3.	c #B9B9B9",
"4.	c #0F0F0F",
"5.	c #141414",
"6.	c #D5D5D5",
"7.	c #C9C9C9",
"8.	c #0D0D0D",
"9.	c #D1D1D1",
"0.	c #EFEFEF",
"a.	c #A8A8A8",
"b.	c #252525",
"c.	c #DBDCDC",
"d.	c #4C4C4C",
"e.	c #BABABA",
"f.	c #FCFCFC",
"g.	c #CDCECE",
"h.	c #080909",
"i.	c #CBCBCB",
"j.	c #0C0C0C",
"k.	c #F2F2F2",
"l.	c #858585",
"m.	c #202020",
"n.	c #D0D0D0",
"o.	c #CACACA",
"p.	c #494949",
"q.	c #AFAFAF",
"r.	c #FAFAFA",
"s.	c #F9F9F9",
"t.	c #BDBDBD",
"u.	c #7F7F7F",
"v.	c #0A0A0A",
"w.	c #EAEAEA",
"x.	c #8A8A8A",
"y.	c #A5A5A5",
"z.	c #434343",
"A.	c #B0B0B0",
"B.	c #FDFDFD",
"C.	c #C4C4C4",
"D.	c #0B0B0B",
"E.	c #C7C7C7",
"F.	c #ECECEC",
"G.	c #484848",
"H.	c #EEEEEE",
"I.	c #9B9B9B",
"J.	c #0E0E0E",
"K.	c #8C8C8C",
"L.	c #F6F6F6",
"M.	c #9D9D9D",
"N.	c #B1B1B1",
"O.	c #BBBBBB",
"P.	c #3B3B3B",
"Q.	c #4E4E4E",
"R.	c #DDDDDD",
"S.	c #101010",
"T.	c #181818",
"U.	c #717171",
"V.	c #1F1F1F",
"W.	c #676767",
"X.	c #353535",
"Y.	c #292929",
"Z.	c #DADADA",
"`.	c #171717",
" +	c #161616",
".+	c #232323",
"++	c #E8E8E8",
"@+	c #222222",
"#+	c #666666",
"$+	c #C1C1C1",
"%+	c #D9D9D9",
"&+	c #A2A2A2",
"*+	c #9C9C9C",
"=+	c #1A1A1A",
"-+	c #CCCCCC",
";+	c #272727",
">+	c #FBFBFB",
",+	c #EDEDED",
"'+	c #4D4D4D",
")+	c #A1A1A1",
"!+	c #888888",
"~+	c #F0F0F0",
"{+	c #777777",
"]+	c #ABABAB",
"^+	c #212121",
"/+	c #7D7D7D",
"(+	c #6D6D6D",
"_+	c #191919",
":+	c #343434",
"<+	c #333333",
"[+	c #404040",
"}+	c #A7A7A7",
"|+	c #828282",
"1+	c #F5F5F5",
"2+	c #686868",
"3+	c #555555",
"4+	c #848484",
"5+	c #808080",
"6+	c #565656",
"7+	c #2A2A2A",
"8+	c #474747",
"9+	c #040404",
"0+	c #B2B2B2",
"a+	c #090909",
"b+	c #060606",
"c+	c #020202",
"d+	c #5A5A5A",
"e+	c #4B4B4B",
"f+	c #030303",
"g+	c #737373",
"h+	c #2B2B2B",
"i+	c #262626",
"j+	c #D7D7D7",
"k+	c #303030",
"l+	c #959595",
"m+	c #515151",
"n+	c #2E2E2E",
"o+	c #E4E4E4",
"p+	c #D6D6D6",
"q+	c #919191",
"r+	c #313131",
"s+	c #F1F1F1",
"t+	c #6A6A6A",
"u+	c #939393",
"v+	c #D3D3D3",
"w+	c #C2C2C2",
"x+	c #BEBEBE",
"y+	c #121212",
"z+	c #3E3E3E",
"A+	c #9A9A9A",
"B+	c #383838",
"C+	c #CECECE",
"D+	c #E7E7E7",
"E+	c #9F9F9F",
"F+	c #595959",
"G+	c #1B1B1B",
"H+	c #4F4F4F",
"I+	c #A9A9A9",
"J+	c #B4B4B4",
"K+	c #E9E9E9",
"L+	c #5C5C5C",
"M+	c #525252",
"N+	c #CDCDCD",
"O+	c #B5B5B5",
"P+	c #AEAEAE",
"Q+	c #C0C0C0",
"R+	c #201F1F",
"S+	c #E3E3E3",
"T+	c #E0E0E0",
"U+	c #9B9C9C",
"V+	c #FBFCFC",
"W+	c #050707",
"X+	c #B8B9B9",
"Y+	c #E6E7E7",
"Z+	c #838686",
"`+	c #212020",
" @	c #ADB0B0",
".@	c #F1F2F2",
"+@	c #FAF9F9",
"@@	c #C2C3C3",
"#@	c #202121",
"$@	c #E6E8E8",
"%@	c #8C8D8D",
"&@	c #E0DFDF",
"*@	c #DDDEDE",
"=@	c #B09C9C",
"-@	c #E4CFCF",
";@	c #EAEFEF",
">@	c #D3D6D6",
",@	c #737979",
"'@	c #1E0000",
")@	c #574C4C",
"!@	c #B7BDBD",
"~@	c #BCBFBF",
"{@	c #2B0404",
"]@	c #5D0000",
"^@	c #2E1818",
"/@	c #9A9999",
"(@	c #D4D7D7",
"_@	c #949999",
":@	c #241A1A",
"<@	c #1B1919",
"[@	c #BFC3C3",
"}@	c #D7DADA",
"|@	c #D3D9D9",
"1@	c #B09D9D",
"2@	c #0E0D0D",
"3@	c #6B6F6F",
"4@	c #DDE2E2",
"5@	c #C0BABA",
"6@	c #2F1F1F",
"7@	c #270000",
"8@	c #A91717",
"9@	c #AA7575",
"0@	c #563B3B",
"a@	c #1B0101",
"b@	c #570303",
"c@	c #3E2626",
"d@	c #503535",
"e@	c #6D0000",
"f@	c #CB0000",
"g@	c #C90404",
"h@	c #622C2C",
"i@	c #4C2E2E",
"j@	c #4D2E2E",
"k@	c #502C2C",
"l@	c #740404",
"m@	c #C90000",
"n@	c #402020",
"o@	c #4C3232",
"p@	c #511414",
"q@	c #200202",
"r@	c #8D6969",
"s@	c #5F2121",
"t@	c #520000",
"u@	c #B10A0A",
"v@	c #B50000",
"w@	c #B20000",
"x@	c #B10000",
"y@	c #CC0000",
"z@	c #D30000",
"A@	c #B70000",
"B@	c #B60000",
"C@	c #C70000",
"D@	c #BA0000",
"E@	c #B30000",
"F@	c #BB0707",
"G@	c #6A0000",
"H@	c #100000",
"                                                                                                ",
"                                                                                                ",
"                                                                                                ",
"                                                                                                ",
"                                                                                                ",
"                                                                                                ",
"                                                                                                ",
"                                                                                                ",
"                      . + @ @ # @ + + + @ @ @ @ @ @ @ @ @ @ @ @ + $ %                           ",
"                  & * = - ; > , ' - ) ! > > > > ~ ; ~ { > > ; ] ^ / ( _ @                       ",
"                  : < [ } | 1 2 3 4 5 6 1 1 1 1 7 > 8 9 1 1 ' > 0 a b c d e f                   ",
"                g h i j k _ l m n o p q r 1 l 1 s t u v l w x y z A 1 B / n C                   ",
"                D E F G H I J K L F M N O P Q R S T U V W X Y Z `  ...+.@.#.$.g                 ",
"                %.&.*.*.*.=.-.;.*.>.>.,.'.).!.~.{.].^.g /.(._.:.<.[.}.|.1.2.3.4.                ",
"                5.6.*.*.,.7.8.9.*.*.0.a.b.c.*.*.*.9.d.e.f.*.*.*.g.h.*.*.*.*.9.%.                ",
"                5.6.*.*.,.i.j.&.*.*.k.l.m.n.*.*.>.o.p.q.r.*.*.s.t.-.s.r.*.M u.v.                ",
"                5.6.*.*.w.q.8.&.*.*.k.x.m.n.*.*.G y.z.A.r.*.*.B.C.D.E.F.*.G G.                  ",
"                5.6.*.*.H.I.J.&.*.*.k.K.m.n.*.*.L.M.z.N.r.*.*.M O.%.P.G *.s.Q.                  ",
"                5.6.*.*.R.S.T.&.*.*.H.U.V.n.*.*.k.W.X.a.M *.*.M e.5.Y.r.*.k.d.                  ",
"                5.6.*.*.Z.`.T.n.*.*.(. +.+9.*.*.++@+-.#+_.*.*.M 3.%.Y.r.*.$+P.                  ",
"                5.%+*.>.G.g S.&+r.*.*+=+.+-+*.{.M.;+  -.%+>+*.,+'+g +.r.*.)+j.                  ",
"                v.!+f.~+`.  g b.o.6.V.g 4.{+%+]+^+g   g /+,.M A.^.  ;+>+,+(+_+                  ",
"                  Y.%+,+Y.      :+^+      %.Y.<+         +[+G.@+    =+>+;.[+                    ",
"                  T.}+f.5.                                        g |+1+2+g                     ",
"                    3+n.3+                                        g 4+5+d.                      ",
"                    `.6+@+                                              7+8+                    ",
"                      9+T.`.                                            3+0+J.                  ",
"                      a+C.Y.      g b+g     c+g d+g       g #+e+T.    a+l.*.[+                  ",
"                    f+=.B.;+    j.g+(.V.    h+&+G t.i+  g v.*.j+k+    J.l+*.x.-.                ",
"                  `.m+%+B.m.g   n+R.(.=+g -.2+o+*.p+=+g S.7.*.G y.S.  `.3.*.t.%.                ",
"                  +.M.*.,.9.g   *+r._.q+g r+].*.>.s+t+c+u+1+*.*.v+=+  _+w+*.x+y+                ",
"                  z+A+*.{.9.g B+C+*.k.K.c+e+D+*.*.s+q.+.E+s+*.*.|.F+g G+C+*.].5.                ",
"                  ;+}+*.*.%+g H+0.*.k.x.=+I+G *.*.M ;.b.J+0.*.*.K+A+a+L+1+*.6.5.                ",
"                  [+9.*.*.].g M+k.*.k.x.m.N+*.>.*.G O+b.P+H.*.*.D+q+%.P+>.*.j+5.                ",
"                  d.r.*.*.p+v.Q+M *.k.x.R+C+*.*.>.*.&.i+S+>.>.*.D+q+D T+*.*.e.4.                ",
"                D.U+V+*.>.1+W+X+G f.Y+Z+`+ @.@*.*.+@@@#@J+G *.*.$@%@`.&@*.*@@+                  ",
"                4.=@-@;@>@,@'@)@!@~@g {@]@^@/@(@(@_@:@'@<@[@}@|@1@2@3@4@5@6@g                   ",
"                  7@8@9@0@a@v b@c@d@e@f@' g@h@i@j@k@l@m@n n@j@o@p@/ q@r@s@} &                   ",
"                    t@u@) v@, - w@x@y@z@~ > A@w@w@B@C@> D@) E@E@= ^ v@F@G@4                     ",
"                      H@+ + @ + + + @ @ # @ + + + + @ @ + + + + + @ + @ J                       ",
"                                                                                                ",
"                                                                                                ",
"                                                                                                ",
"                                                                                                ",
"                                                                                                ",
"                                                                                                ",
"                                                                                                ",
"                                                                                                "};
