/* XPM */
static char * wxmedit_16x15_xpm[] = {
"16 15 12 1",
" 	c None",
".	c #009999",
"+	c #006666",
"@	c #F0FFFF",
"#	c #999999",
"$	c #333399",
"%	c #FFCC99",
"&	c #0000FF",
"*	c #FF0000",
"=	c #FFFF00",
"-	c #00C0C0",
";	c #000000",
"                ",
"   . . . .      ",
"  +.+.+.+.+     ",
" +@#@#@#@#@+    ",
" +@@@@@@@@@+  $%",
" +@@&&@@@@@+  $$",
" +@*&&==--@+ $$$",
" +@**@==@@@+ $$ ",
" ;@@@;@;@;@+ $$ ",
" +;-;-;-;-;+$$$ ",
" +@;@@;@;@;+$$  ",
" +;@;@;@@@;$$$  ",
" ;@--;;---;%$   ",
" +@@@@@@@@@+    ",
"  +++++++++     "};
