/* XPM */
static char * wxmedit_xpm[] = {
"48 48 364 2",
"  	c None",
". 	c #4CB4B4",
"+ 	c #6DC1C1",
"@ 	c #7DC7C7",
"# 	c #0D6E6E",
"$ 	c #147373",
"% 	c #4E9F9F",
"& 	c #0F9E9E",
"* 	c #469292",
"= 	c #3FADAD",
"- 	c #49A4A4",
"; 	c #40ACAC",
"> 	c #49A5A5",
", 	c #0F7070",
"' 	c #0D6F6F",
") 	c #75B1B1",
"! 	c #ACD4D4",
"~ 	c #9DD0D0",
"{ 	c #B0D6D6",
"] 	c #84C8C8",
"^ 	c #50B6B6",
"/ 	c #80C6C6",
"( 	c #8DC0C0",
"_ 	c #1C7878",
": 	c #0B6D6D",
"< 	c #127171",
"[ 	c #9FCBCB",
"} 	c #F0FFFF",
"| 	c #BCE3E3",
"1 	c #DFF4F4",
"2 	c #4DB5B5",
"3 	c #94D1D1",
"4 	c #BAE3E3",
"5 	c #E1F6F6",
"6 	c #51B6B6",
"7 	c #91D1D1",
"8 	c #D3ECEC",
"9 	c #0E6F6F",
"0 	c #076A6A",
"a 	c #0A6C6C",
"b 	c #E6F8F8",
"c 	c #71ADAD",
"d 	c #1AA3A3",
"e 	c #7FB0B0",
"f 	c #9FC9C9",
"g 	c #4EB0B0",
"h 	c #65ABAB",
"i 	c #D8EFEF",
"j 	c #EFFEFE",
"k 	c #6EABAB",
"l 	c #84B4B4",
"m 	c #8EBCBC",
"n 	c #51B0B0",
"o 	c #61ABAB",
"p 	c #E1F5F5",
"q 	c #2D8383",
"r 	c #137373",
"s 	c #096C6C",
"t 	c #E8FAFA",
"u 	c #5A9494",
"v 	c #93A4A4",
"w 	c #659D9D",
"x 	c #91BEBE",
"y 	c #859F9F",
"z 	c #649090",
"A 	c #CDE9E9",
"B 	c #EDFDFD",
"C 	c #599191",
"D 	c #92A4A4",
"E 	c #6BA3A3",
"F 	c #81B3B3",
"G 	c #8A9F9F",
"H 	c #609191",
"I 	c #DAF1F1",
"J 	c #338686",
"K 	c #117171",
"L 	c #D2ECEC",
"M 	c #89B9B9",
"N 	c #DEF4F4",
"O 	c #99C5C5",
"P 	c #B3D6D6",
"Q 	c #CCE8E8",
"R 	c #8BBABA",
"S 	c #E2F6F6",
"T 	c #EBFCFC",
"U 	c #94C1C1",
"V 	c #BADBDB",
"W 	c #137272",
"X 	c #A9ECEC",
"Y 	c #9AE9E9",
"Z 	c #8FE6E6",
"` 	c #8EE5E5",
" .	c #98E8E8",
"..	c #A4EBEB",
"+.	c #E4FCFC",
"@.	c #FFCC99",
"#.	c #D7F8F8",
"$.	c #CCF6F6",
"%.	c #C4F3F3",
"&.	c #C3F3F3",
"*.	c #95BAEB",
"=.	c #8AACE8",
"-.	c #9EC5EC",
";.	c #C9F5F5",
">.	c #D4F8F8",
",.	c #ECFEFE",
"'.	c #685B99",
").	c #977E99",
"!.	c #F1C199",
"~.	c #4145DE",
"{.	c #0C0DEC",
"].	c #0C0DEF",
"^.	c #0C0DEA",
"/.	c #5C61E3",
"(.	c #1B7376",
"_.	c #4E4898",
":.	c #333399",
"<.	c #3F3C99",
"[.	c #C9A399",
"}.	c #D8E6FB",
"|.	c #0B0CE7",
"1.	c #0E0FFF",
"2.	c #1A1CE2",
"3.	c #646494",
"4.	c #383799",
"5.	c #D8AF99",
"6.	c #FFCD99",
"7.	c #D1DDF9",
"8.	c #0C0CE9",
"9.	c #1517E3",
"0.	c #4B7285",
"a.	c #343499",
"b.	c #6A5C99",
"c.	c #76DFDF",
"d.	c #63DADA",
"e.	c #61D9D9",
"f.	c #54BDD8",
"g.	c #050BE7",
"h.	c #060DFD",
"i.	c #575B98",
"j.	c #B4B62A",
"k.	c #CEDE1E",
"l.	c #C5DB27",
"m.	c #92D57A",
"n.	c #62DADA",
"o.	c #70DDDD",
"p.	c #88E4E4",
"q.	c #DFFBFB",
"r.	c #43848A",
"s.	c #444099",
"t.	c #353499",
"u.	c #EEEBEB",
"v.	c #DD7070",
"w.	c #DE5151",
"x.	c #C04762",
"y.	c #0B04E1",
"z.	c #0D08F8",
"A.	c #C6C61E",
"B.	c #F1F10D",
"C.	c #FEFF0F",
"D.	c #E0E119",
"E.	c #EFFEFC",
"F.	c #EFFEFF",
"G.	c #5C5898",
"H.	c #7A6898",
"I.	c #DC6A6A",
"J.	c #FA0E0E",
"K.	c #FE0F0F",
"L.	c #F30F18",
"M.	c #1602CF",
"N.	c #0E01F1",
"O.	c #0E0BFB",
"P.	c #D8D80C",
"Q.	c #F2F20D",
"R.	c #E4E50C",
"S.	c #EEFDF3",
"T.	c #9E96B8",
"U.	c #5F5399",
"V.	c #DE4C4C",
"W.	c #900862",
"X.	c #3503AF",
"Y.	c #2918CD",
"Z.	c #2C2EE3",
"`.	c #DADA0A",
" +	c #F9FA0E",
".+	c #CCCDDA",
"++	c #373699",
"@+	c #433E99",
"#+	c #95E7E7",
"$+	c #C04444",
"%+	c #F80D0D",
"&+	c #F70D0D",
"*+	c #F30D0D",
"=+	c #A47676",
"-+	c #7FE1E1",
";+	c #DDE10A",
">+	c #F7FD0D",
",+	c #DFE30A",
"'+	c #83E0D7",
")+	c #80E2E2",
"!+	c #86E3E3",
"~+	c #90DCDE",
"{+	c #4F4A9B",
"]+	c #897499",
"^+	c #EAFEFE",
"/+	c #D94A4A",
"(+	c #FC0F0F",
"_+	c #F80F0F",
":+	c #CF8181",
"<+	c #D2F7F7",
"[+	c #DFE111",
"}+	c #FCFF0F",
"|+	c #E1E20F",
"1+	c #D2F6F0",
"2+	c #D3F7F7",
"3+	c #DBFAFA",
"4+	c #7A71A6",
"5+	c #716399",
"6+	c #DE4D4D",
"7+	c #F90E0E",
"8+	c #DF8888",
"9+	c #DDE360",
"0+	c #E7E80D",
"a+	c #ECED0D",
"b+	c #E8E90C",
"c+	c #DCE256",
"d+	c #AEA9C2",
"e+	c #544C99",
"f+	c #DE8383",
"g+	c #EE0D0D",
"h+	c #FA0F0F",
"i+	c #DF0F0F",
"j+	c #EBD7D7",
"k+	c #EBF8DA",
"l+	c #E9F5C8",
"m+	c #D7DCE5",
"n+	c #3D3B99",
"o+	c #3B3999",
"p+	c #E5AEAE",
"q+	c #DE7D7D",
"r+	c #DE7F7F",
"s+	c #EAD2D2",
"t+	c #ECFAFB",
"u+	c #5C549D",
"v+	c #63708E",
"w+	c #6F7BA6",
"x+	c #5F5E94",
"y+	c #BEBCCE",
"z+	c #4B4699",
"A+	c #237577",
"B+	c #C0CCCC",
"C+	c #CBD8D8",
"D+	c #ECFBFB",
"E+	c #A9B4B4",
"F+	c #ADB8B8",
"G+	c #798181",
"H+	c #B1BCBC",
"I+	c #9CA6A6",
"J+	c #7D8585",
"K+	c #C7D3D3",
"L+	c #EBC2A1",
"M+	c #D9AF99",
"N+	c #7D6B99",
"O+	c #363599",
"P+	c #58818D",
"Q+	c #788080",
"R+	c #121313",
"S+	c #585D5D",
"T+	c #181919",
"U+	c #010101",
"V+	c #232525",
"W+	c #000000",
"X+	c #040404",
"Y+	c #202222",
"Z+	c #151616",
"`+	c #EAF9F9",
" @	c #F0FEFD",
".@	c #FFCD9A",
"+@	c #BF9C99",
"@@	c #9B92B5",
"#@	c #79E0E0",
"$@	c #6CDCDC",
"%@	c #66D8D8",
"&@	c #1F4141",
"*@	c #040909",
"=@	c #52ADAD",
"-@	c #68DBDB",
";@	c #2D5F5F",
">@	c #1A3737",
",@	c #122525",
"'@	c #275252",
")@	c #64D2D2",
"!@	c #000101",
"~@	c #499999",
"{@	c #84D8CF",
"]@	c #A88B99",
"^@	c #675F9F",
"/@	c #E2FBFB",
"(@	c #E1FBFB",
"_@	c #819090",
":@	c #242828",
"<@	c #D6EEEE",
"[@	c #566060",
"}@	c #444C4C",
"|@	c #545E5E",
"1@	c #7E8D8D",
"2@	c #020202",
"3@	c #92A2A2",
"4@	c #ECE9D6",
"5@	c #F1C7A2",
"6@	c #DFE6EB",
"7@	c #AEB9B9",
"8@	c #707777",
"9@	c #131414",
"0@	c #454949",
"a@	c #EEFDFD",
"b@	c #5C6262",
"c@	c #484D4D",
"d@	c #9BA5A5",
"e@	c #F3ECDB",
"f@	c #FDD1A3",
"g@	c #F6ECD8",
"h@	c #F0FFFE",
"i@	c #828A8A",
"j@	c #B6C1C1",
"k@	c #323535",
"l@	c #EDFCFC",
"m@	c #7E8686",
"n@	c #6B7272",
"o@	c #292C2C",
"p@	c #B9C5C5",
"q@	c #888B87",
"r@	c #B4A38D",
"s@	c #F6EBD7",
"t@	c #F1FDFB",
"u@	c #E6FCFC",
"v@	c #DAF9F9",
"w@	c #D9F9F9",
"x@	c #D2F1F1",
"y@	c #E3FCFC",
"z@	c #EEFFFF",
"A@	c #90E6E6",
"B@	c #81E2E2",
"C@	c #78E0E0",
"D@	c #78DFDF",
"E@	c #7EE1E1",
"F@	c #89E4E4",
"G@	c #096D6D",
"H@	c #328686",
"I@	c #ABD3D3",
"J@	c #DBF2F2",
"K@	c #187575",
"L@	c #98C7C7",
"M@	c #CAE7E7",
"N@	c #3C8C8C",
"O@	c #318585",
"P@	c #328787",
"Q@	c #107070",
"R@	c #1D7979",
"S@	c #237C7C",
"T@	c #177474",
"U@	c #247D7D",
"V@	c #086C6C",
"W@	c #0B6C6C",
"                                                                                                ",
"                                                                                                ",
"                                                                                                ",
"                                                                                                ",
"                      .         +           .         + @                                       ",
"              # $ $ % & * $ $ $ = - $ $ $ % & * $ $ $ ; > $ $ ,                                 ",
"            ' ) ! ! ~ & { ! ! ! . ] ! ! ! ~ & { ! ! ! ^ / ! ! ( _ :                             ",
"          < [ } } } | & 1 } } } 2 3 } } } 4 & 5 } } } 6 7 } } } 8 9 0                           ",
"          a b } } } c d e } } f g h i } j k d l } } m n o p } } } q r                           ",
"          s t } } } u v w } } x y z A } B C D E } } F G H I } } } J r K                         ",
"          s t } } } L M N } } B O P } } } Q R S } } T U V } } } } J r W                         ",
"          s t } } } } } } } } } } } } } } } } } } } } } } } } } } J r W                         ",
"          s t } } } } } } } } } } } } } } } } } } } } } } } } } } J r W                         ",
"          s t } } } } } } } } } } } } } } } } } } } } } } } } } } J r W                         ",
"          s t } } } } } } } } } } } } } } } } } } } } } } } } } } J r W                         ",
"          s t } X Y Z ` ` ` ` ` ` ` ` ` ` ` ` ` ` ` ` ` Z  ...+.} J r W     @.@.@.              ",
"          s t } #.$.%.&.&.&.&.*.=.=.=.-.&.&.&.&.&.&.&.&.%.;.>.,.} J r W   '.).!.@.@.            ",
"          s t } } } } } } } ~.{.].].].^./.} } } } } } } } } } } } J r (._.:.:.<.[.@.@.          ",
"          s t } } } } } } }.|.1.1.1.1.1.2.} } } } } } } } } } } } J r 3.:.:.:.:.4.5.6.          ",
"          s t } } } } } } 7.8.1.1.1.1.1.9.} } } } } } } } } } } } J 0.a.:.:.:.:.:.b.            ",
"          s t } Z c.d.e.e.f.g.h.h.h.h.i.j.k.k.k.l.m.e.e.n.o.p.q.} r.s.:.:.:.:.:.t.              ",
"          s t } } u.v.w.w.x.y.z.1.1.1.A.B.C.C.C.C.D.E.} } } } } F.G.:.:.:.:.:.:.H.              ",
"          s t } } I.J.K.K.L.M.N.O.1.1.P.Q.C.C.C.C.R.S.} } } } } T.:.:.:.:.:.:.U.                ",
"          s t } } V.K.K.K.K.W.X.Y.Z.Z.`. +C.C.C.C.R.S.} } } } .+++:.:.:.:.:.@+                  ",
"          s t } #+$+%+&+&+&+&+*+=+-+-+;+>+>+>+>+>+,+'+-+)+!+~+{+:.:.:.:.:.a.]+                  ",
"          s t } ^+/+(+(+(+(+(+_+:+<+<+[+}+}+}+}+}+|+1+<+2+3+4+:.:.:.:.:.:.5+                    ",
"          s t } } 6+K.K.K.K.K.7+8+} } 9+0+a+a+a+b+c+} } } d+:.:.:.:.:.:.e+                      ",
"          s t } } f+g+h+h+h+J.i+j+} } } k+l+l+l+k+} } } m+n+:.:.:.:.:.o+                        ",
"          s t } } } p+q+q+q+r+s+} } } } } } } } } } } t+u+:.:.:.:.:.:.v+                        ",
"          s t } Z c.d.e.e.e.e.e.e.e.e.e.e.e.e.e.e.e.e.w+:.:.:.:.:.:.x+W                         ",
"          s t } } } } } } } } } } } } } } } } } } } y+a.:.:.:.:.:.z+A+W                         ",
"          s t } } } } B+C+} D+E+} } F+G+H+I+J+K+} } L+M+N+t.:.:.O+P+r W                         ",
"          s t } } } } Q+R+C+S+T+} B+U+V+W+X+Y+Z+`+ @.@@.@.+@4.:.@@J r W                         ",
"          s t } Z #@$@%@&@*@*@=@-@;@>@-@,@'@)@!@~@{@@.@.@.@.]@^@j J r W                         ",
"          s t } } ,./@(@_@W+:@<@(@[@}@(@|@1@(@2@3@4@@.@.@.@.5@6@} J r W                         ",
"          s t } } } } 7@X+8@9@0@a@b@c@} } } } 2@d@e@@.@.f@g@h@} } J r W                         ",
"          s t } } } } i@8@} j@k@l@m@n@} } } } o@p@q@r@s@t@} } } } J r W                         ",
"          s t } } u@v@w@w@w@w@w@w@w@w@w@w@w@w@w@w@x@w@w@v@y@z@} } J r W                         ",
"          s t } A@B@C@D@D@D@D@D@D@D@D@D@D@D@D@D@D@D@D@D@C@E@F@q.} J r W                         ",
"          s t } } } } } } } } } } } } } } } } } } } } } } } } } } J r W                         ",
"          G@t } } } } } } } } } } } } } } } } } } } } } } } } } } H@r W                         ",
"          K I@} } } } } } } } } } } } } } } } } } } } } } } } } J@W _ W                         ",
"            K@L@M@M@M@M@M@M@M@M@M@M@M@M@M@M@M@M@M@M@M@M@M@M@M@! N@O@P@                          ",
"              Q@K@R@R@R@R@R@R@R@R@R@R@R@R@R@R@R@R@R@R@R@R@R@R@S@T@U@V@                          ",
"                0 : W@W@W@W@W@W@W@W@W@W@W@W@W@W@W@W@W@W@W@W@W@W@# 9                             ",
"                                                                                                ",
"                                                                                                ",
"                                                                                                "};
