<?xml version="1.0" encoding="UTF-8" standalone="no"?>
<!-- Created with Inkscape (http://www.inkscape.org/) -->

<svg
   version="1.1"
   id="svg417"
   width="1625"
   height="1625"
   viewBox="0 0 1625 1625"
   sodipodi:docname="mainicon3b.svg"
   inkscape:version="1.2.2 (b0a8486, 2022-12-01)"
   xmlns:inkscape="http://www.inkscape.org/namespaces/inkscape"
   xmlns:sodipodi="http://sodipodi.sourceforge.net/DTD/sodipodi-0.dtd"
   xmlns="http://www.w3.org/2000/svg"
   xmlns:svg="http://www.w3.org/2000/svg">
  <defs
     id="defs421" />
  <sodipodi:namedview
     id="namedview419"
     pagecolor="#ffffff"
     bordercolor="#000000"
     borderopacity="0.25"
     inkscape:showpageshadow="2"
     inkscape:pageopacity="0.0"
     inkscape:pagecheckerboard="0"
     inkscape:deskcolor="#d1d1d1"
     showgrid="false"
     inkscape:zoom="0.14523077"
     inkscape:cx="-203.125"
     inkscape:cy="812.5"
     inkscape:window-width="1313"
     inkscape:window-height="458"
     inkscape:window-x="50"
     inkscape:window-y="123"
     inkscape:window-maximized="0"
     inkscape:current-layer="g423" />
  <g
     inkscape:groupmode="layer"
     inkscape:label="Image"
     id="g423">
    <g
       id="g427"
       transform="translate(2.7118644e-5,-2.42515e-4)">
      <path
         style="fill:#fcca01"
         d="m 242.5,1623.8245 c -30.12516,-3.0331 -63.25014,-13.9906 -89.35222,-29.557 -22.92028,-13.6689 -47.96898,-36.2187 -63.440471,-57.1116 -24.765472,-33.4435 -39.298573,-72.1532 -42.668118,-113.6488 -1.448766,-17.8414 -1.448766,-1204.17278 0,-1222.0142 C 50.408736,159.99728 64.941837,121.28758 89.707309,87.84407 99.573843,74.520215 120.64053,53.423477 133.88095,43.607423 166.34014,19.543128 204.18237,4.9788376 244.42368,1.0629772 c 15.34259,-1.49297958 1120.81002,-1.49297958 1136.15262,0 83.3788,8.1135412 153.7668,61.7128038 184.0636,140.1612328 4.5293,11.72774 9.773,32.3261 12.0478,47.32578 1.7347,11.43858 1.8123,38.14227 1.8123,623.95001 0,585.8077 -0.078,612.5114 -1.8123,623.95 -7.2242,47.6354 -27.0273,88.0878 -59.6877,121.9253 -36.1273,37.4295 -84.0639,60.4666 -136.4237,65.5617 -13.8601,1.3487 -1124.65374,1.2389 -1138.0763,-0.1125 z"
         id="path441" />
      <path
         style="fill:#fc2a29"
         d="m 242.5,1623.8245 c -30.12516,-3.0331 -63.25014,-13.9906 -89.35222,-29.557 -22.92028,-13.6689 -47.96898,-36.2187 -63.440471,-57.1116 -24.765472,-33.4435 -39.298573,-72.1532 -42.668118,-113.6488 -1.448766,-17.8414 -1.448766,-1204.17278 0,-1222.0142 C 50.408736,159.99728 64.941837,121.28758 89.707309,87.84407 99.573843,74.520215 120.64053,53.423477 133.88095,43.607423 166.34014,19.543128 204.18237,4.9788376 244.42368,1.0629772 c 15.34259,-1.49297958 1120.81002,-1.49297958 1136.15262,0 83.3788,8.1135412 153.7668,61.7128038 184.0636,140.1612328 4.5293,11.72774 9.773,32.3261 12.0478,47.32578 1.7347,11.43858 1.8123,38.14227 1.8123,623.95001 0,585.8077 -0.078,612.5114 -1.8123,623.95 -7.2242,47.6354 -27.0273,88.0878 -59.6877,121.9253 -36.1273,37.4295 -84.0639,60.4666 -136.4237,65.5617 -13.8601,1.3487 -1124.65374,1.2389 -1138.0763,-0.1125 z M 477.75,888.25026 c -24.6125,-0.14897 -64.8875,-0.14897 -89.5,0 -24.6125,0.14897 -4.475,0.27086 44.75,0.27086 49.225,0 69.3625,-0.12189 44.75,-0.27086 z m 494.41665,-83.36758 c 20.23727,-6.90882 34.97935,-19.57977 44.29315,-38.07039 8.3788,-16.63427 8.0407,-11.55224 8.0361,-120.81229 v -96.5 l -2.2541,-7.94198 c -7.7639,-27.35516 -27.63858,-46.95099 -54.51135,-53.74654 -8.11314,-2.05164 -9.38686,-2.0702 -104.21994,-1.5183 -106.91558,0.62223 -103.1163,0.37877 -118.00641,7.56181 -19.96621,9.63176 -33.41739,25.32175 -39.57458,46.16134 -2.17404,7.35827 -2.22633,8.95818 -3.12061,95.48367 -1.04168,100.78778 -0.88659,109.0756 2.2269,119 7.11485,22.67893 22.46525,39.47053 44.05482,48.19094 13.0732,5.2805 11.00951,5.19236 116.91347,4.99377 l 98.5,-0.18471 7.66665,-2.61732 z"
         id="path439" />
      <path
         style="fill:#0001fc"
         d="m 242.5,1623.8245 c -30.12516,-3.0331 -63.25014,-13.9906 -89.35222,-29.557 -22.92028,-13.6689 -47.96898,-36.2187 -63.440471,-57.1116 -24.765472,-33.4435 -39.298573,-72.1532 -42.668118,-113.6488 -1.448766,-17.8414 -1.448766,-1204.17278 0,-1222.0142 C 50.408736,159.99728 64.941837,121.28758 89.707309,87.84407 99.573843,74.520215 120.64053,53.423477 133.88095,43.607423 166.34014,19.543128 204.18237,4.9788376 244.42368,1.0629772 c 15.34259,-1.49297958 1120.81002,-1.49297958 1136.15262,0 83.3788,8.1135412 153.7668,61.7128038 184.0636,140.1612328 4.5293,11.72774 9.773,32.3261 12.0478,47.32578 1.7347,11.43858 1.8123,38.14227 1.8123,623.95001 0,585.8077 -0.078,612.5114 -1.8123,623.95 -7.2242,47.6354 -27.0273,88.0878 -59.6877,121.9253 -36.1273,37.4295 -84.0639,60.4666 -136.4237,65.5617 -13.8601,1.3487 -1124.65374,1.2389 -1138.0763,-0.1125 z M 530,887.14463 c 20.69581,-3.56428 37.06344,-13.14249 48.53399,-28.4017 7.63216,-10.153 10.45419,-16.72597 14.27249,-33.24293 C 593.18791,823.85 593.275,789.425 593,749 l -0.5,-73.5 -25.5,-0.55991 c -22.96242,-0.5042 -26.19659,-0.78768 -32.5,-2.84867 -20.49956,-6.70263 -36.78929,-20.86654 -45.64274,-39.68634 -5.95732,-12.66348 -6.82347,-17.95617 -6.85779,-41.90508 -0.0165,-11.55 -0.38199,-21.55397 -0.81208,-22.23104 -1.02172,-1.60844 -138.34987,-1.84501 -147.96376,-0.25489 -15.26186,2.52428 -27.09009,8.85765 -39.27661,21.03048 -7.11178,7.10378 -9.33325,10.13892 -13.17454,18 -8.14993,16.67857 -7.81649,11.52365 -7.7777,120.2398 0.0366,102.54594 0.001,101.7283 4.94552,114.86147 3.09644,8.2251 8.85751,16.59971 16.81934,24.44954 10.92061,10.76698 23.20995,17.26457 36.74036,19.42527 3.85,0.61482 8.35,1.49321 10,1.95199 5.17962,1.44017 179.78331,0.67323 188.5,-0.82799 z m 442.16665,-82.26195 c 20.23727,-6.90882 34.97935,-19.57977 44.29315,-38.07039 8.3788,-16.63427 8.0407,-11.55224 8.0361,-120.81229 v -96.5 l -2.2541,-7.94198 c -7.7639,-27.35516 -27.63858,-46.95099 -54.51135,-53.74654 -8.11314,-2.05164 -9.38686,-2.0702 -104.21994,-1.5183 -106.91558,0.62223 -103.1163,0.37877 -118.00641,7.56181 -19.96621,9.63176 -33.41739,25.32175 -39.57458,46.16134 -2.17404,7.35827 -2.22633,8.95818 -3.12061,95.48367 -1.04168,100.78778 -0.88659,109.0756 2.2269,119 7.11485,22.67893 22.46525,39.47053 44.05482,48.19094 13.0732,5.2805 11.00951,5.19236 116.91347,4.99377 l 98.5,-0.18471 7.66665,-2.61732 z"
         id="path437" />
      <path
         style="fill:#ffffff"
         d="m 242.5,1623.8245 c -30.12516,-3.0331 -63.25014,-13.9906 -89.35222,-29.557 -22.92028,-13.6689 -47.96898,-36.2187 -63.440471,-57.1116 -24.765472,-33.4435 -39.298573,-72.1532 -42.668118,-113.6488 -1.448766,-17.8414 -1.448766,-1204.17278 0,-1222.0142 C 50.408736,159.99728 64.941837,121.28758 89.707309,87.84407 99.573843,74.520215 120.64053,53.423477 133.88095,43.607423 166.34014,19.543128 204.18237,4.9788376 244.42368,1.0629772 c 15.34259,-1.49297958 1120.81002,-1.49297958 1136.15262,0 83.3788,8.1135412 153.7668,61.7128038 184.0636,140.1612328 4.5293,11.72774 9.773,32.3261 12.0478,47.32578 1.7347,11.43858 1.8123,38.14227 1.8123,623.95001 0,585.8077 -0.078,612.5114 -1.8123,623.95 -7.2242,47.6354 -27.0273,88.0878 -59.6877,121.9253 -36.1273,37.4295 -84.0639,60.4666 -136.4237,65.5617 -13.8601,1.3487 -1124.65374,1.2389 -1138.0763,-0.1125 z M 530,887.14463 c 20.69581,-3.56428 37.06344,-13.14249 48.53399,-28.4017 7.63216,-10.153 10.45419,-16.72597 14.27249,-33.24293 C 593.18791,823.85 593.275,789.425 593,749 l -0.5,-73.5 -25.5,-0.55991 c -22.96242,-0.5042 -26.19659,-0.78768 -32.5,-2.84867 -20.49956,-6.70263 -36.78929,-20.86654 -45.64274,-39.68634 -5.95732,-12.66348 -6.82347,-17.95617 -6.85779,-41.90508 -0.0165,-11.55 -0.38199,-21.55397 -0.81208,-22.23104 -1.02172,-1.60844 -138.34987,-1.84501 -147.96376,-0.25489 -15.26186,2.52428 -27.09009,8.85765 -39.27661,21.03048 -7.11178,7.10378 -9.33325,10.13892 -13.17454,18 -8.14993,16.67857 -7.81649,11.52365 -7.7777,120.2398 0.0366,102.54594 0.001,101.7283 4.94552,114.86147 3.09644,8.2251 8.85751,16.59971 16.81934,24.44954 10.92061,10.76698 23.20995,17.26457 36.74036,19.42527 3.85,0.61482 8.35,1.49321 10,1.95199 5.17962,1.44017 179.78331,0.67323 188.5,-0.82799 z m 442.16665,-82.26195 c 20.23727,-6.90882 34.97935,-19.57977 44.29315,-38.07039 8.3788,-16.63427 8.0407,-11.55224 8.0361,-120.81229 v -96.5 l -2.2541,-7.94198 c -7.7639,-27.35516 -27.63858,-46.95099 -54.51135,-53.74654 -8.11314,-2.05164 -9.38686,-2.0702 -104.21994,-1.5183 -106.91558,0.62223 -103.1163,0.37877 -118.00641,7.56181 -19.96621,9.63176 -33.41739,25.32175 -39.57458,46.16134 -2.17404,7.35827 -2.22633,8.95818 -3.12061,95.48367 -1.04168,100.78778 -0.88659,109.0756 2.2269,119 7.11485,22.67893 22.46525,39.47053 44.05482,48.19094 13.0732,5.2805 11.00951,5.19236 116.91347,4.99377 l 98.5,-0.18471 7.66665,-2.61732 z M 702.02248,609 c 0.52106,-64.3253 0.52877,-64.51752 2.84517,-70.96704 5.03956,-14.03163 13.14303,-26.53474 21.92219,-33.82451 17.48418,-14.51798 31.96563,-19.11044 60.46016,-19.17356 L 803,485 v -33.84004 c 0,-38.72225 -0.58194,-42.84811 -8.20328,-58.15996 -3.38189,-6.79449 -6.04325,-10.31664 -13.26376,-17.55384 -7.61274,-7.63034 -10.52661,-9.78794 -18.53296,-13.72295 -16.46251,-8.09108 -10.24196,-7.69179 -120.09004,-7.70843 -110.49544,-0.0167 -104.54162,-0.4168 -121.19668,8.14371 -11.51597,5.91908 -24.63571,19.03882 -30.55479,30.55479 -8.53739,16.61008 -8.13747,10.6985 -8.18359,120.97092 -0.0366,87.48246 0.12857,98.10874 1.6183,104.12062 5.44099,21.95739 21.161,40.99092 41.18523,49.8664 14.44091,6.40074 11.91098,6.24471 97.72157,6.02683 l 78,-0.19805 z"
         id="path435" />
      <path
         style="fill:#4c4c4c"
         d="m 242.5,1623.8245 c -30.12516,-3.0331 -63.25014,-13.9906 -89.35222,-29.557 -22.92028,-13.6689 -47.96898,-36.2187 -63.440471,-57.1116 -24.765472,-33.4435 -39.298573,-72.1532 -42.668118,-113.6488 -1.448766,-17.8414 -1.448766,-1204.17278 0,-1222.0142 C 50.408736,159.99728 64.941837,121.28758 89.707309,87.84407 99.573843,74.520215 120.64053,53.423477 133.88095,43.607423 166.34014,19.543128 204.18237,4.9788376 244.42368,1.0629772 c 15.34259,-1.49297958 1120.81002,-1.49297958 1136.15262,0 83.3788,8.1135412 153.7668,61.7128038 184.0636,140.1612328 4.5293,11.72774 9.773,32.3261 12.0478,47.32578 1.7347,11.43858 1.8123,38.14227 1.8123,623.95001 0,585.8077 -0.078,612.5114 -1.8123,623.95 -7.2242,47.6354 -27.0273,88.0878 -59.6877,121.9253 -36.1273,37.4295 -84.0639,60.4666 -136.4237,65.5617 -13.8601,1.3487 -1124.65374,1.2389 -1138.0763,-0.1125 z m 1142.7058,-117.0057 c 43.1842,-11.9294 72.79,-46.0653 77.7892,-89.6917 1.3597,-11.8658 1.3597,-1197.38837 0,-1209.25415 -5.0035,-43.66358 -34.5683,-77.75217 -77.7892,-89.69176 L 1375.5,115.5 h -563 -563 l -9.70581,2.68119 c -29.58037,8.17146 -53.82901,27.35333 -66.77054,52.81881 -3.7988,7.47501 -8.45041,21.01535 -10.13436,29.5 -2.08348,10.4977 -2.08348,1213.5023 0,1224 1.68395,8.4847 6.33556,22.025 10.13436,29.5 14.64509,28.8176 44.6899,50.083 77.5611,54.8969 3.28802,0.4815 254.41432,0.8078 565.41525,0.7347 l 559.5,-0.1316 z m -219.3235,-156.1994 c -14.9778,-5.3523 -25.3893,-20.7374 -28.8417,-42.6194 -1.4952,-9.4768 -1.2675,-27.4369 0.4744,-37.4259 3.5574,-20.3992 13.4322,-34.7573 27.724,-40.3108 3.2909,-1.2788 9.156,-1.7818 25.761,-2.2095 l 21.5,-0.5538 0.2522,-225.6399 0.2522,-225.63987 -21.7522,-0.46262 c -23.7005,-0.50406 -25.568,-0.8671 -33.8323,-6.57719 -13.9075,-9.60908 -21.3053,-28.73897 -21.385,-55.29943 -0.1006,-33.50125 11.8161,-56.04757 32.4252,-61.34809 8.8673,-2.28061 169.1657,-2.30231 177.9124,-0.0241 10.5376,2.74469 18.898,10.31181 25.1087,22.72629 5.6565,11.30667 6.7935,18.818 6.2863,41.53141 -0.4014,17.97635 -0.6684,20.3775 -2.9989,26.96611 -6.4881,18.34328 -16.6718,28.51994 -31.2023,31.18079 -3.2635,0.59762 -11.251,1.08658 -17.75,1.08658 H 1314 V 1002 1228 h 13.8185 c 9.772,0 15.4008,0.4699 19.2219,1.6046 13.8912,4.1253 24.3212,16.7593 29.0277,35.1618 2.819,11.022 2.7774,39.5794 -0.074,50.8236 -4.3544,17.1713 -13.7856,29.9434 -25.2891,34.2474 -5.7671,2.1577 -5.9771,2.1625 -93.4926,2.1187 -69.0966,-0.035 -88.4803,-0.3183 -91.3302,-1.3367 z M 462.5,1297.6012 c -6.24798,-1.976 -9.66279,-4.0903 -14.16606,-8.771 -7.87205,-8.1822 -10.28107,-15.4842 -13.34212,-40.4411 -2.11591,-17.2512 -4.95601,-28.5647 -10.61696,-42.2926 -4.54422,-11.0197 -8.44394,-17.8357 -12.33679,-21.5624 l -3.09812,-2.9658 -6.93468,7.2151 c -3.81407,3.9684 -14.84277,17.517 -24.50821,30.1081 -21.85519,28.4706 -29.08495,36.9709 -36.18326,42.5422 -12.78237,10.0324 -20.7531,8.7093 -44.8245,-7.4409 -17.86313,-11.9848 -19.47385,-14.5112 -19.48372,-30.5591 -0.0147,-23.9247 2.60041,-28.1893 41.35103,-67.4337 C 356.71472,1117.1532 362,1110.9196 362,1104.526 c 0,-5.9999 -9.73721,-23.4367 -27.9274,-50.0105 -30.62194,-44.7351 -37.68045,-60.14543 -35.1169,-76.66792 3.25091,-20.95265 12.61456,-28.775 31.02536,-25.91847 19.72886,3.06104 34.39467,12.73806 47.74135,31.50142 3.33019,4.68173 10.44491,17.18757 15.81049,27.79087 9.71764,19.2036 16.70722,31.1162 19.69588,33.5683 1.33858,1.0983 2.5144,0.5103 7.92156,-3.9612 3.49231,-2.8881 16.24966,-14.9394 28.34966,-26.7808 60.00618,-58.72343 67.71807,-65.94012 79.80759,-74.68298 7.402,-5.35295 8.10611,-5.64204 13.55401,-5.56479 22.8179,0.32353 55.0075,30.32039 55.11466,51.36027 0.0201,3.93906 -0.57887,5.40914 -3.87049,9.5 -5.61121,6.9737 -19.2428,19.9869 -37.60577,35.8999 -38.28232,33.1748 -89.63331,87.3862 -92.91179,98.0874 -1.00811,3.2905 2.32566,10.6898 10.29631,22.8525 22.41257,34.2001 42.14494,87.8035 42.10571,114.381 -0.0159,10.8107 -6.1383,20.4922 -16.99023,26.8674 -9.50912,5.5863 -26.87859,7.8956 -36.5,4.8528 z m 534.78714,-21.4676 c -7.99869,-2.7637 -15.8213,-8.4517 -26.85537,-19.5274 -14.99549,-15.052 -15.31278,-16.2746 -10.48072,-40.3828 1.62308,-8.0979 5.90885,-32.4984 9.52393,-54.2234 10.13498,-60.9067 13.03334,-76.2052 19.89267,-105 5.95332,-24.9915 12.09885,-58.56461 12.81165,-69.99022 0.4817,-7.72307 -1.9192,-6.66498 -15.0857,6.64814 -14.11394,14.27118 -28.16063,31.03188 -45.12363,53.84208 -16.82972,22.631 -26.48766,34.3187 -52.47219,63.5 -22.57548,25.3528 -35.03997,40.0817 -49.30956,58.2675 -16.06924,20.4792 -25.82925,25.0763 -39.24009,18.4823 -10.39908,-5.1132 -32.59368,-27.2381 -37.61087,-37.4929 -2.26886,-4.6374 -2.53754,-6.2209 -2.12645,-12.5325 0.40104,-6.1575 1.53042,-9.7092 7.64723,-24.0497 9.54928,-22.3877 13.26985,-36.2416 10.23649,-38.1163 -1.34296,-0.83 -16.88377,16.0924 -26.95368,29.3498 -9.04586,11.9093 -24.94557,34.7938 -43.14008,62.0918 -19.14984,28.7313 -28.13712,38.884 -38.70205,43.7208 -12.84566,5.8809 -24.89605,2.0043 -41.05567,-13.2077 -14.81947,-13.9504 -19.73999,-23.4063 -17.30896,-33.2631 2.06136,-8.3579 9.4533,-17.7652 31.61446,-40.2341 25.13526,-25.4842 29.24214,-30.0649 47.53161,-53.0159 18.2466,-22.8972 31.8902,-42.0036 55.69862,-78 10.7314,-16.225 22.80526,-34.47771 26.83079,-40.56157 11.98118,-18.10738 14.12726,-23.90111 17.28441,-46.66247 1.71645,-12.37471 7.78788,-22.49899 15.7615,-26.28271 6.99483,-3.31927 26.47357,-0.54937 39.00385,5.54639 11.97513,5.8257 21.91517,19.06943 24.48056,32.61697 1.34534,7.10458 0.56647,34.2297 -1.61784,56.34339 -1.85815,18.81178 -5.35488,50.2849 -6.08282,54.75 -0.31289,1.9192 -0.10492,3.25 0.50787,3.25 1.2129,0 127.11085,-143.75271 140.9027,-160.88539 14.5211,-18.03863 26.4001,-36.55416 30.7189,-47.8806 2.0414,-5.35371 4.287,-10.3564 4.9902,-11.1171 1.4822,-1.6032 11.6692,-1.62234 33.9411,-0.0638 17.5803,1.23027 21.4402,2.83759 26.2879,10.94685 5.6371,9.4297 7.7181,17.8399 7.6705,31 -0.052,14.31025 -2.0595,23.83489 -12.0987,57.39236 -17.6432,58.97514 -18.6449,63.11417 -34.8772,144.10768 -16.6979,83.3166 -20.3777,106.1035 -25.5152,158 -3.4319,34.6675 -7.32,48.7501 -15.9015,57.5945 -6.681,6.8858 -12.5222,8.2373 -21.77866,5.0391 z M 330.48107,887.53044 c -22.17898,-4.82925 -41.77655,-20.4085 -51.6133,-41.03044 -7.80439,-16.36126 -7.299,-8.62244 -7.62942,-116.82673 -0.20381,-66.74156 0.0269,-96.62738 0.74248,-96.18511 0.70575,0.43617 1.03749,30.95943 1.03607,95.32673 -0.002,100.98013 -0.0383,100.15127 4.9234,113.33093 3.09644,8.2251 8.85751,16.59971 16.81934,24.44954 10.92061,10.76698 23.20995,17.26457 36.74036,19.42527 3.85,0.61482 8.35,1.49075 10,1.94652 2.90537,0.80254 2.87383,0.82939 -1,0.85126 -2.2,0.0124 -6.70852,-0.56716 -10.01893,-1.28797 z m 191.67059,1.03797 c 0.35841,-0.38778 3.95841,-1.15739 8,-1.71025 19.49482,-2.66674 36.82076,-12.73493 48.38233,-28.11523 7.63216,-10.153 10.45419,-16.72597 14.27249,-33.24293 C 593.18791,823.85 593.275,789.425 593,749 l -0.5,-73.5 -25.5,-0.55991 c -22.96242,-0.5042 -26.19659,-0.78768 -32.5,-2.84867 -20.49956,-6.70263 -36.78929,-20.86654 -45.64274,-39.68634 -5.94658,-12.64065 -6.82561,-17.98141 -6.84248,-41.57329 -0.008,-11.36752 -0.28792,-21.38002 -0.62177,-22.25 C 480.84759,567.16045 473.75307,567 411.45203,567 c -45.14398,0 -69.54962,-0.34889 -69.95203,-1 -0.40977,-0.66303 22.97396,-1 69.39401,-1 h 70.01205 l 0.35363,-75.25 c 0.3225,-68.62442 0.5104,-75.77511 2.13402,-81.21394 8.12701,-27.22389 26.86399,-45.96424 54.14235,-54.15209 5.5127,-1.65469 13.13943,-1.8155 100.80006,-2.12541 82.40254,-0.29132 96.02031,-0.13092 103.86843,1.22344 32.95051,5.68633 57.60562,31.57584 61.78086,64.87402 0.55802,4.45033 1.01459,21.44267 1.01459,37.76076 0,26.13198 -0.18859,29.74161 -1.58179,30.27623 -0.86998,0.33385 -9.30748,0.6148 -18.75,0.62435 -20.26713,0.0205 -27.74138,1.32529 -39.16821,6.83763 -19.92859,9.61362 -33.24137,25.11718 -39.63836,46.16134 -2.23695,7.35891 -2.28393,8.55062 -2.81826,71.48367 l -0.54338,64 -53.71428,0.25867 -53.71429,0.25867 -0.32985,75.74133 c -0.36672,84.20462 -0.0201,79.73695 -7.34968,94.74133 -9.18729,18.80738 -24.54608,32.25396 -44.41645,38.88649 -7.13818,2.38265 -22.21425,4.68631 -20.82379,3.18192 z M 702.02248,609 c 0.52106,-64.3253 0.52877,-64.51752 2.84517,-70.96704 5.03956,-14.03163 13.14303,-26.53474 21.92219,-33.82451 17.48418,-14.51798 31.96563,-19.11044 60.46016,-19.17356 L 803,485 v -33.84004 c 0,-38.72225 -0.58194,-42.84811 -8.20328,-58.15996 -3.38189,-6.79449 -6.04325,-10.31664 -13.26376,-17.55384 -7.61274,-7.63034 -10.52661,-9.78794 -18.53296,-13.72295 -16.46251,-8.09108 -10.24196,-7.69179 -120.09004,-7.70843 -110.49544,-0.0167 -104.54162,-0.4168 -121.19668,8.14371 -11.51597,5.91908 -24.63571,19.03882 -30.55479,30.55479 -8.53739,16.61008 -8.13747,10.6985 -8.18359,120.97092 -0.0366,87.48246 0.12857,98.10874 1.6183,104.12062 5.44099,21.95739 21.161,40.99092 41.18523,49.8664 14.44091,6.40074 11.91098,6.24471 97.72157,6.02683 L 701.5,673.5 Z M 272,629.89434 c 0,-4.25882 3.27354,-14.61109 7.10826,-22.47924 9.32082,-19.12462 26.89031,-33.52809 48.05064,-39.39192 7.45969,-2.06718 15.44772,-2.78786 11.3411,-1.02318 -1.1,0.47269 -3.21427,0.89106 -4.69838,0.92971 -4.6618,0.12143 -18.03211,4.86257 -24.80162,8.7947 -3.575,2.07658 -10.34911,7.62064 -15.05357,12.32014 -7.10352,7.09603 -9.33805,10.1475 -13.18104,18 -2.55892,5.22872 -5.37368,12.91982 -6.29681,17.20545 C 272.79614,632.01436 272,633.83472 272,629.89434 Z"
         id="path433" />
      <path
         style="fill:#317d01"
         d="m 254.7873,1510.1797 c -0.94198,-0.3738 250.02874,-0.6797 557.7127,-0.6797 307.684,0 558.6547,0.3059 557.7127,0.6797 -0.942,0.3739 -251.9127,0.6797 -557.7127,0.6797 -305.8,0 -556.77071,-0.3058 -557.7127,-0.6797 z M 246,1509 c -2.00973,-0.6436 -2.10779,-0.8064 -0.5,-0.83 1.1,-0.016 2.9,0.3573 4,0.83 2.54822,1.095 -0.0808,1.095 -3.5,0 z m 1129.5,0.1259 c 1.1,-0.4628 3.8,-1.1231 6,-1.4674 2.5386,-0.3972 3.2693,-0.3185 2,0.2156 -1.1,0.4628 -3.8,1.1231 -6,1.4674 -2.5386,0.3972 -3.2693,0.3185 -2,-0.2156 z m -1134.6875,-1.809 c 0.72187,-0.2889 1.58437,-0.2534 1.91667,0.079 0.33229,0.3323 -0.25834,0.5687 -1.3125,0.5253 -1.16495,-0.048 -1.4019,-0.285 -0.60417,-0.6042 z M 229.47109,1504.58 C 222.58112,1501.9261 213,1497.2078 213,1496.4688 c 0,-0.2737 2.67364,0.8521 5.94142,2.5016 3.26779,1.6496 9.23029,4.1196 13.25,5.4889 4.01972,1.3692 6.40858,2.4791 5.30858,2.4663 -1.1,-0.013 -4.71301,-1.0684 -8.02891,-2.3456 z m 1157.34141,1.7369 c 0.7219,-0.2889 1.5844,-0.2534 1.9167,0.079 0.3323,0.3323 -0.2584,0.5687 -1.3125,0.5253 -1.165,-0.048 -1.4019,-0.285 -0.6042,-0.6042 z m 7.6284,-2.3395 c 2.7174,-1.0609 5.0986,-1.7712 5.2914,-1.5784 0.4772,0.4772 -7.4649,3.6127 -9.0025,3.5542 -0.6764,-0.026 0.9936,-0.9148 3.7111,-1.9758 z m 6.6424,-2.3571 c 1.0201,-0.9296 10.9167,-5.602 10.9167,-5.154 0,0.5638 -9.55,5.5337 -10.6334,5.5337 -0.385,0 -0.5124,-0.1709 -0.2833,-0.3797 z M 205.41578,1491.88 c -12.40944,-8.6424 -21.83724,-18.5271 -28.97587,-30.38 -2.76372,-4.5889 -0.31369,-1.7541 4.78507,5.5365 6.01878,8.6061 13.99482,16.6137 22.42892,22.5176 7.48362,5.2386 9.02172,6.4459 8.21188,6.4459 -0.29382,0 -3.19632,-1.854 -6.45,-4.12 z M 1413,1495.6765 c 0,-0.2429 2.9022,-2.3324 6.4493,-4.6435 8.3546,-5.4432 17.8475,-14.7544 24.0009,-23.5413 5.756,-8.2194 7.5828,-10.311 4.9419,-5.6581 -3.2467,5.7203 -13.9251,18.4805 -19.0201,22.7282 -6.3343,5.2809 -16.372,12.0953 -16.372,11.1147 z M 171.95056,1453.9031 c -1.14954,-2.2533 -1.91856,-4.2684 -1.70893,-4.4781 0.20964,-0.2096 1.36018,1.634 2.55677,4.0969 2.72529,5.6095 1.98845,5.9408 -0.84784,0.3812 z m 1280.25104,-0.3812 c 1.1966,-2.4629 2.3471,-4.3065 2.5568,-4.0969 0.4524,0.4524 -3.5883,8.575 -4.2657,8.575 -0.2567,0 0.5123,-2.0151 1.7089,-4.4781 z M 167.01546,1442.319 c -2.96502,-7.9149 -7.00834,-24.5352 -5.65926,-23.2626 0.32441,0.3059 1.25202,3.7042 2.06135,7.5517 0.80934,3.8474 2.60048,10.1056 3.98031,13.907 1.37983,3.8014 2.34874,7.0716 2.15313,7.2672 -0.19561,0.1957 -1.3366,-2.2628 -2.53553,-5.4633 z m 1288.99794,3.431 c 0.078,-1.4578 4.9088,-14.844 4.9419,-13.6942 0.051,1.7644 -3.921,13.9442 -4.5471,13.9442 -0.2245,0 -0.4022,-0.1125 -0.3948,-0.25 z m 5.6587,-19.25 c 0.97,-6.0672 2.4117,-9.9298 1.6795,-4.5 -0.3337,2.475 -0.992,5.4 -1.4629,6.5 -0.5518,1.2892 -0.6288,0.5784 -0.2166,-2 z M 160.60699,1413.4182 C 159.73006,1411.133 159.8879,212.72428 160.76531,211.34549 161.16939,210.71051 161.5,481.27301 161.5,812.59549 161.5,1143.918 161.4356,1415 161.35699,1415 c -0.0787,0 -0.41616,-0.7118 -0.75,-1.5818 z M 1463.5,812.5 c 0,-331.26996 0.3306,-601.78949 0.7347,-601.15451 0.4041,0.63498 0.7347,271.15451 0.7347,601.15451 0,330 -0.3306,600.5195 -0.7347,601.1545 -0.4041,0.635 -0.7347,-269.8845 -0.7347,-601.1545 z m -297.6177,538.1194 c -14.9778,-5.3523 -25.3893,-20.7374 -28.8417,-42.6194 -1.4952,-9.4768 -1.2675,-27.4369 0.4744,-37.4259 3.5574,-20.3992 13.4322,-34.7573 27.724,-40.3108 3.2909,-1.2788 9.156,-1.7818 25.761,-2.2095 l 21.5,-0.5538 0.2522,-225.6399 0.2522,-225.63987 -21.7522,-0.46262 c -23.7005,-0.50406 -25.568,-0.8671 -33.8323,-6.57719 -13.9075,-9.60908 -21.3053,-28.73897 -21.385,-55.29943 -0.1006,-33.50125 11.8161,-56.04757 32.4252,-61.34809 8.8673,-2.28061 169.1657,-2.30231 177.9124,-0.0241 10.5376,2.74469 18.898,10.31181 25.1087,22.72629 5.6565,11.30667 6.7935,18.818 6.2863,41.53141 -0.4014,17.97635 -0.6684,20.3775 -2.9989,26.96611 -6.4881,18.34328 -16.6718,28.51994 -31.2023,31.18079 -3.2635,0.59762 -11.251,1.08658 -17.75,1.08658 H 1314 V 1002 1228 h 13.8185 c 9.772,0 15.4008,0.4699 19.2219,1.6046 13.8912,4.1253 24.3212,16.7593 29.0277,35.1618 2.819,11.022 2.7774,39.5794 -0.074,50.8236 -4.3544,17.1713 -13.7856,29.9434 -25.2891,34.2474 -5.7671,2.1577 -5.9771,2.1625 -93.4926,2.1187 -69.0966,-0.035 -88.4803,-0.3183 -91.3302,-1.3367 z M 462.5,1297.6012 c -6.24798,-1.976 -9.66279,-4.0903 -14.16606,-8.771 -7.87205,-8.1822 -10.28107,-15.4842 -13.34212,-40.4411 -2.11591,-17.2512 -4.95601,-28.5647 -10.61696,-42.2926 -4.51182,-10.9412 -8.44011,-17.8321 -12.23823,-21.4679 l -2.99956,-2.8715 -5.40833,5.115 c -2.97458,2.8132 -5.77757,4.7804 -6.22886,4.3714 -0.45129,-0.4089 -0.47423,-0.1444 -0.051,0.5878 0.92246,1.5957 -4.24572,7.4123 -5.75644,6.4786 -0.57895,-0.3578 -0.68902,-0.1133 -0.26089,0.5794 0.84118,1.3611 -1.22733,4.355 -2.47579,3.5834 -0.44968,-0.2779 -1.14322,0.022 -1.5412,0.6655 -0.47801,0.7734 -0.28773,0.9014 0.56063,0.3771 2.28652,-1.4131 0.75849,0.7726 -13.80913,19.7529 -7.88365,10.2717 -14.85865,18.5759 -15.5,18.4538 -0.64135,-0.1221 -1.05052,0.493 -0.90926,1.3668 0.23688,1.4655 -3.12599,5.4112 -4.61182,5.4112 -0.35475,0 -0.508,0.411 -0.34054,0.9134 0.49081,1.4724 -10.14248,11.6709 -11.58955,11.1156 -0.72534,-0.2784 -1.06513,-0.096 -0.7551,0.406 0.75184,1.2165 -4.02242,4.4832 -8.83479,6.045 -5.22195,1.6947 -11.56446,0.6873 -18.79046,-2.9847 -8.90644,-4.5259 -26.85635,-16.8603 -26.57848,-18.2636 0.13415,-0.6774 -0.52672,-1.1033 -1.46859,-0.9465 -1.08055,0.18 -2.73384,-1.2581 -4.48018,-3.897 -2.48154,-3.7499 -2.80711,-5.2473 -3.14903,-14.4842 -0.44932,-12.138 1.03299,-21.8746 4.31679,-28.3548 2.89495,-5.7129 11.35503,-16.2722 12.48013,-15.5769 0.45,0.2781 1.43166,-0.2507 2.18148,-1.1753 1.15401,-1.4229 1.15149,-1.5533 -0.0164,-0.8498 -0.87376,0.5264 -1.24048,0.4224 -1,-0.2834 0.43241,-1.2693 44.98876,-46.1638 45.81604,-46.1638 0.29672,0 -6.43006,7.0875 -14.94839,15.75 l -15.48789,15.75 16.24999,-15.9883 c 8.9375,-8.7935 16.24999,-16.1326 16.24999,-16.309 0,-0.1764 -0.45,-0.043 -1,0.2973 -0.55,0.3399 -1,0.2399 -1,-0.2223 0,-1.0179 11.0887,-12.1057 12.5,-12.499 0.55,-0.1533 0.86696,-0.6778 0.70435,-1.1657 -0.16261,-0.4878 0.57764,-1.8378 1.645,-3 3.47922,-3.7882 6.1431,-9.0499 6.14691,-12.1412 0.007,-5.9387 -9.78597,-23.4592 -27.92366,-49.9563 -30.62194,-44.7351 -37.68045,-60.14543 -35.1169,-76.66792 3.25091,-20.95265 12.61456,-28.775 31.02536,-25.91847 19.72886,3.06104 34.39467,12.73806 47.74135,31.50142 3.33019,4.68173 10.44491,17.18757 15.81049,27.79087 9.70432,19.1773 16.70713,31.1162 19.68365,33.5582 1.30385,1.0697 2.05768,0.8605 4.59589,-1.2752 1.66992,-1.4052 3.40777,-2.431 3.86189,-2.2796 0.45412,0.1513 0.82567,-0.041 0.82567,-0.4266 0,-1.303 7.89195,-8.7958 9.00119,-8.5459 0.60483,0.1362 3.54427,-1.8898 6.53208,-4.5023 2.98781,-2.6125 5.00556,-4.75 4.4839,-4.75 -0.52166,0 -3.21393,2.1312 -5.98282,4.7359 -2.76889,2.6048 3.74065,-4.1499 14.46565,-15.0105 10.725,-10.8606 20.0013,-19.55434 20.614,-19.31951 0.6127,0.23483 3.7627,-2.34793 7,-5.73946 L 484.5,981.5 l -6.25,5.9687 c -11.96129,11.42293 -6.1511,4.78028 8.78627,-10.04513 13.98123,-13.87645 18.44877,-17.76294 16.44168,-14.3033 -0.44025,0.75885 0.39711,0.28879 1.8608,-1.04458 3.23231,-2.94453 3.55404,-4.12854 0.41125,-1.51346 -1.2375,1.02971 0.20755,-0.69845 3.21123,-3.84035 3.00367,-3.1419 6.15367,-5.60214 7,-5.46721 0.84632,0.13493 1.43211,-0.29965 1.30175,-0.96574 -0.30904,-1.57903 8.33403,-8.78854 10.53813,-8.79025 0.93439,-7.2e-4 1.69889,-0.55776 1.69889,-1.23786 0,-0.6801 1.75596,-2.42975 3.90214,-3.88811 15.29418,-10.39267 51.30201,11.92701 62.27755,38.60313 2.9564,7.18557 3.01825,13.8205 0.16442,17.6393 -3.0598,4.09442 -23.14323,24.38486 -24.13607,24.38486 -0.45434,0 -0.48814,-0.5625 -0.0751,-1.25 0.5165,-0.8597 0.22613,-0.8243 -0.92997,0.1133 -0.92452,0.7498 -1.4769,1.6935 -1.22752,2.097 0.5884,0.952 -4.90776,6.2289 -6.08057,5.838 -0.49219,-0.1641 -0.89488,0 -0.89488,0.3711 0,1.5426 -5.0126,5.8479 -6.25394,5.3715 -0.74246,-0.2849 -1.11907,-0.1444 -0.83691,0.3121 0.72164,1.1676 -6.02436,7.5029 -7.20944,6.7704 -0.5352,-0.3307 -1.52918,0.069 -2.20885,0.8876 -0.67966,0.819 -0.86196,1.489 -0.4051,1.489 0.45686,0 -1.15673,2.025 -3.58576,4.5 -4.12179,4.1998 -7.04692,6.003 -5.3906,3.323 0.40009,-0.6474 -0.90247,0.1235 -2.89458,1.713 -1.99212,1.5896 -3.41613,3.096 -3.16448,3.3477 0.25165,0.2516 1.69327,-0.6159 3.2036,-1.9278 1.51033,-1.3119 -7.82535,8.2863 -20.74596,21.3294 -21.43195,21.6351 -28.36894,28.2661 -21.93229,20.9647 l 2.42431,-2.75 -2.67777,2.3565 c -1.47277,1.296 -2.47486,2.8851 -2.22688,3.5314 0.45398,1.183 -6.10701,8.2416 -7.40089,7.9621 -0.38195,-0.082 -0.57872,0.2647 -0.43725,0.7716 0.14146,0.5069 -2.1287,3.7341 -5.0448,7.1716 -6.36252,7.5001 -11.19295,14.4222 -12.11028,17.3543 -1.02754,3.2844 2.28858,10.6545 10.28239,22.8525 27.70429,42.275 48.38357,107.0845 40.03853,125.482 -2.30327,5.0778 -4.80858,8.2068 -5.9876,7.4781 -0.84527,-0.5224 -2.39441,1.3925 -2.42014,2.9916 -0.0307,1.9101 -8.20944,6.5811 -15.81693,9.0334 -8.77208,2.8277 -20.29155,3.3004 -27.19838,1.1161 z m 14.25,-0.3175 c -1.5125,-0.2291 -3.9875,-0.2291 -5.5,0 -1.5125,0.2292 -0.275,0.4166 2.75,0.4166 3.025,0 4.2625,-0.1874 2.75,-0.4166 z m 20.74292,-5.2722 c 0.35034,-0.5669 -0.0511,-0.7346 -0.94098,-0.3931 -1.73242,0.6648 -2.04939,1.3816 -0.61096,1.3816 0.51754,0 1.21592,-0.4448 1.55194,-0.9885 z M 452,1290.6743 c 0,-0.1791 -1.2375,-1.4166 -2.75,-2.75 l -2.75,-2.4243 2.42431,2.75 c 2.26589,2.5703 3.07569,3.2086 3.07569,2.4243 z m -8.65492,-12.2174 c -0.32569,-0.8487 -0.80663,-1.3287 -1.06875,-1.0666 -0.26213,0.2622 -0.17998,0.9566 0.18255,1.5432 0.98605,1.5954 1.56238,1.2855 0.8862,-0.4766 z m 71.36065,-14.7069 c -0.23835,-1.2375 -0.43337,-0.225 -0.43337,2.25 0,2.475 0.19502,3.4875 0.43337,2.25 0.23836,-1.2375 0.23836,-3.2625 0,-4.5 z M 316,1263.607 c 0,-0.2162 -0.69837,-0.661 -1.55194,-0.9886 -0.88992,-0.3415 -1.29132,-0.1738 -0.94098,0.3931 0.58726,0.9502 2.49292,1.4054 2.49292,0.5955 z m 121.68311,-8.7945 c -0.31922,-0.7977 -0.55618,-0.5608 -0.60416,0.6042 -0.0434,1.0541 0.19293,1.6448 0.52522,1.3125 0.33229,-0.3323 0.36781,-1.1948 0.0789,-1.9167 z m -1,-8 c -0.31922,-0.7977 -0.55618,-0.5608 -0.60416,0.6042 -0.0434,1.0541 0.19293,1.6448 0.52522,1.3125 0.33229,-0.3323 0.36781,-1.1948 0.0789,-1.9167 z M 278.7298,1221.2723 c -0.21648,-2.0748 -0.39722,-0.6223 -0.40166,3.2277 -0.004,3.85 0.17268,5.5475 0.39359,3.7723 0.22091,-1.7752 0.22454,-4.9252 0.008,-7 z m 0.95331,-12.4598 c -0.31922,-0.7977 -0.55618,-0.5608 -0.60416,0.6042 -0.0434,1.0541 0.19293,1.6448 0.52522,1.3125 0.33229,-0.3323 0.36781,-1.1948 0.0789,-1.9167 z m 30.33695,-41.3367 c 1.93237,-2.3283 0.55355,-2.7671 -1.51451,-0.4819 -0.99854,1.1033 -1.35088,2.0061 -0.78298,2.0061 0.5679,0 1.60177,-0.6859 2.29749,-1.5242 z m 151.66305,-37.6633 c -0.31922,-0.7977 -0.55618,-0.5608 -0.60416,0.6042 -0.0434,1.0541 0.19293,1.6448 0.52522,1.3125 0.33229,-0.3323 0.36781,-1.1948 0.0789,-1.9167 z M 587,1000.6077 c 0,-0.55 -1.575,0.5265 -3.5,2.3923 -1.925,1.8658 -3.5,3.8423 -3.5,4.3923 0,0.55 1.575,-0.5265 3.5,-2.3923 1.925,-1.8658 3.5,-3.8423 3.5,-4.3923 z m -99.97994,-20.13187 c 1.93237,-2.32837 0.55355,-2.76715 -1.51451,-0.48196 -0.99854,1.10337 -1.35088,2.00613 -0.78298,2.00613 0.5679,0 1.60177,-0.68587 2.29749,-1.52417 z M 309,958 c 0,-0.55 -0.19844,-1 -0.44098,-1 -0.24254,0 -0.7191,0.45 -1.05902,1 -0.33992,0.55 -0.14148,1 0.44098,1 0.58246,0 1.05902,-0.45 1.05902,-1 z m 21.72917,-4.60417 c -0.33229,-0.33229 -1.1948,-0.36781 -1.91667,-0.0789 -0.79773,0.31922 -0.56078,0.55618 0.60417,0.60416 1.05416,0.0434 1.64479,-0.19293 1.3125,-0.52522 z m 207.79729,-18.2027 c -0.30789,-0.30789 -1.11479,-6.4e-4 -1.79313,0.68278 -0.98026,0.98762 -0.8654,1.10248 0.5598,0.5598 0.98622,-0.37553 1.54122,-0.93469 1.23333,-1.24258 z M 997.83053,1276.4236 C 992.5234,1274.7902 980.5,1267.0961 980.5,1265.3333 c 0,-0.6416 -0.40965,-1.5416 -0.91033,-2 -0.52889,-0.4841 -0.60891,-0.3095 -0.19098,0.4167 2.02635,3.5212 -2.04999,0.2706 -10.03238,-8 -13.83569,-14.3353 -14.17712,-15.7687 -9.41526,-39.5266 1.62308,-8.0979 5.90885,-32.4984 9.52393,-54.2234 10.13498,-60.9067 13.03334,-76.2052 19.89267,-105 8.0033,-33.5971 14.46375,-72.50193 12.38475,-74.58094 -0.3664,-0.36638 -1.4731,-0.29876 -2.45927,0.15025 -0.98622,0.44901 -2.46813,0.86312 -3.29313,0.92024 -0.825,0.0571 -1.41317,0.56832 -1.30705,1.13599 0.10612,0.56767 -3.71288,4.82166 -8.48666,9.4533 -4.77378,4.63164 -8.12311,7.76866 -7.44295,6.97116 0.68017,-0.7975 1.23666,-1.89601 1.23666,-2.44113 0,-0.54512 -0.62494,-0.13647 -1.38876,0.90811 -0.76381,1.04462 -1.20341,2.38222 -0.97688,2.97252 0.4086,1.0648 -5.21546,7.1461 -7.13436,7.7144 -0.55,0.1628 -0.86696,0.6952 -0.70435,1.1831 0.45559,1.3667 -3.95531,5.6324 -5.09552,4.9277 -0.56305,-0.348 -0.70251,-0.1276 -0.31548,0.4987 0.89017,1.4403 -11.29282,16.3614 -12.66606,15.5127 -0.57013,-0.3524 -0.72736,-0.1493 -0.35318,0.4561 0.89216,1.4436 -18.29027,27.3823 -19.63524,26.551 -0.60446,-0.3735 -0.73927,-0.1569 -0.32225,0.5178 0.91407,1.479 -6.26735,10.3539 -7.6745,9.4842 -0.61327,-0.379 -0.74272,-0.1593 -0.31443,0.5337 0.93131,1.5069 -7.22633,11.3682 -8.66743,10.4776 -0.64847,-0.4008 -0.76381,-0.1753 -0.29683,0.5803 0.84032,1.3596 -4.23032,7.3299 -5.53866,6.5213 -0.42783,-0.2644 -1.1035,0.046 -1.50148,0.6901 -0.45192,0.7312 -0.29014,0.9029 0.4309,0.4573 0.63498,-0.3924 1.15451,-0.3212 1.15451,0.1584 0,1.1164 -5.54099,6.4515 -6.65654,6.4092 -0.4639,-0.018 -0.73141,0.5257 -0.59445,1.2073 0.24371,1.2128 -6.1838,8.1296 -7.55455,8.1296 -0.38195,0 -0.55937,0.4053 -0.39426,0.9006 0.3903,1.1709 -5.89197,7.6607 -6.84535,7.0715 -0.40053,-0.2475 -1.34172,0.3063 -2.09154,1.2309 -0.93764,1.1561 -0.97302,1.4464 -0.11331,0.9299 2.4827,-1.4915 1.17414,1.0483 -2.25,4.3671 -1.925,1.8658 -3.5,3.024 -3.5,2.5737 0,-0.4502 -0.64825,-0.2806 -1.44056,0.377 -0.79231,0.6575 -1.23073,1.7423 -0.97426,2.4107 0.4439,1.1568 -4.47195,6.6649 -6.23493,6.9862 -0.46017,0.084 -0.72691,0.6304 -0.59275,1.2146 0.24857,1.0825 -4.8802,6.5081 -6.41404,6.7854 -0.4639,0.084 -0.72119,0.5192 -0.57176,0.9675 0.4193,1.2579 -8.88096,11.7354 -9.87274,11.1225 -0.48183,-0.2978 -0.68468,0.044 -0.45079,0.7605 0.52561,1.6091 -16.72491,23.3932 -18.26399,23.0639 -0.61171,-0.1309 -0.89182,0.3363 -0.62246,1.0382 0.63776,1.662 -5.06326,7.1259 -6.50524,6.2347 -0.60832,-0.376 -0.98238,-0.1318 -0.83126,0.5425 0.37511,1.6738 -5.65312,5.6915 -10.49645,6.9956 -7.7856,2.0965 -20.13718,-3.3814 -28.72877,-12.7411 -3.10445,-3.382 -3.16096,-3.5315 -0.5,-1.3224 l 3,2.4905 -2.39536,-2.7192 c -1.31745,-1.4955 -2.8083,-2.4639 -3.31301,-2.152 -1.27191,0.7861 -4.96598,-2.7321 -4.40464,-4.1949 0.25163,-0.6557 -1.195,-2.7091 -3.21474,-4.5631 L 772.5,1161.5 l 3.49293,4 c 2.90275,3.3241 2.60394,3.1585 -1.7685,-0.9806 -2.89377,-2.7394 -5.059,-5.5081 -4.8116,-6.1528 0.24739,-0.6447 -0.21911,-2.0034 -1.03668,-3.0194 -1.36982,-1.7022 -1.39953,-1.651 -0.37845,0.6528 1.00789,2.2741 0.87712,2.2289 -1.44695,-0.5 -4.23096,-4.9679 -5.88277,-10.6157 -5.33667,-18.2467 0.39458,-5.5137 1.7991,-9.8416 7.65197,-23.5786 9.34946,-21.9438 13.04963,-35.4257 10.4392,-38.0361 -0.38212,-0.3821 -3.54524,2.1304 -7.02915,5.5833 -3.48392,3.453 -6.65878,6.2781 -7.05525,6.2781 -0.39647,0 -0.58662,0.4027 -0.42256,0.8949 0.45569,1.367 -4.9661,6.6194 -6.10582,5.915 -0.55082,-0.3404 -0.6986,-0.1288 -0.3284,0.4702 0.3702,0.599 -2.86144,5.731 -7.18141,11.4045 -8.16477,10.7229 -24.43718,34.1865 -42.17652,60.8154 -13.16556,19.7631 -17.86904,26.0183 -25.37612,33.7479 -4.62913,4.7663 -6.54964,6.1143 -8.09903,5.6845 -1.6023,-0.4445 -1.71883,-0.349 -0.55205,0.4526 1.16842,0.8027 0.23325,1.5863 -4.45392,3.7322 -7.95,3.6396 -15.0446,3.665 -22.87132,0.082 -7.20259,-3.2975 -11.68666,-6.4498 -11.38536,-8.004 0.12741,-0.6573 -0.49846,-1.0759 -1.39084,-0.9304 -2.28097,0.3719 -17.82627,-16.2764 -20.8438,-22.3228 -3.23328,-6.4786 -3.33483,-14.2012 -0.26881,-20.4418 3.0104,-6.1274 9.49384,-14.4899 11.27707,-14.5455 0.80192,-0.025 1.31927,-0.6663 1.14967,-1.4251 -0.30371,-1.3588 20.49263,-23.0294 22.10033,-23.0294 0.45434,0 0.48814,0.5625 0.0751,1.25 -0.54482,0.9068 -0.30282,0.8868 0.88154,-0.073 0.89789,-0.7277 1.42773,-1.8568 1.17744,-2.509 -0.25029,-0.6523 3.24659,-4.7819 7.77086,-9.1769 4.52426,-4.3951 7.38605,-6.9785 6.35953,-5.741 -1.02652,1.2375 -1.39481,2.25 -0.81841,2.25 1.14756,0 2.67093,-2.8731 2.41898,-4.5622 -0.0871,-0.5842 1.19189,-2.3559 2.84228,-3.9371 1.6504,-1.5812 3.00072,-2.5106 3.00072,-2.0653 0,0.4452 0.67005,0.2534 1.48899,-0.4263 0.81894,-0.6796 1.23893,-1.6403 0.9333,-2.1348 -0.79656,-1.2889 8.5947,-11.9818 9.84471,-11.2093 0.58898,0.364 0.74496,0.1634 0.35876,-0.4615 -0.3783,-0.6121 4.18497,-7.2645 10.2239,-14.9045 15.44007,-19.5337 29.47924,-39.3495 51.93132,-73.299 10.73019,-16.225 22.80306,-34.47771 26.82859,-40.56157 11.98118,-18.10738 14.12726,-23.90111 17.28441,-46.66247 1.69206,-12.19888 7.78798,-22.49903 15.47413,-26.14635 8.25809,-3.91872 31.4781,0.0819 43.04263,7.41592 2.58149,1.63713 4.45009,3.37063 4.15245,3.85223 -0.29764,0.48159 0.21526,1.48911 1.13978,2.23893 1.1561,0.93764 1.44647,0.97302 0.92997,0.11331 -0.95775,-1.59418 0.58723,-1.62983 2.16706,-0.05 1.57983,1.57983 1.54418,3.12481 -0.05,2.16706 -0.85971,-0.5165 -0.82433,-0.22613 0.11331,0.92997 0.74982,0.92452 1.74619,1.44431 2.21417,1.15508 1.0618,-0.65623 5.2385,5.87437 8.19052,12.80653 2.08673,4.90022 2.22474,6.60818 2.1204,26.24136 -0.10867,20.44831 -1.50934,37.89157 -6.31552,78.6506 -1.05907,8.9815 -1.72698,16.5286 -1.48425,16.7714 0.24273,0.2427 2.03458,-1.1029 3.98189,-2.9904 1.94731,-1.8874 3.85307,-3.3486 4.23502,-3.2472 0.38195,0.1015 0.58164,-0.3765 0.44374,-1.0622 -0.26362,-1.3108 4.95775,-6.8403 6.40726,-6.7853 0.4639,0.018 0.73064,-0.529 0.59274,-1.2147 -0.26362,-1.3108 4.95775,-6.8403 6.40726,-6.7853 0.4639,0.018 0.73064,-0.529 0.59274,-1.2147 -0.24664,-1.2264 4.75936,-6.6719 6.40726,-6.9698 0.4639,-0.084 0.71042,-0.5515 0.54781,-1.0394 -0.39198,-1.1759 3.87764,-5.68036 4.8277,-5.09319 0.40774,0.25199 1.35482,-0.29826 2.10464,-1.22278 0.93764,-1.1561 0.97302,-1.44647 0.11331,-0.92997 -2.34106,1.40646 -1.25929,-0.98397 1.75,-3.86706 1.65,-1.5808 3,-2.50989 3,-2.06465 0,0.44525 0.64825,0.27154 1.44056,-0.38602 0.79231,-0.65756 1.22904,-1.74675 0.97053,-2.42044 -0.25852,-0.67369 0.66823,-2.29423 2.05944,-3.6012 1.39121,-1.30698 2.52947,-2.01778 2.52947,-1.57956 0,0.43822 0.64825,0.25876 1.44056,-0.3988 0.79231,-0.65756 1.22904,-1.74675 0.97053,-2.42044 -0.4413,-1.14999 3.9613,-6.12889 5.41947,-6.12889 0.36819,0 0.53521,-0.40269 0.37115,-0.89488 -0.39094,-1.17281 4.88597,-6.66897 5.83801,-6.08057 0.40352,0.24938 1.34715,-0.303 2.09697,-1.22752 0.93764,-1.1561 0.97302,-1.44647 0.11331,-0.92997 -0.6875,0.41304 -1.25,0.35861 -1.25,-0.12095 0,-1.00804 5.40427,-6.36672 6.64975,-6.59366 0.46017,-0.0839 0.72691,-0.63045 0.59275,-1.21467 -0.26792,-1.16668 5.06226,-6.65215 6.41404,-6.60091 0.4639,0.0176 0.73064,-0.52901 0.59274,-1.21467 -0.26362,-1.31082 4.95775,-6.84028 6.40726,-6.78533 0.4639,0.0176 0.73064,-0.52901 0.59274,-1.21467 -0.24598,-1.22311 4.75614,-6.67014 6.40047,-6.96975 0.46017,-0.0839 0.72691,-0.63045 0.59275,-1.21467 -0.24784,-1.07923 4.87704,-6.50651 6.40725,-6.78533 0.46017,-0.0839 0.72691,-0.63045 0.59275,-1.21467 -0.24784,-1.07923 4.87704,-6.50651 6.40725,-6.78533 0.46017,-0.0839 0.72691,-0.63045 0.59275,-1.21467 -0.26792,-1.16668 5.06226,-6.65215 6.41404,-6.60091 0.4639,0.0176 0.73064,-0.52901 0.59274,-1.21467 -0.26362,-1.31082 4.95775,-6.84028 6.40726,-6.78533 0.4639,0.0176 0.73064,-0.52901 0.59274,-1.21467 -0.24664,-1.22643 4.75936,-6.6719 6.40726,-6.96975 0.4639,-0.0839 0.70923,-0.55514 0.54517,-1.04733 -0.45569,-1.36705 4.9661,-6.61944 6.10582,-5.91505 0.55082,0.34042 0.70166,0.13382 0.3352,-0.45912 -0.36645,-0.59294 3.43565,-6.17497 8.44907,-12.40451 14.289,-17.75491 26.1805,-36.32457 30.4769,-47.59243 2.0414,-5.35371 4.287,-10.3564 4.9902,-11.1171 1.4822,-1.6032 11.6692,-1.62234 33.9411,-0.0638 17.5803,1.23027 21.4402,2.83759 26.2879,10.94685 5.6371,9.4297 7.7181,17.8399 7.6705,31 -0.052,14.31025 -2.0595,23.83489 -12.0987,57.39236 -17.6432,58.97514 -18.6449,63.11417 -34.8772,144.10768 -16.6979,83.3166 -20.3777,106.1035 -25.5152,158 -3.4319,34.6675 -7.32,48.7501 -15.9015,57.5945 -6.4769,6.6755 -12.1967,8.1109 -21.23527,5.3291 z m 3.89867,-1.0278 c -0.3323,-0.3323 -1.1948,-0.3678 -1.9167,-0.079 -0.79773,0.3192 -0.56078,0.5562 0.6042,0.6042 1.0541,0.043 1.6448,-0.193 1.3125,-0.5253 z M 1018.5,1271 c 0.3399,-0.55 0.1415,-1 -0.441,-1 -0.5824,0 -1.059,0.45 -1.059,1 0,0.55 0.1984,1 0.441,1 0.2425,0 0.7191,-0.45 1.059,-1 z m -59.80701,-37.731 c -0.25354,-0.9729 -0.47766,-0.419 -0.49804,1.231 -0.0204,1.65 0.18706,2.4461 0.46099,1.769 0.27392,-0.677 0.29059,-2.027 0.0371,-3 z m 73.96931,-12.519 c -0.2774,-0.6875 -0.5044,-0.125 -0.5044,1.25 0,1.375 0.227,1.9375 0.5044,1.25 0.2774,-0.6875 0.2774,-1.8125 0,-2.5 z m 1.0208,-9.9375 c -0.3192,-0.7977 -0.5562,-0.5608 -0.6042,0.6042 -0.043,1.0541 0.193,1.6448 0.5253,1.3125 0.3323,-0.3323 0.3678,-1.1948 0.079,-1.9167 z m -349.09198,-12.5547 c -0.58764,-0.5877 -4.59112,3.0214 -4.59112,4.1388 0,0.5236 1.12323,-0.1032 2.49606,-1.3929 1.37283,-1.2897 2.31561,-2.5254 2.09506,-2.7459 z m 350.09198,2.5547 c -0.3192,-0.7977 -0.5562,-0.5608 -0.6042,0.6042 -0.043,1.0541 0.193,1.6448 0.5253,1.3125 0.3323,-0.3323 0.3678,-1.1948 0.079,-1.9167 z m -406.70316,-7.3367 c -0.69572,-0.8383 -1.47088,-1.3182 -1.72258,-1.0665 -0.69349,0.6935 0.71555,2.5907 1.9241,2.5907 0.6631,0 0.58723,-0.5738 -0.20152,-1.5242 z m 407.70316,-2.6633 c -0.3192,-0.7977 -0.5562,-0.5608 -0.6042,0.6042 -0.043,1.0541 0.193,1.6448 0.5253,1.3125 0.3323,-0.3323 0.3678,-1.1948 0.079,-1.9167 z m 3,-24 c -0.3192,-0.7977 -0.5562,-0.5608 -0.6042,0.6042 -0.043,1.0541 0.193,1.6448 0.5253,1.3125 0.3323,-0.3323 0.3678,-1.1948 0.079,-1.9167 z M 615.91971,1159 c 1.12265,-2.3573 1.10183,-2.3892 -0.36454,-0.5589 -0.85535,1.0677 -1.55517,2.3802 -1.55517,2.9167 0,1.2705 0.4619,0.7032 1.91971,-2.3578 z m 146.78755,-21.2383 c -0.23919,-1.244 -0.44398,-0.4617 -0.45508,1.7383 -0.0111,2.2 0.18461,3.2177 0.4349,2.2617 0.25029,-0.9561 0.25937,-2.7561 0.0202,-4 z m 18.99847,-61.0117 c -0.23835,-1.2375 -0.43337,-0.225 -0.43337,2.25 0,2.475 0.19502,3.4875 0.43337,2.25 0.23836,-1.2375 0.23836,-3.2625 0,-4.5 z m 82.68557,-42.3273 c 0.31401,-0.8183 -0.0568,-1.4227 -0.87299,-1.4227 -0.78041,0 -1.87761,-0.7875 -2.43821,-1.75 -0.85237,-1.4634 -1.02426,-1.2451 -1.04969,1.3333 -0.0167,1.6959 0.23858,3.3524 0.56736,3.6811 0.89012,0.8902 3.16994,-0.2167 3.79353,-1.8417 z m -2.70819,-12.6102 c -0.31922,-0.7977 -0.55618,-0.5608 -0.60416,0.6042 -0.0434,1.0541 0.19293,1.6448 0.52522,1.3125 0.33229,-0.3323 0.36781,-1.1948 0.0789,-1.9167 z m 2,-17 c -0.31922,-0.7977 -0.55618,-0.5608 -0.60416,0.6042 -0.0434,1.0541 0.19293,1.6448 0.52522,1.3125 0.33229,-0.3323 0.36781,-1.1948 0.0789,-1.9167 z m 1,-9 c -0.31922,-0.79773 -0.55618,-0.56078 -0.60416,0.60417 -0.0434,1.05416 0.19293,1.64479 0.52522,1.3125 0.33229,-0.33229 0.36781,-1.1948 0.0789,-1.91667 z m 1,-9 c -0.31922,-0.79773 -0.55618,-0.56078 -0.60416,0.60417 -0.0434,1.05416 0.19293,1.64479 0.52522,1.3125 0.33229,-0.33229 0.36781,-1.1948 0.0789,-1.91667 z m 1,-10 c -0.31922,-0.79773 -0.55618,-0.56078 -0.60416,0.60417 -0.0434,1.05416 0.19293,1.64479 0.52522,1.3125 0.33229,-0.33229 0.36781,-1.1948 0.0789,-1.91667 z m 0.97917,-12.0625 c -0.27741,-0.6875 -0.50439,-0.125 -0.50439,1.25 0,1.375 0.22698,1.9375 0.50439,1.25 0.27741,-0.6875 0.27741,-1.8125 0,-2.5 z m 1.02705,-13.5 c -0.25153,-0.9625 -0.45733,-0.175 -0.45733,1.75 0,1.925 0.2058,2.7125 0.45733,1.75 0.25152,-0.9625 0.25152,-2.5375 0,-3.5 z m 1.02692,-22 c -0.22912,-1.5125 -0.41659,-0.275 -0.41659,2.75 0,3.025 0.18747,4.2625 0.41659,2.75 0.22913,-1.5125 0.22913,-3.9875 0,-5.5 z m -78.03314,-16.4375 c -0.31922,-0.79773 -0.55618,-0.56078 -0.60416,0.60417 -0.0434,1.05416 0.19293,1.64479 0.52522,1.3125 0.33229,-0.33229 0.36781,-1.1948 0.0789,-1.91667 z m 34.04606,-32.41667 c -0.33229,-0.33229 -1.1948,-0.36781 -1.91667,-0.0789 -0.79773,0.31922 -0.56078,0.55618 0.60417,0.60416 1.05416,0.0434 1.64479,-0.19293 1.3125,-0.52522 z M 816.25,879.33772 c -0.6875,-0.27741 -1.8125,-0.27741 -2.5,0 -0.6875,0.27741 -0.125,0.50439 1.25,0.50439 1.375,0 1.9375,-0.22698 1.25,-0.50439 z m 289.4331,-16.52522 c -0.3192,-0.79773 -0.5562,-0.56078 -0.6042,0.60417 -0.043,1.05416 0.193,1.64479 0.5253,1.3125 0.3323,-0.33229 0.3678,-1.1948 0.079,-1.91667 z m -31.9214,-49.49958 c -0.9561,-0.25029 -2.7561,-0.25937 -4,-0.0202 -1.244,0.23919 -0.4617,0.44398 1.7383,0.45508 2.2,0.0111 3.2177,-0.18461 2.2617,-0.4349 z m -20.498,-1.01685 c -1.2299,-0.23736 -3.4799,-0.24351 -5,-0.0136 -1.52,0.22985 -0.5137,0.42406 2.2363,0.43157 2.75,0.008 3.9937,-0.18056 2.7637,-0.41792 z M 337.75,888.29427 c 1.2375,-0.23836 3.2625,-0.23836 4.5,0 1.2375,0.23835 0.225,0.43337 -2.25,0.43337 -2.475,0 -3.4875,-0.19502 -2.25,-0.43337 z m 186,0 c 1.2375,-0.23836 3.2625,-0.23836 4.5,0 1.2375,0.23835 0.225,0.43337 -2.25,0.43337 -2.475,0 -3.4875,-0.19502 -2.25,-0.43337 z m -199.08464,-2.26602 c -3.20905,-1.0253 -6.13405,-2.1978 -6.5,-2.60555 -0.36595,-0.40775 0.23464,-0.40532 1.33464,0.005 1.1,0.41071 5.15,1.58264 9,2.60427 3.85,1.02163 5.875,1.85808 4.5,1.85879 -1.375,7.1e-4 -5.12559,-0.8376 -8.33464,-1.86291 z m 212.83464,0.004 c 3.85,-1.02163 7.7875,-2.17 8.75,-2.55193 0.9625,-0.38193 1.75,-0.43935 1.75,-0.12761 0,0.82233 -12.82299,4.65712 -15.35534,4.59211 -1.17956,-0.0303 1.00534,-0.89094 4.85534,-1.91257 z m 11.58333,-3.40945 C 550.10612,881.6973 558,878.01132 558,878.45935 558,879.02779 550.45315,883 549.37317,883 c -0.38858,0 -0.519,-0.16969 -0.28984,-0.37708 z m -237.6422,-2.17809 c -1.83031,-1.46637 -1.7984,-1.48719 0.55887,-0.36454 3.06103,1.45781 3.62834,1.91971 2.3578,1.91971 -0.53655,0 -1.84905,-0.69982 -2.91667,-1.55517 z m -7.95448,-4.8176 c -2.74266,-1.85502 -5.87962,-4.44252 -6.97102,-5.75 -1.77059,-2.12114 -1.66287,-2.09446 1,0.24765 1.6414,1.44368 4.89687,3.86598 7.23437,5.38288 3.69782,2.39968 4.94506,3.49224 3.98665,3.49224 -0.14484,0 -2.50734,-1.51774 -5.25,-3.37277 z M 559.5,877.30034 c 0.55,-0.51945 3.025,-2.41518 5.5,-4.21272 l 4.5,-3.26825 -3.5,3.16 c -3.06575,2.76794 -9.10967,6.78573 -6.5,4.32097 z m 15.1236,-12.87126 c 2.74556,-3.33901 6.01513,-7.72651 7.26572,-9.75 1.25059,-2.02349 2.51385,-3.67908 2.80725,-3.67908 1.29821,0 -9.29598,14.46905 -12.88749,17.60112 -1.19758,1.04438 0.0689,-0.83303 2.81452,-4.17204 z M 288.92431,862.25 286.5,859.5 l 2.75,2.42431 c 2.57029,2.26589 3.20859,3.07569 2.42431,3.07569 -0.17912,0 -1.41662,-1.2375 -2.75,-2.75 z m -4.69225,-6 c -2.58892,-3.73899 -3.43047,-5.25 -2.92396,-5.25 0.23437,0 1.61731,1.8 3.0732,4 2.95891,4.47122 2.82982,5.55245 -0.14924,1.25 z M 586.08029,848 C 587.5381,844.93897 588,844.37166 588,845.6422 c 0,0.53655 -0.69982,1.84905 -1.55517,2.91667 -1.46637,1.83031 -1.48719,1.7984 -0.36454,-0.55887 z M 275.1107,837.86179 c -1.16088,-3.43757 -2.09057,-6.95026 -2.06596,-7.80596 0.0246,-0.85571 1.13097,1.80031 2.45858,5.90225 1.32762,4.10195 2.2573,7.61463 2.06597,7.80597 -0.19134,0.19133 -1.2977,-2.46468 -2.45859,-5.90226 z m 314.42254,2.52827 c 0.28195,-1.16047 1.16247,-4.08547 1.95671,-6.5 1.24833,-3.795 1.36482,-3.91564 0.85937,-0.89006 -0.32159,1.925 -1.20211,4.85 -1.95671,6.5 -0.7546,1.65 -1.14131,2.05052 -0.85937,0.89006 z M 593.19495,826.5 c 0.0204,-1.65 0.2445,-2.20394 0.49804,-1.23097 0.25354,0.97297 0.23687,2.32297 -0.0371,3 -0.27393,0.67703 -0.48137,-0.11903 -0.46099,-1.76903 z m -321,-1 c 0.0204,-1.65 0.2445,-2.20394 0.49804,-1.23097 0.25354,0.97297 0.23687,2.32297 -0.0371,3 -0.27393,0.67703 -0.48137,-0.11903 -0.46099,-1.76903 z m 322.29538,-76.5 0.01,-73.5 53.5,-0.013 53.5,-0.013 -53.24355,0.27171 -53.24356,0.27172 -0.26612,73.24131 -0.26611,73.24132 0.01,-73.5 z M 271.48004,727.5 c -5e-5,-52.25 0.1213,-73.77162 0.26968,-47.82582 0.14837,25.9458 0.14841,68.6958 9e-5,95 -0.14832,26.3042 -0.26971,5.07582 -0.26977,-47.17418 z m 0.57178,-97.85566 c -0.0799,-2.8622 2.94401,-13.79325 4.59725,-16.61832 0.8431,-1.4407 1.16483,-1.66671 0.74879,-0.52602 -0.4012,1.1 -1.75652,5.825 -3.01183,10.5 -1.25531,4.675 -2.30571,7.66496 -2.33421,6.64434 z m 5.95075,-20.16021 c 0.005,-1.79323 7.14031,-12.89837 11.81851,-18.3931 4.23402,-4.97302 13.78322,-12.8042 18.65681,-15.30022 3.05929,-1.56682 0.75551,0.34967 -6.64039,5.52407 -7.82644,5.47562 -14.15061,12.57665 -19.77963,22.20932 -2.23183,3.81923 -4.05671,6.5012 -4.0553,5.95993 z m 41.60786,-38.94036 c 1.71074,-0.78958 4.41074,-1.69173 6,-2.00476 2.47272,-0.48704 2.38466,-0.37119 -0.61043,0.80307 -1.925,0.75472 -4.625,1.65686 -6,2.00476 -1.8805,0.4758 -1.72923,0.2768 0.61043,-0.80307 z m 10.20207,-3.22688 c 0.72187,-0.28887 1.58438,-0.25335 1.91667,0.0789 0.33229,0.33229 -0.25834,0.56864 -1.3125,0.52522 -1.16495,-0.048 -1.4019,-0.28494 -0.60417,-0.60416 z m 4.4375,-1.00622 c 0.9625,-0.25152 2.5375,-0.25152 3.5,0 0.9625,0.25153 0.175,0.45733 -1.75,0.45733 -1.925,0 -2.7125,-0.2058 -1.75,-0.45733 z m 41.5,-1.06025 c 19.3875,-0.1518 51.1125,-0.1518 70.5,0 19.3875,0.1518 3.525,0.276 -35.25,0.276 -38.775,0 -54.6375,-0.1242 -35.25,-0.276 z M 481.47409,492.5 c 1e-4,-39.6 0.12411,-55.65439 0.27559,-35.67643 0.15148,19.97796 0.15141,52.37796 -1.7e-4,72 C 481.59794,548.44561 481.474,532.1 481.47409,492.5 Z m 322.97205,-38 c 4e-4,-17.6 0.13647,-24.65916 0.30237,-15.68703 0.1659,8.97214 0.16557,23.37214 -7.3e-4,32 -0.1663,8.62787 -0.30204,1.28703 -0.30164,-16.31297 z M 498,379.62244 c 0,-0.20765 0.7875,-0.99515 1.75,-1.75 1.58606,-1.24387 1.62143,-1.2085 0.37756,0.37756 C 498.82119,379.91575 498,380.44548 498,379.62244 Z M 781.96584,374.25 776.5,368.5 l 5.75,5.46584 c 5.34193,5.07794 6.20809,6.03416 5.46584,6.03416 -0.15629,0 -2.74379,-2.5875 -5.75,-5.75 z M 506,371.62244 c 0,-0.20765 0.7875,-0.99515 1.75,-1.75 1.58606,-1.24387 1.62143,-1.2085 0.37756,0.37756 C 506.82119,371.91575 506,372.44548 506,371.62244 Z m 90.25,-19.3722 c 25.7125,-0.14851 67.7875,-0.14851 93.5,0 25.7125,0.14851 4.675,0.27002 -46.75,0.27002 -51.425,0 -72.4625,-0.12151 -46.75,-0.27002 z m 866.3056,-148.8058 c -0.3765,-2.00684 -0.4846,-3.84881 -0.2401,-4.09325 0.2444,-0.24445 0.7525,1.19752 1.1289,3.20437 0.3765,2.00684 0.4846,3.84881 0.2401,4.09325 -0.2444,0.24445 -0.7525,-1.19752 -1.1289,-3.20437 z M 161.45401,203 c 2.0433,-10.40016 7.16636,-26.71297 8.09698,-25.78234 0.19561,0.19561 -0.7733,3.46589 -2.15313,7.26729 -1.37983,3.8014 -3.17097,10.05954 -3.98031,13.90699 -0.80933,3.84745 -1.73694,7.24572 -2.06135,7.55171 -0.32441,0.30599 -0.28039,-1.01865 0.0978,-2.94365 z m 1299.62489,-6.58333 c 0.048,-1.16495 0.285,-1.4019 0.6042,-0.60417 0.2889,0.72187 0.2534,1.58437 -0.079,1.91667 -0.3323,0.33229 -0.5687,-0.25834 -0.5253,-1.3125 z m -1,-4 c 0.048,-1.16495 0.285,-1.4019 0.6042,-0.60417 0.2889,0.72187 0.2534,1.58437 -0.079,1.91667 -0.3323,0.33229 -0.5687,-0.25834 -0.5253,-1.3125 z m -2.3646,-7.63096 c -0.9107,-2.84768 -1.4898,-5.34358 -1.2869,-5.54644 0.2029,-0.20286 1.1355,1.93947 2.0726,4.76073 0.9371,2.82126 1.5162,5.31716 1.2869,5.54644 -0.2293,0.22928 -1.162,-1.91304 -2.0726,-4.76073 z M 170,175.62683 C 170,174.54685 173.97221,167 174.54065,167 c 0.275,0 -0.46446,1.9125 -1.64325,4.25 -2.31816,4.59686 -2.8974,5.47186 -2.8974,4.37683 z m 1282.2016,-4.14877 C 1451.005,169.01513 1450.236,167 1450.4927,167 c 0.6774,0 4.7181,8.12258 4.2657,8.57497 -0.2097,0.20963 -1.3602,-1.63398 -2.5568,-4.09691 z M 176.43991,163.5 c 7.32847,-12.16812 17.70562,-22.89254 30.44126,-31.45997 7.09462,-4.77265 20.99412,-11.55578 25.61883,-12.50231 1.65,-0.33771 0.29705,0.46638 -3.00656,1.78685 -20.7957,8.31218 -37.02415,20.58203 -48.0444,36.32492 -5.2974,7.56757 -7.81236,10.50496 -5.00913,5.85051 z m 1268.02059,-4.66045 c -5.5287,-8.09159 -15.3193,-18.27029 -21.9846,-22.85612 -2.4617,-1.69373 -4.4759,-3.31354 -4.4759,-3.59956 0,-0.80419 5.9009,3.47775 12.1604,8.82416 5.0834,4.34176 13.6659,14.66164 18.3313,22.04197 3.5696,5.64697 0.6823,2.48804 -4.0312,-4.41045 z M 1411,128.70587 c -3.025,-1.7499 -9.1,-4.682 -13.5,-6.51578 -4.4,-1.83378 -6.65,-3.04557 -5,-2.69287 3.5664,0.76236 20.1464,8.58433 23,10.85072 3.0288,2.40555 1.5885,1.87997 -4.5,-1.64207 z M 236.8125,118.31689 c 0.72187,-0.28887 1.58437,-0.25335 1.91667,0.0789 0.33229,0.3323 -0.25834,0.56864 -1.3125,0.52522 -1.16495,-0.048 -1.4019,-0.28494 -0.60417,-0.60416 z m 1150,0 c 0.7219,-0.28887 1.5844,-0.25335 1.9167,0.0789 0.3323,0.3323 -0.2584,0.56864 -1.3125,0.52522 -1.165,-0.048 -1.4019,-0.28494 -0.6042,-0.60416 z m -1146,-1 c 0.72187,-0.28887 1.58437,-0.25335 1.91667,0.0789 0.33229,0.3323 -0.25834,0.56864 -1.3125,0.52522 -1.16495,-0.048 -1.4019,-0.28494 -0.60417,-0.60416 z m 1142,0 c 0.7219,-0.28887 1.5844,-0.25335 1.9167,0.0789 0.3323,0.3323 -0.2584,0.56864 -1.3125,0.52522 -1.165,-0.048 -1.4019,-0.28494 -0.6042,-0.60416 z M 246,116 c 3.41917,-1.09501 6.04822,-1.09501 3.5,0 -1.1,0.47269 -2.9,0.8462 -4,0.83003 -1.60779,-0.0236 -1.50973,-0.1864 0.5,-0.83003 z m 1129.5,0 c -2.5482,-1.09501 0.081,-1.09501 3.5,0 2.0097,0.64363 2.1078,0.8064 0.5,0.83003 -1.1,0.0162 -2.9,-0.35734 -4,-0.83003 z M 254.34549,114.76531 c 1.453,-0.92464 1113.53691,-0.86985 1115.86721,0.055 0.942,0.37384 -250.0026,0.67971 -557.65451,0.67971 -307.65197,0 -558.84768,-0.33061 -558.2127,-0.73469 z"
         id="path431" />
      <path
         style="fill:#000100"
         d="m 463,1296.1176 c -5.32425,-1.7377 -10.82149,-5.1503 -13.84654,-8.5956 -7.08253,-8.0666 -9.65766,-16.5431 -12.61409,-41.522 -2.28845,-19.3351 -6.63658,-33.7153 -15.26961,-50.5 -6.66244,-12.9534 -10.52618,-16.6885 -14.54148,-14.0576 -3.56164,2.3337 -15.98281,17.1942 -32.22828,38.5576 -28.67148,37.704 -37.4507,46 -48.67943,46 -5.64005,0 -12.68379,-3.2271 -25.64905,-11.751 -13.75525,-9.0434 -18.05163,-12.7178 -19.82048,-16.9513 -1.61967,-3.8764 -1.82051,-21.5492 -0.33398,-29.3876 2.19556,-11.5772 7.58255,-18.395 42.59607,-53.9101 C 358.8573,1117.2367 364,1110.9989 364,1103.8001 c 0,-5.7603 -8.93996,-21.1562 -34.14342,-58.8001 -26.70827,-39.8914 -31.87571,-52.24689 -28.86525,-69.01747 3.49242,-19.45549 12.52315,-25.44774 32.50867,-21.57079 12.01168,2.33012 22.85669,8.09402 31.74279,16.87062 9.05814,8.94653 16.159,19.69999 26.22685,39.71764 13.39566,26.6343 19.35004,36 22.88745,36 2.38411,0 15.59543,-11.1718 29.65131,-25.0738 61.00808,-60.34022 82.29134,-79.9775 92.11026,-84.98674 5.79313,-2.95543 12.81585,-1.87814 23.8026,3.65134 14.79165,7.44444 25.93807,18.39671 32.47035,31.90478 4.07589,8.42853 5.04299,13.76332 3.15639,17.41159 -2.21131,4.2762 -17.94731,19.80163 -37.6745,37.17043 -44.22351,38.9364 -86.2886,82.7237 -94.45582,98.3229 l -2.75983,5.2712 3.08467,6.5918 c 1.69657,3.6255 4.86086,9.2118 7.03174,12.4141 C 493.51513,1183.2229 514,1238.1515 514,1265.584 c 0,12.9628 -5.42432,20.3852 -19.94806,27.2962 -7.00961,3.3355 -8.30599,3.61 -18.05194,3.8234 -5.775,0.1265 -11.625,-0.1372 -13,-0.586 z m 534.5,-21.9255 c -7.25456,-2.5283 -16.56321,-9.2442 -26.44042,-19.0759 -13.23855,-13.1776 -13.9073,-15.7898 -9.53083,-37.2287 1.39082,-6.8131 5.65415,-31.0625 9.47408,-53.8875 9.88551,-59.0683 13.18388,-76.8263 18.48113,-99.5 11.83784,-50.6694 16.90654,-83.36869 13.14664,-84.81152 -5.26975,-2.02218 -31.63001,26.50152 -63.21809,68.40642 -18.48861,24.5271 -25.35047,32.7865 -53.92229,64.9051 -23.29885,26.191 -34.09509,38.9411 -43.81069,51.7394 -8.13416,10.715 -16.41044,19.0215 -21.73754,21.8168 -5.29041,2.7761 -12.40634,2.4524 -19.17682,-0.8723 -6.46422,-3.1743 -24.61481,-19.8613 -30.99392,-28.4946 C 764.42597,1149.9551 763,1146.1234 763,1138.9944 c 0,-6.2469 2.13405,-12.7232 10.37798,-31.4944 4.19283,-9.5469 8.62202,-24.439 8.62202,-28.9894 0,-3.6977 -1.94025,-5.8545 -4.41312,-4.9056 -2.44539,0.9384 -18.51261,19.2194 -28.03253,31.895 -9.56893,12.7408 -21.15795,29.4213 -38.55951,55.5 -15.46539,23.1771 -21.92354,31.97 -27.83585,37.8989 -18.9083,18.9614 -33.87285,17.0587 -57.50535,-7.3115 -12.51067,-12.9012 -15.05638,-20.6594 -10.23484,-31.191 3.96687,-8.6648 8.38937,-13.9309 29.72616,-35.3964 26.54461,-26.7048 44.88617,-48.3532 69.52807,-82.0634 13.27854,-18.1652 64.405,-95.07171 69.42804,-104.4366 4.31142,-8.03814 6.34477,-15.24699 7.89777,-28 1.44006,-11.82559 2.47516,-15.05391 6.87721,-21.44902 4.71185,-6.84518 8.79432,-9.06141 16.60835,-9.01609 26.39312,0.15307 46.51514,13.50872 51.9835,34.50318 2.9806,11.4433 1.53008,41.50151 -4.55309,94.35063 -1.9472,16.9167 -2.6918,26.7343 -2.07445,27.3517 0.61735,0.6173 1.84955,-0.061 3.4329,-1.8887 1.35845,-1.5684 30.90056,-35.39729 65.64915,-75.17523 70.36409,-80.54826 76.05659,-87.24454 86.75939,-102.05791 11.0563,-15.30262 15.1992,-22.42941 19.8338,-34.11856 l 4.1631,-10.5 10.9106,0.31724 c 6.0009,0.17449 16.6445,0.72595 23.6525,1.22548 17.4185,1.2416 19.4367,2.32291 24.6645,13.21491 8.9455,18.63786 8.0755,35.50031 -3.9079,75.74237 -19.0661,64.02712 -21.8379,74.8763 -31.5529,123.5 -4.0659,20.35 -9.6349,48.025 -12.3757,61.5 -9.1867,45.1672 -13.9603,76.5235 -18.5731,122 -2.6913,26.5339 -4.253,36.072 -7.4071,45.2397 -3.7366,10.8605 -7.9889,16.5692 -14.3075,19.2078 -4.7371,1.9781 -8.0431,1.919 -14.2821,-0.2554 z"
         id="path429" />
    </g>
  </g>
</svg>
